<?xml version="1.0" standalone="no"?>
<!DOCTYPE svg PUBLIC "-//W3C//DTD SVG 1.1//EN" "http://www.w3.org/Graphics/SVG/1.1/DTD/svg11.dtd" >
<svg xmlns="http://www.w3.org/2000/svg" xmlns:xlink="http://www.w3.org/1999/xlink" version="1.1">
<metadata>
Created by FontForge 20170731 at Wed Sep  9 10:01:39 2020
 By Aleksey,,,
Copyright (c) 2004 The Hoefler Type Foundry, Inc., dba Hoefler &#38; Frere-Jones. All Rights Reserved.
</metadata>
<defs>
<font id="GothamRounded-LightItalic" horiz-adv-x="1024" >
  <font-face 
    font-family="Gotham Rounded Light"
    font-weight="300"
    font-style="italic"
    font-stretch="normal"
    units-per-em="2048"
    panose-1="0 0 0 0 0 0 0 0 0 0"
    ascent="1638"
    descent="-410"
    x-height="1044"
    cap-height="1442"
    bbox="-264 -459 2464 2083"
    underline-thickness="102"
    underline-position="-307"
    slope="-15"
    unicode-range="U+0020-2212"
  />
<missing-glyph 
d="M0 -410v2048h1024v-2048h-1024zM145 1536l367 -799l367 799h-734zM102 -156l353 770l-353 770v-1540zM922 1384l-353 -770l353 -770v1540zM512 492l-367 -799h734z" />
    <glyph glyph-name="f_f" unicode="ff" horiz-adv-x="1482" 
d="M469 952l-246 -913q-12 -47 -55 -47q-23 0 -35 16t-6 41l242 903h-99q-20 0 -33.5 13.5t-13.5 33.5q0 19 14 32t33 13h123l41 152q79 299 334 299q87 0 168 -31q41 -16 41 -51q0 -24 -19 -37t-47 -2q-77 31 -147 31q-178 0 -236 -231l-34 -130h323q20 0 33.5 -13.5
t13.5 -33.5q0 -19 -14 -32t-33 -13h-348zM1210 952l-245 -913q-12 -47 -56 -47q-23 0 -35 16t-6 41l242 903h-98q-20 0 -33.5 13.5t-13.5 33.5q0 19 14 32t33 13h123l41 152q79 299 333 299q87 0 168 -31q41 -16 41 -51q0 -24 -18.5 -37t-46.5 -2q-77 31 -148 31
q-177 0 -235 -231l-35 -130h324q20 0 33.5 -13.5t13.5 -33.5q0 -19 -14 -32t-33 -13h-349z" />
    <glyph glyph-name="fi" unicode="fi" horiz-adv-x="1253" 
d="M469 952l-246 -913q-12 -47 -55 -47q-23 0 -35 16t-6 41l242 903h-99q-20 0 -33.5 13.5t-13.5 33.5q0 19 14 32t33 13h123l41 152q79 299 334 299q87 0 168 -31q41 -16 41 -51q0 -24 -19 -37t-47 -2q-77 31 -147 31q-178 0 -236 -231l-34 -130h323q20 0 33.5 -13.5
t13.5 -33.5q0 -19 -14 -32t-33 -13h-348zM1284 1354q-12 -47 -70 -47q-28 0 -43.5 16t-9.5 41l15 53q12 47 69 47q28 0 43.5 -16t9.5 -41zM1174 995l-256 -956q-12 -47 -56 -47q-23 0 -35 16t-6 41l256 957q12 47 56 47q23 0 35 -16.5t6 -41.5z" />
    <glyph glyph-name="fl" unicode="fl" horiz-adv-x="1253" 
d="M469 952l-246 -913q-12 -47 -55 -47q-23 0 -35 16t-6 41l242 903h-99q-20 0 -33.5 13.5t-13.5 33.5q0 19 14 32t33 13h123l41 152q79 299 334 299q87 0 168 -31q41 -16 41 -51q0 -24 -19 -37t-47 -2q-77 31 -147 31q-178 0 -236 -231l-34 -130h323q20 0 33.5 -13.5
t13.5 -33.5q0 -19 -14 -32t-33 -13h-348zM1294 1446l-376 -1407q-12 -47 -56 -47q-23 0 -35 16t-6 41l377 1407q12 47 55 47q23 0 35 -16t6 -41z" />
    <glyph glyph-name="f_f_i" unicode="ffi" horiz-adv-x="1994" 
d="M469 952l-246 -913q-12 -47 -55 -47q-23 0 -35 16t-6 41l242 903h-99q-20 0 -33.5 13.5t-13.5 33.5q0 19 14 32t33 13h123l41 152q79 299 334 299q87 0 168 -31q41 -16 41 -51q0 -24 -19 -37t-47 -2q-77 31 -147 31q-178 0 -236 -231l-34 -130h323q20 0 33.5 -13.5
t13.5 -33.5q0 -19 -14 -32t-33 -13h-348zM1210 952l-245 -913q-12 -47 -56 -47q-23 0 -35 16t-6 41l242 903h-98q-20 0 -33.5 13.5t-13.5 33.5q0 19 14 32t33 13h123l41 152q79 299 333 299q87 0 168 -31q41 -16 41 -51q0 -24 -18.5 -37t-46.5 -2q-77 31 -148 31
q-177 0 -235 -231l-35 -130h324q20 0 33.5 -13.5t13.5 -33.5q0 -19 -14 -32t-33 -13h-349zM2025 1354q-12 -47 -69 -47q-28 0 -43.5 16t-9.5 41l14 53q12 47 70 47q28 0 43.5 -16t9.5 -41zM1915 995l-256 -956q-12 -47 -55 -47q-23 0 -35 16t-6 41l256 957q12 47 55 47
q23 0 35 -16.5t6 -41.5z" />
    <glyph glyph-name="f_f_l" unicode="ffl" horiz-adv-x="1994" 
d="M469 952l-246 -913q-12 -47 -55 -47q-23 0 -35 16t-6 41l242 903h-99q-20 0 -33.5 13.5t-13.5 33.5q0 19 14 32t33 13h123l41 152q79 299 334 299q87 0 168 -31q41 -16 41 -51q0 -24 -19 -37t-47 -2q-77 31 -147 31q-178 0 -236 -231l-34 -130h323q20 0 33.5 -13.5
t13.5 -33.5q0 -19 -14 -32t-33 -13h-348zM1210 952l-245 -913q-12 -47 -56 -47q-23 0 -35 16t-6 41l242 903h-98q-20 0 -33.5 13.5t-13.5 33.5q0 19 14 32t33 13h123l41 152q79 299 333 299q87 0 168 -31q41 -16 41 -51q0 -24 -18.5 -37t-46.5 -2q-77 31 -148 31
q-177 0 -235 -231l-35 -130h324q20 0 33.5 -13.5t13.5 -33.5q0 -19 -14 -32t-33 -13h-349zM2036 1446l-377 -1407q-12 -47 -55 -47q-23 0 -35 16t-6 41l376 1407q12 47 56 47q23 0 35 -16t6 -41z" />
    <glyph glyph-name=".notdef" 
d="M0 -410v2048h1024v-2048h-1024zM145 1536l367 -799l367 799h-734zM102 -156l353 770l-353 770v-1540zM922 1384l-353 -770l353 -770v1540zM512 492l-367 -799h734z" />
    <glyph glyph-name=".null" horiz-adv-x="0" 
 />
    <glyph glyph-name="nonmarkingreturn" horiz-adv-x="682" 
 />
    <glyph glyph-name="space" unicode=" " horiz-adv-x="614" 
 />
    <glyph glyph-name="exclam" unicode="!" horiz-adv-x="514" 
d="M549 1382l-297 -987q-9 -26 -31 -26q-33 0 -24 41l233 985q9 45 59 45h17q26 0 38 -15.5t5 -42.5zM215 119l-20 -78q-12 -49 -74 -49q-30 0 -47 17.5t-11 43.5l21 76q16 53 74 53q29 0 46 -18.5t11 -44.5z" />
    <glyph glyph-name="quotedbl" unicode="&#x22;" horiz-adv-x="839" 
d="M276 932q-14 -27 -34 -27q-36 0 -23 41l164 449q15 43 68 43h12q30 0 40.5 -19t-5.5 -51zM645 932q-13 -27 -35 -27q-35 0 -22 41l164 449q15 43 67 43h12q30 0 40.5 -19t-5.5 -51z" />
    <glyph glyph-name="numbersign" unicode="#" horiz-adv-x="1388" 
d="M453 479h421l170 484h-423zM768 1386l-115 -327h424l119 340q15 43 55 43q26 0 36.5 -16t2.5 -40l-114 -327h194q20 0 34.5 -13.5t14.5 -33.5t-14.5 -34.5t-34.5 -14.5h-227l-170 -484h219q20 0 34.5 -13.5t14.5 -33.5t-14.5 -34.5t-34.5 -14.5h-252l-121 -348
q-15 -43 -55 -43q-26 0 -36.5 15.5t-2.5 39.5l117 336h-424l-121 -348q-15 -43 -55 -43q-26 0 -36.5 15.5t-2.5 39.5l116 336h-194q-20 0 -34.5 13.5t-14.5 33.5t14.5 34.5t34.5 14.5h227l170 484h-219q-20 0 -34.5 13.5t-14.5 33.5t14.5 34.5t34.5 14.5h252l119 340
q15 43 55 43q26 0 36.5 -16t2.5 -40z" />
    <glyph glyph-name="dollar" unicode="$" horiz-adv-x="1265" 
d="M401 -154l45 164q-251 41 -417 207q-23 23 -23 47q0 22 14.5 35.5t36.5 13.5q21 0 39 -18q151 -157 385 -191l158 590q-200 75 -283.5 154t-83.5 203q0 164 136.5 273.5t339.5 109.5q32 0 90 -4l22 83q12 48 55 48q24 0 36.5 -17t6.5 -41l-24 -88q187 -38 323 -155
q23 -20 23 -46q0 -22 -13.5 -36.5t-35.5 -14.5q-21 0 -41 17q-116 105 -291 143l-149 -557q188 -68 271 -151.5t83 -208.5q0 -176 -145.5 -291t-376.5 -115h-39l-43 -164q-12 -47 -56 -47q-24 0 -36.5 16.5t-6.5 40.5zM569 96q185 -6 305.5 78t120.5 221q0 87 -61 149.5
t-211 121.5zM666 797l145 536q-178 24 -304 -58t-126 -214q0 -90 64.5 -147.5t220.5 -116.5z" />
    <glyph glyph-name="percent" unicode="%" horiz-adv-x="1681" 
d="M471 709q-123 0 -202 84.5t-79 207.5q0 114 51.5 217t143 167.5t197.5 64.5q123 0 201.5 -84.5t78.5 -208.5q0 -114 -51.5 -217t-142.5 -167t-197 -64zM1204 -14q-123 0 -201.5 84.5t-78.5 208.5q0 114 51.5 217t142.5 167t197 64q123 0 201.5 -84.5t78.5 -208.5
q0 -114 -51.5 -217t-142.5 -167t-197 -64zM479 797q76 0 142.5 52.5t103.5 133t37 164.5q0 98 -50 156.5t-139 58.5q-76 0 -142 -52.5t-103 -133t-37 -164.5q0 -98 49.5 -156.5t138.5 -58.5zM1212 74q76 0 142.5 52.5t103.5 133t37 164.5q0 98 -49.5 156.5t-138.5 58.5
q-76 0 -142.5 -52.5t-103.5 -133t-37 -164.5q0 -98 49.5 -156.5t138.5 -58.5zM1581 1360l-1300 -1335q-33 -33 -56 -33q-18 0 -29.5 11.5t-11.5 29.5q0 20 23 43l1300 1335q33 33 56 33q18 0 29.5 -11.5t11.5 -29.5q0 -20 -23 -43z" />
    <glyph glyph-name="ampersand" unicode="&#x26;" horiz-adv-x="1413" 
d="M668 842q409 106 409 315q0 94 -64 152.5t-171 58.5q-109 0 -189 -78.5t-80 -189.5q0 -63 22 -122t73 -136zM485 74q239 0 457 215l-326 461q-223 -53 -333.5 -159.5t-110.5 -240.5q0 -127 85 -201.5t228 -74.5zM1143 12l-146 207q-125 -124 -246 -181.5t-278 -57.5
q-176 0 -293 96.5t-117 261.5q0 173 127.5 299t374.5 188q-96 155 -96 273q0 153 111 256.5t266 103.5q152 0 244 -81.5t92 -215.5q0 -61 -23 -113.5t-74.5 -104t-143.5 -96t-222 -79.5l291 -412q106 119 213 299q23 39 51 39q18 0 30.5 -11.5t12.5 -31.5q0 -19 -12 -37
q-126 -202 -238 -327l156 -221q16 -21 16 -41t-12.5 -32.5t-34.5 -12.5q-28 0 -49 32z" />
    <glyph glyph-name="quotesingle" unicode="'" horiz-adv-x="471" 
d="M276 932q-14 -27 -34 -27q-36 0 -23 41l164 449q15 43 68 43h12q30 0 40.5 -19t-5.5 -51z" />
    <glyph glyph-name="parenleft" unicode="(" horiz-adv-x="880" 
d="M596 -207q16 -19 16 -35q0 -17 -12 -28t-29 -11q-19 0 -36 17q-73 69 -128 138.5t-103.5 157t-74.5 192.5t-26 222q0 312 198.5 581t573.5 429q20 8 33 8q17 0 29 -11t12 -28q0 -29 -29 -41q-343 -150 -527 -397t-184 -538q0 -89 16.5 -171.5t41.5 -146.5t65 -128
t77 -110.5t87 -99.5z" />
    <glyph glyph-name="parenright" unicode=")" horiz-adv-x="880" 
d="M322 1391q-17 20 -17 34q0 17 12 28t29 11q21 0 37 -16q73 -69 128 -138.5t103.5 -157.5t74.5 -193t26 -222q0 -312 -198.5 -580.5t-573.5 -428.5q-23 -9 -33 -9q-17 0 -29 11t-12 28q0 29 29 41q342 150 526 397t184 539q0 110 -22.5 207.5t-66.5 178.5t-89 141.5
t-108 128.5z" />
    <glyph glyph-name="asterisk" unicode="*" horiz-adv-x="880" 
d="M602 1087l-41 -217q-5 -36 -41 -36q-23 0 -34.5 15.5t-4.5 37.5l74 213l-211 -74q-15 -6 -29 -6q-16 0 -27.5 11t-11.5 28q0 39 41 45l230 43l-176 147q-21 18 -21 39q0 18 10 29.5t27 11.5q24 0 39 -18l152 -174l40 213q10 43 46 43q23 0 32.5 -16t1.5 -40l-73 -213
l209 74q15 6 30 6t25 -12.5t10 -28.5q0 -36 -39 -43l-227 -43l172 -145q24 -21 24 -41q0 -18 -12 -29.5t-26 -11.5q-21 0 -39 20z" />
    <glyph glyph-name="plus" unicode="+" horiz-adv-x="1269" 
d="M727 672l-109 -400q-14 -49 -57 -49q-25 0 -37 18.5t-6 41.5l107 389h-392q-20 0 -34.5 14.5t-14.5 34.5t14.5 34.5t34.5 14.5h418l107 401q13 48 57 48q25 0 37 -17.5t6 -40.5l-104 -391h391q20 0 34.5 -13.5t14.5 -33.5t-14.5 -35.5t-34.5 -15.5h-418z" />
    <glyph glyph-name="comma" unicode="," horiz-adv-x="473" 
d="M-61 -162q65 28 99 65.5t46 96.5q-20 2 -33 18t-6 43l18 68q16 53 74 53q30 0 47.5 -20t10.5 -47l-25 -92q-28 -104 -82 -158q-49 -49 -131 -76q-17 -6 -28 1.5t-11 21.5q0 17 21 26z" />
    <glyph glyph-name="hyphen" unicode="-" horiz-adv-x="837" 
d="M668 551h-453q-23 0 -40 17t-17 40t17 40.5t40 17.5h453q23 0 40 -17.5t17 -40.5t-17 -40t-40 -17z" />
    <glyph glyph-name="period" unicode="." horiz-adv-x="473" 
d="M195 119l-21 -74q-16 -53 -74 -53q-29 0 -46 18.5t-11 44.5l20 74q16 53 74 53q29 0 46.5 -18.5t11.5 -44.5z" />
    <glyph glyph-name="slash" unicode="/" 
d="M-190 -188l1392 1802q24 31 49 31q18 0 29.5 -11.5t11.5 -29.5q0 -16 -20 -43l-1393 -1803q-23 -30 -49 -30q-18 0 -29.5 11.5t-11.5 29.5q0 15 21 43z" />
    <glyph glyph-name="zero" unicode="0" horiz-adv-x="1452" 
d="M649 -25q-153 0 -263.5 71t-164 190.5t-53.5 275.5q0 174 56.5 344.5t152.5 303.5t235 215.5t293 82.5q229 0 355 -149t126 -387q0 -174 -56.5 -345t-152.5 -304t-235 -215.5t-293 -82.5zM655 72q122 0 238 74t199 193t133.5 273.5t50.5 309.5q0 192 -98.5 316
t-278.5 124q-98 0 -193 -47.5t-171 -131t-134 -190.5t-90 -232t-32 -249q0 -192 98 -316t278 -124z" />
    <glyph glyph-name="one" unicode="1" horiz-adv-x="684" 
d="M670 1391l-363 -1352q-12 -47 -57 -47q-24 0 -38 16.5t-7 44.5l342 1274l-244 -78q-18 -6 -33 -6q-18 0 -29.5 13t-11.5 32q0 35 37 47l295 99q40 14 70 14h2q52 0 37 -57z" />
    <glyph glyph-name="two" unicode="2" horiz-adv-x="1204" 
d="M930 0h-914q-23 0 -37 11t-14 32q0 26 25 45l846 657q131 102 191 185.5t60 179.5q0 109 -82 178.5t-225 69.5q-197 0 -381 -176q-27 -23 -47 -23t-33.5 12.5t-13.5 32.5q0 24 23 47q108 100 213 151.5t243 51.5q183 0 298.5 -95t115.5 -247q0 -82 -38 -158t-98.5 -138
t-160.5 -140l-741 -574h770q22 0 36.5 -14.5t14.5 -36.5t-14.5 -36.5t-36.5 -14.5z" />
    <glyph glyph-name="three" unicode="3" horiz-adv-x="1241" 
d="M43 213q-12 21 -12 43q0 21 14 35t35 14q26 0 45 -31q127 -202 393 -202q190 0 315 101.5t125 258.5q0 135 -107 204t-294 69h-31q-49 0 -49 36q0 19 19 35l618 557h-708q-22 0 -37 14t-15 35q0 22 15 37t37 15h841q43 0 43 -37q0 -27 -26 -49l-617 -557q117 -5 211 -45
t153.5 -119.5t59.5 -186.5q0 -133 -77 -240.5t-204.5 -166t-277.5 -58.5q-164 0 -282.5 62.5t-186.5 175.5z" />
    <glyph glyph-name="four" unicode="4" horiz-adv-x="1320" 
d="M203 442h671l224 832zM954 350l-84 -311q-12 -47 -57 -47q-23 0 -36.5 16.5t-6.5 44.5l80 297h-748q-57 0 -57 41q0 24 29 53l1052 979q32 29 66 29q26 0 37.5 -18t3.5 -43l-254 -949h180q19 0 33 -12.5t14 -32.5t-14 -33.5t-33 -13.5h-205z" />
    <glyph glyph-name="five" unicode="5" horiz-adv-x="1230" 
d="M68 182q-23 26 -23 54q0 19 14 33t35 14q29 0 49 -27q139 -188 379 -188q102 0 190 33.5t147 89t92.5 128t33.5 150.5q0 144 -96.5 225.5t-247.5 81.5q-149 0 -297 -71q-41 -18 -70 2q-32 22 -16 75l197 602q16 50 59 50h672q22 0 36.5 -15t14.5 -37t-14.5 -36.5
t-36.5 -14.5h-649l-177 -526q46 26 132 46.5t149 20.5q208 0 331.5 -107.5t123.5 -291.5q0 -80 -26.5 -154.5t-77.5 -136.5t-121 -108.5t-161.5 -72.5t-193.5 -26q-151 0 -258 53.5t-190 153.5z" />
    <glyph glyph-name="six" unicode="6" horiz-adv-x="1310" 
d="M1300 1305q23 -23 23 -48q0 -22 -14.5 -36.5t-34.5 -14.5q-22 0 -41 19q-140 137 -324 137q-202 0 -370 -168q-100 -100 -170 -248.5t-80 -296.5q71 106 185 174t261 68q106 0 194 -34.5t145 -92.5t88.5 -133t31.5 -158q0 -99 -41.5 -190t-112.5 -159t-173.5 -108.5
t-217.5 -40.5q-102 0 -190.5 35t-149.5 96q-139 139 -139 396q0 229 79 425.5t208 325.5q205 205 458 205q228 0 385 -153zM655 70q122 0 221 56t153 148t54 199q0 59 -21.5 114.5t-63.5 102t-111.5 75t-157.5 28.5q-96 0 -179.5 -33t-139 -86.5t-87.5 -122t-32 -139.5
q0 -148 94 -242q100 -100 270 -100z" />
    <glyph glyph-name="seven" unicode="7" horiz-adv-x="1183" 
d="M1251 1343l-944 -1314q-29 -37 -59 -37q-45 0 -45 41q0 20 20 49l905 1249h-766q-22 0 -36.5 14.5t-14.5 36.5t14.5 37t36.5 15h871q43 0 43 -37q0 -19 -25 -54z" />
    <glyph glyph-name="eight" unicode="8" horiz-adv-x="1312" 
d="M604 -20q-231 0 -376.5 108.5t-145.5 265.5q0 166 122.5 271.5t315.5 134.5q-95 34 -157 114.5t-62 190.5q0 166 147.5 277.5t362.5 111.5q207 0 341 -103t134 -264q0 -144 -106 -243.5t-265 -128.5q104 -37 178 -123t74 -201q0 -118 -74 -212.5t-202.5 -146.5
t-286.5 -52zM768 778q191 0 299.5 90.5t108.5 212.5t-102 199.5t-263 77.5q-179 0 -289 -85.5t-110 -215.5q0 -120 99.5 -199.5t256.5 -79.5zM610 76q201 0 324 89t123 230q0 122 -114 208.5t-300 86.5q-204 0 -327 -94.5t-123 -228.5q0 -129 114 -210t303 -81z" />
    <glyph glyph-name="nine" unicode="9" horiz-adv-x="1310" 
d="M498 -27q-225 0 -398 166q-22 22 -22 47q0 22 14.5 37t34.5 15q22 0 41 -19q143 -149 336 -149q200 0 368 168q101 99 169.5 244t80.5 294q-33 -49 -73.5 -90.5t-95.5 -79.5t-127.5 -60t-153.5 -22q-106 0 -194 35t-145 94.5t-88 136t-30 160.5q1 100 43 192.5
t113.5 161.5t174.5 110.5t218 41.5q102 0 189.5 -35t148.5 -96q139 -139 139 -395q0 -229 -79 -426t-208 -326q-205 -205 -456 -205zM686 623q92 0 174.5 34t138.5 90t88.5 128.5t32.5 148.5q0 142 -94 236q-102 102 -270 102q-122 0 -221 -57.5t-153.5 -151.5t-55.5 -203
q-1 -61 20 -118t63 -104.5t114 -76t163 -28.5z" />
    <glyph glyph-name="colon" unicode=":" horiz-adv-x="493" 
d="M205 119l-21 -74q-16 -53 -73 -53q-29 0 -46.5 18.5t-11.5 44.5l21 74q16 53 73 53q29 0 46.5 -18.5t11.5 -44.5zM438 989l-20 -74q-16 -53 -74 -53q-29 0 -46 19t-11 45l20 73q16 54 74 54q29 0 46 -19t11 -45z" />
    <glyph glyph-name="semicolon" unicode=";" horiz-adv-x="493" 
d="M-51 -162q65 28 99 65.5t46 96.5q-20 2 -33 18t-6 43l19 68q16 53 73 53q30 0 47.5 -20t10.5 -47l-25 -92q-28 -104 -82 -158q-49 -49 -131 -76q-17 -6 -28 1.5t-11 21.5q0 17 21 26zM438 989l-20 -74q-16 -53 -74 -53q-29 0 -46 19t-11 45l20 73q16 54 74 54
q29 0 46 -19t11 -45z" />
    <glyph glyph-name="less" unicode="&#x3c;" horiz-adv-x="1269" 
d="M227 778l953 434q26 13 47 13q19 0 30 -13.5t11 -31.5q0 -35 -39 -52l-924 -415l680 -408q31 -17 31 -47q0 -20 -13.5 -34.5t-33.5 -14.5q-19 0 -39 12l-719 432q-39 23 -39 56v2q0 45 55 67z" />
    <glyph glyph-name="equal" unicode="=" horiz-adv-x="1269" 
d="M328 899q-22 0 -38 15t-16 36q0 22 16 38t38 16h839q22 0 38 -16t16 -38q0 -21 -16 -36t-38 -15h-839zM205 438q-22 0 -37.5 14.5t-15.5 36.5t15.5 38t37.5 16h839q22 0 38 -16t16 -38q0 -21 -16 -36t-38 -15h-839z" />
    <glyph glyph-name="greater" unicode="&#x3e;" horiz-adv-x="1269" 
d="M1147 664l-952 -435q-24 -12 -48 -12q-19 0 -30 13.5t-11 31.5q0 34 39 51l924 416l-680 408q-31 17 -31 47q0 20 14 34.5t34 14.5q18 0 38 -12l719 -433q39 -23 39 -55v-2q0 -45 -55 -67z" />
    <glyph glyph-name="question" unicode="?" horiz-adv-x="1093" 
d="M295 1198q-24 -20 -43 -20q-20 0 -33.5 13t-13.5 32q0 21 16 37q200 192 461 192q188 0 300 -100t112 -258q0 -99 -43.5 -181t-119.5 -138t-172 -92t-208 -52l-80 -234q-10 -30 -35 -30h-2q-16 0 -25.5 12t-5.5 33l50 258q6 44 49 49q218 23 350.5 120t132.5 253
q0 125 -88 194.5t-223 69.5q-202 0 -379 -158zM428 119l-20 -78q-12 -49 -74 -49q-30 0 -47 17.5t-11 43.5l21 76q16 53 74 53q29 0 46 -18.5t11 -44.5z" />
    <glyph glyph-name="at" unicode="@" horiz-adv-x="2007" 
d="M911 242q102 0 200 60.5t160 159.5t62 204q0 117 -71 191.5t-191 74.5q-159 0 -273 -131t-114 -312q0 -116 63 -181.5t164 -65.5zM1423 -242q-193 -88 -428 -88q-194 0 -354.5 58t-271.5 162.5t-172.5 254t-61.5 328.5q0 130 36.5 256t101.5 234t158 200t203 157
t240.5 101.5t266.5 36.5q186 0 338.5 -56t253 -154t155 -230t54.5 -283q0 -112 -26.5 -209.5t-69.5 -165t-98.5 -116t-113.5 -71.5t-114 -23q-107 0 -170.5 54t-77.5 150q-164 -209 -381 -209q-137 0 -229.5 93t-92.5 247q0 109 43 210.5t112.5 173.5t160 115.5t182.5 43.5
q122 0 201.5 -62.5t113.5 -158.5l52 168q14 43 51 43q27 0 40.5 -20t4.5 -50l-144 -463q-34 -110 4 -185t140 -75q54 0 111.5 31.5t109.5 91t85.5 161t33.5 226.5q0 110 -31.5 209.5t-93.5 181t-149 141.5t-203.5 93t-251.5 33q-151 0 -293.5 -48t-257 -134.5t-201.5 -200.5
t-134.5 -253t-47.5 -284q0 -332 215.5 -534.5t572.5 -202.5q220 0 400 82q12 6 24 6q14 0 22.5 -10t8.5 -23q0 -21 -27 -33z" />
    <glyph glyph-name="A" unicode="A" horiz-adv-x="1517" 
d="M410 498h755l-153 829zM1098 1397l256 -1323q4 -16 4 -33q0 -20 -14.5 -34.5t-36.5 -14.5q-21 0 -36.5 13.5t-19.5 37.5l-65 358h-846l-268 -370q-31 -39 -58 -39q-18 0 -31.5 12.5t-13.5 34.5q0 18 13 31l968 1327q38 51 80 51h4q53 0 64 -51z" />
    <glyph glyph-name="B" unicode="B" horiz-adv-x="1468" 
d="M387 772h442q217 0 348.5 90t131.5 236q0 117 -86.5 177t-243.5 60h-440zM207 98h518q222 0 351.5 86.5t129.5 237.5q0 122 -105 187t-274 65h-467zM719 0h-586q-22 0 -36.5 16t-8.5 37l356 1327q6 23 23.5 38.5t38.5 15.5h483q197 0 313.5 -87t116.5 -239
q0 -102 -52 -184t-136 -132t-191 -71q123 -32 199 -106.5t76 -192.5q0 -187 -161.5 -304.5t-434.5 -117.5z" />
    <glyph glyph-name="C" unicode="C" horiz-adv-x="1511" 
d="M1309 188q-109 -102 -235 -158.5t-300 -56.5q-119 0 -225.5 40.5t-186.5 114t-127 184.5t-47 243q0 172 68 337t182 289.5t273.5 200.5t332.5 76q167 0 296 -70.5t200 -185.5q14 -25 14 -45q-2 -21 -16.5 -34.5t-36.5 -12.5q-29 0 -43 23q-69 109 -167 169t-253 60
q-151 0 -289.5 -68.5t-236 -180.5t-155.5 -257.5t-58 -296.5q0 -222 135.5 -354.5t349.5 -132.5q141 0 248.5 47t208.5 141q19 19 39 19t34.5 -15t14.5 -35q0 -21 -20 -41z" />
    <glyph glyph-name="D" unicode="D" horiz-adv-x="1579" 
d="M207 98h350q192 0 354 63.5t281 182.5q192 192 192 479q0 221 -133 351q-161 161 -477 161h-235zM506 1434h274q171 0 316.5 -49t240.5 -144q158 -158 158 -410q0 -163 -57.5 -305t-165.5 -250q-130 -130 -320 -203t-409 -73h-410q-22 0 -36.5 16t-8.5 37l356 1327
q6 23 23.5 38.5t38.5 15.5z" />
    <glyph glyph-name="E" unicode="E" horiz-adv-x="1329" 
d="M1065 0h-932q-22 0 -36.5 16t-8.5 37l356 1327q6 23 23.5 38.5t38.5 15.5h907q20 0 34.5 -15t14.5 -35t-14.5 -34.5t-34.5 -14.5h-874l-152 -563h756q20 0 34.5 -14.5t14.5 -34.5t-14.5 -34.5t-34.5 -14.5h-783l-153 -576h858q20 0 34.5 -14.5t14.5 -34.5t-14.5 -34.5
t-34.5 -14.5z" />
    <glyph glyph-name="F" unicode="F" horiz-adv-x="1343" 
d="M506 1434h907q20 0 34.5 -15t14.5 -35t-14.5 -34.5t-34.5 -14.5h-874l-158 -587h756q20 0 34.5 -15t14.5 -35t-14.5 -34.5t-34.5 -14.5h-783l-161 -604q-6 -22 -23.5 -37.5t-38.5 -15.5q-22 0 -36.5 16t-8.5 37l358 1335q6 23 23.5 38.5t38.5 15.5z" />
    <glyph glyph-name="G" unicode="G" horiz-adv-x="1609" 
d="M1477 686l-148 -516q-12 -47 -51 -68q-114 -65 -223 -97t-244 -32q-178 0 -318 73.5t-220 212t-80 319.5q0 131 42.5 260.5t122 240.5t185.5 196.5t242 134t282 48.5q317 0 487 -213q21 -25 21 -45q0 -21 -13.5 -36t-35.5 -15q-27 0 -43 22q-135 191 -426 191
q-157 0 -299 -67.5t-240.5 -177t-156.5 -250.5t-58 -285q0 -237 141 -374.5t373 -137.5q240 0 414 116l131 459h-428q-20 0 -34.5 14.5t-14.5 34.5t14.5 34.5t34.5 14.5h496q25 0 39 -18t8 -39z" />
    <glyph glyph-name="H" unicode="H" horiz-adv-x="1548" 
d="M1565 1380l-361 -1341q-12 -47 -57 -47q-24 0 -38 16.5t-7 44.5l166 619h-908l-170 -633q-12 -47 -57 -47q-24 0 -38 16.5t-7 44.5l361 1342q12 47 57 47q23 0 37.5 -17t7.5 -45l-164 -610h907l168 625q12 47 58 47q23 0 37.5 -17t7.5 -45z" />
    <glyph glyph-name="I" unicode="I" horiz-adv-x="561" 
d="M565 1380l-360 -1341q-12 -47 -58 -47q-24 0 -38 16.5t-7 44.5l361 1342q12 47 57 47q23 0 37.5 -17t7.5 -45z" />
    <glyph glyph-name="J" unicode="J" horiz-adv-x="1101" 
d="M1161 1380l-241 -899q-63 -238 -191 -366q-65 -65 -152 -100t-176 -35q-286 0 -397 278q-6 15 -6 35q0 21 14 35t35 14q38 0 51 -41q80 -225 299 -225q154 0 260 106q102 102 160 314l242 899q12 47 57 47q23 0 37.5 -17t7.5 -45z" />
    <glyph glyph-name="K" unicode="K" horiz-adv-x="1462" 
d="M276 358l-86 -319q-12 -47 -57 -47q-24 0 -38 16.5t-7 44.5l361 1342q12 47 57 47q23 0 37.5 -17t7.5 -45l-236 -878l1135 921q22 19 45 19q21 0 34 -13t13 -34q0 -25 -24 -43l-695 -559l389 -711q13 -23 13 -39q0 -22 -14.5 -36.5t-36.5 -14.5q-37 0 -56 37l-383 702z
" />
    <glyph glyph-name="L" unicode="L" horiz-adv-x="1228" 
d="M993 0h-860q-22 0 -36.5 16t-8.5 37l361 1342q12 47 57 47q23 0 37.5 -17t7.5 -45l-344 -1282h786q20 0 34.5 -14.5t14.5 -34.5t-14.5 -34.5t-34.5 -14.5z" />
    <glyph glyph-name="M" unicode="M" horiz-adv-x="1779" 
d="M1745 1440h2q28 0 41 -18.5t6 -47.5l-358 -1335q-12 -47 -60 -47q-23 0 -36.5 16.5t-6.5 44.5l320 1192l-729 -764q-28 -28 -52 -28q-31 0 -43 30l-319 762l-322 -1204q-13 -49 -57 -49q-23 0 -36.5 16.5t-6.5 44.5l356 1327q16 60 60 60h2q39 0 55 -41l334 -813l768 811
q40 43 82 43z" />
    <glyph glyph-name="N" unicode="N" horiz-adv-x="1609" 
d="M1202 178l328 1217q12 47 55 47q23 0 36.5 -17t6.5 -45l-360 -1341q-12 -45 -49 -45h-2q-35 0 -56 43l-641 1245l-334 -1243q-12 -47 -55 -47q-23 0 -36.5 16.5t-6.5 44.5l358 1333q14 54 62 54h4q42 0 70 -54z" />
    <glyph glyph-name="O" unicode="O" horiz-adv-x="1732" 
d="M815 -27q-178 0 -320 82t-220 222.5t-78 312.5q0 166 65.5 324.5t175 278t263.5 192.5t321 73q133 0 248.5 -48t196.5 -130t127 -196t46 -242q0 -166 -65.5 -325t-175 -278.5t-263.5 -192.5t-321 -73zM815 70q147 0 281 65.5t228.5 172.5t150 247t55.5 287
q0 223 -141.5 371.5t-366.5 148.5q-147 0 -281 -65.5t-228.5 -172.5t-150 -247t-55.5 -287q0 -223 141.5 -371.5t366.5 -148.5z" />
    <glyph glyph-name="P" unicode="P" horiz-adv-x="1357" 
d="M326 537l-136 -498q-12 -47 -57 -47q-24 0 -38 16.5t-7 44.5l356 1327q6 23 23.5 38.5t38.5 15.5h399q266 0 395 -129q99 -99 99 -256q0 -242 -190 -377t-519 -135h-364zM350 633h344q288 0 443 107t155 304q0 118 -73 191q-100 100 -316 100h-364z" />
    <glyph glyph-name="Q" unicode="Q" horiz-adv-x="1732" 
d="M1071 498l205 -240q119 111 186.5 265t67.5 319q0 223 -141.5 371.5t-366.5 148.5q-147 0 -281 -65.5t-228.5 -172.5t-150 -247t-55.5 -287q0 -223 141.5 -371.5t366.5 -148.5q210 0 389 129l-200 223q-27 31 -27 49q0 23 13 37t36 14q24 0 45 -24zM1386 -12l-116 137
q-212 -152 -455 -152q-178 0 -320 82t-220 222.5t-78 312.5q0 166 65.5 324.5t175 278t263.5 192.5t321 73q133 0 248.5 -48t196.5 -130t127 -196t46 -242q0 -185 -80.5 -359t-218.5 -299l117 -127q25 -29 25 -47q0 -21 -13 -34t-36 -13q-27 0 -48 25z" />
    <glyph glyph-name="R" unicode="R" horiz-adv-x="1460" 
d="M340 594l-150 -555q-12 -47 -57 -47q-24 0 -38 16.5t-7 44.5l356 1327q6 23 23.5 38.5t38.5 15.5h467q258 0 385 -127q90 -90 90 -234q0 -172 -127 -299q-69 -69 -179 -112.5t-243 -57.5l270 -518q15 -27 15 -45q0 -21 -16 -35t-38 -14q-34 0 -51 33l-295 569h-444z
M365 690h430q154 0 268 39t182 107q96 96 96 231q0 107 -63 170q-98 98 -309 98h-430z" />
    <glyph glyph-name="S" unicode="S" horiz-adv-x="1306" 
d="M623 76q177 0 295 89t118 224q0 93 -69.5 157t-243.5 132q-227 89 -318.5 171t-91.5 210q0 166 143.5 280.5t370.5 114.5q271 0 459 -176q23 -23 23 -45t-15 -36.5t-37 -14.5q-25 0 -45 20q-156 156 -395 156q-178 0 -286.5 -86t-108.5 -205q0 -96 78 -159t264 -134
q204 -77 292.5 -162t88.5 -215q0 -176 -152 -296.5t-381 -120.5q-339 0 -538 231q-21 26 -21 45q0 22 13.5 36.5t35.5 14.5q26 0 45 -24q90 -104 203.5 -155.5t272.5 -51.5z" />
    <glyph glyph-name="T" unicode="T" horiz-adv-x="1259" 
d="M893 1335l-348 -1296q-12 -47 -58 -47q-24 0 -38 16.5t-7 44.5l344 1282h-444q-20 0 -34.5 14.5t-14.5 34.5t14.5 35t34.5 15h1022q20 0 34.5 -15t14.5 -35t-14.5 -34.5t-34.5 -14.5h-471z" />
    <glyph glyph-name="U" unicode="U" horiz-adv-x="1548" 
d="M1587 1380l-215 -800q-72 -267 -227 -422q-181 -181 -432 -181q-249 0 -382.5 125.5t-133.5 325.5q0 109 28 221l199 746q12 47 57 47q23 0 37.5 -17t7.5 -45l-207 -780q-18 -74 -18 -164q0 -162 106.5 -262t313.5 -100q203 0 350 147q134 134 201 381l213 793
q12 47 57 47q23 0 37.5 -17t7.5 -45z" />
    <glyph glyph-name="V" unicode="V" horiz-adv-x="1462" 
d="M1585 1358l-926 -1319q-35 -53 -77 -53h-4q-24 0 -38.5 15t-17.5 38l-219 1321q-4 20 -4 33q0 22 15 35.5t38 13.5q49 0 56 -51l196 -1276l893 1288q25 39 59 39q20 0 33 -11t13 -30t-17 -43z" />
    <glyph glyph-name="W" unicode="W" horiz-adv-x="2199" 
d="M2314 1362l-833 -1325q-12 -19 -18.5 -27.5t-20 -17t-29.5 -8.5h-4q-43 0 -47 53l-82 1198l-725 -1198q-14 -26 -29 -39.5t-39 -13.5h-4q-43 0 -47 53l-123 1323q0 2 -1 13t-1 16q0 23 16 38t40 15q25 0 39 -15t16 -41l104 -1228l744 1249q20 35 55 35h2q42 0 45 -43
l76 -1241l772 1243q24 41 64 41q19 0 31 -12t12 -29q0 -19 -13 -39z" />
    <glyph glyph-name="X" unicode="X" horiz-adv-x="1417" 
d="M829 723l349 -641q14 -28 14 -45q0 -18 -14 -31.5t-35 -13.5q-31 0 -47 31l-342 639l-641 -639q-31 -31 -56 -31q-20 0 -32.5 12t-12.5 31q0 22 21 43l669 663l-335 611q-15 30 -15 45q0 18 14 31.5t35 13.5q33 0 48 -31l329 -608l613 608q31 31 55 31q20 0 32.5 -12
t12.5 -31q0 -22 -21 -43z" />
    <glyph glyph-name="Y" unicode="Y" horiz-adv-x="1368" 
d="M733 555l-137 -516q-12 -47 -57 -47q-24 0 -38 16.5t-7 44.5l141 529l-340 772q-8 19 -8 37q0 22 14 36.5t37 14.5q36 0 55 -47l314 -731l725 749q29 29 57 29q19 0 33 -12.5t14 -32.5q0 -24 -25 -49z" />
    <glyph glyph-name="Z" unicode="Z" horiz-adv-x="1355" 
d="M10 92l1270 1245h-870q-21 0 -35.5 13.5t-14.5 33.5t15 35t35 15h1001q41 0 41 -35v-2q0 -27 -29 -56l-1269 -1245h911q20 0 34.5 -13.5t14.5 -33.5t-14.5 -34.5t-34.5 -14.5h-1042q-41 0 -41 35v2q0 27 28 55z" />
    <glyph glyph-name="bracketleft" unicode="[" horiz-adv-x="880" 
d="M1006 1356h-445l-414 -1544h424q15 0 27 -12t12 -27t-12 -27t-27 -12h-473q-28 0 -42 17.5t-7 43.5l426 1585q13 54 70 54h461q15 0 26.5 -12t11.5 -27t-11.5 -27t-26.5 -12z" />
    <glyph glyph-name="backslash" unicode="\" 
d="M399 1599l430 -1800q5 -20 5 -26q0 -19 -12 -31t-31 -12q-38 0 -46 43l-430 1800q-4 16 -4 26q0 19 12 31t31 12q37 0 45 -43z" />
    <glyph glyph-name="bracketright" unicode="]" horiz-adv-x="880" 
d="M367 -266h-461q-15 0 -27 12t-12 27t12 27t27 12h444l414 1544h-424q-15 0 -27 12t-12 27t12 27t27 12h473q28 0 42 -18t7 -44l-426 -1585q-13 -53 -69 -53z" />
    <glyph glyph-name="asciicircum" unicode="^" 
d="M315 1059l359 352q37 37 69 37h9q39 0 55 -37l174 -360q8 -16 8 -25q0 -25 -35 -25q-25 0 -38.5 7t-22.5 26l-158 318l-332 -320q-34 -31 -75 -31q-31 0 -31 25q0 15 18 33z" />
    <glyph glyph-name="underscore" unicode="_" horiz-adv-x="1228" 
d="M-219 -328q-19 0 -32 13t-13 32t13 32t32 13h1237q19 0 32 -13t13 -32t-13 -32t-32 -13h-1237z" />
    <glyph glyph-name="grave" unicode="`" 
d="M739 1237l-125 164q-14 17 -14 33q0 15 26 31t54 16q43 0 57 -37l74 -189q6 -18 6 -24q0 -19 -26 -19q-33 0 -52 25z" />
    <glyph glyph-name="a" unicode="a" horiz-adv-x="1169" 
d="M408 68q153 0 288.5 97t177.5 251l25 92q-192 49 -395 49q-156 0 -253 -77t-97 -199q0 -97 68.5 -155t185.5 -58zM815 -8q-23 0 -35 16t-6 41l35 131q-172 -205 -420 -205q-90 0 -166 31.5t-126 100t-50 161.5q0 171 131.5 275t339.5 104q190 0 402 -59l8 28
q14 54 14 105q0 119 -81 182.5t-234 63.5q-138 0 -265 -43q-16 -4 -26 -4q-19 0 -30 12.5t-11 32.5q0 35 39 47q146 49 301 49q191 0 298 -87t107 -239q0 -59 -20 -137l-150 -559q-12 -47 -55 -47z" />
    <glyph glyph-name="b" unicode="b" horiz-adv-x="1339" 
d="M639 -27q-162 0 -266.5 83.5t-149.5 209.5l-61 -227q-12 -47 -56 -47q-23 0 -34.5 16t-5.5 41l376 1407q12 47 56 47q23 0 35 -16t6 -41l-164 -606q191 229 434 229q182 0 301 -123.5t119 -316.5q0 -136 -48.5 -258.5t-129.5 -209t-189 -137.5t-223 -51zM635 68
q138 0 250 76.5t173.5 202t61.5 269.5q0 161 -90 260t-233 99q-95 0 -191 -46t-168.5 -120.5t-118 -174.5t-45.5 -202q0 -154 101 -259t260 -105z" />
    <glyph glyph-name="c" unicode="c" horiz-adv-x="1153" 
d="M940 127q-176 -152 -383 -152q-69 0 -135 19t-124 57.5t-101.5 91.5t-69 126t-25.5 157q0 168 84 316.5t226.5 237.5t304.5 89q133 0 229 -57.5t156 -149.5q14 -21 14 -41q0 -19 -13 -32t-32 -13q-31 0 -49 27q-56 83 -129 127.5t-182 44.5q-130 0 -246 -75.5t-185 -201
t-69 -266.5q0 -86 29.5 -156t78.5 -114t112 -68t132 -24q165 0 314 127q17 14 38 14q19 0 31 -13t12 -32q0 -21 -18 -39z" />
    <glyph glyph-name="d" unicode="d" horiz-adv-x="1339" 
d="M543 68q128 0 249 76.5t197 203t76 262.5q0 154 -101 259.5t-259 105.5q-138 0 -250.5 -77t-174 -202.5t-61.5 -269.5q0 -160 90.5 -259t233.5 -99zM965 -8q-23 0 -35 16t-6 41l39 154q-191 -230 -433 -230q-182 0 -300.5 124t-118.5 317q0 136 48.5 258.5t129 209
t188.5 137t223 50.5q162 0 266.5 -83.5t149.5 -209.5l182 680q12 47 56 47q23 0 35 -16t6 -41l-375 -1407q-12 -47 -55 -47z" />
    <glyph glyph-name="e" unicode="e" horiz-adv-x="1193" 
d="M233 578h758q8 36 8 86q0 135 -74.5 224t-219.5 89q-168 0 -297 -115t-175 -284zM557 70q185 0 330 118q19 15 39 15q19 0 31 -12t12 -31q0 -24 -21 -41q-171 -144 -391 -144q-200 0 -327.5 123t-127.5 316q0 121 47.5 239.5t127 210.5t193 148.5t237.5 56.5
q126 0 217.5 -55.5t134.5 -144.5t43 -199q0 -62 -15 -135q-10 -48 -61 -48h-811q-4 -46 -4 -69q0 -157 95.5 -252.5t250.5 -95.5z" />
    <glyph glyph-name="f" unicode="f" horiz-adv-x="741" 
d="M469 952l-246 -913q-12 -47 -55 -47q-23 0 -35 16t-6 41l242 903h-99q-20 0 -33.5 13.5t-13.5 33.5q0 19 14 32t33 13h123l41 152q79 299 334 299q87 0 168 -31q41 -16 41 -51q0 -24 -19 -37t-47 -2q-77 31 -147 31q-178 0 -236 -231l-34 -130h323q20 0 33.5 -13.5
t13.5 -33.5q0 -19 -14 -32t-33 -13h-348z" />
    <glyph glyph-name="g" unicode="g" horiz-adv-x="1339" 
d="M578 172q128 0 244 67t185.5 175.5t69.5 224.5q0 132 -101 233t-265 101q-123 0 -232 -60t-178.5 -172.5t-69.5 -251.5q0 -100 51 -174t128 -108.5t168 -34.5zM1122 791l58 215q12 47 55 47q23 0 35 -16.5t6 -41.5l-229 -866q-55 -202 -164 -311q-150 -150 -400 -150
q-124 0 -245 43.5t-218 124.5q-22 19 -22 47q0 19 13.5 33t33.5 14q23 0 41 -14q182 -154 401 -154q205 0 322 117q91 91 143 275l37 131q-194 -207 -430 -207q-84 0 -162 28t-139.5 78.5t-98 128.5t-36.5 170q0 126 51 237.5t134.5 186.5t190 118.5t216.5 43.5
q87 0 156.5 -23t117 -65.5t78 -87.5t55.5 -102z" />
    <glyph glyph-name="h" unicode="h" horiz-adv-x="1247" 
d="M1094 590l-146 -551q-12 -47 -55 -47q-23 0 -35 16t-6 41l145 549q17 66 17 129q0 117 -72 184.5t-197 67.5q-136 0 -263.5 -111t-172.5 -278l-147 -551q-12 -47 -56 -47q-23 0 -34.5 16t-5.5 41l376 1407q12 47 56 47q23 0 35 -16t6 -41l-160 -596q87 105 180 162
t215 57q155 0 248.5 -90.5t93.5 -241.5q0 -57 -22 -147z" />
    <glyph glyph-name="i" unicode="i" horiz-adv-x="512" 
d="M543 1354q-12 -47 -70 -47q-28 0 -43.5 16t-9.5 41l14 53q12 47 70 47q28 0 43.5 -16t9.5 -41zM432 995l-256 -956q-12 -47 -55 -47q-23 0 -35 16t-6 41l256 957q12 47 55 47q23 0 35 -16.5t6 -41.5z" />
    <glyph glyph-name="j" unicode="j" horiz-adv-x="509" 
d="M432 995l-295 -1101q-29 -108 -92.5 -168t-150.5 -60q-68 0 -99 12.5t-31 42.5q0 24 16.5 37t43.5 9q49 -7 63 -7q52 0 92 35.5t60 106.5l297 1104q12 47 55 47q23 0 35 -16.5t6 -41.5zM543 1354q-12 -47 -70 -47q-28 0 -43.5 16t-9.5 41l14 53q12 47 70 47
q28 0 43.5 -16t9.5 -41z" />
    <glyph glyph-name="k" unicode="k" horiz-adv-x="1146" 
d="M539 1446l-283 -1059l801 649q21 17 43 17q19 0 31 -10.5t12 -30.5q0 -25 -23 -41l-489 -393l268 -498q14 -25 14 -39q0 -22 -14.5 -35.5t-36.5 -13.5q-33 0 -51 35l-264 489l-328 -262l-57 -215q-12 -47 -56 -47q-23 0 -34.5 16t-5.5 41l376 1407q12 47 56 47
q23 0 35 -16t6 -41z" />
    <glyph glyph-name="l" unicode="l" horiz-adv-x="512" 
d="M553 1446l-377 -1407q-12 -47 -55 -47q-23 0 -35 16t-6 41l377 1407q12 47 55 47q23 0 35 -16t6 -41z" />
    <glyph glyph-name="m" unicode="m" horiz-adv-x="1947" 
d="M811 49l145 549q17 66 17 129q0 116 -67 184t-181 68q-128 0 -250 -112t-166 -277l-147 -551q-12 -47 -56 -47q-23 0 -34.5 16t-5.5 41l253 957q12 47 56 47q23 0 35 -16.5t6 -41.5l-37 -145q57 70 106 114t119 74.5t150 30.5q68 0 123.5 -22t91.5 -59.5t58.5 -81.5
t31.5 -93q73 121 184 188.5t254 67.5q142 0 234 -93t92 -239q0 -37 -27 -147l-145 -551q-12 -47 -56 -47q-23 0 -35 16t-6 41l146 549q16 62 16 129q0 116 -67 184t-181 68q-128 0 -249.5 -112t-165.5 -277l-146 -551q-12 -47 -55 -47q-23 0 -35 16t-6 41z" />
    <glyph glyph-name="n" unicode="n" horiz-adv-x="1251" 
d="M375 1053q23 0 35 -16.5t6 -41.5l-37 -145q87 105 180 162t215 57q155 0 248.5 -90.5t93.5 -241.5q0 -57 -22 -147l-146 -551q-12 -47 -55 -47q-23 0 -35 16t-6 41l145 549q17 66 17 129q0 117 -72 184.5t-197 67.5q-136 0 -263.5 -111t-172.5 -278l-147 -551
q-12 -47 -56 -47q-23 0 -34.5 16t-5.5 41l253 957q12 47 56 47z" />
    <glyph glyph-name="o" unicode="o" horiz-adv-x="1296" 
d="M569 -25q-206 0 -335.5 130.5t-129.5 332.5q0 122 50.5 237.5t134 202t199 139t237.5 52.5q206 0 335.5 -130.5t129.5 -332.5q0 -125 -52 -242t-137 -201.5t-199 -136t-233 -51.5zM580 70q126 0 241.5 72t187.5 195.5t72 264.5q0 174 -100.5 273.5t-265.5 99.5
q-129 0 -245.5 -74.5t-186.5 -198t-70 -260.5q0 -174 100.5 -273t266.5 -99z" />
    <glyph glyph-name="p" unicode="p" horiz-adv-x="1339" 
d="M797 975q-95 0 -191 -46t-168.5 -120.5t-118 -174.5t-45.5 -202q0 -154 101 -259t260 -105q138 0 250 76.5t173.5 202t61.5 269.5q0 161 -90 260t-233 99zM375 1053q23 0 35 -16.5t6 -41.5l-41 -155q191 229 434 229q182 0 301 -123.5t119 -316.5q0 -136 -48.5 -258.5
t-129.5 -209t-189 -137.5t-223 -51q-162 0 -266.5 83.5t-149.5 209.5l-149 -555q-12 -47 -56 -47q-23 0 -35 16t-6 41l342 1285q12 47 56 47z" />
    <glyph glyph-name="q" unicode="q" horiz-adv-x="1339" 
d="M700 1069q84 0 155 -24t121 -66t84.5 -92t55.5 -109l62 228q12 47 55 47q23 0 35 -16.5t6 -41.5l-342 -1284q-12 -47 -55 -47q-23 0 -35 16t-6 41l129 484q-193 -232 -435 -232q-182 0 -300.5 124t-118.5 317q0 136 48.5 258.5t129 209t188.5 137t223 50.5zM705 975
q-138 0 -250.5 -77t-174 -202.5t-61.5 -269.5q0 -160 90.5 -259t233.5 -99q95 0 190.5 46t168 120.5t118 175t45.5 202.5q0 154 -100.5 258.5t-259.5 104.5z" />
    <glyph glyph-name="r" unicode="r" horiz-adv-x="811" 
d="M416 995l-64 -247q95 141 226 227t251 86q26 0 40 -13.5t14 -37.5q0 -56 -74 -62q-177 -16 -329 -153.5t-214 -366.5l-104 -389q-12 -47 -56 -47q-23 0 -34.5 16t-5.5 41l253 957q12 47 56 47q23 0 35 -16.5t6 -41.5z" />
    <glyph glyph-name="s" unicode="s" horiz-adv-x="1013" 
d="M457 70q105 0 187.5 58t82.5 148q0 64 -48.5 111t-178.5 96q-156 58 -224.5 120t-68.5 161q0 128 107 215.5t280 87.5q91 0 186.5 -33.5t153.5 -77.5q27 -20 27 -47q0 -20 -14 -33.5t-34 -13.5q-17 0 -32 10q-149 103 -297 103q-125 0 -198 -58t-73 -137
q0 -63 47.5 -106.5t188.5 -98.5q157 -62 221 -125t64 -157q0 -89 -53.5 -162t-142.5 -113.5t-194 -40.5q-225 0 -407 148q-25 21 -25 47q0 20 13.5 34.5t33.5 14.5q18 0 45 -20q159 -131 353 -131z" />
    <glyph glyph-name="t" unicode="t" horiz-adv-x="811" 
d="M387 1044l80 295q12 47 55 47q23 0 35 -16t6 -41l-76 -285h308q20 0 33.5 -13.5t13.5 -33.5q0 -19 -14 -32t-33 -13h-332l-178 -665q-11 -50 -11 -88q0 -63 45 -94t125 -31q44 0 84 12q30 9 47 -2t17 -35q0 -32 -41 -47q-58 -20 -129 -20q-111 0 -180.5 52t-69.5 154
q0 47 12 101l178 663h-98q-20 0 -33.5 13.5t-13.5 33.5q0 19 14 32t33 13h123z" />
    <glyph glyph-name="u" unicode="u" horiz-adv-x="1247" 
d="M872 -8q-23 0 -35 16t-6 41l37 146q-87 -105 -180 -162.5t-215 -57.5q-155 0 -248.5 90.5t-93.5 241.5q0 54 23 148l145 551q12 47 55 47q23 0 35 -16.5t6 -41.5l-145 -549q-17 -66 -17 -129q0 -117 72 -184t197 -67q136 0 263.5 111t172.5 278l147 551q12 47 56 47
q23 0 35 -16.5t6 -41.5l-254 -956q-12 -47 -56 -47z" />
    <glyph glyph-name="v" unicode="v" horiz-adv-x="1140" 
d="M1143 967l-664 -938q-30 -43 -63 -43h-4q-20 0 -34.5 12.5t-17.5 30.5l-163 934q-4 20 -4 38q0 22 14 37t37 15q46 0 53 -54l139 -886l619 899q25 41 57 41q20 0 32.5 -13.5t12.5 -29.5q0 -23 -14 -43z" />
    <glyph glyph-name="w" unicode="w" horiz-adv-x="1730" 
d="M299 43l-90 926q0 1 -1 12t-1 16q0 24 14 40t39 16q22 0 34.5 -15t14.5 -41l72 -862l539 881q24 37 57 37h2q41 0 45 -45l68 -873l544 879q23 39 54 39q43 0 43 -41q0 -17 -13 -39l-598 -946q-24 -41 -59 -41h-2q-47 0 -53 57l-68 844l-530 -858q-24 -43 -60 -43h-2
q-20 0 -34 15.5t-15 41.5z" />
    <glyph glyph-name="x" unicode="x" horiz-adv-x="1144" 
d="M375 1016l215 -412l432 416q33 33 57 33q19 0 31 -12t12 -31q0 -24 -24 -45l-463 -433l244 -450q14 -28 14 -45q0 -19 -14 -32t-35 -13q-30 0 -49 37l-228 440l-465 -444q-33 -33 -57 -33q-19 0 -31 12t-12 31q0 23 25 45l495 461l-231 422q-15 30 -15 45q0 19 14 32
t36 13q30 0 49 -37z" />
    <glyph glyph-name="y" unicode="y" horiz-adv-x="1163" 
d="M-94 -201q80 -39 147 -39q82 0 161 56t173 190l-197 959q-4 20 -4 36q0 22 13.5 37t36.5 15q43 0 53 -54l174 -888l606 901q26 41 59 41q21 0 33.5 -12t12.5 -31q0 -20 -13 -39l-692 -1008q-112 -161 -212.5 -229t-215.5 -68q-96 0 -186 49q-29 15 -29 45q0 20 13.5 33.5
t33.5 13.5q17 0 33 -8z" />
    <glyph glyph-name="z" unicode="z" horiz-adv-x="1118" 
d="M301 1044h778q43 0 43 -36v-2q0 -21 -20 -41l-948 -875h688q19 0 32 -13t13 -32t-13 -32t-32 -13h-813q-43 0 -43 37v2q0 21 20 41l948 874h-653q-19 0 -32 13t-13 32t13 32t32 13z" />
    <glyph glyph-name="braceleft" unicode="{" horiz-adv-x="983" 
d="M182 627h25q157 0 230.5 83.5t115.5 293.5q21 107 55 182t93.5 135.5t151.5 95t222 45.5q45 3 45 -37q0 -36 -41 -39q-139 -11 -227 -60.5t-132.5 -128.5t-68.5 -204q-28 -144 -68 -227.5t-97 -124.5t-148 -57q141 -43 141 -170q0 -56 -18 -117q-45 -158 -45 -236
q0 -103 52 -170.5t167 -105.5q33 -11 33 -35q0 -19 -14.5 -29.5t-39.5 -3.5q-153 40 -226 128t-73 208q0 50 9.5 96.5t37.5 149.5q19 68 19 113q0 68 -46 102.5t-149 34.5h-4q-49 0 -49 39t49 39z" />
    <glyph glyph-name="bar" unicode="|" horiz-adv-x="585" 
d="M289 -225v1822q0 19 13 32t32 13t32 -13t13 -32v-1822q0 -19 -13 -32t-32 -13t-32 13t-13 32z" />
    <glyph glyph-name="braceright" unicode="}" horiz-adv-x="983" 
d="M836 549h-25q-157 0 -230.5 -83.5t-115.5 -293.5q-21 -107 -55 -182.5t-93.5 -136t-151.5 -95t-222 -45.5q-45 -3 -45 37q0 36 41 39q139 11 227 60.5t132.5 128.5t68.5 204q40 211 109 298.5t204 111.5q-141 43 -141 170q0 56 18 117q45 157 45 235q0 103 -52 171
t-167 106q-33 11 -33 34q0 19 14 29.5t39 3.5q153 -40 226 -128t73 -208q0 -50 -9.5 -96t-37.5 -149q-18 -65 -18 -113q0 -68 45.5 -102.5t148.5 -34.5h5q49 0 49 -39t-49 -39z" />
    <glyph glyph-name="asciitilde" unicode="~" horiz-adv-x="942" 
d="M229 496q-17 0 -30 9.5t-13 26.5q0 19 15 43q43 75 85 114.5t105 39.5q29 0 54 -10.5t40 -22.5t43 -39q38 -37 56.5 -49t42.5 -12q28 0 51 22t55 76q18 31 41 31q17 0 30 -10t13 -27q0 -21 -14 -43q-42 -74 -85 -113.5t-106 -39.5q-42 0 -69.5 16t-67.5 55
q-29 28 -39.5 37t-26 17t-32.5 8q-28 0 -51.5 -22.5t-55.5 -76.5q-17 -30 -41 -30z" />
    <glyph glyph-name="uni00A0" unicode="&#xa0;" horiz-adv-x="614" 
 />
    <glyph glyph-name="exclamdown" unicode="&#xa1;" horiz-adv-x="514" 
d="M70 51l297 987q9 27 30 27q34 0 25 -41l-234 -985q-9 -45 -59 -45h-16q-26 0 -38 15t-5 42zM555 1380l-20 -75q-16 -54 -74 -54q-29 0 -46.5 19t-11.5 45l21 78q12 49 74 49q29 0 46 -18t11 -44z" />
    <glyph glyph-name="cent" unicode="&#xa2;" horiz-adv-x="1142" 
d="M1022 334q-175 -156 -416 -156q-44 0 -96 10l-64 -159q-19 -49 -57 -49q-26 0 -37 19.5t-2 43.5l68 172q-121 51 -192.5 160t-71.5 246q0 173 83.5 323t227.5 239t313 89q38 0 56 -2l53 135q19 49 55 49q27 0 39 -18.5t2 -44.5l-55 -138q79 -19 145.5 -68t108.5 -120
q12 -20 12 -35q0 -22 -13.5 -35.5t-33.5 -13.5q-28 0 -45 25q-43 64 -89.5 100.5t-125.5 58.5l-348 -886q40 -7 73 -7q185 0 346 131q16 13 35 13q20 0 32.5 -14t12.5 -33t-16 -35zM262 623q0 -109 51.5 -194.5t143.5 -125.5l344 875h-29q-139 0 -256.5 -75.5t-185.5 -203.5
t-68 -276z" />
    <glyph glyph-name="sterling" unicode="&#xa3;" horiz-adv-x="1277" 
d="M930 1352q-145 0 -248 -103q-93 -93 -143 -276l-68 -250h555q20 0 34.5 -14.5t14.5 -34.5t-14.5 -34.5t-34.5 -14.5h-582l-141 -529h711q20 0 34.5 -14.5t14.5 -34.5t-14.5 -33.5t-34.5 -13.5h-991q-11 0 -19 8t-8 19q0 22 24 28l177 37l143 533h-121q-20 0 -34.5 14.5
t-14.5 34.5t14.5 34.5t34.5 14.5h148l71 268q56 210 164 318q139 139 334 139q219 0 348 -172q21 -32 21 -47q0 -22 -15 -37.5t-37 -15.5q-28 0 -43 22q-56 77 -119.5 115.5t-160.5 38.5z" />
    <glyph glyph-name="yen" unicode="&#xa5;" horiz-adv-x="1433" 
d="M745 664l725 749q29 29 56 29q19 0 32 -12.5t13 -32.5q0 -21 -23 -47l-696 -709h326q19 0 33 -14t14 -33t-14 -32t-33 -13h-412l-53 -201h387q19 0 33 -13.5t14 -33.5q0 -19 -14 -32t-33 -13h-412l-57 -217q-12 -47 -58 -47q-24 0 -38 16.5t-7 44.5l54 203h-379
q-19 0 -33 13t-14 32q0 20 14 33.5t33 13.5h403l53 201h-378q-19 0 -33.5 13.5t-14.5 31.5q0 19 14.5 33t33.5 14h362l-313 715q-8 19 -8 37q0 21 14 35t37 14q40 0 59 -47z" />
    <glyph glyph-name="section" unicode="&#xa7;" horiz-adv-x="1294" 
d="M803 502q127 0 213 53.5t86 128.5q0 60 -62.5 107t-210.5 98q-125 43 -239 43q-127 0 -213 -53.5t-86 -128.5q0 -60 62 -107t210 -98q122 -43 240 -43zM604 72q106 0 178 44t72 115q0 63 -66 110t-219 101q-204 72 -294.5 138t-90.5 161q0 118 115.5 190.5t290.5 72.5
q-69 30 -113.5 80.5t-44.5 115.5q0 116 106.5 185t264.5 69q118 0 232 -40.5t190 -100.5q24 -18 24 -45q0 -22 -14 -38t-35 -16q-18 0 -39 17q-163 131 -373 131q-106 0 -177.5 -44.5t-71.5 -115.5q0 -63 65.5 -110t218.5 -101q204 -72 294.5 -138t90.5 -161
q0 -118 -115 -190t-290 -72q69 -30 113.5 -81t44.5 -116q0 -116 -106.5 -184.5t-264.5 -68.5q-126 0 -237 41.5t-187 99.5q-25 19 -25 45q0 22 14 37.5t35 15.5q19 0 39 -16q160 -131 375 -131z" />
    <glyph glyph-name="dieresis" unicode="&#xa8;" 
d="M588 1262q-16 -56 -76 -56q-31 0 -48 20t-11 48l18 67q16 56 76 56q31 0 48.5 -20t10.5 -48zM922 1262q-16 -56 -76 -56q-31 0 -48.5 20t-11.5 48l19 67q16 56 76 56q31 0 48.5 -20t10.5 -48z" />
    <glyph glyph-name="copyright" unicode="&#xa9;" horiz-adv-x="1699" 
d="M899 -25q-204 0 -374.5 100t-267.5 270t-97 370q0 150 58 287t157 237t237 159.5t291 59.5t290.5 -59t235.5 -158t155.5 -235.5t57.5 -286.5q0 -200 -98 -371t-269.5 -272t-375.5 -101zM899 33q143 0 270 54.5t217 147t142.5 219t52.5 265.5q0 186 -88 342.5t-244 248
t-346 91.5q-143 0 -270 -54.5t-217 -147t-142.5 -219t-52.5 -265.5q0 -186 88 -342.5t244 -248t346 -91.5zM909 340q-157 0 -264.5 112.5t-107.5 272.5v4q0 158 108.5 272.5t265.5 114.5q84 0 146 -26.5t119 -75.5q18 -15 18 -37q0 -19 -13 -31t-32 -12q-15 0 -33 14
q-101 86 -207 86q-120 0 -201 -88.5t-81 -214.5v-4q0 -125 83 -215t201 -90q66 0 114 21t101 67q15 12 31 12q17 0 28 -11t11 -28q0 -18 -16 -34q-58 -52 -122 -80.5t-149 -28.5z" />
    <glyph glyph-name="ordfeminine" unicode="&#xaa;" horiz-adv-x="798" 
d="M412 905q78 0 153 56.5t97 132.5l8 28q-106 25 -185 25q-80 0 -131 -41t-51 -105q0 -43 30 -69.5t79 -26.5zM537 1366q-69 0 -127 -18q-21 -7 -31 -7q-14 0 -23.5 10t-9.5 27q0 26 31 35q85 29 174 29q108 0 167.5 -48t59.5 -132q0 -26 -12 -80l-80 -299q-9 -39 -45 -39
q-20 0 -29.5 12.5t-5.5 32.5l19 65q-102 -114 -234 -114q-74 0 -124 42t-50 111q0 97 75 157t193 60q81 0 199 -30l4 12q8 28 8 55q0 119 -159 119zM160 600q-17 0 -29 12t-12 29t12 29t29 12h438q17 0 29 -12t12 -29t-12 -29t-29 -12h-438z" />
    <glyph glyph-name="guillemotleft" unicode="&#xab;" horiz-adv-x="1054" 
d="M111 545l391 377q32 32 55 32q20 0 31.5 -12.5t11.5 -32.5q0 -21 -18 -39l-363 -362l154 -340q8 -19 8 -35q0 -19 -13.5 -32t-33.5 -13q-32 0 -47 35l-181 362q-10 20 -10 31q0 14 15 29zM528 545l392 377q32 32 55 32q20 0 31.5 -12.5t11.5 -32.5t-19 -39l-362 -362
l154 -340q8 -19 8 -35q0 -19 -13.5 -32t-33.5 -13q-32 0 -47 35l-181 362q-10 20 -10 31q0 15 14 29z" />
    <glyph glyph-name="registered" unicode="&#xae;" horiz-adv-x="851" 
d="M580 737q-150 0 -253.5 105t-103.5 252v2q0 147 104.5 252.5t252.5 105.5q150 0 253 -104.5t103 -251.5v-2q0 -147 -104 -253t-252 -106zM580 776q132 0 223.5 94t91.5 226v2q0 132 -90.5 224.5t-224.5 92.5q-133 0 -224.5 -94t-91.5 -225v-2q0 -132 91 -225t225 -93z
M446 946v307q0 12 8.5 20.5t20.5 8.5h131q58 0 95.5 -29.5t37.5 -81.5q0 -40 -23.5 -69t-62.5 -41l78 -92q10 -13 10 -25q0 -11 -7 -18.5t-19 -7.5q-16 0 -29 16l-100 121h-82v-109q0 -12 -8.5 -20t-20.5 -8t-20.5 8t-8.5 20zM504 1102h96q38 0 59 17.5t21 47.5q0 64 -80 64
h-96v-129z" />
    <glyph glyph-name="macron" unicode="&#xaf;" 
d="M997 1272h-540q-20 0 -34.5 14.5t-14.5 34.5t14.5 34.5t34.5 14.5h540q20 0 35 -14.5t15 -34.5t-15 -34.5t-35 -14.5z" />
    <glyph glyph-name="degree" unicode="&#xb0;" horiz-adv-x="749" 
d="M438 842q-113 0 -185.5 73.5t-72.5 184.5q0 137 101.5 240.5t238.5 103.5q113 0 185.5 -73.5t72.5 -184.5q0 -137 -101.5 -240.5t-238.5 -103.5zM449 928q94 0 165.5 75t71.5 173q0 83 -49 132.5t-127 49.5q-94 0 -166 -75t-72 -173q0 -83 49.5 -132.5t127.5 -49.5z" />
    <glyph glyph-name="plusminus" unicode="&#xb1;" horiz-adv-x="1269" 
d="M743 733l-100 -375q-14 -49 -57 -49q-25 0 -37 18.5t-6 41.5l98 364h-371q-20 0 -34.5 14.5t-14.5 34.5t14.5 34.5t34.5 14.5h398l100 377q13 47 57 47q25 0 37 -17t6 -40l-98 -367h371q20 0 34.5 -13.5t14.5 -33.5t-14.5 -35.5t-34.5 -15.5h-398zM76 0h868
q20 0 34.5 14.5t14.5 34.5t-14.5 34.5t-34.5 14.5h-868q-20 0 -34.5 -14.5t-14.5 -34.5t14.5 -34.5t34.5 -14.5z" />
    <glyph glyph-name="acute" unicode="&#xb4;" 
d="M856 1399l-211 -160q-36 -27 -78 -27q-28 0 -28 21q0 12 10 22l180 195q14 14 19.5 19t16.5 10.5t23 5.5q29 0 60 -18t31 -33q0 -19 -23 -35z" />
    <glyph glyph-name="paragraph" unicode="&#xb6;" horiz-adv-x="995" 
d="M1010 1372l-359 -1333q-12 -47 -59 -47q-24 0 -38 16.5t-7 44.5l129 486q-99 5 -180 28.5t-147 66.5t-103 114t-37 165q0 244 178.5 382.5t489.5 138.5h88q27 0 39.5 -16.5t5.5 -45.5z" />
    <glyph glyph-name="periodcentered" unicode="&#xb7;" horiz-adv-x="473" 
d="M334 641l-21 -78q-12 -49 -73 -49q-30 0 -47 17.5t-11 43.5l21 76q16 54 73 54q29 0 46.5 -19t11.5 -45z" />
    <glyph glyph-name="cedilla" unicode="&#xb8;" 
d="M487 20l-219 -288q-20 -25 -43 -25q-24 0 -39.5 14.5t-15.5 32.5q0 22 20 45l209 221h88z" />
    <glyph glyph-name="ordmasculine" unicode="&#xba;" horiz-adv-x="798" 
d="M502 834q-119 0 -192.5 74.5t-73.5 189.5q0 138 101 242t241 104q118 0 192 -74.5t74 -189.5q0 -138 -101 -242t-241 -104zM508 909q100 0 174 81t74 186q0 87 -51.5 139.5t-133.5 52.5q-102 0 -175.5 -80t-73.5 -186q0 -87 52 -140t134 -53zM164 600q-17 0 -29 12
t-12 29t12 29t29 12h487q17 0 29 -12t12 -29t-12 -29t-29 -12h-487z" />
    <glyph glyph-name="guillemotright" unicode="&#xbb;" horiz-adv-x="1054" 
d="M942 498l-391 -377q-33 -33 -55 -33q-20 0 -31.5 12.5t-11.5 32.5q0 21 18 39l363 363l-154 339q-8 19 -8 35q0 19 13.5 32t33.5 13q32 0 47 -34l180 -363q10 -20 10 -31q0 -14 -14 -28zM524 498l-391 -377q-33 -33 -55 -33q-20 0 -31.5 12.5t-11.5 32.5q0 21 18 39
l363 363l-154 339q-8 19 -8 35q0 19 13.5 32t33.5 13q32 0 47 -34l180 -363q11 -22 11 -31q0 -13 -15 -28z" />
    <glyph glyph-name="questiondown" unicode="&#xbf;" horiz-adv-x="1093" 
d="M903 236q24 20 43 20q20 0 33.5 -13t13.5 -32q0 -21 -16 -37q-200 -192 -461 -192q-188 0 -300 100t-112 258q0 99 43.5 181t119.5 138t172 92t208 52l80 233q11 31 35 31h2q16 0 25.5 -12t5.5 -33l-50 -258q-6 -44 -49 -49q-218 -23 -350.5 -120t-132.5 -253
q0 -125 88 -194.5t223 -69.5q202 0 379 158zM901 1305q-16 -54 -74 -54q-29 0 -46 19t-11 45l21 78q12 49 73 49q30 0 47 -18t11 -44z" />
    <glyph glyph-name="Agrave" unicode="&#xc0;" horiz-adv-x="1517" 
d="M410 498h755l-153 829zM1098 1397l256 -1323q4 -16 4 -33q0 -20 -14.5 -34.5t-36.5 -14.5q-21 0 -36.5 13.5t-19.5 37.5l-65 358h-846l-268 -370q-31 -39 -58 -39q-18 0 -31.5 12.5t-13.5 34.5q0 18 13 31l968 1327q38 51 80 51h4q53 0 64 -51zM1006 1606l-125 163
q-15 18 -15 33t26 31t54 16q44 0 58 -37l73 -188q6 -18 6 -25q0 -18 -26 -18q-32 0 -51 25z" />
    <glyph glyph-name="Aacute" unicode="&#xc1;" horiz-adv-x="1517" 
d="M410 498h755l-153 829zM1098 1397l256 -1323q4 -16 4 -33q0 -20 -14.5 -34.5t-36.5 -14.5q-21 0 -36.5 13.5t-19.5 37.5l-65 358h-846l-268 -370q-31 -39 -58 -39q-18 0 -31.5 12.5t-13.5 34.5q0 18 13 31l968 1327q38 51 80 51h4q53 0 64 -51zM1360 1767l-211 -159
q-36 -27 -78 -27q-29 0 -29 21q0 11 11 22l180 195q13 13 19.5 18.5t17 10.5t22.5 5q29 0 59.5 -18t30.5 -33q0 -19 -22 -35z" />
    <glyph glyph-name="Acircumflex" unicode="&#xc2;" horiz-adv-x="1517" 
d="M410 498h755l-153 829zM1098 1397l256 -1323q4 -16 4 -33q0 -20 -14.5 -34.5t-36.5 -14.5q-21 0 -36.5 13.5t-19.5 37.5l-65 358h-846l-268 -370q-31 -39 -58 -39q-18 0 -31.5 12.5t-13.5 34.5q0 18 13 31l968 1327q38 51 80 51h4q53 0 64 -51zM1194 1806l98 -178
q11 -22 11 -26q0 -8 -8 -14.5t-21 -6.5q-24 0 -38 5t-28 24l-90 116l-168 -118q-17 -11 -24.5 -15.5t-18.5 -8t-24 -3.5q-14 0 -21.5 6.5t-7.5 14.5q0 12 16 28l193 176q37 37 67 37h13q18 0 29 -8.5t22 -28.5z" />
    <glyph glyph-name="Atilde" unicode="&#xc3;" horiz-adv-x="1517" 
d="M410 498h755l-153 829zM1098 1397l256 -1323q4 -16 4 -33q0 -20 -14.5 -34.5t-36.5 -14.5q-21 0 -36.5 13.5t-19.5 37.5l-65 358h-846l-268 -370q-31 -39 -58 -39q-18 0 -31.5 12.5t-13.5 34.5q0 18 13 31l968 1327q38 51 80 51h4q53 0 64 -51zM834 1577q-17 0 -30 10
t-13 27q0 21 14 43q42 74 84.5 113.5t105.5 39.5q42 0 70 -16.5t68 -54.5q29 -28 39.5 -37t26 -17t32.5 -8q28 0 50.5 22.5t55.5 76.5q17 30 41 30q17 0 30 -10t13 -27q0 -21 -14 -43q-42 -74 -84.5 -113.5t-105.5 -39.5q-29 0 -54 10t-40.5 23t-43.5 39q-28 27 -39 36.5
t-26.5 17t-32.5 7.5q-28 0 -51.5 -22.5t-55.5 -75.5q-18 -31 -40 -31z" />
    <glyph glyph-name="Adieresis" unicode="&#xc4;" horiz-adv-x="1517" 
d="M410 498h755l-153 829zM1098 1397l256 -1323q4 -16 4 -33q0 -20 -14.5 -34.5t-36.5 -14.5q-21 0 -36.5 13.5t-19.5 37.5l-65 358h-846l-268 -370q-31 -39 -58 -39q-18 0 -31.5 12.5t-13.5 34.5q0 18 13 31l968 1327q38 51 80 51h4q53 0 64 -51zM989 1630q-16 -55 -76 -55
q-31 0 -48 19.5t-11 47.5l18 68q16 55 76 55q31 0 49 -20t11 -47zM1323 1630q-16 -55 -76 -55q-31 0 -48 19.5t-11 47.5l18 68q16 55 76 55q31 0 48.5 -19.5t10.5 -47.5z" />
    <glyph glyph-name="Aring" unicode="&#xc5;" horiz-adv-x="1517" 
d="M14 -8q-18 0 -31.5 12.5t-13.5 34.5q0 18 13 31l968 1325q-44 22 -69 60t-25 85q0 87 64 148t153 61q87 0 142 -47.5t55 -120.5q0 -74 -48.5 -130.5t-121.5 -74.5l254 -1302q4 -16 4 -33q0 -20 -14.5 -34.5t-36.5 -14.5q-21 0 -36.5 13.5t-19.5 37.5l-65 358h-846
l-268 -370q-31 -39 -58 -39zM410 498h755l-153 829zM1053 1438q60 0 101.5 41.5t41.5 101.5q0 46 -32.5 74t-90.5 28q-60 0 -101.5 -41.5t-41.5 -101.5q0 -46 32.5 -74t90.5 -28z" />
    <glyph glyph-name="AE" unicode="&#xc6;" horiz-adv-x="2187" 
d="M496 498h557l225 839h-55zM1223 1434h1015q20 0 35 -15t15 -35t-15 -34.5t-35 -14.5h-854l-151 -563h735q20 0 34.5 -14.5t14.5 -34.5t-14.5 -34.5t-34.5 -14.5h-762l-153 -576h837q20 0 34.5 -14.5t14.5 -34.5t-14.5 -34.5t-34.5 -14.5h-911q-22 0 -36.5 16t-8.5 37
l94 348h-616l-320 -368q-35 -41 -65 -41q-19 0 -31 11.5t-12 31.5q0 22 18 43l1139 1304q34 37 53 46q14 6 29 6z" />
    <glyph glyph-name="Ccedilla" unicode="&#xc7;" horiz-adv-x="1511" 
d="M1309 188q-109 -102 -235 -158.5t-300 -56.5h-10l-182 -241q-20 -25 -43 -25q-24 0 -40 14.5t-16 32.5q0 21 21 45l170 183q-102 15 -190.5 61t-154.5 118t-103.5 173.5t-37.5 220.5q0 172 68 337t182 289.5t273.5 200.5t332.5 76q167 0 296 -70.5t200 -185.5
q14 -25 14 -45q-2 -21 -16.5 -34.5t-36.5 -12.5q-29 0 -43 23q-69 109 -167 169t-253 60q-151 0 -289.5 -68.5t-236 -180.5t-155.5 -257.5t-58 -296.5q0 -222 135.5 -354.5t349.5 -132.5q141 0 248.5 47t208.5 141q19 19 39 19t34.5 -15t14.5 -35q0 -21 -20 -41z" />
    <glyph glyph-name="Egrave" unicode="&#xc8;" horiz-adv-x="1329" 
d="M1065 0h-932q-22 0 -36.5 16t-8.5 37l356 1327q6 23 23.5 38.5t38.5 15.5h907q20 0 34.5 -15t14.5 -35t-14.5 -34.5t-34.5 -14.5h-874l-152 -563h756q20 0 34.5 -14.5t14.5 -34.5t-14.5 -34.5t-34.5 -14.5h-783l-153 -576h858q20 0 34.5 -14.5t14.5 -34.5t-14.5 -34.5
t-34.5 -14.5zM915 1585l-124 164q-15 18 -15 33t26 31t54 16q43 0 57 -37l74 -188q6 -18 6 -25q0 -18 -26 -18q-34 0 -52 24z" />
    <glyph glyph-name="Eacute" unicode="&#xc9;" horiz-adv-x="1329" 
d="M1065 0h-932q-22 0 -36.5 16t-8.5 37l356 1327q6 23 23.5 38.5t38.5 15.5h907q20 0 34.5 -15t14.5 -35t-14.5 -34.5t-34.5 -14.5h-874l-152 -563h756q20 0 34.5 -14.5t14.5 -34.5t-14.5 -34.5t-34.5 -14.5h-783l-153 -576h858q20 0 34.5 -14.5t14.5 -34.5t-14.5 -34.5
t-34.5 -14.5zM1270 1747l-211 -160q-35 -26 -78 -26q-29 0 -29 20q0 12 11 23l180 194q14 14 19.5 19t16.5 10.5t23 5.5q29 0 59.5 -18t30.5 -33q0 -19 -22 -35z" />
    <glyph glyph-name="Ecircumflex" unicode="&#xca;" horiz-adv-x="1329" 
d="M1065 0h-932q-22 0 -36.5 16t-8.5 37l356 1327q6 23 23.5 38.5t38.5 15.5h907q20 0 34.5 -15t14.5 -35t-14.5 -34.5t-34.5 -14.5h-874l-152 -563h756q20 0 34.5 -14.5t14.5 -34.5t-14.5 -34.5t-34.5 -14.5h-783l-153 -576h858q20 0 34.5 -14.5t14.5 -34.5t-14.5 -34.5
t-34.5 -14.5zM1104 1786l98 -178q10 -20 10 -27q0 -8 -7.5 -14t-20.5 -6q-24 0 -38 5t-28 23l-90 117l-168 -119q-39 -26 -67 -26q-29 0 -29 20q0 13 16 29l193 176q37 37 67 37h13q18 0 29 -8.5t22 -28.5z" />
    <glyph glyph-name="Edieresis" unicode="&#xcb;" horiz-adv-x="1329" 
d="M1065 0h-932q-22 0 -36.5 16t-8.5 37l356 1327q6 23 23.5 38.5t38.5 15.5h907q20 0 34.5 -15t14.5 -35t-14.5 -34.5t-34.5 -14.5h-874l-152 -563h756q20 0 34.5 -14.5t14.5 -34.5t-14.5 -34.5t-34.5 -14.5h-783l-153 -576h858q20 0 34.5 -14.5t14.5 -34.5t-14.5 -34.5
t-34.5 -14.5zM899 1610q-16 -56 -76 -56q-31 0 -48 20t-11 48l18 68q16 55 76 55q31 0 49 -20t11 -48zM1233 1610q-16 -56 -76 -56q-31 0 -48 20t-11 48l18 68q16 55 76 55q31 0 48.5 -20t10.5 -48z" />
    <glyph glyph-name="Igrave" unicode="&#xcc;" horiz-adv-x="561" 
d="M565 1380l-360 -1341q-12 -47 -58 -47q-24 0 -38 16.5t-7 44.5l361 1342q12 47 57 47q23 0 37.5 -17t7.5 -45zM489 1585l-124 164q-15 18 -15 33t26 31t54 16q43 0 57 -37l74 -188q6 -18 6 -25q0 -18 -26 -18q-34 0 -52 24z" />
    <glyph glyph-name="Iacute" unicode="&#xcd;" horiz-adv-x="561" 
d="M565 1380l-360 -1341q-12 -47 -58 -47q-24 0 -38 16.5t-7 44.5l361 1342q12 47 57 47q23 0 37.5 -17t7.5 -45zM844 1747l-211 -160q-35 -26 -78 -26q-29 0 -29 20q0 12 11 23l180 194q14 14 19.5 19t16.5 10.5t23 5.5q29 0 59.5 -18t30.5 -33q0 -19 -22 -35z" />
    <glyph glyph-name="Icircumflex" unicode="&#xce;" horiz-adv-x="561" 
d="M565 1380l-360 -1341q-12 -47 -58 -47q-24 0 -38 16.5t-7 44.5l361 1342q12 47 57 47q23 0 37.5 -17t7.5 -45zM678 1786l98 -178q10 -20 10 -27q0 -8 -7.5 -14t-20.5 -6q-24 0 -38 5t-28 23l-90 117l-168 -119q-39 -26 -67 -26q-29 0 -29 20q0 13 16 29l193 176
q37 37 67 37h13q18 0 29 -8.5t22 -28.5z" />
    <glyph glyph-name="Idieresis" unicode="&#xcf;" horiz-adv-x="561" 
d="M565 1380l-360 -1341q-12 -47 -58 -47q-24 0 -38 16.5t-7 44.5l361 1342q12 47 57 47q23 0 37.5 -17t7.5 -45zM475 1610q-16 -56 -76 -56q-31 0 -48 20t-11 48l18 68q16 55 76 55q31 0 49 -20t11 -48zM809 1610q-16 -56 -76 -56q-31 0 -48 20t-11 48l18 68q16 55 76 55
q31 0 48.5 -20t10.5 -48z" />
    <glyph glyph-name="Eth" unicode="&#xd0;" horiz-adv-x="1640" 
d="M567 1434h275q171 0 316.5 -49t240.5 -144q157 -157 157 -410q0 -163 -57.5 -305t-165.5 -250q-130 -130 -320 -203t-409 -73h-409q-22 0 -36.5 16t-8.5 37l165 619h-98q-20 0 -34.5 14.5t-14.5 34.5t14.5 34.5t34.5 14.5h125l164 610q6 23 23 38.5t38 15.5zM268 98h350
q192 0 354 63.5t281 182.5q193 193 193 479q0 221 -133 351q-161 161 -477 161h-236l-151 -565h419q20 0 35 -14.5t15 -34.5t-15 -34.5t-35 -14.5h-446z" />
    <glyph glyph-name="Ntilde" unicode="&#xd1;" horiz-adv-x="1609" 
d="M1202 178l328 1217q12 47 55 47q23 0 36.5 -17t6.5 -45l-360 -1341q-12 -45 -49 -45h-2q-35 0 -56 43l-641 1245l-334 -1243q-12 -47 -55 -47q-23 0 -36.5 16.5t-6.5 44.5l358 1333q14 54 62 54h4q42 0 70 -54zM842 1556q-17 0 -30 10t-13 27q0 21 14 43q43 74 85.5 114
t105.5 40q29 0 54 -10.5t40 -22.5t43 -39t39 -36.5t26.5 -17t32.5 -7.5q28 0 51.5 22.5t55.5 75.5q18 31 40 31q17 0 30.5 -10t13.5 -27q0 -19 -15 -43q-43 -75 -85 -114.5t-105 -39.5q-29 0 -54 10t-40.5 23t-43.5 39q-29 28 -39.5 37t-26 17t-32.5 8q-28 0 -50.5 -22.5
t-55.5 -76.5q-18 -31 -41 -31z" />
    <glyph glyph-name="Ograve" unicode="&#xd2;" horiz-adv-x="1732" 
d="M815 -27q-178 0 -320 82t-220 222.5t-78 312.5q0 166 65.5 324.5t175 278t263.5 192.5t321 73q133 0 248.5 -48t196.5 -130t127 -196t46 -242q0 -166 -65.5 -325t-175 -278.5t-263.5 -192.5t-321 -73zM815 70q147 0 281 65.5t228.5 172.5t150 247t55.5 287
q0 223 -141.5 371.5t-366.5 148.5q-147 0 -281 -65.5t-228.5 -172.5t-150 -247t-55.5 -287q0 -223 141.5 -371.5t366.5 -148.5zM1053 1606l-125 163q-15 18 -15 33t26 31t54 16q44 0 58 -37l73 -188q6 -18 6 -25q0 -18 -26 -18q-32 0 -51 25z" />
    <glyph glyph-name="Oacute" unicode="&#xd3;" horiz-adv-x="1732" 
d="M815 -27q-178 0 -320 82t-220 222.5t-78 312.5q0 166 65.5 324.5t175 278t263.5 192.5t321 73q133 0 248.5 -48t196.5 -130t127 -196t46 -242q0 -166 -65.5 -325t-175 -278.5t-263.5 -192.5t-321 -73zM815 70q147 0 281 65.5t228.5 172.5t150 247t55.5 287
q0 223 -141.5 371.5t-366.5 148.5q-147 0 -281 -65.5t-228.5 -172.5t-150 -247t-55.5 -287q0 -223 141.5 -371.5t366.5 -148.5zM1407 1767l-211 -159q-36 -27 -78 -27q-28 0 -28 21q0 12 10 22l180 195q13 13 19.5 18.5t17 10.5t22.5 5q29 0 60 -18t31 -33q0 -19 -23 -35z
" />
    <glyph glyph-name="Ocircumflex" unicode="&#xd4;" horiz-adv-x="1732" 
d="M815 -27q-178 0 -320 82t-220 222.5t-78 312.5q0 166 65.5 324.5t175 278t263.5 192.5t321 73q133 0 248.5 -48t196.5 -130t127 -196t46 -242q0 -166 -65.5 -325t-175 -278.5t-263.5 -192.5t-321 -73zM815 70q147 0 281 65.5t228.5 172.5t150 247t55.5 287
q0 223 -141.5 371.5t-366.5 148.5q-147 0 -281 -65.5t-228.5 -172.5t-150 -247t-55.5 -287q0 -223 141.5 -371.5t366.5 -148.5zM1239 1806l98 -178q11 -22 11 -26q0 -8 -8 -14.5t-21 -6.5q-24 0 -38 5t-28 24l-90 116l-168 -118q-17 -11 -24.5 -15.5t-18.5 -8t-24 -3.5
q-14 0 -21.5 6.5t-7.5 14.5q0 12 16 28l193 176q37 37 68 37h12q18 0 29 -8.5t22 -28.5z" />
    <glyph glyph-name="Otilde" unicode="&#xd5;" horiz-adv-x="1732" 
d="M815 -27q-178 0 -320 82t-220 222.5t-78 312.5q0 166 65.5 324.5t175 278t263.5 192.5t321 73q133 0 248.5 -48t196.5 -130t127 -196t46 -242q0 -166 -65.5 -325t-175 -278.5t-263.5 -192.5t-321 -73zM815 70q147 0 281 65.5t228.5 172.5t150 247t55.5 287
q0 223 -141.5 371.5t-366.5 148.5q-147 0 -281 -65.5t-228.5 -172.5t-150 -247t-55.5 -287q0 -223 141.5 -371.5t366.5 -148.5zM881 1577q-17 0 -30 10t-13 27q0 21 14 43q42 74 84.5 113.5t105.5 39.5q42 0 70 -16.5t68 -54.5q29 -28 39.5 -37t26 -17t32.5 -8
q28 0 50.5 22.5t55.5 76.5q17 30 41 30q17 0 30 -10t13 -27q0 -21 -14 -43q-42 -74 -84.5 -113.5t-105.5 -39.5q-29 0 -54 10t-40.5 23t-43.5 39q-28 27 -39 36.5t-26.5 17t-32.5 7.5q-28 0 -51 -22t-55 -76q-18 -31 -41 -31z" />
    <glyph glyph-name="Odieresis" unicode="&#xd6;" horiz-adv-x="1732" 
d="M815 -27q-178 0 -320 82t-220 222.5t-78 312.5q0 166 65.5 324.5t175 278t263.5 192.5t321 73q133 0 248.5 -48t196.5 -130t127 -196t46 -242q0 -166 -65.5 -325t-175 -278.5t-263.5 -192.5t-321 -73zM815 70q147 0 281 65.5t228.5 172.5t150 247t55.5 287
q0 223 -141.5 371.5t-366.5 148.5q-147 0 -281 -65.5t-228.5 -172.5t-150 -247t-55.5 -287q0 -223 141.5 -371.5t366.5 -148.5zM1036 1630q-16 -55 -75 -55q-31 0 -48.5 19.5t-11.5 47.5l19 68q16 55 75 55q31 0 49 -20t11 -47zM1370 1630q-16 -55 -76 -55q-31 0 -48 19.5
t-11 47.5l18 68q16 55 76 55q31 0 49 -20t11 -47z" />
    <glyph glyph-name="multiply" unicode="&#xd7;" horiz-adv-x="1269" 
d="M756 715l248 -334q14 -20 14 -37q0 -20 -15.5 -35.5t-37.5 -15.5q-27 0 -43 22l-246 340l-440 -350q-16 -12 -33 -12q-19 0 -32 14.5t-13 34.5q0 24 22 41l443 346l-248 334q-15 21 -15 37q0 20 16 35.5t38 15.5q27 0 43 -23l245 -340l441 351q16 12 33 12q19 0 32 -14.5
t13 -34.5q0 -24 -23 -41z" />
    <glyph glyph-name="Oslash" unicode="&#xd8;" horiz-adv-x="1732" 
d="M307 590q0 -146 62 -264l1040 868q-145 168 -387 168q-147 0 -281 -65.5t-228.5 -172.5t-150 -247t-55.5 -287zM815 70q147 0 281 65.5t228.5 172.5t150 247t55.5 287q0 154 -70 278l-1042 -870q67 -86 169 -133t228 -47zM340 184l-209 -174q-33 -28 -61 -28
q-17 0 -28 10.5t-11 27.5q0 24 22 43l234 195q-90 152 -90 332q0 166 65.5 324.5t175 278t263.5 192.5t321 73q142 0 261 -52t204 -146l194 163q33 29 60 29q19 0 30 -10t11 -27q0 -25 -23 -45l-217 -182q98 -157 98 -346q0 -166 -65.5 -325t-175 -278.5t-263.5 -192.5
t-321 -73q-146 0 -267.5 56t-207.5 155z" />
    <glyph glyph-name="Ugrave" unicode="&#xd9;" horiz-adv-x="1548" 
d="M1587 1380l-215 -800q-72 -267 -227 -422q-181 -181 -432 -181q-249 0 -382.5 125.5t-133.5 325.5q0 109 28 221l199 746q12 47 57 47q23 0 37.5 -17t7.5 -45l-207 -780q-18 -74 -18 -164q0 -162 106.5 -262t313.5 -100q203 0 350 147q134 134 201 381l213 793
q12 47 57 47q23 0 37.5 -17t7.5 -45zM961 1585l-125 164q-15 18 -15 33t26 31t54 16q43 0 57 -37l74 -188q6 -18 6 -25q0 -18 -26 -18q-33 0 -51 24z" />
    <glyph glyph-name="Uacute" unicode="&#xda;" horiz-adv-x="1548" 
d="M1587 1380l-215 -800q-72 -267 -227 -422q-181 -181 -432 -181q-249 0 -382.5 125.5t-133.5 325.5q0 109 28 221l199 746q12 47 57 47q23 0 37.5 -17t7.5 -45l-207 -780q-18 -74 -18 -164q0 -162 106.5 -262t313.5 -100q203 0 350 147q134 134 201 381l213 793
q12 47 57 47q23 0 37.5 -17t7.5 -45zM1315 1747l-211 -160q-35 -26 -78 -26q-29 0 -29 20q0 12 11 23l180 194q14 14 19.5 19t16.5 10.5t23 5.5q29 0 59.5 -18t30.5 -33q0 -19 -22 -35z" />
    <glyph glyph-name="Ucircumflex" unicode="&#xdb;" horiz-adv-x="1548" 
d="M1587 1380l-215 -800q-72 -267 -227 -422q-181 -181 -432 -181q-249 0 -382.5 125.5t-133.5 325.5q0 109 28 221l199 746q12 47 57 47q23 0 37.5 -17t7.5 -45l-207 -780q-18 -74 -18 -164q0 -162 106.5 -262t313.5 -100q203 0 350 147q134 134 201 381l213 793
q12 47 57 47q23 0 37.5 -17t7.5 -45zM1149 1786l98 -178q10 -20 10 -27q0 -8 -7.5 -14t-20.5 -6q-24 0 -38 5t-28 23l-90 117l-168 -119q-39 -26 -67 -26q-29 0 -29 20q0 13 16 29l193 176q37 37 67 37h13q18 0 29 -8.5t22 -28.5z" />
    <glyph glyph-name="Udieresis" unicode="&#xdc;" horiz-adv-x="1548" 
d="M1587 1380l-215 -800q-72 -267 -227 -422q-181 -181 -432 -181q-249 0 -382.5 125.5t-133.5 325.5q0 109 28 221l199 746q12 47 57 47q23 0 37.5 -17t7.5 -45l-207 -780q-18 -74 -18 -164q0 -162 106.5 -262t313.5 -100q203 0 350 147q134 134 201 381l213 793
q12 47 57 47q23 0 37.5 -17t7.5 -45zM946 1610q-16 -56 -76 -56q-31 0 -48 20t-11 48l18 68q16 55 76 55q31 0 49 -20t11 -48zM1280 1610q-16 -56 -76 -56q-31 0 -48 20t-11 48l18 68q16 55 76 55q31 0 48.5 -20t10.5 -48z" />
    <glyph glyph-name="Yacute" unicode="&#xdd;" horiz-adv-x="1368" 
d="M733 555l-137 -516q-12 -47 -57 -47q-24 0 -38 16.5t-7 44.5l141 529l-340 772q-8 19 -8 37q0 22 14 36.5t37 14.5q36 0 55 -47l314 -731l725 749q29 29 57 29q19 0 33 -12.5t14 -32.5q0 -24 -25 -49zM1217 1747l-211 -160q-35 -26 -78 -26q-29 0 -29 20q0 13 10 23
l181 194q14 14 19.5 19t16.5 10.5t23 5.5q29 0 59.5 -18t30.5 -33q0 -19 -22 -35z" />
    <glyph glyph-name="Thorn" unicode="&#xde;" horiz-adv-x="1368" 
d="M281 373h344q288 0 443 107t155 304q0 117 -74 191q-100 100 -315 100h-365zM836 1174q265 0 395 -130q98 -98 98 -256q0 -242 -189.5 -377t-518.5 -135h-365l-66 -237q-12 -47 -57 -47q-24 0 -38 16.5t-7 44.5l361 1342q12 47 55 47q23 0 37.5 -17t7.5 -45l-53 -206h340
z" />
    <glyph glyph-name="germandbls" unicode="&#xdf;" horiz-adv-x="1269" 
d="M684 797q222 56 328 150t106 229q0 106 -75 172.5t-207 66.5q-149 0 -257 -111.5t-161 -310.5l-256 -954q-12 -47 -56 -47q-23 0 -34.5 16t-5.5 41l260 975q59 223 178 342q143 143 340 143q166 0 274.5 -93.5t108.5 -235.5q0 -311 -434 -432q147 -38 236 -121.5
t89 -214.5q0 -121 -83 -217t-223.5 -147.5t-311.5 -51.5q-21 0 -33 13t-12 32t12 31.5t33 13.5q131 6 230.5 34t159.5 72.5t90 100.5t30 121q0 203 -318 276q-49 9 -49 53q0 20 11.5 34.5t29.5 19.5z" />
    <glyph glyph-name="agrave" unicode="&#xe0;" horiz-adv-x="1169" 
d="M408 68q153 0 288.5 97t177.5 251l25 92q-192 49 -395 49q-156 0 -253 -77t-97 -199q0 -97 68.5 -155t185.5 -58zM815 -8q-23 0 -35 16t-6 41l35 131q-172 -205 -420 -205q-90 0 -166 31.5t-126 100t-50 161.5q0 171 131.5 275t339.5 104q190 0 402 -59l8 28
q14 54 14 105q0 119 -81 182.5t-234 63.5q-138 0 -265 -43q-16 -4 -26 -4q-19 0 -30 12.5t-11 32.5q0 35 39 47q146 49 301 49q191 0 298 -87t107 -239q0 -59 -20 -137l-150 -559q-12 -47 -55 -47zM657 1237l-125 164q-14 17 -14 33q0 15 26 31t54 16q43 0 57 -37l74 -189
q6 -18 6 -24q0 -19 -26 -19q-33 0 -52 25z" />
    <glyph glyph-name="aacute" unicode="&#xe1;" horiz-adv-x="1169" 
d="M408 68q153 0 288.5 97t177.5 251l25 92q-192 49 -395 49q-156 0 -253 -77t-97 -199q0 -97 68.5 -155t185.5 -58zM815 -8q-23 0 -35 16t-6 41l35 131q-172 -205 -420 -205q-90 0 -166 31.5t-126 100t-50 161.5q0 171 131.5 275t339.5 104q190 0 402 -59l8 28
q14 54 14 105q0 119 -81 182.5t-234 63.5q-138 0 -265 -43q-16 -4 -26 -4q-19 0 -30 12.5t-11 32.5q0 35 39 47q146 49 301 49q191 0 298 -87t107 -239q0 -59 -20 -137l-150 -559q-12 -47 -55 -47zM1012 1399l-211 -160q-36 -27 -78 -27q-29 0 -29 21q0 11 11 22l180 195
q14 14 19.5 19t16.5 10.5t23 5.5q29 0 59.5 -18t30.5 -33q0 -19 -22 -35z" />
    <glyph glyph-name="acircumflex" unicode="&#xe2;" horiz-adv-x="1169" 
d="M408 68q153 0 288.5 97t177.5 251l25 92q-192 49 -395 49q-156 0 -253 -77t-97 -199q0 -97 68.5 -155t185.5 -58zM815 -8q-23 0 -35 16t-6 41l35 131q-172 -205 -420 -205q-90 0 -166 31.5t-126 100t-50 161.5q0 171 131.5 275t339.5 104q190 0 402 -59l8 28
q14 54 14 105q0 119 -81 182.5t-234 63.5q-138 0 -265 -43q-16 -4 -26 -4q-19 0 -30 12.5t-11 32.5q0 35 39 47q146 49 301 49q191 0 298 -87t107 -239q0 -59 -20 -137l-150 -559q-12 -47 -55 -47zM846 1438l98 -178q10 -20 10 -27q0 -8 -7.5 -14.5t-20.5 -6.5q-24 0 -38 5
t-28 24l-90 117l-168 -119q-17 -11 -24.5 -15.5t-18.5 -8t-24 -3.5q-14 0 -21.5 6.5t-7.5 14.5q0 13 16 29l193 176q37 37 67 37h13q18 0 29 -8.5t22 -28.5z" />
    <glyph glyph-name="atilde" unicode="&#xe3;" horiz-adv-x="1169" 
d="M408 68q153 0 288.5 97t177.5 251l25 92q-192 49 -395 49q-156 0 -253 -77t-97 -199q0 -97 68.5 -155t185.5 -58zM815 -8q-23 0 -35 16t-6 41l35 131q-172 -205 -420 -205q-90 0 -166 31.5t-126 100t-50 161.5q0 171 131.5 275t339.5 104q190 0 402 -59l8 28
q14 54 14 105q0 119 -81 182.5t-234 63.5q-138 0 -265 -43q-16 -4 -26 -4q-19 0 -30 12.5t-11 32.5q0 35 39 47q146 49 301 49q191 0 298 -87t107 -239q0 -59 -20 -137l-150 -559q-12 -47 -55 -47zM485 1208q-17 0 -30 10t-13 27q0 19 15 43q43 75 85 114.5t105 39.5
q29 0 54 -10.5t40 -22.5t43 -39q38 -37 56.5 -49t42.5 -12q28 0 51 22t55 76q18 31 41 31q17 0 30 -10t13 -27q0 -21 -14 -43q-43 -74 -85.5 -114t-105.5 -40q-29 0 -54 10.5t-40 22.5t-43 39t-39 36.5t-26.5 17t-32.5 7.5q-28 0 -51.5 -22.5t-55.5 -75.5q-18 -31 -41 -31z
" />
    <glyph glyph-name="adieresis" unicode="&#xe4;" horiz-adv-x="1169" 
d="M408 68q153 0 288.5 97t177.5 251l25 92q-192 49 -395 49q-156 0 -253 -77t-97 -199q0 -97 68.5 -155t185.5 -58zM815 -8q-23 0 -35 16t-6 41l35 131q-172 -205 -420 -205q-90 0 -166 31.5t-126 100t-50 161.5q0 171 131.5 275t339.5 104q190 0 402 -59l8 28
q14 54 14 105q0 119 -81 182.5t-234 63.5q-138 0 -265 -43q-16 -4 -26 -4q-19 0 -30 12.5t-11 32.5q0 35 39 47q146 49 301 49q191 0 298 -87t107 -239q0 -59 -20 -137l-150 -559q-12 -47 -55 -47zM641 1262q-16 -56 -76 -56q-31 0 -48 20t-11 48l18 67q16 56 76 56
q31 0 48.5 -20t10.5 -48zM975 1262q-16 -56 -76 -56q-31 0 -48 20t-11 48l18 67q16 56 76 56q31 0 48.5 -20t10.5 -48z" />
    <glyph glyph-name="aring" unicode="&#xe5;" horiz-adv-x="1169" 
d="M408 68q153 0 288.5 97t177.5 251l25 92q-192 49 -395 49q-156 0 -253 -77t-97 -199q0 -97 68.5 -155t185.5 -58zM815 -8q-23 0 -35 16t-6 41l35 131q-172 -205 -420 -205q-90 0 -166 31.5t-126 100t-50 161.5q0 171 131.5 275t339.5 104q190 0 402 -59l8 28
q14 54 14 105q0 119 -81 182.5t-234 63.5q-138 0 -265 -43q-16 -4 -26 -4q-19 0 -30 12.5t-11 32.5q0 35 39 47q146 49 301 49q191 0 298 -87t107 -239q0 -59 -20 -137l-150 -559q-12 -47 -55 -47zM764 1219q-86 0 -138.5 47t-52.5 120q0 86 67.5 147.5t156.5 61.5
q86 0 138 -47.5t52 -120.5q0 -86 -67 -147t-156 -61zM766 1284q61 0 104 41t43 100q0 47 -30 76t-88 29q-61 0 -104.5 -41t-43.5 -100q0 -46 30.5 -75.5t88.5 -29.5z" />
    <glyph glyph-name="ae" unicode="&#xe6;" horiz-adv-x="1976" 
d="M512 557q-156 0 -257 -75t-101 -191q0 -103 69.5 -163t194.5 -60q252 0 487 256q-8 41 -8 98q0 44 6 88q-164 47 -391 47zM1888 670q0 -67 -14 -135q-10 -48 -62 -48h-811q-4 -46 -4 -69q0 -157 95.5 -252.5t250.5 -95.5q186 0 330 118q19 15 39 15q19 0 31 -12t12 -31
q0 -24 -20 -41q-167 -144 -389 -144q-152 0 -258.5 69t-155.5 187q-112 -117 -246.5 -186.5t-275.5 -69.5q-159 0 -261 80t-102 224q0 167 135 267.5t344 100.5q204 0 394 -59l8 28q14 54 14 105q0 119 -81 182.5t-234 63.5q-138 0 -265 -43q-16 -4 -26 -4q-19 0 -30 12.5
t-11 32.5q0 35 39 47q145 49 301 49q165 0 268 -65t129 -183q86 116 206.5 186t254.5 70q126 0 217.5 -55.5t134.5 -144.5t43 -199zM1020 578h758q8 36 8 86q0 135 -75 224t-220 89q-168 0 -296.5 -115t-174.5 -284z" />
    <glyph glyph-name="ccedilla" unicode="&#xe7;" horiz-adv-x="1153" 
d="M940 127q-176 -152 -383 -152h-6l-184 -243q-20 -25 -43 -25q-24 0 -40 14.5t-16 32.5q0 21 21 45l174 187q-74 14 -138.5 50t-114.5 90.5t-79 132t-29 167.5q0 168 84 316.5t226.5 237.5t304.5 89q133 0 229 -57.5t156 -149.5q14 -21 14 -41q0 -19 -13 -32t-32 -13
q-31 0 -49 27q-56 83 -129 127.5t-182 44.5q-130 0 -246 -75.5t-185 -201t-69 -266.5q0 -86 29.5 -156t78.5 -114t112 -68t132 -24q165 0 314 127q17 14 38 14q19 0 31 -13t12 -32q0 -21 -18 -39z" />
    <glyph glyph-name="egrave" unicode="&#xe8;" horiz-adv-x="1193" 
d="M233 578h758q8 36 8 86q0 135 -74.5 224t-219.5 89q-168 0 -297 -115t-175 -284zM557 70q185 0 330 118q19 15 39 15q19 0 31 -12t12 -31q0 -24 -21 -41q-171 -144 -391 -144q-200 0 -327.5 123t-127.5 316q0 121 47.5 239.5t127 210.5t193 148.5t237.5 56.5
q126 0 217.5 -55.5t134.5 -144.5t43 -199q0 -62 -15 -135q-10 -48 -61 -48h-811q-4 -46 -4 -69q0 -157 95.5 -252.5t250.5 -95.5zM702 1237l-124 164q-15 18 -15 33t26 31t54 16q43 0 57 -37l74 -189q6 -18 6 -24q0 -19 -26 -19q-33 0 -52 25z" />
    <glyph glyph-name="eacute" unicode="&#xe9;" horiz-adv-x="1193" 
d="M233 578h758q8 36 8 86q0 135 -74.5 224t-219.5 89q-168 0 -297 -115t-175 -284zM557 70q185 0 330 118q19 15 39 15q19 0 31 -12t12 -31q0 -24 -21 -41q-171 -144 -391 -144q-200 0 -327.5 123t-127.5 316q0 121 47.5 239.5t127 210.5t193 148.5t237.5 56.5
q126 0 217.5 -55.5t134.5 -144.5t43 -199q0 -62 -15 -135q-10 -48 -61 -48h-811q-4 -46 -4 -69q0 -157 95.5 -252.5t250.5 -95.5zM1057 1399l-211 -160q-36 -27 -78 -27q-29 0 -29 21q0 11 11 22l180 195q14 14 19.5 19t16.5 10.5t23 5.5q29 0 59.5 -18t30.5 -33
q0 -19 -22 -35z" />
    <glyph glyph-name="ecircumflex" unicode="&#xea;" horiz-adv-x="1193" 
d="M233 578h758q8 36 8 86q0 135 -74.5 224t-219.5 89q-168 0 -297 -115t-175 -284zM557 70q185 0 330 118q19 15 39 15q19 0 31 -12t12 -31q0 -24 -21 -41q-171 -144 -391 -144q-200 0 -327.5 123t-127.5 316q0 121 47.5 239.5t127 210.5t193 148.5t237.5 56.5
q126 0 217.5 -55.5t134.5 -144.5t43 -199q0 -62 -15 -135q-10 -48 -61 -48h-811q-4 -46 -4 -69q0 -157 95.5 -252.5t250.5 -95.5zM889 1438l98 -178q10 -20 10 -27q0 -8 -7.5 -14.5t-20.5 -6.5q-24 0 -38 5t-28 24l-90 117l-168 -119q-17 -11 -24.5 -15.5t-18.5 -8t-24 -3.5
q-14 0 -21.5 6.5t-7.5 14.5q0 13 16 29l193 176q37 37 67 37h13q18 0 29 -8.5t22 -28.5z" />
    <glyph glyph-name="edieresis" unicode="&#xeb;" horiz-adv-x="1193" 
d="M233 578h758q8 36 8 86q0 135 -74.5 224t-219.5 89q-168 0 -297 -115t-175 -284zM557 70q185 0 330 118q19 15 39 15q19 0 31 -12t12 -31q0 -24 -21 -41q-171 -144 -391 -144q-200 0 -327.5 123t-127.5 316q0 121 47.5 239.5t127 210.5t193 148.5t237.5 56.5
q126 0 217.5 -55.5t134.5 -144.5t43 -199q0 -62 -15 -135q-10 -48 -61 -48h-811q-4 -46 -4 -69q0 -157 95.5 -252.5t250.5 -95.5zM686 1262q-16 -56 -76 -56q-31 0 -48 20t-11 48l18 67q16 56 76 56q31 0 49 -20t11 -48zM1020 1262q-16 -56 -76 -56q-31 0 -48 20t-11 48
l18 67q16 56 76 56q31 0 48.5 -20t10.5 -48z" />
    <glyph glyph-name="igrave" unicode="&#xec;" horiz-adv-x="512" 
d="M432 995l-256 -956q-12 -47 -55 -47q-23 0 -35 16t-6 41l256 957q12 47 55 47q23 0 35 -16.5t6 -41.5zM371 1237l-125 164q-15 18 -15 33t26 31t54 16q44 0 58 -37l73 -189q7 -21 7 -24q0 -19 -27 -19q-32 0 -51 25z" />
    <glyph glyph-name="iacute" unicode="&#xed;" horiz-adv-x="512" 
d="M432 995l-256 -956q-12 -47 -55 -47q-23 0 -35 16t-6 41l256 957q12 47 55 47q23 0 35 -16.5t6 -41.5zM725 1399l-211 -160q-36 -27 -78 -27q-28 0 -28 21q0 12 10 22l180 195q14 14 19.5 19t16.5 10.5t23 5.5q29 0 60 -18t31 -33q0 -19 -23 -35z" />
    <glyph glyph-name="icircumflex" unicode="&#xee;" horiz-adv-x="512" 
d="M432 995l-256 -956q-12 -47 -55 -47q-23 0 -35 16t-6 41l256 957q12 47 55 47q23 0 35 -16.5t6 -41.5zM557 1438l98 -178q11 -22 11 -27q0 -8 -8 -14.5t-21 -6.5q-24 0 -38 5t-28 24l-90 117l-168 -119q-40 -27 -67 -27q-14 0 -21.5 6.5t-7.5 14.5q0 13 16 29l193 176
q37 37 68 37h12q18 0 29 -8.5t22 -28.5z" />
    <glyph glyph-name="idieresis" unicode="&#xef;" horiz-adv-x="512" 
d="M432 995l-256 -956q-12 -47 -55 -47q-23 0 -35 16t-6 41l256 957q12 47 55 47q23 0 35 -16.5t6 -41.5zM356 1262q-16 -56 -75 -56q-31 0 -48.5 20t-11.5 48l19 67q16 56 75 56q31 0 49 -20t11 -48zM690 1262q-16 -56 -76 -56q-31 0 -48 20t-11 48l18 67q16 56 76 56
q31 0 49 -20t11 -48z" />
    <glyph glyph-name="eth" unicode="&#xf0;" horiz-adv-x="1261" 
d="M494 1243l286 125l-20 49q-8 20 -8 37q0 19 16.5 34t40.5 15q38 0 53 -43l19 -47l194 86q12 6 29 6q20 0 31.5 -13t11.5 -32q0 -32 -37 -47l-197 -86l152 -377q53 -131 74.5 -217t21.5 -172q0 -109 -45.5 -214.5t-123.5 -187.5t-193 -132t-244 -50q-197 0 -328 126
t-131 311q0 157 81.5 291.5t213.5 211t279 76.5q186 0 315 -108l-170 399l-287 -127q-12 -6 -28 -6q-20 0 -31.5 13t-11.5 32q0 32 37 47zM565 72q130 0 242.5 65t179 177.5t66.5 242.5q0 146 -103 246t-278 100q-93 0 -179.5 -39t-149.5 -104.5t-100.5 -154.5t-37.5 -185
q0 -159 100.5 -253.5t259.5 -94.5z" />
    <glyph glyph-name="ntilde" unicode="&#xf1;" horiz-adv-x="1251" 
d="M375 1053q23 0 35 -16.5t6 -41.5l-37 -145q87 105 180 162t215 57q155 0 248.5 -90.5t93.5 -241.5q0 -57 -22 -147l-146 -551q-12 -47 -55 -47q-23 0 -35 16t-6 41l145 549q17 66 17 129q0 117 -72 184.5t-197 67.5q-136 0 -263.5 -111t-172.5 -278l-147 -551
q-12 -47 -56 -47q-23 0 -34.5 16t-5.5 41l253 957q12 47 56 47zM565 1208q-17 0 -30 10t-13 27q0 19 15 43q43 75 85 114.5t105 39.5q29 0 54 -10.5t40 -22.5t43 -39q38 -37 56.5 -49t42.5 -12q28 0 51 22t55 76q18 31 41 31q17 0 30 -10t13 -27q0 -21 -14 -43
q-43 -74 -85.5 -114t-105.5 -40q-29 0 -54 10.5t-40 22.5t-43 39t-39 36.5t-26.5 17t-32.5 7.5q-28 0 -51.5 -22.5t-55.5 -75.5q-18 -31 -41 -31z" />
    <glyph glyph-name="ograve" unicode="&#xf2;" horiz-adv-x="1296" 
d="M569 -25q-206 0 -335.5 130.5t-129.5 332.5q0 122 50.5 237.5t134 202t199 139t237.5 52.5q206 0 335.5 -130.5t129.5 -332.5q0 -125 -52 -242t-137 -201.5t-199 -136t-233 -51.5zM580 70q126 0 241.5 72t187.5 195.5t72 264.5q0 174 -100.5 273.5t-265.5 99.5
q-129 0 -245.5 -74.5t-186.5 -198t-70 -260.5q0 -174 100.5 -273t266.5 -99zM750 1237l-125 164q-15 18 -15 33t26 31t54 16q44 0 58 -37l73 -189q6 -18 6 -24q0 -19 -26 -19q-32 0 -51 25z" />
    <glyph glyph-name="oacute" unicode="&#xf3;" horiz-adv-x="1296" 
d="M569 -25q-206 0 -335.5 130.5t-129.5 332.5q0 122 50.5 237.5t134 202t199 139t237.5 52.5q206 0 335.5 -130.5t129.5 -332.5q0 -125 -52 -242t-137 -201.5t-199 -136t-233 -51.5zM580 70q126 0 241.5 72t187.5 195.5t72 264.5q0 174 -100.5 273.5t-265.5 99.5
q-129 0 -245.5 -74.5t-186.5 -198t-70 -260.5q0 -174 100.5 -273t266.5 -99zM1104 1399l-211 -160q-36 -27 -78 -27q-29 0 -29 21q0 11 11 22l180 195q14 14 19.5 19t16.5 10.5t23 5.5q29 0 59.5 -18t30.5 -33q0 -19 -22 -35z" />
    <glyph glyph-name="ocircumflex" unicode="&#xf4;" horiz-adv-x="1296" 
d="M569 -25q-206 0 -335.5 130.5t-129.5 332.5q0 122 50.5 237.5t134 202t199 139t237.5 52.5q206 0 335.5 -130.5t129.5 -332.5q0 -125 -52 -242t-137 -201.5t-199 -136t-233 -51.5zM580 70q126 0 241.5 72t187.5 195.5t72 264.5q0 174 -100.5 273.5t-265.5 99.5
q-129 0 -245.5 -74.5t-186.5 -198t-70 -260.5q0 -174 100.5 -273t266.5 -99zM936 1438l98 -178q10 -20 10 -27q0 -8 -7.5 -14.5t-20.5 -6.5q-24 0 -38 5t-28 24l-90 117l-168 -119q-17 -11 -24.5 -15.5t-18.5 -8t-24 -3.5q-14 0 -21.5 6.5t-7.5 14.5q0 13 16 29l193 176
q37 37 67 37h13q18 0 29 -8.5t22 -28.5z" />
    <glyph glyph-name="otilde" unicode="&#xf5;" horiz-adv-x="1296" 
d="M569 -25q-206 0 -335.5 130.5t-129.5 332.5q0 122 50.5 237.5t134 202t199 139t237.5 52.5q206 0 335.5 -130.5t129.5 -332.5q0 -125 -52 -242t-137 -201.5t-199 -136t-233 -51.5zM580 70q126 0 241.5 72t187.5 195.5t72 264.5q0 174 -100.5 273.5t-265.5 99.5
q-129 0 -245.5 -74.5t-186.5 -198t-70 -260.5q0 -174 100.5 -273t266.5 -99zM578 1208q-17 0 -30 10t-13 27q0 21 14 43q43 75 85 114.5t105 39.5q29 0 54 -10t40.5 -23t43.5 -39q28 -27 39 -36.5t26.5 -17t32.5 -7.5q28 0 51 22t55 76q18 31 41 31q17 0 30 -10t13 -27
q0 -21 -14 -43q-43 -75 -85 -114.5t-105 -39.5q-29 0 -54 10t-40.5 23t-43.5 39q-28 27 -39 36.5t-26.5 17t-32.5 7.5q-28 0 -51.5 -22.5t-55.5 -75.5q-18 -31 -40 -31z" />
    <glyph glyph-name="odieresis" unicode="&#xf6;" horiz-adv-x="1296" 
d="M569 -25q-206 0 -335.5 130.5t-129.5 332.5q0 122 50.5 237.5t134 202t199 139t237.5 52.5q206 0 335.5 -130.5t129.5 -332.5q0 -125 -52 -242t-137 -201.5t-199 -136t-233 -51.5zM580 70q126 0 241.5 72t187.5 195.5t72 264.5q0 174 -100.5 273.5t-265.5 99.5
q-129 0 -245.5 -74.5t-186.5 -198t-70 -260.5q0 -174 100.5 -273t266.5 -99zM733 1262q-16 -56 -76 -56q-31 0 -48 20t-11 48l18 67q16 56 76 56q31 0 49 -20t11 -48zM1067 1262q-16 -56 -76 -56q-31 0 -48 20t-11 48l18 67q16 56 76 56q31 0 48.5 -20t10.5 -48z" />
    <glyph glyph-name="divide" unicode="&#xf7;" horiz-adv-x="1269" 
d="M236 672h909q20 0 34.5 14.5t14.5 34.5t-14.5 34.5t-34.5 14.5h-909q-20 0 -35 -14.5t-15 -34.5t15 -34.5t35 -14.5zM866 1079q-9 -29 -32.5 -46t-57.5 -17q-35 0 -55.5 23t-13.5 55l16 57q9 29 32.5 46t57.5 17q36 0 56.5 -22.5t13.5 -54.5zM655 291q-9 -30 -33 -47
t-57 -17q-35 0 -55.5 23t-13.5 55l16 57q9 30 33 47t57 17q36 0 56.5 -23t13.5 -55z" />
    <glyph glyph-name="oslash" unicode="&#xf8;" horiz-adv-x="1296" 
d="M580 70q126 0 241.5 72t187.5 195.5t72 264.5q0 106 -39 189l-743 -611q96 -110 281 -110zM213 442q0 -105 39 -188l743 610q-102 111 -280 111q-129 0 -245.5 -74.5t-186.5 -198t-70 -260.5zM223 119l-143 -117q-27 -20 -47 -20q-18 0 -28.5 9.5t-10.5 26.5q0 24 22 43
l154 125q-66 111 -66 252q0 122 50.5 237.5t134 202t199 139t237.5 52.5q215 0 346 -141l148 119q27 20 47 20q17 0 28 -10t11 -27q0 -23 -23 -43l-158 -129q66 -111 66 -252q0 -125 -52 -242t-137 -201.5t-199 -136t-233 -51.5q-212 0 -346 144z" />
    <glyph glyph-name="ugrave" unicode="&#xf9;" horiz-adv-x="1247" 
d="M872 -8q-23 0 -35 16t-6 41l37 146q-87 -105 -180 -162.5t-215 -57.5q-155 0 -248.5 90.5t-93.5 241.5q0 54 23 148l145 551q12 47 55 47q23 0 35 -16.5t6 -41.5l-145 -549q-17 -66 -17 -129q0 -117 72 -184t197 -67q136 0 263.5 111t172.5 278l147 551q12 47 56 47
q23 0 35 -16.5t6 -41.5l-254 -956q-12 -47 -56 -47zM713 1237l-125 164q-15 18 -15 33t26 31t54 16q44 0 58 -37l73 -189q7 -21 7 -24q0 -19 -27 -19q-32 0 -51 25z" />
    <glyph glyph-name="uacute" unicode="&#xfa;" horiz-adv-x="1247" 
d="M872 -8q-23 0 -35 16t-6 41l37 146q-87 -105 -180 -162.5t-215 -57.5q-155 0 -248.5 90.5t-93.5 241.5q0 54 23 148l145 551q12 47 55 47q23 0 35 -16.5t6 -41.5l-145 -549q-17 -66 -17 -129q0 -117 72 -184t197 -67q136 0 263.5 111t172.5 278l147 551q12 47 56 47
q23 0 35 -16.5t6 -41.5l-254 -956q-12 -47 -56 -47zM1067 1399l-211 -160q-36 -27 -78 -27q-28 0 -28 21q0 12 10 22l180 195q14 14 19.5 19t16.5 10.5t23 5.5q29 0 60 -18t31 -33q0 -19 -23 -35z" />
    <glyph glyph-name="ucircumflex" unicode="&#xfb;" horiz-adv-x="1247" 
d="M872 -8q-23 0 -35 16t-6 41l37 146q-87 -105 -180 -162.5t-215 -57.5q-155 0 -248.5 90.5t-93.5 241.5q0 54 23 148l145 551q12 47 55 47q23 0 35 -16.5t6 -41.5l-145 -549q-17 -66 -17 -129q0 -117 72 -184t197 -67q136 0 263.5 111t172.5 278l147 551q12 47 56 47
q23 0 35 -16.5t6 -41.5l-254 -956q-12 -47 -56 -47zM901 1438l98 -178q11 -22 11 -27q0 -8 -8 -14.5t-21 -6.5q-24 0 -38 5t-28 24l-90 117l-168 -119q-17 -11 -24.5 -15.5t-18.5 -8t-24 -3.5q-14 0 -21.5 6.5t-7.5 14.5q0 12 17 29l192 176q37 37 68 37h12q18 0 29 -8.5
t22 -28.5z" />
    <glyph glyph-name="udieresis" unicode="&#xfc;" horiz-adv-x="1247" 
d="M872 -8q-23 0 -35 16t-6 41l37 146q-87 -105 -180 -162.5t-215 -57.5q-155 0 -248.5 90.5t-93.5 241.5q0 54 23 148l145 551q12 47 55 47q23 0 35 -16.5t6 -41.5l-145 -549q-17 -66 -17 -129q0 -117 72 -184t197 -67q136 0 263.5 111t172.5 278l147 551q12 47 56 47
q23 0 35 -16.5t6 -41.5l-254 -956q-12 -47 -56 -47zM696 1262q-16 -56 -75 -56q-31 0 -48.5 20t-11.5 48l19 67q16 56 75 56q31 0 49 -20t11 -48zM1030 1262q-16 -56 -76 -56q-31 0 -48 20t-11 48l18 67q16 56 76 56q31 0 49 -20t11 -48z" />
    <glyph glyph-name="yacute" unicode="&#xfd;" horiz-adv-x="1163" 
d="M-94 -201q80 -39 147 -39q82 0 161 56t173 190l-197 959q-4 20 -4 36q0 22 13.5 37t36.5 15q43 0 53 -54l174 -888l606 901q26 41 59 41q21 0 33.5 -12t12.5 -31q0 -20 -13 -39l-692 -1008q-112 -161 -212.5 -229t-215.5 -68q-96 0 -186 49q-29 15 -29 45q0 20 13.5 33.5
t33.5 13.5q17 0 33 -8zM991 1399l-211 -160q-36 -27 -78 -27q-28 0 -28 21q0 12 10 22l180 195q35 35 60 35q29 0 59.5 -18t30.5 -33q0 -19 -23 -35z" />
    <glyph glyph-name="thorn" unicode="&#xfe;" horiz-adv-x="1339" 
d="M635 68q138 0 250 76.5t173.5 202t61.5 269.5q0 161 -90 260t-233 99q-95 0 -191 -46t-168.5 -120.5t-118 -174.5t-45.5 -202q0 -154 101 -259t260 -105zM-23 -279l465 1735q12 47 56 47q23 0 35 -16t6 -41l-164 -606q191 229 434 229q182 0 301 -123.5t119 -316.5
q0 -136 -48.5 -258.5t-129.5 -209t-189 -137.5t-223 -51q-162 0 -266.5 83.5t-149.5 209.5l-149 -555q-12 -47 -56 -47q-23 0 -35 16t-6 41z" />
    <glyph glyph-name="ydieresis" unicode="&#xff;" horiz-adv-x="1163" 
d="M-94 -201q80 -39 147 -39q82 0 161 56t173 190l-197 959q-4 20 -4 36q0 22 13.5 37t36.5 15q43 0 53 -54l174 -888l606 901q26 41 59 41q21 0 33.5 -12t12.5 -31q0 -20 -13 -39l-692 -1008q-112 -161 -212.5 -229t-215.5 -68q-96 0 -186 49q-29 15 -29 45q0 20 13.5 33.5
t33.5 13.5q17 0 33 -8zM621 1262q-16 -56 -76 -56q-31 0 -48.5 20t-11.5 48l19 67q16 56 76 56q31 0 48.5 -20t10.5 -48zM954 1262q-16 -56 -75 -56q-31 0 -48.5 20t-11.5 48l19 67q16 56 75 56q31 0 49 -20t11 -48z" />
    <glyph glyph-name="Amacron" unicode="&#x100;" horiz-adv-x="1517" 
d="M410 498h755l-153 829zM1098 1397l256 -1323q4 -16 4 -33q0 -20 -14.5 -34.5t-36.5 -14.5q-21 0 -36.5 13.5t-19.5 37.5l-65 358h-846l-268 -370q-31 -39 -58 -39q-18 0 -31.5 12.5t-13.5 34.5q0 18 13 31l968 1327q38 51 80 51h4q53 0 64 -51zM1376 1640h-540
q-20 0 -35 15t-15 35t15 34.5t35 14.5h540q20 0 34.5 -14.5t14.5 -34.5t-14.5 -35t-34.5 -15z" />
    <glyph glyph-name="amacron" unicode="&#x101;" horiz-adv-x="1169" 
d="M408 68q153 0 288.5 97t177.5 251l25 92q-192 49 -395 49q-156 0 -253 -77t-97 -199q0 -97 68.5 -155t185.5 -58zM815 -8q-23 0 -35 16t-6 41l35 131q-172 -205 -420 -205q-90 0 -166 31.5t-126 100t-50 161.5q0 171 131.5 275t339.5 104q190 0 402 -59l8 28
q14 54 14 105q0 119 -81 182.5t-234 63.5q-138 0 -265 -43q-16 -4 -26 -4q-19 0 -30 12.5t-11 32.5q0 35 39 47q146 49 301 49q191 0 298 -87t107 -239q0 -59 -20 -137l-150 -559q-12 -47 -55 -47zM1028 1272h-541q-20 0 -34.5 14.5t-14.5 34.5t14.5 34.5t34.5 14.5h541
q20 0 34.5 -14.5t14.5 -34.5t-14.5 -34.5t-34.5 -14.5z" />
    <glyph glyph-name="Abreve" unicode="&#x102;" horiz-adv-x="1517" 
d="M410 498h755l-153 829zM1098 1397l256 -1323q4 -16 4 -33q0 -20 -14.5 -34.5t-36.5 -14.5q-21 0 -36.5 13.5t-19.5 37.5l-65 358h-846l-268 -370q-31 -39 -58 -39q-18 0 -31.5 12.5t-13.5 34.5q0 18 13 31l968 1327q38 51 80 51h4q53 0 64 -51zM1081 1583
q-94 0 -153.5 47t-59.5 142q0 36 13.5 54.5t36.5 18.5q33 0 40 -41q9 -58 38.5 -87t107.5 -29q72 0 120.5 31.5t86.5 88.5q13 20 24 28.5t27 8.5q17 0 29 -11t12 -26q0 -14 -6 -26q-45 -94 -130.5 -146.5t-185.5 -52.5z" />
    <glyph glyph-name="abreve" unicode="&#x103;" horiz-adv-x="1169" 
d="M408 68q153 0 288.5 97t177.5 251l25 92q-192 49 -395 49q-156 0 -253 -77t-97 -199q0 -97 68.5 -155t185.5 -58zM815 -8q-23 0 -35 16t-6 41l35 131q-172 -205 -420 -205q-90 0 -166 31.5t-126 100t-50 161.5q0 171 131.5 275t339.5 104q190 0 402 -59l8 28
q14 54 14 105q0 119 -81 182.5t-234 63.5q-138 0 -265 -43q-16 -4 -26 -4q-19 0 -30 12.5t-11 32.5q0 35 39 47q146 49 301 49q191 0 298 -87t107 -239q0 -59 -20 -137l-150 -559q-12 -47 -55 -47zM735 1214q-94 0 -153.5 47t-59.5 142q0 36 13.5 55t35.5 19q34 0 41 -41
q9 -58 38.5 -87.5t107.5 -29.5q72 0 120.5 31.5t86.5 89.5q13 20 24 28.5t27 8.5q17 0 29 -11t12 -26t-6 -27q-45 -94 -130.5 -146.5t-185.5 -52.5z" />
    <glyph glyph-name="Aogonek" unicode="&#x104;" horiz-adv-x="1517" 
d="M1266 -334q-97 0 -149 39t-52 94q0 60 48.5 112t141.5 112l-69 378h-846l-268 -370q-31 -39 -58 -39q-18 0 -31.5 12.5t-13.5 34.5q0 18 13 31l968 1327q38 51 80 51h4q53 0 64 -51l256 -1323q4 -16 4 -33q0 -25 -23 -41q-166 -110 -166 -184q0 -29 23.5 -45.5
t83.5 -28.5q33 -6 33 -37q0 -18 -11.5 -28.5t-31.5 -10.5zM410 498h755l-153 829z" />
    <glyph glyph-name="aogonek" unicode="&#x105;" horiz-adv-x="1169" 
d="M840 -4q-83 -56 -120.5 -98.5t-37.5 -81.5q0 -29 23 -45.5t83 -28.5q33 -6 33 -37q0 -18 -11.5 -28.5t-31.5 -10.5q-97 0 -148.5 39t-51.5 94q0 60 50.5 114.5t143.5 113.5q0 14 2 22l35 131q-172 -205 -420 -205q-90 0 -166 31.5t-126 100t-50 161.5q0 171 131.5 275
t339.5 104q190 0 402 -59l8 28q14 54 14 105q0 119 -81 182.5t-234 63.5q-138 0 -265 -43q-16 -4 -26 -4q-19 0 -30 12.5t-11 32.5q0 35 39 47q146 49 301 49q191 0 298 -87t107 -239q0 -59 -20 -137l-150 -559q-9 -29 -30 -43zM408 68q153 0 288.5 97t177.5 251l25 92
q-192 49 -395 49q-156 0 -253 -77t-97 -199q0 -97 68.5 -155t185.5 -58z" />
    <glyph glyph-name="Cacute" unicode="&#x106;" horiz-adv-x="1511" 
d="M1309 188q-109 -102 -235 -158.5t-300 -56.5q-119 0 -225.5 40.5t-186.5 114t-127 184.5t-47 243q0 172 68 337t182 289.5t273.5 200.5t332.5 76q167 0 296 -70.5t200 -185.5q14 -25 14 -45q-2 -21 -16.5 -34.5t-36.5 -12.5q-29 0 -43 23q-69 109 -167 169t-253 60
q-151 0 -289.5 -68.5t-236 -180.5t-155.5 -257.5t-58 -296.5q0 -222 135.5 -354.5t349.5 -132.5q141 0 248.5 47t208.5 141q19 19 39 19t34.5 -15t14.5 -35q0 -21 -20 -41zM1362 1767l-211 -159q-36 -27 -78 -27q-29 0 -29 21q0 11 11 22l180 195q13 13 19.5 18.5t17 10.5
t22.5 5q29 0 59.5 -18t30.5 -33q0 -19 -22 -35z" />
    <glyph glyph-name="cacute" unicode="&#x107;" horiz-adv-x="1153" 
d="M940 127q-176 -152 -383 -152q-69 0 -135 19t-124 57.5t-101.5 91.5t-69 126t-25.5 157q0 168 84 316.5t226.5 237.5t304.5 89q133 0 229 -57.5t156 -149.5q14 -21 14 -41q0 -19 -13 -32t-32 -13q-31 0 -49 27q-56 83 -129 127.5t-182 44.5q-130 0 -246 -75.5t-185 -201
t-69 -266.5q0 -86 29.5 -156t78.5 -114t112 -68t132 -24q165 0 314 127q17 14 38 14q19 0 31 -13t12 -32q0 -21 -18 -39zM1049 1399l-211 -160q-36 -27 -78 -27q-29 0 -29 21q0 12 10 22l181 195q14 14 19.5 19t16.5 10.5t23 5.5q29 0 59.5 -18t30.5 -33q0 -19 -22 -35z" />
    <glyph glyph-name="Cdotaccent" unicode="&#x10a;" horiz-adv-x="1511" 
d="M1309 188q-109 -102 -235 -158.5t-300 -56.5q-119 0 -225.5 40.5t-186.5 114t-127 184.5t-47 243q0 172 68 337t182 289.5t273.5 200.5t332.5 76q167 0 296 -70.5t200 -185.5q14 -25 14 -45q-2 -21 -16.5 -34.5t-36.5 -12.5q-29 0 -43 23q-69 109 -167 169t-253 60
q-151 0 -289.5 -68.5t-236 -180.5t-155.5 -257.5t-58 -296.5q0 -222 135.5 -354.5t349.5 -132.5q141 0 248.5 47t208.5 141q19 19 39 19t34.5 -15t14.5 -35q0 -21 -20 -41zM1159 1630q-16 -55 -76 -55q-31 0 -48 19.5t-11 47.5l18 68q16 55 76 55q31 0 49 -20t11 -47z" />
    <glyph glyph-name="cdotaccent" unicode="&#x10b;" horiz-adv-x="1153" 
d="M940 127q-176 -152 -383 -152q-69 0 -135 19t-124 57.5t-101.5 91.5t-69 126t-25.5 157q0 168 84 316.5t226.5 237.5t304.5 89q133 0 229 -57.5t156 -149.5q14 -21 14 -41q0 -19 -13 -32t-32 -13q-31 0 -49 27q-56 83 -129 127.5t-182 44.5q-130 0 -246 -75.5t-185 -201
t-69 -266.5q0 -86 29.5 -156t78.5 -114t112 -68t132 -24q165 0 314 127q17 14 38 14q19 0 31 -13t12 -32q0 -21 -18 -39zM846 1262q-16 -56 -76 -56q-31 0 -48 20t-11 48l18 67q16 56 76 56q31 0 48.5 -20t10.5 -48z" />
    <glyph glyph-name="Ccaron" unicode="&#x10c;" horiz-adv-x="1511" 
d="M1309 188q-109 -102 -235 -158.5t-300 -56.5q-119 0 -225.5 40.5t-186.5 114t-127 184.5t-47 243q0 172 68 337t182 289.5t273.5 200.5t332.5 76q167 0 296 -70.5t200 -185.5q14 -25 14 -45q-2 -21 -16.5 -34.5t-36.5 -12.5q-29 0 -43 23q-69 109 -167 169t-253 60
q-151 0 -289.5 -68.5t-236 -180.5t-155.5 -257.5t-58 -296.5q0 -222 135.5 -354.5t349.5 -132.5q141 0 248.5 47t208.5 141q19 19 39 19t34.5 -15t14.5 -35q0 -21 -20 -41zM1028 1618l-98 178q-10 20 -10 27q0 8 7.5 14t20.5 6q24 0 38 -5t28 -23l90 -117l168 119
q39 26 67 26q29 0 29 -20q0 -13 -16 -29l-193 -176q-37 -37 -67 -37h-13q-18 0 -29 8.5t-22 28.5z" />
    <glyph glyph-name="ccaron" unicode="&#x10d;" horiz-adv-x="1153" 
d="M940 127q-176 -152 -383 -152q-69 0 -135 19t-124 57.5t-101.5 91.5t-69 126t-25.5 157q0 168 84 316.5t226.5 237.5t304.5 89q133 0 229 -57.5t156 -149.5q14 -21 14 -41q0 -19 -13 -32t-32 -13q-31 0 -49 27q-56 83 -129 127.5t-182 44.5q-130 0 -246 -75.5t-185 -201
t-69 -266.5q0 -86 29.5 -156t78.5 -114t112 -68t132 -24q165 0 314 127q17 14 38 14q19 0 31 -13t12 -32q0 -21 -18 -39zM715 1249l-99 178q-10 20 -10 27q0 8 8 14.5t21 6.5q23 0 37 -5t28 -24l91 -117l167 119q40 27 68 27q14 0 21.5 -6.5t7.5 -14.5q0 -12 -17 -29
l-192 -176q-37 -37 -68 -37h-12q-18 0 -29 8.5t-22 28.5z" />
    <glyph glyph-name="Dcaron" unicode="&#x10e;" horiz-adv-x="1579" 
d="M207 98h350q192 0 354 63.5t281 182.5q192 192 192 479q0 221 -133 351q-161 161 -477 161h-235zM506 1434h274q171 0 316.5 -49t240.5 -144q158 -158 158 -410q0 -163 -57.5 -305t-165.5 -250q-130 -130 -320 -203t-409 -73h-410q-22 0 -36.5 16t-8.5 37l356 1327
q6 23 23.5 38.5t38.5 15.5zM942 1597l-98 179q-10 20 -10 26q0 8 7.5 14.5t20.5 6.5q24 0 38 -5t28 -24l90 -117l168 119q40 27 67 27q14 0 21.5 -6.5t7.5 -14.5q0 -12 -16 -28l-193 -177q-36 -36 -67 -36h-13q-31 0 -51 36z" />
    <glyph glyph-name="dcaron" unicode="&#x10f;" horiz-adv-x="1339" 
d="M543 68q128 0 249 76.5t197 203t76 262.5q0 154 -101 259.5t-259 105.5q-138 0 -250.5 -77t-174 -202.5t-61.5 -269.5q0 -160 90.5 -259t233.5 -99zM965 -8q-23 0 -35 16t-6 41l39 154q-191 -230 -433 -230q-182 0 -300.5 124t-118.5 317q0 136 48.5 258.5t129 209
t188.5 137t223 50.5q162 0 266.5 -83.5t149.5 -209.5l182 680q12 47 56 47q23 0 35 -16t6 -41l-375 -1407q-12 -47 -55 -47zM1487 1223l86 227q19 51 72 51h26q29 0 29 -22q0 -14 -19 -45l-131 -217q-21 -35 -45 -35t-24 18q0 8 6 23z" />
    <glyph glyph-name="Dcroat" unicode="&#x110;" horiz-adv-x="1640" 
d="M567 1434h275q171 0 316.5 -49t240.5 -144q157 -157 157 -410q0 -163 -57.5 -305t-165.5 -250q-130 -130 -320 -203t-409 -73h-409q-22 0 -36.5 16t-8.5 37l165 619h-98q-20 0 -34.5 14.5t-14.5 34.5t14.5 34.5t34.5 14.5h125l164 610q6 23 23 38.5t38 15.5zM268 98h350
q192 0 354 63.5t281 182.5q193 193 193 479q0 221 -133 351q-161 161 -477 161h-236l-151 -565h419q20 0 35 -14.5t15 -34.5t-15 -34.5t-35 -14.5h-446z" />
    <glyph glyph-name="dcroat" unicode="&#x111;" horiz-adv-x="1339" 
d="M965 -8q-23 0 -35 16t-6 41l39 154q-191 -230 -433 -230q-182 0 -300.5 124t-118.5 317q0 136 48.5 258.5t129 209t188.5 137t223 50.5q162 0 266.5 -83.5t149.5 -209.5l131 492h-329q-19 0 -32.5 13t-13.5 32t13.5 32t32.5 13h354l26 98q12 47 56 47q23 0 35 -16t6 -41
l-25 -88h96q19 0 32 -13t13 -32t-13 -32t-32 -13h-118l-328 -1229q-12 -47 -55 -47zM543 68q128 0 249 76.5t197 203t76 262.5q0 154 -101 259.5t-259 105.5q-138 0 -250.5 -77t-174 -202.5t-61.5 -269.5q0 -160 90.5 -259t233.5 -99z" />
    <glyph glyph-name="Emacron" unicode="&#x112;" horiz-adv-x="1329" 
d="M1065 0h-932q-22 0 -36.5 16t-8.5 37l356 1327q6 23 23.5 38.5t38.5 15.5h907q20 0 34.5 -15t14.5 -35t-14.5 -34.5t-34.5 -14.5h-874l-152 -563h756q20 0 34.5 -14.5t14.5 -34.5t-14.5 -34.5t-34.5 -14.5h-783l-153 -576h858q20 0 34.5 -14.5t14.5 -34.5t-14.5 -34.5
t-34.5 -14.5zM1286 1620h-541q-20 0 -34.5 14.5t-14.5 34.5t14.5 34.5t34.5 14.5h541q20 0 34.5 -14.5t14.5 -34.5t-14.5 -34.5t-34.5 -14.5z" />
    <glyph glyph-name="emacron" unicode="&#x113;" horiz-adv-x="1193" 
d="M233 578h758q8 36 8 86q0 135 -74.5 224t-219.5 89q-168 0 -297 -115t-175 -284zM557 70q185 0 330 118q19 15 39 15q19 0 31 -12t12 -31q0 -24 -21 -41q-171 -144 -391 -144q-200 0 -327.5 123t-127.5 316q0 121 47.5 239.5t127 210.5t193 148.5t237.5 56.5
q126 0 217.5 -55.5t134.5 -144.5t43 -199q0 -62 -15 -135q-10 -48 -61 -48h-811q-4 -46 -4 -69q0 -157 95.5 -252.5t250.5 -95.5zM1073 1272h-541q-20 0 -34.5 14.5t-14.5 34.5t14.5 34.5t34.5 14.5h541q20 0 34.5 -14.5t14.5 -34.5t-14.5 -34.5t-34.5 -14.5z" />
    <glyph glyph-name="Ebreve" unicode="&#x114;" horiz-adv-x="1329" 
d="M1065 0h-932q-22 0 -36.5 16t-8.5 37l356 1327q6 23 23.5 38.5t38.5 15.5h907q20 0 34.5 -15t14.5 -35t-14.5 -34.5t-34.5 -14.5h-874l-152 -563h756q20 0 34.5 -14.5t14.5 -34.5t-14.5 -34.5t-34.5 -14.5h-783l-153 -576h858q20 0 34.5 -14.5t14.5 -34.5t-14.5 -34.5
t-34.5 -14.5zM991 1563q-94 0 -153.5 46.5t-59.5 141.5q0 36 13.5 55t35.5 19q34 0 41 -41q9 -58 38.5 -87.5t107.5 -29.5q72 0 120.5 31.5t86.5 89.5q13 20 24 28.5t27 8.5q17 0 29 -11t12 -26t-6 -27q-45 -94 -130.5 -146t-185.5 -52z" />
    <glyph glyph-name="ebreve" unicode="&#x115;" horiz-adv-x="1193" 
d="M233 578h758q8 36 8 86q0 135 -74.5 224t-219.5 89q-168 0 -297 -115t-175 -284zM557 70q185 0 330 118q19 15 39 15q19 0 31 -12t12 -31q0 -24 -21 -41q-171 -144 -391 -144q-200 0 -327.5 123t-127.5 316q0 121 47.5 239.5t127 210.5t193 148.5t237.5 56.5
q126 0 217.5 -55.5t134.5 -144.5t43 -199q0 -62 -15 -135q-10 -48 -61 -48h-811q-4 -46 -4 -69q0 -157 95.5 -252.5t250.5 -95.5zM778 1214q-94 0 -153.5 47t-59.5 142q0 36 13.5 55t35.5 19q34 0 41 -41q9 -58 38.5 -87.5t107.5 -29.5q72 0 120.5 31.5t86.5 89.5
q13 20 24 28.5t27 8.5q17 0 29 -11t12 -26t-6 -27q-45 -94 -130.5 -146.5t-185.5 -52.5z" />
    <glyph glyph-name="Edotaccent" unicode="&#x116;" horiz-adv-x="1329" 
d="M1065 0h-932q-22 0 -36.5 16t-8.5 37l356 1327q6 23 23.5 38.5t38.5 15.5h907q20 0 34.5 -15t14.5 -35t-14.5 -34.5t-34.5 -14.5h-874l-152 -563h756q20 0 34.5 -14.5t14.5 -34.5t-14.5 -34.5t-34.5 -14.5h-783l-153 -576h858q20 0 34.5 -14.5t14.5 -34.5t-14.5 -34.5
t-34.5 -14.5zM1067 1610q-16 -56 -76 -56q-31 0 -48 20t-11 48l18 68q16 55 76 55q31 0 48.5 -20t10.5 -48z" />
    <glyph glyph-name="edotaccent" unicode="&#x117;" horiz-adv-x="1193" 
d="M233 578h758q8 36 8 86q0 135 -74.5 224t-219.5 89q-168 0 -297 -115t-175 -284zM557 70q185 0 330 118q19 15 39 15q19 0 31 -12t12 -31q0 -24 -21 -41q-171 -144 -391 -144q-200 0 -327.5 123t-127.5 316q0 121 47.5 239.5t127 210.5t193 148.5t237.5 56.5
q126 0 217.5 -55.5t134.5 -144.5t43 -199q0 -62 -15 -135q-10 -48 -61 -48h-811q-4 -46 -4 -69q0 -157 95.5 -252.5t250.5 -95.5zM854 1262q-16 -56 -76 -56q-31 0 -48 20t-11 48l18 67q16 56 76 56q31 0 48.5 -20t10.5 -48z" />
    <glyph glyph-name="Eogonek" unicode="&#x118;" horiz-adv-x="1329" 
d="M1083 2q-168 -111 -168 -186q0 -29 23.5 -45.5t83.5 -28.5q33 -6 33 -37q0 -18 -11.5 -28.5t-31.5 -10.5q-97 0 -149 39t-52 94q0 97 154 201h-832q-22 0 -36.5 16t-8.5 37l356 1327q6 23 23.5 38.5t38.5 15.5h907q20 0 34.5 -15t14.5 -35t-14.5 -34.5t-34.5 -14.5h-874
l-152 -563h756q20 0 34.5 -14.5t14.5 -34.5t-14.5 -34.5t-34.5 -14.5h-783l-153 -576h856q23 0 37 -12.5t14 -32.5q0 -29 -31 -51z" />
    <glyph glyph-name="eogonek" unicode="&#x119;" horiz-adv-x="1193" 
d="M795 2q-90 -70 -124 -108.5t-34 -77.5q0 -29 23 -45.5t83 -28.5q33 -6 33 -37q0 -18 -11.5 -28.5t-31.5 -10.5q-97 0 -149 39t-52 94q0 92 132 185q-79 -9 -107 -9q-200 0 -327.5 123t-127.5 316q0 121 47.5 239.5t127 210.5t193 148.5t237.5 56.5q126 0 217.5 -55.5
t134.5 -144.5t43 -199q0 -62 -15 -135q-10 -48 -61 -48h-811q-4 -46 -4 -69q0 -157 95.5 -252.5t250.5 -95.5q185 0 330 118q19 15 39 15q19 0 31 -12t12 -31q0 -24 -21 -41zM233 578h758q8 36 8 86q0 135 -74.5 224t-219.5 89q-168 0 -297 -115t-175 -284z" />
    <glyph glyph-name="Ecaron" unicode="&#x11a;" horiz-adv-x="1329" 
d="M1065 0h-932q-22 0 -36.5 16t-8.5 37l356 1327q6 23 23.5 38.5t38.5 15.5h907q20 0 34.5 -15t14.5 -35t-14.5 -34.5t-34.5 -14.5h-874l-152 -563h756q20 0 34.5 -14.5t14.5 -34.5t-14.5 -34.5t-34.5 -14.5h-783l-153 -576h858q20 0 34.5 -14.5t14.5 -34.5t-14.5 -34.5
t-34.5 -14.5zM938 1597l-98 179q-11 22 -11 26q0 8 8 14.5t21 6.5q24 0 38 -5t28 -24l90 -117l168 119q40 27 67 27q14 0 21.5 -6.5t7.5 -14.5q0 -12 -16 -28l-193 -177q-36 -36 -68 -36h-12q-31 0 -51 36z" />
    <glyph glyph-name="ecaron" unicode="&#x11b;" horiz-adv-x="1193" 
d="M233 578h758q8 36 8 86q0 135 -74.5 224t-219.5 89q-168 0 -297 -115t-175 -284zM557 70q185 0 330 118q19 15 39 15q19 0 31 -12t12 -31q0 -24 -21 -41q-171 -144 -391 -144q-200 0 -327.5 123t-127.5 316q0 121 47.5 239.5t127 210.5t193 148.5t237.5 56.5
q126 0 217.5 -55.5t134.5 -144.5t43 -199q0 -62 -15 -135q-10 -48 -61 -48h-811q-4 -46 -4 -69q0 -157 95.5 -252.5t250.5 -95.5zM723 1249l-98 178q-11 22 -11 27q0 8 8 14.5t21 6.5q24 0 38 -5t28 -24l90 -117l168 119q17 11 24.5 15.5t18.5 8t24 3.5q14 0 21.5 -6.5
t7.5 -14.5q0 -13 -16 -29l-193 -176q-37 -37 -68 -37h-12q-18 0 -29 8.5t-22 28.5z" />
    <glyph glyph-name="Gbreve" unicode="&#x11e;" horiz-adv-x="1609" 
d="M1477 686l-148 -516q-12 -47 -51 -68q-114 -65 -223 -97t-244 -32q-178 0 -318 73.5t-220 212t-80 319.5q0 131 42.5 260.5t122 240.5t185.5 196.5t242 134t282 48.5q317 0 487 -213q21 -25 21 -45q0 -21 -13.5 -36t-35.5 -15q-27 0 -43 22q-135 191 -426 191
q-157 0 -299 -67.5t-240.5 -177t-156.5 -250.5t-58 -285q0 -237 141 -374.5t373 -137.5q240 0 414 116l131 459h-428q-20 0 -34.5 14.5t-14.5 34.5t14.5 34.5t34.5 14.5h496q25 0 39 -18t8 -39zM1110 1583q-94 0 -153.5 47t-59.5 142q0 36 13.5 54.5t35.5 18.5q34 0 41 -41
q9 -58 38.5 -87t107.5 -29q72 0 120 31.5t86 88.5q24 37 52 37q17 0 29 -11t12 -26q0 -12 -7 -26q-45 -94 -130 -146.5t-185 -52.5z" />
    <glyph glyph-name="gbreve" unicode="&#x11f;" horiz-adv-x="1339" 
d="M578 172q128 0 244 67t185.5 175.5t69.5 224.5q0 132 -101 233t-265 101q-123 0 -232 -60t-178.5 -172.5t-69.5 -251.5q0 -100 51 -174t128 -108.5t168 -34.5zM1122 791l58 215q12 47 55 47q23 0 35 -16.5t6 -41.5l-229 -866q-55 -202 -164 -311q-150 -150 -400 -150
q-124 0 -245 43.5t-218 124.5q-22 19 -22 47q0 19 13.5 33t33.5 14q23 0 41 -14q182 -154 401 -154q205 0 322 117q91 91 143 275l37 131q-194 -207 -430 -207q-84 0 -162 28t-139.5 78.5t-98 128.5t-36.5 170q0 126 51 237.5t134.5 186.5t190 118.5t216.5 43.5
q87 0 156.5 -23t117 -65.5t78 -87.5t55.5 -102zM854 1214q-94 0 -153.5 47t-59.5 142q0 36 13.5 55t35.5 19q34 0 41 -41q9 -58 38.5 -87.5t107.5 -29.5q72 0 120 31.5t86 89.5q24 37 52 37q17 0 29 -11t12 -26q0 -13 -7 -27q-45 -94 -130 -146.5t-185 -52.5z" />
    <glyph glyph-name="Gdotaccent" unicode="&#x120;" horiz-adv-x="1609" 
d="M1477 686l-148 -516q-12 -47 -51 -68q-114 -65 -223 -97t-244 -32q-178 0 -318 73.5t-220 212t-80 319.5q0 131 42.5 260.5t122 240.5t185.5 196.5t242 134t282 48.5q317 0 487 -213q21 -25 21 -45q0 -21 -13.5 -36t-35.5 -15q-27 0 -43 22q-135 191 -426 191
q-157 0 -299 -67.5t-240.5 -177t-156.5 -250.5t-58 -285q0 -237 141 -374.5t373 -137.5q240 0 414 116l131 459h-428q-20 0 -34.5 14.5t-14.5 34.5t14.5 34.5t34.5 14.5h496q25 0 39 -18t8 -39zM1186 1630q-16 -55 -76 -55q-31 0 -48 19.5t-11 47.5l18 68q16 55 76 55
q31 0 48.5 -19.5t10.5 -47.5z" />
    <glyph glyph-name="gdotaccent" unicode="&#x121;" horiz-adv-x="1339" 
d="M578 172q128 0 244 67t185.5 175.5t69.5 224.5q0 132 -101 233t-265 101q-123 0 -232 -60t-178.5 -172.5t-69.5 -251.5q0 -100 51 -174t128 -108.5t168 -34.5zM1122 791l58 215q12 47 55 47q23 0 35 -16.5t6 -41.5l-229 -866q-55 -202 -164 -311q-150 -150 -400 -150
q-124 0 -245 43.5t-218 124.5q-22 19 -22 47q0 19 13.5 33t33.5 14q23 0 41 -14q182 -154 401 -154q205 0 322 117q91 91 143 275l37 131q-194 -207 -430 -207q-84 0 -162 28t-139.5 78.5t-98 128.5t-36.5 170q0 126 51 237.5t134.5 186.5t190 118.5t216.5 43.5
q87 0 156.5 -23t117 -65.5t78 -87.5t55.5 -102zM930 1262q-16 -56 -76 -56q-31 0 -48 20t-11 48l18 67q16 56 76 56q31 0 48.5 -20t10.5 -48z" />
    <glyph glyph-name="Gcommaaccent" unicode="&#x122;" horiz-adv-x="1609" 
d="M1477 686l-148 -516q-12 -47 -51 -68q-114 -65 -223 -97t-244 -32q-178 0 -318 73.5t-220 212t-80 319.5q0 131 42.5 260.5t122 240.5t185.5 196.5t242 134t282 48.5q317 0 487 -213q21 -25 21 -45q0 -21 -13.5 -36t-35.5 -15q-27 0 -43 22q-135 191 -426 191
q-157 0 -299 -67.5t-240.5 -177t-156.5 -250.5t-58 -285q0 -237 141 -374.5t373 -137.5q240 0 414 116l131 459h-428q-20 0 -34.5 14.5t-14.5 34.5t14.5 34.5t34.5 14.5h496q25 0 39 -18t8 -39zM610 -301q-49 10 -49 55q0 38 23 70.5t65 32.5q66 0 66 -66q0 -42 -22.5 -95.5
t-55.5 -86.5q-32 -32 -78 -50t-88 -18q-25 0 -25 21q0 22 37 30q56 14 85.5 38.5t41.5 68.5z" />
    <glyph glyph-name="gcommaaccent" unicode="&#x123;" horiz-adv-x="1339" 
d="M578 172q128 0 244 67t185.5 175.5t69.5 224.5q0 132 -101 233t-265 101q-123 0 -232 -60t-178.5 -172.5t-69.5 -251.5q0 -100 51 -174t128 -108.5t168 -34.5zM1122 791l58 215q12 47 55 47q23 0 35 -16.5t6 -41.5l-229 -866q-55 -202 -164 -311q-150 -150 -400 -150
q-124 0 -245 43.5t-218 124.5q-22 19 -22 47q0 19 13.5 33t33.5 14q23 0 41 -14q182 -154 401 -154q205 0 322 117q91 91 143 275l37 131q-194 -207 -430 -207q-84 0 -162 28t-139.5 78.5t-98 128.5t-36.5 170q0 126 51 237.5t134.5 186.5t190 118.5t216.5 43.5
q87 0 156.5 -23t117 -65.5t78 -87.5t55.5 -102zM891 1364q49 -10 49 -55q0 -38 -23 -70.5t-65 -32.5q-66 0 -66 66q0 42 22.5 95.5t55.5 86.5q32 32 78 50t88 18q25 0 25 -21q0 -23 -37 -31q-56 -14 -85.5 -38t-41.5 -68z" />
    <glyph glyph-name="Hbar" unicode="&#x126;" horiz-adv-x="1548" 
d="M1565 1380l-66 -243h98q20 0 35 -14t15 -33t-15 -33.5t-35 -14.5h-124l-269 -1003q-12 -47 -57 -47q-24 0 -38 16.5t-7 44.5l166 619h-908l-170 -633q-12 -47 -57 -47q-24 0 -38 16.5t-7 44.5l266 989h-98q-20 0 -34.5 14.5t-14.5 33.5t14.5 33t34.5 14h123l70 258
q12 47 57 47q23 0 37.5 -17t7.5 -45l-66 -243h908l69 258q12 47 58 47q23 0 37.5 -17t7.5 -45zM387 770h907l74 272h-909z" />
    <glyph glyph-name="hbar" unicode="&#x127;" horiz-adv-x="1247" 
d="M1094 590l-146 -551q-12 -47 -55 -47q-23 0 -35 16t-6 41l145 549q17 66 17 129q0 117 -72 184.5t-197 67.5q-136 0 -263.5 -111t-172.5 -278l-147 -551q-12 -47 -56 -47q-23 0 -34.5 16t-5.5 41l325 1219h-96q-19 0 -32 13t-13 32t13 32t32 13h121l26 98q12 47 56 47
q23 0 35 -16t6 -41l-25 -88h330q19 0 32 -13t13 -32t-13 -32t-32 -13h-355l-110 -418q87 105 180 162t215 57q155 0 248.5 -90.5t93.5 -241.5q0 -57 -22 -147z" />
    <glyph glyph-name="Imacron" unicode="&#x12a;" horiz-adv-x="561" 
d="M565 1380l-360 -1341q-12 -47 -58 -47q-24 0 -38 16.5t-7 44.5l361 1342q12 47 57 47q23 0 37.5 -17t7.5 -45zM860 1620h-541q-20 0 -34.5 14.5t-14.5 34.5t14.5 34.5t34.5 14.5h541q20 0 34.5 -14.5t14.5 -34.5t-14.5 -34.5t-34.5 -14.5z" />
    <glyph glyph-name="imacron" unicode="&#x12b;" horiz-adv-x="512" 
d="M432 995l-256 -956q-12 -47 -55 -47q-23 0 -35 16t-6 41l256 957q12 47 55 47q23 0 35 -16.5t6 -41.5zM741 1272h-540q-20 0 -34.5 14.5t-14.5 34.5t14.5 34.5t34.5 14.5h540q20 0 35 -14.5t15 -34.5t-15 -34.5t-35 -14.5z" />
    <glyph glyph-name="Ibreve" unicode="&#x12c;" horiz-adv-x="561" 
d="M565 1380l-360 -1341q-12 -47 -58 -47q-24 0 -38 16.5t-7 44.5l361 1342q12 47 57 47q23 0 37.5 -17t7.5 -45zM565 1563q-94 0 -153.5 46.5t-59.5 141.5q0 36 13.5 55t35.5 19q34 0 41 -41q9 -58 38.5 -87.5t107.5 -29.5q72 0 120.5 31.5t86.5 89.5q13 20 24 28.5t27 8.5
q17 0 29 -11t12 -26t-6 -27q-45 -94 -130.5 -146t-185.5 -52z" />
    <glyph glyph-name="ibreve" unicode="&#x12d;" horiz-adv-x="512" 
d="M432 995l-256 -956q-12 -47 -55 -47q-23 0 -35 16t-6 41l256 957q12 47 55 47q23 0 35 -16.5t6 -41.5zM446 1214q-94 0 -153.5 47t-59.5 142q0 36 13.5 55t36.5 19q34 0 41 -41q9 -58 38 -87.5t107 -29.5q72 0 120.5 31.5t86.5 89.5q13 20 24 28.5t27 8.5q17 0 29 -11
t12 -26t-6 -27q-45 -94 -130.5 -146.5t-185.5 -52.5z" />
    <glyph glyph-name="Iogonek" unicode="&#x12e;" horiz-adv-x="561" 
d="M111 -334q-97 0 -149 39t-52 94q0 60 49.5 113t142.5 113q-3 14 0 28l361 1342q12 47 57 47q23 0 37.5 -17t7.5 -45l-360 -1341q-8 -26 -35 -45q-83 -58 -119.5 -99t-36.5 -79q0 -29 23.5 -45.5t83.5 -28.5q33 -6 33 -37q0 -18 -11.5 -28.5t-31.5 -10.5z" />
    <glyph glyph-name="iogonek" unicode="&#x12f;" horiz-adv-x="512" 
d="M432 995l-256 -956q-8 -28 -31 -43q-83 -56 -120 -98.5t-37 -81.5q0 -29 23 -45.5t83 -28.5q33 -6 33 -37q0 -18 -11.5 -28.5t-31.5 -10.5q-97 0 -149 39t-52 94q0 60 50.5 114.5t144.5 113.5q0 14 2 22l256 957q12 47 55 47q23 0 35 -16.5t6 -41.5zM543 1354
q-12 -47 -70 -47q-28 0 -43.5 16t-9.5 41l14 53q12 47 70 47q28 0 43.5 -16t9.5 -41z" />
    <glyph glyph-name="Idotaccent" unicode="&#x130;" horiz-adv-x="561" 
d="M565 1380l-360 -1341q-12 -47 -58 -47q-24 0 -38 16.5t-7 44.5l361 1342q12 47 57 47q23 0 37.5 -17t7.5 -45zM643 1610q-16 -56 -76 -56q-31 0 -48 20t-11 48l18 68q16 55 76 55q31 0 49 -20t11 -48z" />
    <glyph glyph-name="dotlessi" unicode="&#x131;" horiz-adv-x="512" 
d="M432 995l-256 -956q-12 -47 -55 -47q-23 0 -35 16t-6 41l256 957q12 47 55 47q23 0 35 -16.5t6 -41.5z" />
    <glyph glyph-name="Kcommaaccent" unicode="&#x136;" horiz-adv-x="1462" 
d="M276 358l-86 -319q-12 -47 -57 -47q-24 0 -38 16.5t-7 44.5l361 1342q12 47 57 47q23 0 37.5 -17t7.5 -45l-236 -878l1135 921q22 19 45 19q21 0 34 -13t13 -34q0 -25 -24 -43l-695 -559l389 -711q13 -23 13 -39q0 -22 -14.5 -36.5t-36.5 -14.5q-37 0 -56 37l-383 702z
M545 -291q-49 10 -49 55q0 38 23 70.5t65 32.5q65 0 65 -66q0 -42 -22.5 -95.5t-55.5 -86.5q-32 -32 -77.5 -50t-87.5 -18q-25 0 -25 21q0 23 37 31q56 14 85.5 38t41.5 68z" />
    <glyph glyph-name="kcommaaccent" unicode="&#x137;" horiz-adv-x="1146" 
d="M539 1446l-283 -1059l801 649q21 17 43 17q19 0 31 -10.5t12 -30.5q0 -25 -23 -41l-489 -393l268 -498q14 -25 14 -39q0 -22 -14.5 -35.5t-36.5 -13.5q-33 0 -51 35l-264 489l-328 -262l-57 -215q-12 -47 -56 -47q-23 0 -34.5 16t-5.5 41l376 1407q12 47 56 47
q23 0 35 -16t6 -41zM375 -301q-49 10 -49 55q0 38 23 70.5t65 32.5q65 0 65 -66q0 -42 -22.5 -95.5t-55.5 -86.5q-32 -32 -77.5 -50t-87.5 -18q-25 0 -25 21q0 22 37 30q56 14 85.5 38.5t41.5 68.5z" />
    <glyph glyph-name="Lacute" unicode="&#x139;" horiz-adv-x="1228" 
d="M993 0h-860q-22 0 -36.5 16t-8.5 37l361 1342q12 47 57 47q23 0 37.5 -17t7.5 -45l-344 -1282h786q20 0 34.5 -14.5t14.5 -34.5t-14.5 -34.5t-34.5 -14.5zM852 1747l-211 -160q-35 -26 -78 -26q-28 0 -28 20q0 13 10 23l180 194q14 14 19.5 19t16.5 10.5t23 5.5
q29 0 59.5 -18t30.5 -33q0 -19 -22 -35z" />
    <glyph glyph-name="lacute" unicode="&#x13a;" horiz-adv-x="512" 
d="M553 1446l-377 -1407q-12 -47 -55 -47q-23 0 -35 16t-6 41l377 1407q12 47 55 47q23 0 35 -16t6 -41zM834 1794l-211 -160q-35 -26 -78 -26q-29 0 -29 20q0 13 10 23l181 194q14 14 19.5 19t16.5 10.5t23 5.5q29 0 59.5 -18t30.5 -33q0 -19 -22 -35z" />
    <glyph glyph-name="Lcommaaccent" unicode="&#x13b;" horiz-adv-x="1228" 
d="M993 0h-860q-22 0 -36.5 16t-8.5 37l361 1342q12 47 57 47q23 0 37.5 -17t7.5 -45l-344 -1282h786q20 0 34.5 -14.5t14.5 -34.5t-14.5 -34.5t-34.5 -14.5zM436 -301q-49 10 -49 55q0 38 23 70.5t65 32.5q66 0 66 -66q0 -42 -22.5 -95.5t-55.5 -86.5q-32 -32 -78 -50
t-88 -18q-25 0 -25 21q0 22 37 30q56 14 85.5 38.5t41.5 68.5z" />
    <glyph glyph-name="lcommaaccent" unicode="&#x13c;" horiz-adv-x="512" 
d="M553 1446l-377 -1407q-12 -47 -55 -47q-23 0 -35 16t-6 41l377 1407q12 47 55 47q23 0 35 -16t6 -41zM47 -301q-49 10 -49 55q0 38 23 70.5t65 32.5q66 0 66 -66q0 -42 -22.5 -95.5t-55.5 -86.5q-32 -32 -78 -50t-88 -18q-25 0 -25 21q0 22 37 30q56 14 85.5 38.5
t41.5 68.5z" />
    <glyph glyph-name="Lcaron" unicode="&#x13d;" horiz-adv-x="1228" 
d="M993 0h-860q-22 0 -36.5 16t-8.5 37l361 1342q12 47 57 47q23 0 37.5 -17t7.5 -45l-344 -1282h786q20 0 34.5 -14.5t14.5 -34.5t-14.5 -34.5t-34.5 -14.5zM668 1161l86 228q19 51 71 51h27q29 0 29 -23q0 -14 -19 -45l-131 -217q-21 -35 -45 -35t-24 19q0 7 6 22z" />
    <glyph glyph-name="lcaron" unicode="&#x13e;" horiz-adv-x="512" 
d="M553 1446l-377 -1407q-12 -47 -55 -47q-23 0 -35 16t-6 41l377 1407q12 47 55 47q23 0 35 -16t6 -41zM608 1223l86 227q19 51 72 51h27q28 0 28 -22q0 -15 -18 -45l-131 -217q-21 -35 -45 -35q-25 0 -25 18q0 8 6 23z" />
    <glyph glyph-name="Ldot" unicode="&#x13f;" horiz-adv-x="1228" 
d="M1063 711q-15 -60 -82 -60q-32 0 -50.5 21.5t-12.5 50.5l14 51q15 60 82 60q32 0 51 -21.5t12 -50.5zM993 0h-860q-22 0 -36.5 16t-8.5 37l361 1342q12 47 57 47q23 0 37.5 -17t7.5 -45l-344 -1282h786q20 0 34.5 -14.5t14.5 -34.5t-14.5 -34.5t-34.5 -14.5z" />
    <glyph glyph-name="ldot" unicode="&#x140;" horiz-adv-x="634" 
d="M698 717q-15 -60 -80 -60q-32 0 -50.5 21.5t-12.5 50.5l14 51q15 60 82 60q32 0 50.5 -21.5t11.5 -50.5zM553 1446l-377 -1407q-12 -47 -55 -47q-23 0 -35 16t-6 41l377 1407q12 47 55 47q23 0 35 -16t6 -41z" />
    <glyph glyph-name="Lslash" unicode="&#x141;" horiz-adv-x="1331" 
d="M238 705l137 38l176 652q12 47 57 47q23 0 37.5 -17t7.5 -45l-161 -604l417 121q24 6 37 6q39 0 39 -41q0 -33 -47 -47l-473 -135l-156 -582h787q20 0 34.5 -14.5t14.5 -34.5t-14.5 -34.5t-34.5 -14.5h-860q-22 0 -37 16t-9 37l158 592l-82 -22q-28 -7 -37 -7
q-39 0 -39 41q0 34 48 48z" />
    <glyph glyph-name="lslash" unicode="&#x142;" horiz-adv-x="632" 
d="M190 745l148 41l180 670q12 47 55 47q23 0 35 -16t6 -41l-168 -629l89 27q24 6 32 6q19 0 30 -12.5t11 -32.5q0 -33 -35 -43l-153 -45l-182 -678q-12 -47 -56 -47q-23 0 -35 16t-6 41l170 637l-82 -22q-28 -7 -32 -7q-19 0 -30 12.5t-11 32.5q0 33 34 43z" />
    <glyph glyph-name="Nacute" unicode="&#x143;" horiz-adv-x="1609" 
d="M1202 178l328 1217q12 47 55 47q23 0 36.5 -17t6.5 -45l-360 -1341q-12 -45 -49 -45h-2q-35 0 -56 43l-641 1245l-334 -1243q-12 -47 -55 -47q-23 0 -36.5 16.5t-6.5 44.5l358 1333q14 54 62 54h4q42 0 70 -54zM1368 1747l-211 -160q-35 -26 -78 -26q-28 0 -28 20
q0 13 10 23l180 194q14 14 19.5 19t16.5 10.5t23 5.5q29 0 60 -18t31 -33q0 -19 -23 -35z" />
    <glyph glyph-name="nacute" unicode="&#x144;" horiz-adv-x="1251" 
d="M375 1053q23 0 35 -16.5t6 -41.5l-37 -145q87 105 180 162t215 57q155 0 248.5 -90.5t93.5 -241.5q0 -57 -22 -147l-146 -551q-12 -47 -55 -47q-23 0 -35 16t-6 41l145 549q17 66 17 129q0 117 -72 184.5t-197 67.5q-136 0 -263.5 -111t-172.5 -278l-147 -551
q-12 -47 -56 -47q-23 0 -34.5 16t-5.5 41l253 957q12 47 56 47zM1092 1399l-211 -160q-36 -27 -78 -27q-29 0 -29 21q0 12 10 22l181 195q14 14 19.5 19t16.5 10.5t23 5.5q29 0 59.5 -18t30.5 -33q0 -19 -22 -35z" />
    <glyph glyph-name="Ncommaaccent" unicode="&#x145;" horiz-adv-x="1609" 
d="M1202 178l328 1217q12 47 55 47q23 0 36.5 -17t6.5 -45l-360 -1341q-12 -45 -49 -45h-2q-35 0 -56 43l-641 1245l-334 -1243q-12 -47 -55 -47q-23 0 -36.5 16.5t-6.5 44.5l358 1333q14 54 62 54h4q42 0 70 -54zM598 -291q-49 10 -49 55q0 38 23 70.5t65 32.5q65 0 65 -66
q0 -42 -22 -95.5t-55 -86.5q-32 -32 -78 -50t-88 -18q-25 0 -25 21q0 23 37 31q56 14 85.5 38t41.5 68z" />
    <glyph glyph-name="ncommaaccent" unicode="&#x146;" horiz-adv-x="1251" 
d="M375 1053q23 0 35 -16.5t6 -41.5l-37 -145q87 105 180 162t215 57q155 0 248.5 -90.5t93.5 -241.5q0 -57 -22 -147l-146 -551q-12 -47 -55 -47q-23 0 -35 16t-6 41l145 549q17 66 17 129q0 117 -72 184.5t-197 67.5q-136 0 -263.5 -111t-172.5 -278l-147 -551
q-12 -47 -56 -47q-23 0 -34.5 16t-5.5 41l253 957q12 47 56 47zM414 -301q-49 10 -49 55q0 38 23 70.5t65 32.5q65 0 65 -66q0 -42 -22.5 -95.5t-55.5 -86.5q-32 -32 -78 -50t-88 -18q-24 0 -24 21q0 22 37 30q56 14 85.5 38.5t41.5 68.5z" />
    <glyph glyph-name="Ncaron" unicode="&#x147;" horiz-adv-x="1609" 
d="M1202 178l328 1217q12 47 55 47q23 0 36.5 -17t6.5 -45l-360 -1341q-12 -45 -49 -45h-2q-35 0 -56 43l-641 1245l-334 -1243q-12 -47 -55 -47q-23 0 -36.5 16.5t-6.5 44.5l358 1333q14 54 62 54h4q42 0 70 -54zM1036 1597l-98 179q-10 20 -10 26q0 8 7.5 14.5t20.5 6.5
q24 0 38 -5t28 -24l90 -117l168 119q40 27 68 27t28 -21q0 -12 -16 -28l-193 -177q-36 -36 -67 -36h-13q-31 0 -51 36z" />
    <glyph glyph-name="ncaron" unicode="&#x148;" horiz-adv-x="1251" 
d="M375 1053q23 0 35 -16.5t6 -41.5l-37 -145q87 105 180 162t215 57q155 0 248.5 -90.5t93.5 -241.5q0 -57 -22 -147l-146 -551q-12 -47 -55 -47q-23 0 -35 16t-6 41l145 549q17 66 17 129q0 117 -72 184.5t-197 67.5q-136 0 -263.5 -111t-172.5 -278l-147 -551
q-12 -47 -56 -47q-23 0 -34.5 16t-5.5 41l253 957q12 47 56 47zM760 1249l-98 178q-11 22 -11 27q0 8 8 14.5t21 6.5q23 0 37 -5t28 -24l91 -117l168 119q40 27 67 27q14 0 21.5 -6.5t7.5 -14.5q0 -12 -17 -29l-192 -176q-37 -37 -68 -37h-12q-18 0 -29 8.5t-22 28.5z" />
    <glyph glyph-name="Omacron" unicode="&#x14c;" horiz-adv-x="1732" 
d="M815 -27q-178 0 -320 82t-220 222.5t-78 312.5q0 166 65.5 324.5t175 278t263.5 192.5t321 73q133 0 248.5 -48t196.5 -130t127 -196t46 -242q0 -166 -65.5 -325t-175 -278.5t-263.5 -192.5t-321 -73zM815 70q147 0 281 65.5t228.5 172.5t150 247t55.5 287
q0 223 -141.5 371.5t-366.5 148.5q-147 0 -281 -65.5t-228.5 -172.5t-150 -247t-55.5 -287q0 -223 141.5 -371.5t366.5 -148.5zM1423 1640h-540q-20 0 -34.5 15t-14.5 35t14.5 34.5t34.5 14.5h540q20 0 35 -14.5t15 -34.5t-15 -35t-35 -15z" />
    <glyph glyph-name="omacron" unicode="&#x14d;" horiz-adv-x="1296" 
d="M569 -25q-206 0 -335.5 130.5t-129.5 332.5q0 122 50.5 237.5t134 202t199 139t237.5 52.5q206 0 335.5 -130.5t129.5 -332.5q0 -125 -52 -242t-137 -201.5t-199 -136t-233 -51.5zM580 70q126 0 241.5 72t187.5 195.5t72 264.5q0 174 -100.5 273.5t-265.5 99.5
q-129 0 -245.5 -74.5t-186.5 -198t-70 -260.5q0 -174 100.5 -273t266.5 -99zM1120 1272h-540q-20 0 -35 14.5t-15 34.5t15 34.5t35 14.5h540q20 0 34.5 -14.5t14.5 -34.5t-14.5 -34.5t-34.5 -14.5z" />
    <glyph glyph-name="Obreve" unicode="&#x14e;" horiz-adv-x="1732" 
d="M815 -27q-178 0 -320 82t-220 222.5t-78 312.5q0 166 65.5 324.5t175 278t263.5 192.5t321 73q133 0 248.5 -48t196.5 -130t127 -196t46 -242q0 -166 -65.5 -325t-175 -278.5t-263.5 -192.5t-321 -73zM815 70q147 0 281 65.5t228.5 172.5t150 247t55.5 287
q0 223 -141.5 371.5t-366.5 148.5q-147 0 -281 -65.5t-228.5 -172.5t-150 -247t-55.5 -287q0 -223 141.5 -371.5t366.5 -148.5zM1128 1583q-94 0 -153.5 47t-59.5 142q0 36 13.5 54.5t36.5 18.5q34 0 41 -41q9 -58 38 -87t107 -29q72 0 120.5 31.5t86.5 88.5q13 20 24 28.5
t27 8.5q17 0 29 -11t12 -26q0 -14 -6 -26q-45 -94 -130.5 -146.5t-185.5 -52.5z" />
    <glyph glyph-name="obreve" unicode="&#x14f;" horiz-adv-x="1296" 
d="M569 -25q-206 0 -335.5 130.5t-129.5 332.5q0 122 50.5 237.5t134 202t199 139t237.5 52.5q206 0 335.5 -130.5t129.5 -332.5q0 -125 -52 -242t-137 -201.5t-199 -136t-233 -51.5zM580 70q126 0 241.5 72t187.5 195.5t72 264.5q0 174 -100.5 273.5t-265.5 99.5
q-129 0 -245.5 -74.5t-186.5 -198t-70 -260.5q0 -174 100.5 -273t266.5 -99zM825 1214q-94 0 -153.5 47t-59.5 142q0 36 13.5 55t36.5 19q33 0 40 -41q9 -58 38.5 -87.5t107.5 -29.5q72 0 120.5 31.5t86.5 89.5q13 20 24 28.5t27 8.5q17 0 29 -11t12 -26t-6 -27
q-45 -94 -130.5 -146.5t-185.5 -52.5z" />
    <glyph glyph-name="Ohungarumlaut" unicode="&#x150;" horiz-adv-x="1732" 
d="M815 -27q-178 0 -320 82t-220 222.5t-78 312.5q0 166 65.5 324.5t175 278t263.5 192.5t321 73q133 0 248.5 -48t196.5 -130t127 -196t46 -242q0 -166 -65.5 -325t-175 -278.5t-263.5 -192.5t-321 -73zM815 70q147 0 281 65.5t228.5 172.5t150 247t55.5 287
q0 223 -141.5 371.5t-366.5 148.5q-147 0 -281 -65.5t-228.5 -172.5t-150 -247t-55.5 -287q0 -223 141.5 -371.5t366.5 -148.5zM1108 1853q23 0 38 -16t15 -33q0 -24 -24 -41l-195 -155q-36 -27 -68 -27q-22 0 -22 18q0 13 12 25l183 195q34 34 61 34zM1419 1853
q23 0 38.5 -16t15.5 -33q0 -23 -25 -41l-195 -155q-36 -27 -67 -27q-23 0 -23 18q0 12 13 25l182 195q34 34 61 34z" />
    <glyph glyph-name="ohungarumlaut" unicode="&#x151;" horiz-adv-x="1296" 
d="M569 -25q-206 0 -335.5 130.5t-129.5 332.5q0 122 50.5 237.5t134 202t199 139t237.5 52.5q206 0 335.5 -130.5t129.5 -332.5q0 -125 -52 -242t-137 -201.5t-199 -136t-233 -51.5zM580 70q126 0 241.5 72t187.5 195.5t72 264.5q0 174 -100.5 273.5t-265.5 99.5
q-129 0 -245.5 -74.5t-186.5 -198t-70 -260.5q0 -174 100.5 -273t266.5 -99zM805 1485q23 0 38 -16t15 -33q0 -24 -24 -41l-195 -156q-36 -27 -68 -27q-22 0 -22 19q0 12 12 24l182 195q35 35 62 35zM1116 1485q23 0 38 -16t15 -33q0 -24 -24 -41l-195 -156q-36 -27 -67 -27
q-23 0 -23 19q0 12 12 24l183 195q35 35 61 35z" />
    <glyph glyph-name="OE" unicode="&#x152;" horiz-adv-x="2363" 
d="M909 98h215l332 1237h-330q-389 0 -634 -245q-193 -193 -193 -480q0 -217 133 -350q162 -162 477 -162zM2066 0h-1163q-171 0 -316.5 49t-240.5 144q-158 158 -158 409q0 163 58 305t166 250q131 131 320.5 204t408.5 73h1274q20 0 34.5 -15t14.5 -35t-14.5 -34.5
t-34.5 -14.5h-852l-152 -563h733q20 0 34.5 -14.5t14.5 -34.5t-14.5 -34.5t-34.5 -14.5h-760l-153 -576h835q20 0 35 -14.5t15 -34.5t-15 -34.5t-35 -14.5z" />
    <glyph glyph-name="oe" unicode="&#x153;" horiz-adv-x="2142" 
d="M1186 578h758q8 36 8 86q0 135 -75 224t-220 89q-168 0 -296.5 -115t-174.5 -284zM580 70q125 0 241 71.5t188 193t72 257.5q0 181 -100 282t-266 101q-129 0 -245.5 -74.5t-186.5 -198t-70 -260.5q0 -174 100.5 -273t266.5 -99zM1509 70q96 0 174.5 28t155.5 90
q19 15 39 15q19 0 31 -12t12 -31q0 -24 -20 -41q-168 -144 -385 -144q-166 0 -283 87t-150 231q-84 -140 -217 -229t-303 -89q-199 0 -329 131t-130 332q0 122 50.5 237.5t134 202t199 139t237.5 52.5q172 0 284.5 -94.5t145.5 -239.5q37 69 84.5 126t109 105.5t141 75.5
t169.5 27q126 0 217.5 -55.5t134.5 -144.5t43 -199q0 -72 -16 -142q-3 -16 -17.5 -28.5t-33.5 -12.5h-820q-4 -46 -4 -69q0 -157 95.5 -252.5t250.5 -95.5z" />
    <glyph glyph-name="Racute" unicode="&#x154;" horiz-adv-x="1460" 
d="M340 594l-150 -555q-12 -47 -57 -47q-24 0 -38 16.5t-7 44.5l356 1327q6 23 23.5 38.5t38.5 15.5h467q258 0 385 -127q90 -90 90 -234q0 -172 -127 -299q-69 -69 -179 -112.5t-243 -57.5l270 -518q15 -27 15 -45q0 -21 -16 -35t-38 -14q-34 0 -51 33l-295 569h-444z
M365 690h430q154 0 268 39t182 107q96 96 96 231q0 107 -63 170q-98 98 -309 98h-430zM1219 1747l-211 -160q-35 -26 -78 -26q-29 0 -29 20q0 13 10 23l181 194q14 14 19.5 19t16.5 10.5t23 5.5q29 0 59.5 -18t30.5 -33q0 -19 -22 -35z" />
    <glyph glyph-name="racute" unicode="&#x155;" horiz-adv-x="811" 
d="M416 995l-64 -247q95 141 226 227t251 86q26 0 40 -13.5t14 -37.5q0 -56 -74 -62q-177 -16 -329 -153.5t-214 -366.5l-104 -389q-12 -47 -56 -47q-23 0 -34.5 16t-5.5 41l253 957q12 47 56 47q23 0 35 -16.5t6 -41.5zM868 1399l-211 -160q-36 -27 -77 -27q-29 0 -29 21
q0 12 10 22l180 195q35 35 60 35q29 0 59.5 -18t30.5 -33q0 -19 -23 -35z" />
    <glyph glyph-name="Rcommaaccent" unicode="&#x156;" horiz-adv-x="1460" 
d="M340 594l-150 -555q-12 -47 -57 -47q-24 0 -38 16.5t-7 44.5l356 1327q6 23 23.5 38.5t38.5 15.5h467q258 0 385 -127q90 -90 90 -234q0 -172 -127 -299q-69 -69 -179 -112.5t-243 -57.5l270 -518q15 -27 15 -45q0 -21 -16 -35t-38 -14q-34 0 -51 33l-295 569h-444z
M365 690h430q154 0 268 39t182 107q96 96 96 231q0 107 -63 170q-98 98 -309 98h-430zM520 -291q-49 10 -49 55q0 38 23 70.5t65 32.5q66 0 66 -66q0 -42 -22.5 -95.5t-55.5 -86.5q-32 -32 -78 -50t-88 -18q-25 0 -25 21q0 23 37 31q56 14 85.5 38t41.5 68z" />
    <glyph glyph-name="rcommaaccent" unicode="&#x157;" horiz-adv-x="811" 
d="M416 995l-64 -247q95 141 226 227t251 86q26 0 40 -13.5t14 -37.5q0 -56 -74 -62q-177 -16 -329 -153.5t-214 -366.5l-104 -389q-12 -47 -56 -47q-23 0 -34.5 16t-5.5 41l253 957q12 47 56 47q23 0 35 -16.5t6 -41.5zM45 -301q-49 10 -49 55q0 38 23 70.5t65 32.5
q66 0 66 -66q0 -42 -22.5 -95.5t-55.5 -86.5q-32 -32 -78 -50t-88 -18q-25 0 -25 21q0 22 37 30q56 14 85.5 38.5t41.5 68.5z" />
    <glyph glyph-name="Rcaron" unicode="&#x158;" horiz-adv-x="1460" 
d="M340 594l-150 -555q-12 -47 -57 -47q-24 0 -38 16.5t-7 44.5l356 1327q6 23 23.5 38.5t38.5 15.5h467q258 0 385 -127q90 -90 90 -234q0 -172 -127 -299q-69 -69 -179 -112.5t-243 -57.5l270 -518q15 -27 15 -45q0 -21 -16 -35t-38 -14q-34 0 -51 33l-295 569h-444z
M365 690h430q154 0 268 39t182 107q96 96 96 231q0 107 -63 170q-98 98 -309 98h-430zM887 1597l-99 179q-10 20 -10 26q0 8 8 14.5t21 6.5q23 0 37 -5t28 -24l91 -117l167 119q40 27 68 27q14 0 21.5 -6.5t7.5 -14.5q0 -11 -17 -28l-192 -177q-36 -36 -68 -36h-12
q-31 0 -51 36z" />
    <glyph glyph-name="rcaron" unicode="&#x159;" horiz-adv-x="811" 
d="M416 995l-64 -247q95 141 226 227t251 86q26 0 40 -13.5t14 -37.5q0 -56 -74 -62q-177 -16 -329 -153.5t-214 -366.5l-104 -389q-12 -47 -56 -47q-23 0 -34.5 16t-5.5 41l253 957q12 47 56 47q23 0 35 -16.5t6 -41.5zM535 1249l-99 178q-10 20 -10 27q0 8 8 14.5t21 6.5
q23 0 37 -5t28 -24l90 -117l168 119q40 27 68 27t28 -21q0 -13 -16 -29l-192 -176q-37 -37 -68 -37h-12q-18 0 -29 8.5t-22 28.5z" />
    <glyph glyph-name="Sacute" unicode="&#x15a;" horiz-adv-x="1306" 
d="M623 76q177 0 295 89t118 224q0 93 -69.5 157t-243.5 132q-227 89 -318.5 171t-91.5 210q0 166 143.5 280.5t370.5 114.5q271 0 459 -176q23 -23 23 -45t-15 -36.5t-37 -14.5q-25 0 -45 20q-156 156 -395 156q-178 0 -286.5 -86t-108.5 -205q0 -96 78 -159t264 -134
q204 -77 292.5 -162t88.5 -215q0 -176 -152 -296.5t-381 -120.5q-339 0 -538 231q-21 26 -21 45q0 22 13.5 36.5t35.5 14.5q26 0 45 -24q90 -104 203.5 -155.5t272.5 -51.5zM1198 1767l-211 -159q-36 -27 -78 -27q-28 0 -28 21q0 12 10 22l180 195q13 13 19.5 18.5t17 10.5
t22.5 5q29 0 60 -18t31 -33q0 -19 -23 -35z" />
    <glyph glyph-name="sacute" unicode="&#x15b;" horiz-adv-x="1013" 
d="M457 70q105 0 187.5 58t82.5 148q0 64 -48.5 111t-178.5 96q-156 58 -224.5 120t-68.5 161q0 128 107 215.5t280 87.5q91 0 186.5 -33.5t153.5 -77.5q27 -20 27 -47q0 -20 -14 -33.5t-34 -13.5q-17 0 -32 10q-149 103 -297 103q-125 0 -198 -58t-73 -137
q0 -63 47.5 -106.5t188.5 -98.5q157 -62 221 -125t64 -157q0 -89 -53.5 -162t-142.5 -113.5t-194 -40.5q-225 0 -407 148q-25 21 -25 47q0 20 13.5 34.5t33.5 14.5q18 0 45 -20q159 -131 353 -131zM954 1399l-211 -160q-36 -27 -77 -27q-29 0 -29 21q0 12 10 22l180 195
q35 35 60 35q29 0 59.5 -18t30.5 -33q0 -19 -23 -35z" />
    <glyph glyph-name="Scedilla" unicode="&#x15e;" horiz-adv-x="1306" 
d="M623 76q177 0 295 89t118 224q0 93 -69.5 157t-243.5 132q-227 89 -318.5 171t-91.5 210q0 166 143.5 280.5t370.5 114.5q271 0 459 -176q23 -23 23 -45t-15 -36.5t-37 -14.5q-25 0 -45 20q-156 156 -395 156q-178 0 -286.5 -86t-108.5 -205q0 -96 78 -159t264 -134
q204 -77 292.5 -162t88.5 -215q0 -176 -152 -296.5t-381 -120.5h-22l-189 -248q-20 -25 -43 -25q-24 0 -39.5 14.5t-15.5 32.5q0 21 21 45l176 189q-260 30 -426 223q-21 26 -21 45q0 22 13.5 36.5t35.5 14.5q26 0 45 -24q90 -104 203.5 -155.5t272.5 -51.5z" />
    <glyph glyph-name="scedilla" unicode="&#x15f;" horiz-adv-x="1013" 
d="M457 70q105 0 187.5 58t82.5 148q0 64 -48.5 111t-178.5 96q-156 58 -224.5 120t-68.5 161q0 128 107 215.5t280 87.5q91 0 186.5 -33.5t153.5 -77.5q27 -20 27 -47q0 -20 -14 -33.5t-34 -13.5q-17 0 -32 10q-149 103 -297 103q-125 0 -198 -58t-73 -137
q0 -63 47.5 -106.5t188.5 -98.5q157 -62 221 -125t64 -157q0 -89 -53.5 -162t-142.5 -113.5t-194 -40.5h-22l-186 -245q-20 -25 -43 -25q-24 0 -40 14.5t-16 32.5q0 21 21 45l176 189q-161 25 -297 137q-25 21 -25 47q0 20 13.5 34.5t33.5 14.5q18 0 45 -20
q159 -131 353 -131z" />
    <glyph glyph-name="Scaron" unicode="&#x160;" horiz-adv-x="1306" 
d="M623 76q177 0 295 89t118 224q0 93 -69.5 157t-243.5 132q-227 89 -318.5 171t-91.5 210q0 166 143.5 280.5t370.5 114.5q271 0 459 -176q23 -23 23 -45t-15 -36.5t-37 -14.5q-25 0 -45 20q-156 156 -395 156q-178 0 -286.5 -86t-108.5 -205q0 -96 78 -159t264 -134
q204 -77 292.5 -162t88.5 -215q0 -176 -152 -296.5t-381 -120.5q-339 0 -538 231q-21 26 -21 45q0 22 13.5 36.5t35.5 14.5q26 0 45 -24q90 -104 203.5 -155.5t272.5 -51.5zM864 1618l-98 178q-10 20 -10 27q0 8 7.5 14t20.5 6q24 0 38 -5t28 -23l90 -117l168 119
q39 26 68 26q28 0 28 -20q0 -13 -16 -29l-193 -176q-37 -37 -67 -37h-13q-18 0 -29 8.5t-22 28.5z" />
    <glyph glyph-name="scaron" unicode="&#x161;" horiz-adv-x="1013" 
d="M457 70q105 0 187.5 58t82.5 148q0 64 -48.5 111t-178.5 96q-156 58 -224.5 120t-68.5 161q0 128 107 215.5t280 87.5q91 0 186.5 -33.5t153.5 -77.5q27 -20 27 -47q0 -20 -14 -33.5t-34 -13.5q-17 0 -32 10q-149 103 -297 103q-125 0 -198 -58t-73 -137
q0 -63 47.5 -106.5t188.5 -98.5q157 -62 221 -125t64 -157q0 -89 -53.5 -162t-142.5 -113.5t-194 -40.5q-225 0 -407 148q-25 21 -25 47q0 20 13.5 34.5t33.5 14.5q18 0 45 -20q159 -131 353 -131zM621 1249l-99 178q-10 20 -10 27q0 8 8 14.5t21 6.5q23 0 37 -5t28 -24
l90 -117l168 119q40 27 68 27q14 0 21.5 -6.5t7.5 -14.5q0 -12 -17 -29l-192 -176q-37 -37 -68 -37h-12q-18 0 -29 8.5t-22 28.5z" />
    <glyph glyph-name="Tcommaaccent" unicode="&#x162;" horiz-adv-x="1259" 
d="M893 1335l-348 -1296q-12 -47 -58 -47q-24 0 -38 16.5t-7 44.5l344 1282h-444q-20 0 -34.5 14.5t-14.5 34.5t14.5 35t34.5 15h1022q20 0 34.5 -15t14.5 -35t-14.5 -34.5t-34.5 -14.5h-471zM412 -301q-50 10 -50 55q0 37 23.5 70t65.5 33q65 0 65 -66q0 -42 -22.5 -95.5
t-55.5 -86.5q-32 -32 -78 -50t-88 -18q-24 0 -24 21q0 22 37 30q56 14 85.5 38.5t41.5 68.5z" />
    <glyph glyph-name="tcommaaccent" unicode="&#x163;" horiz-adv-x="811" 
d="M387 1044l80 295q12 47 55 47q23 0 35 -16t6 -41l-76 -285h308q20 0 33.5 -13.5t13.5 -33.5q0 -19 -14 -32t-33 -13h-332l-178 -665q-11 -50 -11 -88q0 -63 45 -94t125 -31q44 0 84 12q30 9 47 -2t17 -35q0 -32 -41 -47q-58 -20 -129 -20q-111 0 -180.5 52t-69.5 154
q0 47 12 101l178 663h-98q-20 0 -33.5 13.5t-13.5 33.5q0 19 14 32t33 13h123zM258 -301q-49 10 -49 55q0 38 23 70.5t65 32.5q65 0 65 -66q0 -42 -22 -95.5t-55 -86.5q-32 -32 -78 -50t-88 -18q-25 0 -25 21q0 22 37 30q56 14 85.5 38.5t41.5 68.5z" />
    <glyph glyph-name="Tcaron" unicode="&#x164;" horiz-adv-x="1259" 
d="M893 1335l-348 -1296q-12 -47 -58 -47q-24 0 -38 16.5t-7 44.5l344 1282h-444q-20 0 -34.5 14.5t-14.5 34.5t14.5 35t34.5 15h1022q20 0 34.5 -15t14.5 -35t-14.5 -34.5t-34.5 -14.5h-471zM852 1597l-98 179q-11 22 -11 26q0 8 8 14.5t21 6.5q24 0 38 -5t28 -24l90 -117
l168 119q40 27 67 27q14 0 21.5 -6.5t7.5 -14.5q0 -12 -16 -28l-193 -177q-36 -36 -68 -36h-12q-31 0 -51 36z" />
    <glyph glyph-name="tcaron" unicode="&#x165;" horiz-adv-x="811" 
d="M387 1044l80 295q12 47 55 47q23 0 35 -16t6 -41l-76 -285h308q20 0 33.5 -13.5t13.5 -33.5q0 -19 -14 -32t-33 -13h-332l-178 -665q-11 -50 -11 -88q0 -63 45 -94t125 -31q44 0 84 12q30 9 47 -2t17 -35q0 -32 -41 -47q-58 -20 -129 -20q-111 0 -180.5 52t-69.5 154
q0 47 12 101l178 663h-98q-20 0 -33.5 13.5t-13.5 33.5q0 19 14 32t33 13h123zM725 1235l86 227q19 51 72 51h26q29 0 29 -22q0 -15 -18 -45l-132 -217q-21 -35 -45 -35t-24 18q0 8 6 23z" />
    <glyph glyph-name="Umacron" unicode="&#x16a;" horiz-adv-x="1548" 
d="M1587 1380l-215 -800q-72 -267 -227 -422q-181 -181 -432 -181q-249 0 -382.5 125.5t-133.5 325.5q0 109 28 221l199 746q12 47 57 47q23 0 37.5 -17t7.5 -45l-207 -780q-18 -74 -18 -164q0 -162 106.5 -262t313.5 -100q203 0 350 147q134 134 201 381l213 793
q12 47 57 47q23 0 37.5 -17t7.5 -45zM1331 1620h-540q-20 0 -35 14.5t-15 34.5t15 34.5t35 14.5h540q20 0 34.5 -14.5t14.5 -34.5t-14.5 -34.5t-34.5 -14.5z" />
    <glyph glyph-name="umacron" unicode="&#x16b;" horiz-adv-x="1247" 
d="M872 -8q-23 0 -35 16t-6 41l37 146q-87 -105 -180 -162.5t-215 -57.5q-155 0 -248.5 90.5t-93.5 241.5q0 54 23 148l145 551q12 47 55 47q23 0 35 -16.5t6 -41.5l-145 -549q-17 -66 -17 -129q0 -117 72 -184t197 -67q136 0 263.5 111t172.5 278l147 551q12 47 56 47
q23 0 35 -16.5t6 -41.5l-254 -956q-12 -47 -56 -47zM1083 1272h-540q-20 0 -34.5 14.5t-14.5 34.5t14.5 34.5t34.5 14.5h540q20 0 35 -14.5t15 -34.5t-15 -34.5t-35 -14.5z" />
    <glyph glyph-name="Ubreve" unicode="&#x16c;" horiz-adv-x="1548" 
d="M1587 1380l-215 -800q-72 -267 -227 -422q-181 -181 -432 -181q-249 0 -382.5 125.5t-133.5 325.5q0 109 28 221l199 746q12 47 57 47q23 0 37.5 -17t7.5 -45l-207 -780q-18 -74 -18 -164q0 -162 106.5 -262t313.5 -100q203 0 350 147q134 134 201 381l213 793
q12 47 57 47q23 0 37.5 -17t7.5 -45zM1038 1563q-94 0 -153.5 46.5t-59.5 141.5q0 36 13.5 55t35.5 19q34 0 41 -41q9 -58 38.5 -87.5t107.5 -29.5q72 0 120.5 31.5t86.5 89.5q13 20 24 28.5t27 8.5q17 0 29 -11t12 -26t-6 -27q-45 -94 -130.5 -146t-185.5 -52z" />
    <glyph glyph-name="ubreve" unicode="&#x16d;" horiz-adv-x="1247" 
d="M872 -8q-23 0 -35 16t-6 41l37 146q-87 -105 -180 -162.5t-215 -57.5q-155 0 -248.5 90.5t-93.5 241.5q0 54 23 148l145 551q12 47 55 47q23 0 35 -16.5t6 -41.5l-145 -549q-17 -66 -17 -129q0 -117 72 -184t197 -67q136 0 263.5 111t172.5 278l147 551q12 47 56 47
q23 0 35 -16.5t6 -41.5l-254 -956q-12 -47 -56 -47zM791 1214q-94 0 -153.5 47t-59.5 142q0 36 13.5 55t35.5 19q34 0 41 -41q9 -58 38 -87.5t107 -29.5q72 0 120.5 31.5t86.5 89.5q13 20 24 28.5t27 8.5q17 0 29 -11t12 -26t-6 -27q-45 -94 -130 -146.5t-185 -52.5z" />
    <glyph glyph-name="Uring" unicode="&#x16e;" horiz-adv-x="1548" 
d="M1587 1380l-215 -800q-72 -267 -227 -422q-181 -181 -432 -181q-249 0 -382.5 125.5t-133.5 325.5q0 109 28 221l199 746q12 47 57 47q23 0 37.5 -17t7.5 -45l-207 -780q-18 -74 -18 -164q0 -162 106.5 -262t313.5 -100q203 0 350 147q134 134 201 381l213 793
q12 47 57 47q23 0 37.5 -17t7.5 -45zM1061 1546q-86 0 -138.5 47.5t-52.5 120.5q0 86 67.5 147.5t156.5 61.5q86 0 138 -47.5t52 -120.5q0 -87 -67 -148t-156 -61zM1063 1612q61 0 104 41t43 100q0 47 -30 76t-88 29q-61 0 -104.5 -41.5t-43.5 -100.5q0 -46 30.5 -75
t88.5 -29z" />
    <glyph glyph-name="uring" unicode="&#x16f;" horiz-adv-x="1247" 
d="M872 -8q-23 0 -35 16t-6 41l37 146q-87 -105 -180 -162.5t-215 -57.5q-155 0 -248.5 90.5t-93.5 241.5q0 54 23 148l145 551q12 47 55 47q23 0 35 -16.5t6 -41.5l-145 -549q-17 -66 -17 -129q0 -117 72 -184t197 -67q136 0 263.5 111t172.5 278l147 551q12 47 56 47
q23 0 35 -16.5t6 -41.5l-254 -956q-12 -47 -56 -47zM815 1208q-86 0 -138 47.5t-52 120.5q0 87 67 148t156 61q86 0 138 -47.5t52 -120.5q0 -87 -67 -148t-156 -61zM817 1274q61 0 104.5 41t43.5 100q0 46 -30.5 75.5t-88.5 29.5q-61 0 -104.5 -41.5t-43.5 -100.5
q0 -46 30.5 -75t88.5 -29z" />
    <glyph glyph-name="Uhungarumlaut" unicode="&#x170;" horiz-adv-x="1548" 
d="M1587 1380l-215 -800q-72 -267 -227 -422q-181 -181 -432 -181q-249 0 -382.5 125.5t-133.5 325.5q0 109 28 221l199 746q12 47 57 47q23 0 37.5 -17t7.5 -45l-207 -780q-18 -74 -18 -164q0 -162 106.5 -262t313.5 -100q203 0 350 147q134 134 201 381l213 793
q12 47 57 47q23 0 37.5 -17t7.5 -45zM1016 1833q23 0 38 -16t15 -33q0 -23 -25 -41l-194 -156q-35 -26 -68 -26q-22 0 -22 18q0 13 12 25l182 194q35 35 62 35zM1327 1833q23 0 38 -16t15 -33q0 -24 -24 -41l-195 -156q-35 -26 -67 -26q-23 0 -23 18q0 13 12 25l183 194
q35 35 61 35z" />
    <glyph glyph-name="uhungarumlaut" unicode="&#x171;" horiz-adv-x="1247" 
d="M872 -8q-23 0 -35 16t-6 41l37 146q-87 -105 -180 -162.5t-215 -57.5q-155 0 -248.5 90.5t-93.5 241.5q0 54 23 148l145 551q12 47 55 47q23 0 35 -16.5t6 -41.5l-145 -549q-17 -66 -17 -129q0 -117 72 -184t197 -67q136 0 263.5 111t172.5 278l147 551q12 47 56 47
q23 0 35 -16.5t6 -41.5l-254 -956q-12 -47 -56 -47zM768 1485q23 0 38 -16t15 -33q0 -24 -24 -41l-195 -156q-36 -27 -67 -27q-23 0 -23 19q0 12 12 24l183 195q35 35 61 35zM1079 1485q23 0 38.5 -16t15.5 -33q0 -23 -25 -41l-195 -156q-36 -27 -67 -27q-23 0 -23 19
q0 11 13 24l182 195q35 35 61 35z" />
    <glyph glyph-name="Uogonek" unicode="&#x172;" horiz-adv-x="1548" 
d="M659 -334q-97 0 -148.5 39t-51.5 94q0 93 135 189q-194 28 -295.5 146.5t-101.5 293.5q0 109 28 221l199 746q12 47 57 47q23 0 37.5 -17t7.5 -45l-207 -780q-18 -74 -18 -164q0 -162 106.5 -262t313.5 -100q203 0 350 147q134 134 201 381l213 793q12 47 57 47
q23 0 37.5 -17t7.5 -45l-215 -800q-72 -267 -227 -422q-181 -181 -432 -181h-19q-131 -91 -131 -161q0 -29 23.5 -45.5t83.5 -28.5q32 -6 32 -37q0 -18 -11.5 -28.5t-31.5 -10.5z" />
    <glyph glyph-name="uogonek" unicode="&#x173;" horiz-adv-x="1247" 
d="M1182 995l-254 -956q-8 -28 -31 -43q-83 -56 -120.5 -98.5t-37.5 -81.5q0 -29 23.5 -45.5t83.5 -28.5q33 -6 33 -37q0 -18 -11.5 -28.5t-31.5 -10.5q-97 0 -149 39t-52 94q0 60 50.5 114.5t143.5 113.5q0 14 2 22l37 146q-87 -105 -180 -162.5t-215 -57.5
q-155 0 -248.5 90.5t-93.5 241.5q0 54 23 148l145 551q12 47 55 47q23 0 35 -16.5t6 -41.5l-145 -549q-17 -66 -17 -129q0 -117 72 -184t197 -67q136 0 263.5 111t172.5 278l147 551q12 47 56 47q23 0 35 -16.5t6 -41.5z" />
    <glyph glyph-name="Wcircumflex" unicode="&#x174;" horiz-adv-x="2199" 
d="M2314 1362l-833 -1325q-12 -19 -18.5 -27.5t-20 -17t-29.5 -8.5h-4q-43 0 -47 53l-82 1198l-725 -1198q-14 -26 -29 -39.5t-39 -13.5h-4q-43 0 -47 53l-123 1323q0 2 -1 13t-1 16q0 23 16 38t40 15q25 0 39 -15t16 -41l104 -1228l744 1249q20 35 55 35h2q42 0 45 -43
l76 -1241l772 1243q24 41 64 41q19 0 31 -12t12 -29q0 -19 -13 -39zM1475 1786l98 -178q10 -20 10 -27q0 -8 -8 -14t-21 -6q-24 0 -37.5 5t-27.5 23l-90 117l-168 -119q-39 -26 -68 -26q-28 0 -28 20q0 13 16 29l192 176q37 37 68 37h12q31 0 52 -37z" />
    <glyph glyph-name="wcircumflex" unicode="&#x175;" horiz-adv-x="1730" 
d="M299 43l-90 926q0 1 -1 12t-1 16q0 24 14 40t39 16q22 0 34.5 -15t14.5 -41l72 -862l539 881q24 37 57 37h2q41 0 45 -45l68 -873l544 879q23 39 54 39q43 0 43 -41q0 -17 -13 -39l-598 -946q-24 -41 -59 -41h-2q-47 0 -53 57l-68 844l-530 -858q-24 -43 -60 -43h-2
q-20 0 -34 15.5t-15 41.5zM1145 1438l98 -178q10 -20 10 -27q0 -8 -7.5 -14.5t-20.5 -6.5q-24 0 -38 5t-28 24l-90 117l-168 -119q-17 -11 -24.5 -15.5t-18.5 -8t-24 -3.5q-14 0 -21.5 6.5t-7.5 14.5q0 13 16 29l193 176q37 37 67 37h13q18 0 29 -8.5t22 -28.5z" />
    <glyph glyph-name="Ycircumflex" unicode="&#x176;" horiz-adv-x="1368" 
d="M733 555l-137 -516q-12 -47 -57 -47q-24 0 -38 16.5t-7 44.5l141 529l-340 772q-8 19 -8 37q0 22 14 36.5t37 14.5q36 0 55 -47l314 -731l725 749q29 29 57 29q19 0 33 -12.5t14 -32.5q0 -24 -25 -49zM1051 1786l98 -178q10 -20 10 -27q0 -8 -8 -14t-21 -6q-24 0 -37.5 5
t-27.5 23l-90 117l-168 -119q-39 -26 -68 -26q-28 0 -28 20q0 13 16 29l193 176q37 37 67 37h12q31 0 52 -37z" />
    <glyph glyph-name="ycircumflex" unicode="&#x177;" horiz-adv-x="1163" 
d="M-94 -201q80 -39 147 -39q82 0 161 56t173 190l-197 959q-4 20 -4 36q0 22 13.5 37t36.5 15q43 0 53 -54l174 -888l606 901q26 41 59 41q21 0 33.5 -12t12.5 -31q0 -20 -13 -39l-692 -1008q-112 -161 -212.5 -229t-215.5 -68q-96 0 -186 49q-29 15 -29 45q0 20 13.5 33.5
t33.5 13.5q17 0 33 -8zM823 1438l99 -178q10 -20 10 -27q0 -8 -8 -14.5t-21 -6.5q-23 0 -37 5t-28 24l-90 117l-168 -119q-40 -27 -68 -27q-14 0 -21.5 6.5t-7.5 14.5q0 12 17 29l192 176q37 37 68 37h12q18 0 29 -8.5t22 -28.5z" />
    <glyph glyph-name="Ydieresis" unicode="&#x178;" horiz-adv-x="1368" 
d="M733 555l-137 -516q-12 -47 -57 -47q-24 0 -38 16.5t-7 44.5l141 529l-340 772q-8 19 -8 37q0 22 14 36.5t37 14.5q36 0 55 -47l314 -731l725 749q29 29 57 29q19 0 33 -12.5t14 -32.5q0 -24 -25 -49zM846 1610q-16 -56 -76 -56q-31 0 -48 20t-11 48l18 68q16 55 76 55
q31 0 48.5 -20t10.5 -48zM1180 1610q-16 -56 -76 -56q-31 0 -48.5 20t-11.5 48l19 68q16 55 76 55q31 0 48.5 -20t10.5 -48z" />
    <glyph glyph-name="Zacute" unicode="&#x179;" horiz-adv-x="1355" 
d="M10 92l1270 1245h-870q-21 0 -35.5 13.5t-14.5 33.5t15 35t35 15h1001q41 0 41 -35v-2q0 -27 -29 -56l-1269 -1245h911q20 0 34.5 -13.5t14.5 -33.5t-14.5 -34.5t-34.5 -14.5h-1042q-41 0 -41 35v2q0 27 28 55zM1190 1747l-211 -160q-35 -26 -78 -26q-29 0 -29 20
q0 12 11 23l180 194q14 14 19.5 19t16.5 10.5t23 5.5q29 0 59.5 -18t30.5 -33q0 -19 -22 -35z" />
    <glyph glyph-name="zacute" unicode="&#x17a;" horiz-adv-x="1118" 
d="M301 1044h778q43 0 43 -36v-2q0 -21 -20 -41l-948 -875h688q19 0 32 -13t13 -32t-13 -32t-32 -13h-813q-43 0 -43 37v2q0 21 20 41l948 874h-653q-19 0 -32 13t-13 32t13 32t32 13zM987 1399l-211 -160q-36 -27 -78 -27q-28 0 -28 21q0 12 10 22l180 195q35 35 60 35
q29 0 59.5 -18t30.5 -33q0 -19 -23 -35z" />
    <glyph glyph-name="Zdotaccent" unicode="&#x17b;" horiz-adv-x="1355" 
d="M10 92l1270 1245h-870q-21 0 -35.5 13.5t-14.5 33.5t15 35t35 15h1001q41 0 41 -35v-2q0 -27 -29 -56l-1269 -1245h911q20 0 34.5 -13.5t14.5 -33.5t-14.5 -34.5t-34.5 -14.5h-1042q-41 0 -41 35v2q0 27 28 55zM987 1610q-16 -56 -76 -56q-31 0 -48 20t-11 48l18 68
q16 55 76 55q31 0 49 -20t11 -48z" />
    <glyph glyph-name="zdotaccent" unicode="&#x17c;" horiz-adv-x="1118" 
d="M301 1044h778q43 0 43 -36v-2q0 -21 -20 -41l-948 -875h688q19 0 32 -13t13 -32t-13 -32t-32 -13h-813q-43 0 -43 37v2q0 21 20 41l948 874h-653q-19 0 -32 13t-13 32t13 32t32 13zM784 1262q-16 -56 -75 -56q-31 0 -48.5 20t-11.5 48l19 67q16 56 75 56q31 0 49 -20
t11 -48z" />
    <glyph glyph-name="Zcaron" unicode="&#x17d;" horiz-adv-x="1355" 
d="M10 92l1270 1245h-870q-21 0 -35.5 13.5t-14.5 33.5t15 35t35 15h1001q41 0 41 -35v-2q0 -27 -29 -56l-1269 -1245h911q20 0 34.5 -13.5t14.5 -33.5t-14.5 -34.5t-34.5 -14.5h-1042q-41 0 -41 35v2q0 27 28 55zM858 1597l-98 179q-10 20 -10 26q0 8 7.5 14.5t20.5 6.5
q24 0 38 -5t28 -24l90 -117l168 119q40 27 67 27q14 0 21.5 -6.5t7.5 -14.5q0 -12 -16 -28l-193 -177q-36 -36 -67 -36h-13q-31 0 -51 36z" />
    <glyph glyph-name="zcaron" unicode="&#x17e;" horiz-adv-x="1118" 
d="M301 1044h778q43 0 43 -36v-2q0 -21 -20 -41l-948 -875h688q19 0 32 -13t13 -32t-13 -32t-32 -13h-813q-43 0 -43 37v2q0 21 20 41l948 874h-653q-19 0 -32 13t-13 32t13 32t32 13zM653 1249l-98 178q-10 20 -10 27q0 8 7.5 14.5t20.5 6.5q24 0 38 -5t28 -24l90 -117
l168 119q41 27 68 27q28 0 28 -21q0 -13 -16 -29l-193 -176q-37 -37 -67 -37h-12q-31 0 -52 37z" />
    <glyph glyph-name="florin" unicode="&#x192;" horiz-adv-x="1077" 
d="M74 -20q-78 0 -78 45t70 45q77 0 132.5 49t108.5 170l219 497h-168q-19 0 -33 13t-14 32q0 20 14 34t33 14h207l121 274q66 153 155 227t210 74q67 0 123 -16q40 -12 40 -45q0 -19 -11.5 -33t-28.5 -14q-4 0 -45 9t-82 9q-85 0 -150 -57t-119 -179l-110 -249h280
q19 0 33 -14.5t14 -33.5t-14 -32t-33 -13h-319l-230 -522q-68 -155 -146.5 -219.5t-178.5 -64.5z" />
    <glyph glyph-name="Aringacute" unicode="&#x1fa;" horiz-adv-x="1517" 
d="M14 -8q-18 0 -31.5 12.5t-13.5 34.5q0 18 13 31l968 1325q-44 22 -69 60t-25 85q0 87 64 148t153 61q87 0 142 -47.5t55 -120.5q0 -74 -48.5 -130.5t-121.5 -74.5l254 -1302q4 -16 4 -33q0 -20 -14.5 -34.5t-36.5 -14.5q-21 0 -36.5 13.5t-19.5 37.5l-65 358h-846
l-268 -370q-31 -39 -58 -39zM410 498h755l-153 829zM1053 1438q60 0 101.5 41.5t41.5 101.5q0 46 -32.5 74t-90.5 28q-60 0 -101.5 -41.5t-41.5 -101.5q0 -46 32.5 -74t90.5 -28zM1407 1997l-211 -160q-36 -27 -78 -27q-28 0 -28 21q0 12 10 22l180 195q14 14 19.5 19
t16.5 10.5t23 5.5q29 0 60 -18t31 -33q0 -19 -23 -35z" />
    <glyph glyph-name="aringacute" unicode="&#x1fb;" horiz-adv-x="1169" 
d="M408 68q153 0 288.5 97t177.5 251l25 92q-192 49 -395 49q-156 0 -253 -77t-97 -199q0 -97 68.5 -155t185.5 -58zM815 -8q-23 0 -35 16t-6 41l35 131q-172 -205 -420 -205q-90 0 -166 31.5t-126 100t-50 161.5q0 171 131.5 275t339.5 104q190 0 402 -59l8 28
q14 54 14 105q0 119 -81 182.5t-234 63.5q-138 0 -265 -43q-16 -4 -26 -4q-19 0 -30 12.5t-11 32.5q0 35 39 47q146 49 301 49q191 0 298 -87t107 -239q0 -59 -20 -137l-150 -559q-12 -47 -55 -47zM764 1219q-86 0 -138.5 47t-52.5 120q0 86 67.5 147.5t156.5 61.5
q86 0 138 -47.5t52 -120.5q0 -86 -67 -147t-156 -61zM766 1284q61 0 104 41t43 100q0 47 -30 76t-88 29q-61 0 -104.5 -41t-43.5 -100q0 -46 30.5 -75.5t88.5 -29.5zM1108 1860l-211 -160q-36 -27 -78 -27q-28 0 -28 21q0 12 10 22l180 195q14 14 19.5 19t16.5 10.5t23 5.5
q29 0 59.5 -18.5t30.5 -33.5q0 -18 -22 -34z" />
    <glyph glyph-name="AEacute" unicode="&#x1fc;" horiz-adv-x="2187" 
d="M496 498h557l225 839h-55zM1223 1434h1015q20 0 35 -15t15 -35t-15 -34.5t-35 -14.5h-854l-151 -563h735q20 0 34.5 -14.5t14.5 -34.5t-14.5 -34.5t-34.5 -14.5h-762l-153 -576h837q20 0 34.5 -14.5t14.5 -34.5t-14.5 -34.5t-34.5 -14.5h-911q-22 0 -36.5 16t-8.5 37
l94 348h-616l-320 -368q-35 -41 -65 -41q-19 0 -31 11.5t-12 31.5q0 22 18 43l1139 1304q34 37 53 46q14 6 29 6zM1829 1747l-211 -160q-35 -26 -78 -26q-29 0 -29 20q0 12 11 23l180 194q14 14 19.5 19t16.5 10.5t23 5.5q29 0 59.5 -18t30.5 -33q0 -19 -22 -35z" />
    <glyph glyph-name="aeacute" unicode="&#x1fd;" horiz-adv-x="1976" 
d="M512 557q-156 0 -257 -75t-101 -191q0 -103 69.5 -163t194.5 -60q252 0 487 256q-8 41 -8 98q0 44 6 88q-164 47 -391 47zM1888 670q0 -67 -14 -135q-10 -48 -62 -48h-811q-4 -46 -4 -69q0 -157 95.5 -252.5t250.5 -95.5q186 0 330 118q19 15 39 15q19 0 31 -12t12 -31
q0 -24 -20 -41q-167 -144 -389 -144q-152 0 -258.5 69t-155.5 187q-112 -117 -246.5 -186.5t-275.5 -69.5q-159 0 -261 80t-102 224q0 167 135 267.5t344 100.5q204 0 394 -59l8 28q14 54 14 105q0 119 -81 182.5t-234 63.5q-138 0 -265 -43q-16 -4 -26 -4q-19 0 -30 12.5
t-11 32.5q0 35 39 47q145 49 301 49q165 0 268 -65t129 -183q86 116 206.5 186t254.5 70q126 0 217.5 -55.5t134.5 -144.5t43 -199zM1020 578h758q8 36 8 86q0 135 -75 224t-220 89q-168 0 -296.5 -115t-174.5 -284zM1407 1399l-211 -160q-36 -27 -78 -27q-28 0 -28 21
q0 12 10 22l180 195q14 14 19.5 19t16.5 10.5t23 5.5q29 0 60 -18t31 -33q0 -19 -23 -35z" />
    <glyph glyph-name="Oslashacute" unicode="&#x1fe;" horiz-adv-x="1732" 
d="M307 590q0 -146 62 -264l1040 868q-145 168 -387 168q-147 0 -281 -65.5t-228.5 -172.5t-150 -247t-55.5 -287zM815 70q147 0 281 65.5t228.5 172.5t150 247t55.5 287q0 154 -70 278l-1042 -870q67 -86 169 -133t228 -47zM340 184l-209 -174q-33 -28 -61 -28
q-17 0 -28 10.5t-11 27.5q0 24 22 43l234 195q-90 152 -90 332q0 166 65.5 324.5t175 278t263.5 192.5t321 73q142 0 261 -52t204 -146l194 163q33 29 60 29q19 0 30 -10t11 -27q0 -25 -23 -45l-217 -182q98 -157 98 -346q0 -166 -65.5 -325t-175 -278.5t-263.5 -192.5
t-321 -73q-146 0 -267.5 56t-207.5 155zM1407 1767l-211 -159q-36 -27 -78 -27q-28 0 -28 21q0 12 10 22l180 195q13 13 19.5 18.5t17 10.5t22.5 5q29 0 60 -18t31 -33q0 -19 -23 -35z" />
    <glyph glyph-name="oslashacute" unicode="&#x1ff;" horiz-adv-x="1296" 
d="M580 70q126 0 241.5 72t187.5 195.5t72 264.5q0 106 -39 189l-743 -611q96 -110 281 -110zM213 442q0 -105 39 -188l743 610q-102 111 -280 111q-129 0 -245.5 -74.5t-186.5 -198t-70 -260.5zM223 119l-143 -117q-27 -20 -47 -20q-18 0 -28.5 9.5t-10.5 26.5q0 24 22 43
l154 125q-66 111 -66 252q0 122 50.5 237.5t134 202t199 139t237.5 52.5q215 0 346 -141l148 119q27 20 47 20q17 0 28 -10t11 -27q0 -23 -23 -43l-158 -129q66 -111 66 -252q0 -125 -52 -242t-137 -201.5t-199 -136t-233 -51.5q-212 0 -346 144zM1118 1399l-211 -160
q-36 -27 -78 -27q-28 0 -28 21q0 12 10 22l180 195q35 35 60 35q29 0 59.5 -18t30.5 -33q0 -19 -23 -35z" />
    <glyph glyph-name="Scommaaccent" unicode="&#x218;" horiz-adv-x="1306" 
d="M623 76q177 0 295 89t118 224q0 93 -69.5 157t-243.5 132q-227 89 -318.5 171t-91.5 210q0 166 143.5 280.5t370.5 114.5q271 0 459 -176q23 -23 23 -45t-15 -36.5t-37 -14.5q-25 0 -45 20q-156 156 -395 156q-178 0 -286.5 -86t-108.5 -205q0 -96 78 -159t264 -134
q204 -77 292.5 -162t88.5 -215q0 -176 -152 -296.5t-381 -120.5q-339 0 -538 231q-21 26 -21 45q0 22 13.5 36.5t35.5 14.5q26 0 45 -24q90 -104 203.5 -155.5t272.5 -51.5zM420 -301q-49 10 -49 55q0 38 23 70.5t65 32.5q65 0 65 -66q0 -42 -22.5 -95.5t-55.5 -86.5
q-32 -32 -77.5 -50t-87.5 -18q-25 0 -25 21q0 22 37 30q56 14 85.5 38.5t41.5 68.5z" />
    <glyph glyph-name="scommaaccent" unicode="&#x219;" horiz-adv-x="1013" 
d="M457 70q105 0 187.5 58t82.5 148q0 64 -48.5 111t-178.5 96q-156 58 -224.5 120t-68.5 161q0 128 107 215.5t280 87.5q91 0 186.5 -33.5t153.5 -77.5q27 -20 27 -47q0 -20 -14 -33.5t-34 -13.5q-17 0 -32 10q-149 103 -297 103q-125 0 -198 -58t-73 -137
q0 -63 47.5 -106.5t188.5 -98.5q157 -62 221 -125t64 -157q0 -89 -53.5 -162t-142.5 -113.5t-194 -40.5q-225 0 -407 148q-25 21 -25 47q0 20 13.5 34.5t33.5 14.5q18 0 45 -20q159 -131 353 -131zM274 -301q-49 10 -49 55q0 38 23 70.5t65 32.5q66 0 66 -66
q0 -42 -22.5 -95.5t-55.5 -86.5q-32 -32 -78 -50t-88 -18q-24 0 -24 21q0 22 36 30q56 14 85.5 38.5t41.5 68.5z" />
    <glyph glyph-name="schwa" unicode="&#x259;" horiz-adv-x="1193" 
d="M961 467h-758q-8 -36 -8 -86q0 -135 74.5 -224t219.5 -89q168 0 297 115t175 284zM637 975q-184 0 -330 -119q-17 -14 -39 -14q-19 0 -31 12t-12 31q0 24 21 41q170 143 391 143q200 0 327.5 -122.5t127.5 -315.5q0 -121 -47.5 -240t-127 -210.5t-193 -148.5t-237.5 -57
q-95 0 -171.5 32t-124.5 87.5t-73.5 127t-25.5 153.5q0 67 14 135q10 47 62 47h811q4 46 4 70q0 157 -95.5 252.5t-250.5 95.5z" />
    <glyph glyph-name="circumflex" unicode="&#x2c6;" 
d="M825 1438l99 -178q10 -20 10 -27q0 -8 -8 -14.5t-21 -6.5q-23 0 -37 5t-28 24l-90 117l-168 -119q-40 -27 -68 -27q-14 0 -21.5 6.5t-7.5 14.5q0 12 17 29l192 176q37 37 68 37h12q18 0 29 -8.5t22 -28.5z" />
    <glyph glyph-name="caron" unicode="&#x2c7;" 
d="M641 1249l-98 178q-11 22 -11 27q0 8 8 14.5t21 6.5q24 0 38 -5t28 -24l90 -117l168 119q17 11 24.5 15.5t18.5 8t24 3.5q14 0 21.5 -6.5t7.5 -14.5q0 -13 -16 -29l-193 -176q-37 -37 -67 -37h-13q-18 0 -29 8.5t-22 28.5z" />
    <glyph glyph-name="breve" unicode="&#x2d8;" 
d="M694 1214q-94 0 -153.5 47t-59.5 142q0 36 13.5 55t35.5 19q34 0 41 -41q9 -58 38.5 -87.5t107.5 -29.5q72 0 120.5 31.5t86.5 89.5q13 20 24 28.5t27 8.5q17 0 29 -11t12 -26t-6 -27q-45 -94 -130.5 -146.5t-185.5 -52.5z" />
    <glyph glyph-name="dotaccent" unicode="&#x2d9;" 
d="M778 1262q-16 -56 -76 -56q-31 0 -48 20t-11 48l19 67q16 56 75 56q31 0 49 -20t11 -48z" />
    <glyph glyph-name="ring" unicode="&#x2da;" 
d="M729 1219q-86 0 -138 47t-52 120q0 87 67 148t156 61q86 0 138 -47.5t52 -120.5q0 -86 -67 -147t-156 -61zM731 1284q61 0 104.5 41t43.5 100q0 46 -30.5 75.5t-88.5 29.5q-61 0 -104.5 -41t-43.5 -100q0 -46 30.5 -75.5t88.5 -29.5z" />
    <glyph glyph-name="ogonek" unicode="&#x2db;" 
d="M410 -334q-97 0 -149 39t-52 94q0 62 54.5 118.5t156.5 119.5l61 -35q-168 -110 -168 -186q0 -29 23.5 -45.5t83.5 -28.5q33 -6 33 -37q0 -18 -11.5 -28.5t-31.5 -10.5z" />
    <glyph glyph-name="tilde" unicode="&#x2dc;" 
d="M451 1208q-17 0 -30 10t-13 27q0 21 14 43q43 75 85 114.5t105 39.5q29 0 54 -10t40.5 -23t43.5 -39q28 -27 39 -36.5t26.5 -17t32.5 -7.5q28 0 51 22t55 76q18 31 41 31q17 0 30 -10t13 -27q0 -21 -14 -43q-43 -75 -85 -114.5t-105 -39.5q-29 0 -54 10t-40.5 23
t-43.5 39q-28 27 -39 36.5t-26.5 17t-32.5 7.5q-28 0 -51 -22t-55 -76q-18 -31 -41 -31z" />
    <glyph glyph-name="hungarumlaut" unicode="&#x2dd;" 
d="M672 1485q23 0 38 -16t15 -33q0 -23 -25 -41l-194 -156q-36 -27 -68 -27q-22 0 -22 19q0 12 12 24l182 195q35 35 62 35zM983 1485q23 0 38 -16t15 -33q0 -24 -24 -41l-195 -156q-36 -27 -67 -27q-23 0 -23 19q0 12 12 24l183 195q35 35 61 35z" />
    <glyph glyph-name="commaaccent" unicode="&#x326;" 
d="M285 -301q-49 10 -49 55q0 38 23 70.5t65 32.5q65 0 65 -66q0 -42 -22.5 -95.5t-55.5 -86.5q-32 -32 -78 -50t-88 -18q-24 0 -24 21q0 22 37 30q56 14 85.5 38.5t41.5 68.5z" />
    <glyph glyph-name="Wgrave" unicode="&#x1e80;" horiz-adv-x="2199" 
d="M2314 1362l-833 -1325q-12 -19 -18.5 -27.5t-20 -17t-29.5 -8.5h-4q-43 0 -47 53l-82 1198l-725 -1198q-14 -26 -29 -39.5t-39 -13.5h-4q-43 0 -47 53l-123 1323q0 2 -1 13t-1 16q0 23 16 38t40 15q25 0 39 -15t16 -41l104 -1228l744 1249q20 35 55 35h2q42 0 45 -43
l76 -1241l772 1243q24 41 64 41q19 0 31 -12t12 -29q0 -19 -13 -39zM1286 1585l-125 164q-14 17 -14 33q0 15 26 31t54 16q43 0 57 -37l74 -188q6 -18 6 -25q0 -18 -27 -18q-33 0 -51 24z" />
    <glyph glyph-name="wgrave" unicode="&#x1e81;" horiz-adv-x="1730" 
d="M299 43l-90 926q0 1 -1 12t-1 16q0 24 14 40t39 16q22 0 34.5 -15t14.5 -41l72 -862l539 881q24 37 57 37h2q41 0 45 -45l68 -873l544 879q23 39 54 39q43 0 43 -41q0 -17 -13 -39l-598 -946q-24 -41 -59 -41h-2q-47 0 -53 57l-68 844l-530 -858q-24 -43 -60 -43h-2
q-20 0 -34 15.5t-15 41.5zM956 1237l-125 164q-14 17 -14 33q0 15 26 31t54 16q43 0 57 -37l74 -189q6 -18 6 -24q0 -19 -26 -19q-33 0 -52 25z" />
    <glyph glyph-name="Wacute" unicode="&#x1e82;" horiz-adv-x="2199" 
d="M2314 1362l-833 -1325q-12 -19 -18.5 -27.5t-20 -17t-29.5 -8.5h-4q-43 0 -47 53l-82 1198l-725 -1198q-14 -26 -29 -39.5t-39 -13.5h-4q-43 0 -47 53l-123 1323q0 2 -1 13t-1 16q0 23 16 38t40 15q25 0 39 -15t16 -41l104 -1228l744 1249q20 35 55 35h2q42 0 45 -43
l76 -1241l772 1243q24 41 64 41q19 0 31 -12t12 -29q0 -19 -13 -39zM1640 1747l-210 -160q-35 -26 -78 -26q-29 0 -29 20q0 13 10 23l180 194q35 35 60 35q29 0 59.5 -18t30.5 -33q0 -19 -23 -35z" />
    <glyph glyph-name="wacute" unicode="&#x1e83;" horiz-adv-x="1730" 
d="M299 43l-90 926q0 1 -1 12t-1 16q0 24 14 40t39 16q22 0 34.5 -15t14.5 -41l72 -862l539 881q24 37 57 37h2q41 0 45 -45l68 -873l544 879q23 39 54 39q43 0 43 -41q0 -17 -13 -39l-598 -946q-24 -41 -59 -41h-2q-47 0 -53 57l-68 844l-530 -858q-24 -43 -60 -43h-2
q-20 0 -34 15.5t-15 41.5zM1311 1399l-211 -160q-36 -27 -78 -27q-29 0 -29 21q0 11 11 22l180 195q14 14 19.5 19t16.5 10.5t23 5.5q29 0 59.5 -18t30.5 -33q0 -19 -22 -35z" />
    <glyph glyph-name="Wdieresis" unicode="&#x1e84;" horiz-adv-x="2199" 
d="M2314 1362l-833 -1325q-12 -19 -18.5 -27.5t-20 -17t-29.5 -8.5h-4q-43 0 -47 53l-82 1198l-725 -1198q-14 -26 -29 -39.5t-39 -13.5h-4q-43 0 -47 53l-123 1323q0 2 -1 13t-1 16q0 23 16 38t40 15q25 0 39 -15t16 -41l104 -1228l744 1249q20 35 55 35h2q42 0 45 -43
l76 -1241l772 1243q24 41 64 41q19 0 31 -12t12 -29q0 -19 -13 -39zM1270 1610q-16 -56 -76 -56q-31 0 -48 20t-11 48l18 68q16 55 76 55q31 0 48.5 -20t10.5 -48zM1604 1610q-16 -56 -76 -56q-31 0 -48.5 20t-11.5 48l19 68q16 55 76 55q31 0 48.5 -20t10.5 -48z" />
    <glyph glyph-name="wdieresis" unicode="&#x1e85;" horiz-adv-x="1730" 
d="M299 43l-90 926q0 1 -1 12t-1 16q0 24 14 40t39 16q22 0 34.5 -15t14.5 -41l72 -862l539 881q24 37 57 37h2q41 0 45 -45l68 -873l544 879q23 39 54 39q43 0 43 -41q0 -17 -13 -39l-598 -946q-24 -41 -59 -41h-2q-47 0 -53 57l-68 844l-530 -858q-24 -43 -60 -43h-2
q-20 0 -34 15.5t-15 41.5zM940 1262q-16 -56 -76 -56q-31 0 -48 20t-11 48l18 67q16 56 76 56q31 0 48.5 -20t10.5 -48zM1274 1262q-16 -56 -76 -56q-31 0 -48 20t-11 48l18 67q16 56 76 56q31 0 48.5 -20t10.5 -48z" />
    <glyph glyph-name="Ygrave" unicode="&#x1ef2;" horiz-adv-x="1368" 
d="M733 555l-137 -516q-12 -47 -57 -47q-24 0 -38 16.5t-7 44.5l141 529l-340 772q-8 19 -8 37q0 22 14 36.5t37 14.5q36 0 55 -47l314 -731l725 749q29 29 57 29q19 0 33 -12.5t14 -32.5q0 -24 -25 -49zM862 1585l-125 164q-14 17 -14 33q0 15 26 31t54 16q43 0 57 -37
l74 -188q6 -18 6 -25q0 -18 -27 -18q-33 0 -51 24z" />
    <glyph glyph-name="ygrave" unicode="&#x1ef3;" horiz-adv-x="1163" 
d="M-94 -201q80 -39 147 -39q82 0 161 56t173 190l-197 959q-4 20 -4 36q0 22 13.5 37t36.5 15q43 0 53 -54l174 -888l606 901q26 41 59 41q21 0 33.5 -12t12.5 -31q0 -20 -13 -39l-692 -1008q-112 -161 -212.5 -229t-215.5 -68q-96 0 -186 49q-29 15 -29 45q0 20 13.5 33.5
t33.5 13.5q17 0 33 -8zM637 1237l-125 164q-14 17 -14 33q0 15 26 31t54 16q43 0 57 -37l74 -189q6 -18 6 -24q0 -19 -27 -19q-32 0 -51 25z" />
    <glyph glyph-name="enspace" unicode="&#x2002;" 
 />
    <glyph glyph-name="emspace" unicode="&#x2003;" horiz-adv-x="2048" 
 />
    <glyph glyph-name="threeperemspace" unicode="&#x2004;" horiz-adv-x="681" 
 />
    <glyph glyph-name="fourperemspace" unicode="&#x2005;" horiz-adv-x="512" 
 />
    <glyph glyph-name="thinspace" unicode="&#x2009;" horiz-adv-x="272" 
 />
    <glyph glyph-name="hairspace" unicode="&#x200a;" horiz-adv-x="153" 
 />
    <glyph glyph-name="endash" unicode="&#x2013;" horiz-adv-x="1081" 
d="M211 555q-22 0 -37.5 15.5t-15.5 37.5t15.5 38t37.5 16h704q22 0 38 -16t16 -38t-16 -37.5t-38 -15.5h-704z" />
    <glyph glyph-name="emdash" unicode="&#x2014;" horiz-adv-x="1839" 
d="M211 555q-22 0 -37.5 15.5t-15.5 37.5t15.5 38t37.5 16h1462q22 0 37.5 -16t15.5 -38t-15.5 -37.5t-37.5 -15.5h-1462z" />
    <glyph glyph-name="quoteleft" unicode="&#x2018;" horiz-adv-x="473" 
d="M573 1386q-66 -28 -99.5 -65t-45.5 -96q20 -2 33 -18.5t6 -43.5l-18 -67q-16 -54 -74 -54q-30 0 -47.5 20.5t-10.5 47.5l25 92q28 104 82 158q49 49 131 76q17 6 28 -1.5t11 -21.5q0 -18 -21 -27z" />
    <glyph glyph-name="quoteright" unicode="&#x2019;" horiz-adv-x="473" 
d="M266 1098q66 28 100 65.5t46 96.5q-20 2 -33 18t-6 43l18 68q16 53 74 53q30 0 47 -20.5t10 -47.5l-24 -92q-28 -104 -82 -158q-48 -48 -131 -75q-17 -6 -28 1t-11 21q0 18 20 27z" />
    <glyph glyph-name="quotesinglbase" unicode="&#x201a;" horiz-adv-x="473" 
d="M-61 -162q65 28 99 65.5t46 96.5q-20 2 -33 18t-6 43l18 68q16 53 74 53q30 0 47.5 -20t10.5 -47l-25 -92q-28 -104 -82 -158q-49 -49 -131 -76q-17 -6 -28 1.5t-11 21.5q0 17 21 26z" />
    <glyph glyph-name="quotedblleft" unicode="&#x201c;" horiz-adv-x="841" 
d="M741 1042q-30 0 -47 20.5t-10 47.5l25 92q28 104 82 158q49 49 131 76q17 6 28 -1.5t11 -21.5q0 -18 -21 -27q-66 -28 -99.5 -65t-45.5 -96q20 -2 33 -18.5t6 -43.5l-19 -67q-16 -54 -74 -54zM373 1042q-30 0 -47.5 20.5t-10.5 47.5l25 92q28 104 82 158q49 49 131 76
q17 6 28 -1.5t11 -21.5q0 -18 -21 -27q-66 -28 -99.5 -65t-45.5 -96q20 -2 33 -18.5t6 -43.5l-19 -67q-16 -54 -73 -54z" />
    <glyph glyph-name="quotedblright" unicode="&#x201d;" horiz-adv-x="841" 
d="M264 1098q66 28 100 65.5t46 96.5q-20 2 -33 18t-6 43l18 68q16 53 74 53q30 0 47 -20.5t10 -47.5l-24 -92q-28 -104 -82 -158q-48 -48 -131 -75q-17 -6 -28 1t-11 21q0 18 20 27zM633 1098q65 28 99 65.5t46 96.5q-20 2 -33 18t-6 43l19 68q16 53 73 53q30 0 47.5 -20.5
t10.5 -47.5l-25 -92q-28 -104 -82 -158q-48 -48 -131 -75q-17 -6 -28 1t-11 21q0 18 21 27z" />
    <glyph glyph-name="quotedblbase" unicode="&#x201e;" horiz-adv-x="843" 
d="M-61 -162q65 28 99 65.5t46 96.5q-20 2 -33 18t-6 43l18 68q16 53 74 53q30 0 47.5 -20t10.5 -47l-25 -92q-28 -104 -82 -158q-49 -49 -131 -76q-17 -6 -28 1.5t-11 21.5q0 17 21 26zM307 -162q66 28 100 65.5t46 96.5q-20 2 -33 18t-6 43l18 68q16 53 74 53q30 0 47 -20
t10 -47l-24 -92q-28 -104 -82 -158q-49 -49 -131 -76q-17 -6 -28 1.5t-11 21.5q0 17 20 26z" />
    <glyph glyph-name="dagger" unicode="&#x2020;" horiz-adv-x="839" 
d="M662 1382l-78 -245l207 12q19 1 33 -12.5t14 -32.5t-14 -32t-33 -11l-228 12l-137 -551q-10 -43 -49 -43q-20 0 -30.5 15t-6.5 38l154 541l-207 -12q-19 -2 -33 11t-14 32t14 32.5t33 12.5l223 -12l57 256q9 49 54 49q24 0 36.5 -18t4.5 -42z" />
    <glyph glyph-name="daggerdbl" unicode="&#x2021;" horiz-adv-x="880" 
d="M500 717l-107 -357l209 13q19 2 33 -11t14 -32t-14 -32.5t-33 -12.5l-223 12l-57 -256q-9 -49 -54 -49q-25 0 -37 18t-4 41l78 246l-207 -12q-19 -1 -33 12.5t-14 32.5t14 32t33 11l226 -13l86 357l104 356l-207 -12q-19 -2 -33 11t-14 32t14 32.5t33 12.5l223 -12
l58 256q9 49 53 49q24 0 36.5 -18t4.5 -42l-78 -245l207 12q19 1 33 -12.5t14 -32.5t-14 -32t-33 -11l-227 12z" />
    <glyph glyph-name="bullet" unicode="&#x2022;" horiz-adv-x="962" 
d="M475 455q-95 0 -155 61t-60 162q0 125 87.5 217t205.5 92q95 0 155 -61t60 -162q0 -125 -87.5 -217t-205.5 -92z" />
    <glyph glyph-name="ellipsis" unicode="&#x2026;" horiz-adv-x="1398" 
d="M174 41q-12 -49 -74 -49q-30 0 -46.5 17.5t-10.5 43.5l20 76q16 53 74 53q29 0 46.5 -18.5t11.5 -44.5zM637 41q-12 -49 -74 -49q-30 0 -46.5 17.5t-10.5 43.5l20 76q16 53 74 53q29 0 46 -18.5t11 -44.5zM1100 41q-12 -49 -74 -49q-30 0 -46.5 17.5t-10.5 43.5l20 76
q16 53 74 53q29 0 46 -18.5t11 -44.5z" />
    <glyph glyph-name="perthousand" unicode="&#x2030;" horiz-adv-x="2463" 
d="M471 709q-123 0 -202 84.5t-79 207.5q0 114 51.5 217t143 167.5t197.5 64.5q123 0 201.5 -84.5t78.5 -208.5q0 -114 -51.5 -217t-142.5 -167t-197 -64zM1204 -14q-123 0 -201.5 84.5t-78.5 208.5q0 114 51.5 217t142.5 167t197 64q123 0 201.5 -84.5t78.5 -208.5
q0 -114 -51.5 -217t-142.5 -167t-197 -64zM479 797q76 0 142.5 52.5t103.5 133t37 164.5q0 98 -50 156.5t-139 58.5q-76 0 -142 -52.5t-103 -133t-37 -164.5q0 -98 49.5 -156.5t138.5 -58.5zM1212 74q76 0 142.5 52.5t103.5 133t37 164.5q0 98 -49.5 156.5t-138.5 58.5
q-76 0 -142.5 -52.5t-103.5 -133t-37 -164.5q0 -98 49.5 -156.5t138.5 -58.5zM1987 -14q-123 0 -202 85t-79 208q0 114 51.5 217t142.5 167t197 64q123 0 202 -85t79 -208q0 -114 -51.5 -217t-142.5 -167t-197 -64zM1995 74q76 0 142 52.5t103 133t37 164.5
q0 98 -49.5 156.5t-138.5 58.5q-76 0 -142.5 -52.5t-103.5 -133t-37 -164.5q0 -98 50 -156.5t139 -58.5zM1581 1360l-1300 -1335q-33 -33 -56 -33q-18 0 -29.5 11.5t-11.5 29.5q0 20 23 43l1300 1335q33 33 56 33q18 0 29.5 -11.5t11.5 -29.5q0 -20 -23 -43z" />
    <glyph glyph-name="guilsinglleft" unicode="&#x2039;" horiz-adv-x="636" 
d="M111 545l391 377q32 32 55 32q20 0 31.5 -12.5t11.5 -32.5q0 -21 -18 -39l-363 -362l154 -340q8 -19 8 -35q0 -19 -13.5 -32t-33.5 -13q-32 0 -47 35l-181 362q-10 20 -10 31q0 14 15 29z" />
    <glyph glyph-name="guilsinglright" unicode="&#x203a;" horiz-adv-x="636" 
d="M524 498l-391 -377q-33 -33 -55 -33q-20 0 -31.5 12.5t-11.5 32.5q0 21 18 39l363 363l-154 339q-8 19 -8 35q0 19 13.5 32t33.5 13q32 0 47 -34l180 -363q11 -22 11 -31q0 -13 -15 -28z" />
    <glyph glyph-name="fraction" unicode="&#x2044;" horiz-adv-x="1126" 
d="M1317 1477l-1344 -1649q-30 -37 -57 -37q-19 0 -31 11t-12 28q0 24 18 45l1344 1649q30 37 57 37q19 0 31 -11t12 -28q0 -24 -18 -45z" />
    <glyph glyph-name="Euro" unicode="&#x20ac;" horiz-adv-x="1400" 
d="M457 950h561q20 0 34.5 -14.5t14.5 -34.5t-14.5 -34.5t-34.5 -14.5h-598q-39 -125 -45 -252h551q20 0 34.5 -14.5t14.5 -34.5t-14.5 -34.5t-34.5 -14.5h-551q9 -194 111.5 -312t277.5 -118q117 0 209 43t182 135q20 20 45 20q17 0 30 -12t13 -29q0 -25 -24 -49
q-98 -100 -204.5 -152.5t-252.5 -52.5q-211 0 -349.5 142.5t-148.5 384.5h-133q-20 0 -34.5 14.5t-14.5 34.5t14.5 34.5t34.5 14.5h135q6 134 43 252h-86q-20 0 -34.5 14.5t-14.5 34.5t14.5 34.5t34.5 14.5h121q91 227 267.5 367.5t398.5 140.5q154 0 262.5 -75t167.5 -203
q10 -23 10 -41q0 -22 -14 -35.5t-37 -13.5q-31 0 -45 32q-32 70 -73.5 120t-116.5 85t-173 35q-169 0 -310.5 -113t-223.5 -299z" />
    <glyph glyph-name="published" unicode="&#x2117;" horiz-adv-x="1699" 
d="M899 -25q-204 0 -374.5 100t-267.5 270t-97 370q0 150 58 287t157 237t237 159.5t291 59.5t290.5 -59t235.5 -158t155.5 -235.5t57.5 -286.5q0 -200 -98 -371t-269.5 -272t-375.5 -101zM899 33q143 0 270 54.5t217 147t142.5 219t52.5 265.5q0 186 -88 342.5t-244 248
t-346 91.5q-143 0 -270 -54.5t-217 -147t-142.5 -219t-52.5 -265.5q0 -186 88 -342.5t244 -248t346 -91.5zM657 395v668q0 19 13 32t32 13h244q134 0 213.5 -62t79.5 -174v-4q0 -120 -88.5 -183.5t-218.5 -63.5h-184v-226q0 -19 -13.5 -32t-32.5 -13t-32 13t-13 32zM748 705
h186q98 0 155.5 42t57.5 117v4q0 78 -54.5 117t-152.5 39h-192v-319z" />
    <glyph glyph-name="servicemark" unicode="&#x2120;" horiz-adv-x="1449" 
d="M1548 1434h2q20 0 28.5 -13.5t2.5 -36.5l-160 -559q-10 -30 -39 -30q-16 0 -25 12t-3 33l131 452l-297 -321q-19 -23 -41 -23t-33 25l-127 319l-135 -467q-10 -30 -39 -30q-16 0 -25.5 12t-3.5 33l160 557q10 37 39 37h2q26 0 39 -33l141 -357l334 365q25 25 49 25z
M199 958q14 0 26 -12q83 -90 201 -90q69 0 114.5 34.5t45.5 86.5q0 36 -28 61t-101 54q-95 38 -135.5 74t-40.5 96q0 77 66.5 129.5t166.5 52.5q127 0 209 -82q12 -12 12 -27q0 -14 -10 -24.5t-23 -10.5q-17 0 -34 17q-66 63 -160 63q-68 0 -111 -33.5t-43 -76.5
q0 -38 32 -63t110 -54q84 -32 123.5 -71t39.5 -97q0 -83 -68.5 -137.5t-170.5 -54.5q-150 0 -246 106q-10 13 -10 27q0 13 10.5 22.5t24.5 9.5z" />
    <glyph glyph-name="trademark" unicode="&#x2122;" horiz-adv-x="1413" 
d="M547 1364l-154 -539q-10 -30 -39 -30q-16 0 -25 12t-3 33l149 524h-170q-14 0 -24.5 10t-10.5 25q0 13 11 24t24 11h432q14 0 24.5 -10t10.5 -23q0 -15 -10.5 -26t-24.5 -11h-190zM1511 1434h2q20 0 28.5 -13.5t2.5 -36.5l-160 -559q-10 -30 -38 -30q-16 0 -25.5 12
t-3.5 33l131 452l-297 -321q-19 -23 -41 -23t-33 25l-127 319l-135 -467q-10 -30 -39 -30q-16 0 -25 12t-3 33l159 557q10 37 39 37h2q26 0 39 -33l141 -357l334 365q25 25 49 25z" />
    <glyph glyph-name="minus" unicode="&#x2212;" horiz-adv-x="1269" 
d="M1143 670h-905q-22 0 -37 14.5t-15 36.5t15 36.5t37 14.5h905q22 0 36.5 -14.5t14.5 -36.5t-14.5 -36.5t-36.5 -14.5z" />
    <glyph glyph-name="Q.alt" horiz-adv-x="1732" 
d="M1071 498l205 -240q119 111 186.5 265t67.5 319q0 223 -141.5 371.5t-366.5 148.5q-147 0 -281 -65.5t-228.5 -172.5t-150 -247t-55.5 -287q0 -223 141.5 -371.5t366.5 -148.5q210 0 389 129l-200 223q-27 31 -27 49q0 23 13 37t36 14q24 0 45 -24zM1386 -12l-116 137
q-212 -152 -455 -152q-178 0 -320 82t-220 222.5t-78 312.5q0 166 65.5 324.5t175 278t263.5 192.5t321 73q133 0 248.5 -48t196.5 -130t127 -196t46 -242q0 -185 -80.5 -359t-218.5 -299l117 -127q25 -29 25 -47q0 -21 -13 -34t-36 -13q-27 0 -48 25z" />
    <glyph glyph-name="aring.alt" horiz-adv-x="1169" 
d="M815 -8q-23 0 -35 16t-6 41l35 131q-172 -205 -420 -205q-90 0 -166 31.5t-126 100t-50 161.5q0 171 131.5 275t339.5 104q190 0 402 -59l8 28q14 54 14 105q0 119 -81 182.5t-234 63.5q-138 0 -265 -43q-16 -4 -26 -4q-19 0 -30 12.5t-11 32.5q0 35 39 47q119 39 225 47
q-35 41 -35 100q0 86 67.5 147.5t156.5 61.5q86 0 138 -47.5t52 -120.5q0 -55 -29.5 -99.5t-77.5 -72.5q101 -37 155 -112t54 -181q0 -59 -20 -137l-150 -559q-12 -47 -55 -47zM408 68q153 0 288.5 97t177.5 251l25 92q-192 49 -395 49q-156 0 -253 -77t-97 -199
q0 -97 68.5 -155t185.5 -58zM717 1057q61 0 104 41t43 100q0 46 -30.5 75.5t-88.5 29.5q-60 0 -103.5 -41t-43.5 -101q0 -46 30.5 -75t88.5 -29z" />
    <glyph glyph-name="aringacute.alt" horiz-adv-x="1169" 
d="M815 -8q-23 0 -35 16t-6 41l35 131q-172 -205 -420 -205q-90 0 -166 31.5t-126 100t-50 161.5q0 171 131.5 275t339.5 104q190 0 402 -59l8 28q14 54 14 105q0 119 -81 182.5t-234 63.5q-138 0 -265 -43q-16 -4 -26 -4q-19 0 -30 12.5t-11 32.5q0 35 39 47q119 39 225 47
q-35 41 -35 100q0 86 67.5 147.5t156.5 61.5q86 0 138 -47.5t52 -120.5q0 -55 -29.5 -99.5t-77.5 -72.5q101 -37 155 -112t54 -181q0 -59 -20 -137l-150 -559q-12 -47 -55 -47zM408 68q153 0 288.5 97t177.5 251l25 92q-192 49 -395 49q-156 0 -253 -77t-97 -199
q0 -97 68.5 -155t185.5 -58zM717 1057q61 0 104 41t43 100q0 46 -30.5 75.5t-88.5 29.5q-60 0 -103.5 -41t-43.5 -101q0 -46 30.5 -75t88.5 -29zM1059 1632l-211 -159q-36 -27 -78 -27q-29 0 -29 20q0 12 11 23l180 194q14 14 19.5 19t16.5 10.5t23 5.5q29 0 59.5 -18
t30.5 -33q0 -19 -22 -35z" />
    <glyph glyph-name="three.alt" horiz-adv-x="1228" 
d="M125 262q70 -93 169 -141.5t245 -48.5q181 0 297 91t116 224q0 98 -61 164.5t-157.5 95.5t-223.5 29h-10q-20 0 -33.5 13.5t-13.5 33.5t13.5 33.5t33.5 13.5h55q253 0 398 86.5t145 237.5q0 121 -94 192.5t-242 71.5q-114 0 -197.5 -31.5t-161.5 -87.5q-25 -18 -45 -18
t-32.5 13.5t-12.5 33.5q0 27 29 47q189 139 420 139q122 0 222.5 -40.5t163 -122t62.5 -191.5q0 -157 -114.5 -254.5t-317.5 -130.5q127 -37 207 -118t80 -206q0 -116 -71 -211.5t-193 -150t-269 -54.5q-322 0 -493 222q-16 19 -16 41t14.5 36.5t36.5 14.5q30 0 51 -27z" />
    <glyph glyph-name="registered.alt" horiz-adv-x="1699" 
d="M899 -25q-204 0 -374.5 100t-267.5 270t-97 370q0 150 58 287t157 237t237 159.5t291 59.5t290.5 -59t235.5 -158t155.5 -235.5t57.5 -286.5q0 -200 -98 -371t-269.5 -272t-375.5 -101zM899 33q143 0 270 54.5t217 147t142.5 219t52.5 265.5q0 186 -88 342.5t-244 248
t-346 91.5q-143 0 -270 -54.5t-217 -147t-142.5 -219t-52.5 -265.5q0 -186 88 -342.5t244 -248t346 -91.5zM616 397v672q0 19 12 31t31 12h293q143 0 219 -76q58 -58 58 -139v-4q0 -85 -55.5 -141t-149.5 -74l197 -248q12 -15 12 -33q0 -19 -13 -31t-32 -12q-22 0 -39 21
l-227 289h-217v-267q0 -18 -13.5 -30.5t-32.5 -12.5t-31 12t-12 31zM705 745h233q88 0 143.5 38t55.5 108q0 64 -50.5 100.5t-138.5 36.5h-243v-283z" />
    <glyph glyph-name="hfjslug" horiz-adv-x="1421" 
d="M1319 -410h-426l-16 29h-334l-17 -29h-424v621q28 0 47 18.5t19 46.5q0 27 -19.5 46.5t-46.5 19.5v1135h205l62 161h684l59 -161h207v-1887zM819 1153v-352h31v160h78v28h-78v135h88v29h-119zM377 1153v-352h31v162h96v-162h31v352h-31v-162h-96v162h-31zM942 807
q20 -8 43 -8q64 0 64 73v281h-33v-281q0 -45 -33 -45q-13 0 -41 11v-31zM760 952l-27 6q-9 -39 -16 -61h-2l-33 64q47 44 47 86q0 28 -14 45.5t-41 17.5q-26 0 -42 -18t-16 -45q0 -9 1 -16.5t4.5 -16.5t6 -13.5t9 -16.5t8.5 -17q-47 -38 -47 -97q0 -34 16.5 -54.5
t42.5 -20.5q41 0 60 49h2l24 -49l25 12l-35 65q16 40 27 80zM1071 662v-95h16v25l17 16l31 -41h20l-41 54l37 41h-21l-40 -50h-3v50h-16zM999 598l21 -31h18l-24 35q20 8 20 29q0 13 -10 22t-25 9h-41v-95h17v31h24zM872 565q22 0 36 14.5t14 34.5q0 19 -14.5 34.5
t-35.5 15.5t-35 -15t-14 -35q0 -21 14 -35t35 -14zM758 616l-27 46h-18l37 -60v-35h16v35l37 60h-19zM395 662v-95h70v15h-53v26h47v15h-47v24h53v15h-70zM270 662v-95h17v66l51 -66h14v95h-16v-66l-51 66h-15zM494 662l28 -97h17l22 70h2l23 -70h16l29 97h-17l-20 -72h-2
l-23 72h-14l-23 -72h-2l-20 72h-16zM670 981q-25 48 -25 66q0 17 8.5 27.5t20.5 10.5q26 0 26 -38q0 -31 -30 -66zM700 866q-16 -43 -41 -43q-14 0 -23 14t-9 37q0 40 32 72zM997 612h-22v35h22q21 0 21 -16q0 -8 -6 -13.5t-15 -5.5zM872 580q-14 0 -23 10t-9 24q0 13 9 24
t23 11t23.5 -11t9.5 -24q0 -14 -9 -24t-24 -10z" />
    <glyph glyph-name="caron.alt" 
d="M627 1223l86 227q19 51 71 51h27q29 0 29 -22q0 -14 -19 -45l-131 -217q-21 -35 -45 -35t-24 18q0 8 6 23z" />
    <glyph glyph-name="NUL" horiz-adv-x="0" 
 />
    </font>
</defs>
</svg>
