<?xml version="1.0" standalone="no"?>
<!DOCTYPE svg PUBLIC "-//W3C//DTD SVG 1.1//EN" "http://www.w3.org/Graphics/SVG/1.1/DTD/svg11.dtd" >
<svg xmlns="http://www.w3.org/2000/svg" xmlns:xlink="http://www.w3.org/1999/xlink" version="1.1">
<metadata>
Created by FontForge 20170731 at Wed Sep  9 10:01:38 2020
 By Aleksey,,,
Copyright (c) 2004 The Hoefler Type Foundry, Inc., dba Hoefler &#38; Frere-Jones. All Rights Reserved.
</metadata>
<defs>
<font id="GothamRounded-BookItalic" horiz-adv-x="1024" >
  <font-face 
    font-family="Gotham Rounded Book"
    font-weight="325"
    font-style="italic"
    font-stretch="normal"
    units-per-em="2048"
    panose-1="0 0 0 0 0 0 0 0 0 0"
    ascent="1638"
    descent="-410"
    x-height="1059"
    cap-height="1444"
    bbox="-281 -498 2425 2120"
    underline-thickness="102"
    underline-position="-307"
    slope="-15"
    unicode-range="U+0020-2212"
  />
<missing-glyph 
d="M0 -410v2048h1024v-2048h-1024zM145 1536l367 -799l367 799h-734zM102 -156l353 770l-353 770v-1540zM922 1384l-353 -770l353 -770v1540zM512 492l-367 -799h734z" />
    <glyph glyph-name="f_f" unicode="ff" horiz-adv-x="1536" 
d="M500 920l-230 -852q-9 -37 -32.5 -57.5t-55.5 -20.5q-37 0 -55 27t-8 71l223 832h-72q-26 2 -45.5 21t-19.5 48t20.5 49.5t48.5 20.5h105l35 127q81 313 362 313q80 0 150 -24q57 -18 57 -70q0 -36 -26 -57t-60 -9q-61 23 -121 23q-159 0 -213 -201l-26 -102h264
q29 0 49 -20.5t20 -49.5t-20 -49t-49 -20h-301zM1268 920l-230 -852q-9 -37 -32.5 -57.5t-55.5 -20.5q-37 0 -55 27t-8 71l223 832h-72q-26 2 -45.5 21t-19.5 48t20.5 49.5t48.5 20.5h105l35 127q81 313 362 313q80 0 150 -24q57 -18 57 -70q0 -36 -26 -57t-60 -9
q-61 23 -121 23q-159 0 -213 -201l-26 -102h264q29 0 49 -20.5t20 -49.5t-20 -49t-49 -20h-301z" />
    <glyph glyph-name="fi" unicode="fi" horiz-adv-x="1308" 
d="M1354 1354q-9 -35 -37.5 -54.5t-67.5 -19.5q-41 0 -64 23t-16 57l11 43q9 33 37 52.5t67 19.5q42 0 64.5 -22.5t15.5 -57.5zM1235 971l-242 -903q-22 -78 -88 -78q-38 0 -55.5 27t-7.5 71l241 903q22 78 88 78q39 0 57.5 -27t6.5 -71zM500 920l-230 -852
q-9 -37 -32.5 -57.5t-55.5 -20.5q-37 0 -55 27t-8 71l223 832h-72q-26 2 -45.5 21t-19.5 48t20.5 49.5t48.5 20.5h105l35 127q81 313 362 313q80 0 150 -24q57 -18 57 -70q0 -36 -26 -57t-60 -9q-61 23 -121 23q-159 0 -213 -201l-26 -102h264q29 0 49 -20.5t20 -49.5
t-20 -49t-49 -20h-301z" />
    <glyph glyph-name="fl" unicode="fl" horiz-adv-x="1308" 
d="M1352 1407l-359 -1339q-22 -78 -88 -78q-38 0 -55.5 27t-7.5 71l358 1339q22 78 88 78q39 0 57.5 -27t6.5 -71zM500 920l-230 -852q-9 -37 -32.5 -57.5t-55.5 -20.5q-37 0 -55 27t-8 71l223 832h-72q-26 2 -45.5 21t-19.5 48t20.5 49.5t48.5 20.5h105l35 127
q81 313 362 313q80 0 150 -24q57 -18 57 -70q0 -36 -26 -57t-60 -9q-61 23 -121 23q-159 0 -213 -201l-26 -102h264q29 0 49 -20.5t20 -49.5t-20 -49t-49 -20h-301z" />
    <glyph glyph-name="f_f_i" unicode="ffi" horiz-adv-x="2078" 
d="M2122 1354q-9 -35 -37.5 -54.5t-67.5 -19.5q-41 0 -64 23t-16 57l11 43q9 33 37 52.5t67 19.5q42 0 64.5 -22.5t15.5 -57.5zM2003 971l-242 -903q-22 -78 -88 -78q-38 0 -55.5 27t-7.5 71l241 903q22 78 88 78q39 0 57.5 -27t6.5 -71zM500 920l-230 -852
q-9 -37 -32.5 -57.5t-55.5 -20.5q-37 0 -55 27t-8 71l223 832h-72q-26 2 -45.5 21t-19.5 48t20.5 49.5t48.5 20.5h105l35 127q81 313 362 313q80 0 150 -24q57 -18 57 -70q0 -36 -26 -57t-60 -9q-61 23 -121 23q-159 0 -213 -201l-26 -102h264q29 0 49 -20.5t20 -49.5
t-20 -49t-49 -20h-301zM1268 920l-230 -852q-9 -37 -32.5 -57.5t-55.5 -20.5q-37 0 -55 27t-8 71l223 832h-72q-26 2 -45.5 21t-19.5 48t20.5 49.5t48.5 20.5h105l35 127q81 313 362 313q80 0 150 -24q57 -18 57 -70q0 -36 -26 -57t-60 -9q-61 23 -121 23q-159 0 -213 -201
l-26 -102h264q29 0 49 -20.5t20 -49.5t-20 -49t-49 -20h-301z" />
    <glyph glyph-name="f_f_l" unicode="ffl" horiz-adv-x="2078" 
d="M2120 1407l-359 -1339q-22 -78 -88 -78q-38 0 -55.5 27t-7.5 71l358 1339q22 78 88 78q39 0 57.5 -27t6.5 -71zM500 920l-230 -852q-9 -37 -32.5 -57.5t-55.5 -20.5q-37 0 -55 27t-8 71l223 832h-72q-26 2 -45.5 21t-19.5 48t20.5 49.5t48.5 20.5h105l35 127
q81 313 362 313q80 0 150 -24q57 -18 57 -70q0 -36 -26 -57t-60 -9q-61 23 -121 23q-159 0 -213 -201l-26 -102h264q29 0 49 -20.5t20 -49.5t-20 -49t-49 -20h-301zM1268 920l-230 -852q-9 -37 -32.5 -57.5t-55.5 -20.5q-37 0 -55 27t-8 71l223 832h-72q-26 2 -45.5 21
t-19.5 48t20.5 49.5t48.5 20.5h105l35 127q81 313 362 313q80 0 150 -24q57 -18 57 -70q0 -36 -26 -57t-60 -9q-61 23 -121 23q-159 0 -213 -201l-26 -102h264q29 0 49 -20.5t20 -49.5t-20 -49t-49 -20h-301z" />
    <glyph glyph-name=".notdef" 
d="M0 -410v2048h1024v-2048h-1024zM145 1536l367 -799l367 799h-734zM102 -156l353 770l-353 770v-1540zM922 1384l-353 -770l353 -770v1540zM512 492l-367 -799h734z" />
    <glyph glyph-name=".null" horiz-adv-x="0" 
 />
    <glyph glyph-name="nonmarkingreturn" horiz-adv-x="682" 
 />
    <glyph glyph-name="space" unicode=" " horiz-adv-x="614" 
 />
    <glyph glyph-name="exclam" unicode="!" horiz-adv-x="555" 
d="M594 1370l-295 -932q-14 -41 -49 -41q-23 0 -34 15t-7 43l205 923q5 28 23.5 45t47.5 17h62q30 0 43.5 -20t3.5 -50zM184 225q42 0 68 -29t14 -69l-14 -51q-9 -39 -38.5 -62.5t-70.5 -23.5q-43 0 -67.5 28.5t-14.5 69.5l15 51q11 40 39 63t69 23z" />
    <glyph glyph-name="quotedbl" unicode="&#x22;" horiz-adv-x="905" 
d="M309 909q-20 -41 -55 -41q-23 0 -32 15.5t-1 40.5l150 446q24 70 92 70h35q39 0 50.5 -27.5t-9.5 -64.5zM713 909q-20 -41 -56 -41q-23 0 -31.5 15.5t-0.5 40.5l149 446q9 32 33 51t59 19h33q40 0 51 -27.5t-10 -64.5z" />
    <glyph glyph-name="numbersign" unicode="#" horiz-adv-x="1396" 
d="M481 504h383l154 434h-385zM780 1364l-98 -285h383l106 303q23 62 82 62q35 0 52 -23.5t6 -56.5l-101 -285h150q29 0 49.5 -20t20.5 -49t-20.5 -50.5t-49.5 -21.5h-199l-151 -434h172q29 0 50 -20.5t21 -49.5t-21 -50.5t-50 -21.5h-221l-109 -311q-20 -61 -80 -61
q-35 0 -52 24t-5 56l100 292h-383l-108 -311q-21 -61 -80 -61q-35 0 -52.5 23t-7.5 57l103 292h-148q-29 0 -50 20.5t-21 49.5t21 50.5t50 21.5h197l151 434h-172q-29 0 -50 20.5t-21 49.5t21 50t50 21h222l106 303q23 62 80 62q35 0 52 -24t5 -56z" />
    <glyph glyph-name="dollar" unicode="$" horiz-adv-x="1275" 
d="M393 -131l41 143q-236 43 -389 189q-33 29 -33 69q0 32 22 54t56 22q29 0 57 -24q132 -135 336 -168l140 516q-192 73 -275.5 152t-83.5 210q0 171 143.5 286.5t356.5 115.5q13 0 36 -1t34 -1l18 67q20 64 74 64q31 0 46.5 -22.5t6.5 -57.5l-18 -70q165 -36 292 -141
q37 -26 37 -66q0 -32 -23 -55t-55 -23q-26 0 -59 23q-102 89 -242 121l-133 -488q180 -67 263 -151t83 -215q0 -183 -150 -300.5t-386 -117.5h-29l-41 -147q-16 -64 -72 -64q-31 0 -46.5 22t-6.5 58zM598 143q159 -3 259.5 68.5t100.5 189.5q0 74 -50.5 127t-174.5 103z
M668 825l127 463q-156 15 -260.5 -56t-104.5 -183q0 -76 54.5 -126t183.5 -98z" />
    <glyph glyph-name="percent" unicode="%" horiz-adv-x="1714" 
d="M475 709q-127 0 -208 85.5t-81 213.5q0 112 50.5 213.5t142 165t199.5 63.5q129 0 209.5 -85.5t80.5 -213.5q0 -112 -50.5 -213.5t-142 -165t-200.5 -63.5zM1235 -14q-128 0 -208.5 85t-80.5 214q0 111 50.5 212.5t142 165.5t200.5 64q127 0 208 -85.5t81 -213.5
q0 -112 -50.5 -213.5t-142 -165t-200.5 -63.5zM485 821q70 0 130 48.5t93 122t33 149.5q0 90 -45.5 143t-126.5 53q-105 0 -180.5 -100t-75.5 -219q0 -91 45 -144t127 -53zM1245 98q70 0 130 48.5t93 122t33 149.5q0 90 -45.5 143t-126.5 53q-105 0 -180.5 -100.5
t-75.5 -220.5q0 -89 45.5 -142t126.5 -53zM1591 1337l-1274 -1312q-35 -35 -63 -35q-24 0 -39.5 15.5t-15.5 39.5t26 53l1274 1311q31 35 62 35q25 0 40 -14t15 -39q0 -29 -25 -54z" />
    <glyph glyph-name="ampersand" unicode="&#x26;" horiz-adv-x="1417" 
d="M680 856q103 28 175.5 62t112 71t57 74t17.5 78q0 81 -56 132.5t-150 51.5q-100 0 -170 -70t-70 -168q0 -56 19.5 -109t64.5 -122zM500 119q208 0 403 180l-297 420q-195 -52 -291 -147.5t-96 -213.5q0 -109 75.5 -174t205.5 -65zM1110 18l-125 179
q-120 -110 -239 -163.5t-265 -53.5q-184 0 -303 98.5t-119 267.5q0 163 120.5 286.5t355.5 188.5q-91 155 -91 266q0 155 115.5 263t282.5 108q159 0 255.5 -86t96.5 -223q0 -268 -442 -395l256 -359q102 116 188 256q28 47 66 47q27 0 45 -16t18 -43t-16 -49
q-111 -176 -219 -295l133 -189q24 -34 24 -57q0 -31 -19.5 -50t-51.5 -19q-39 0 -66 38z" />
    <glyph glyph-name="quotesingle" unicode="'" horiz-adv-x="501" 
d="M309 909q-20 -41 -55 -41q-23 0 -32 15.5t-1 40.5l150 446q24 70 92 70h35q39 0 50.5 -27.5t-9.5 -64.5z" />
    <glyph glyph-name="parenleft" unicode="(" horiz-adv-x="888" 
d="M606 -160q23 -30 23 -55q0 -27 -19.5 -45.5t-48.5 -18.5q-30 0 -57 23q-153 146 -238.5 316t-85.5 382q0 314 195 578.5t565 427.5q28 12 45 12q28 0 46 -17.5t18 -45.5q0 -44 -43 -66q-322 -148 -493 -381t-171 -504q0 -99 20.5 -187t60.5 -163t82 -133t101 -123z" />
    <glyph glyph-name="parenright" unicode=")" horiz-adv-x="888" 
d="M315 1341q-22 28 -22 54q0 28 19 46.5t48 18.5q32 0 58 -22q323 -309 323 -699q0 -207 -84 -393.5t-256 -345t-419 -268.5q-39 -11 -45 -11q-28 0 -46 18t-18 46q0 43 43 65q322 148 492 380.5t170 504.5q0 99 -20.5 187t-60 163t-81.5 133t-101 123z" />
    <glyph glyph-name="asterisk" unicode="*" horiz-adv-x="880" 
d="M602 1063l-37 -203q-6 -47 -51 -47q-28 0 -41.5 21t-3.5 47l72 198l-195 -69q-21 -9 -37 -9q-19 0 -33 13.5t-14 34.5q-3 46 49 55l215 37l-166 137q-26 23 -26 47q0 21 14 36t35 15q28 0 47 -22l139 -166l37 198q10 54 53 54q29 0 41.5 -20.5t1.5 -51.5l-71 -197l194 70
q16 8 39 8q19 0 31 -14t12 -35q0 -47 -47 -53l-215 -37l164 -137q29 -23 29 -47q0 -21 -15.5 -36.5t-36.5 -15.5q-26 0 -45 25z" />
    <glyph glyph-name="plus" unicode="+" horiz-adv-x="1280" 
d="M750 647l-97 -352q-9 -36 -31.5 -57t-54.5 -21q-38 0 -55.5 27.5t-5.5 68.5l90 334h-340q-31 0 -52.5 21.5t-21.5 52.5t21.5 52.5t52.5 21.5h379l94 354q23 76 88 76q37 0 54.5 -27t7.5 -68l-91 -335h340q31 0 53.5 -21.5t22.5 -50.5q0 -31 -22.5 -53.5t-53.5 -22.5h-378
z" />
    <glyph glyph-name="comma" unicode="," horiz-adv-x="522" 
d="M164 225q47 0 70 -34t10 -87l-17 -61q-32 -128 -112 -205q-69 -63 -164 -82q-24 -4 -36.5 6.5t-12.5 28.5q0 27 35 39q73 25 113 65.5t50 104.5q-29 5 -46 28t-9 60l14 53q9 37 37.5 60.5t67.5 23.5z" />
    <glyph glyph-name="hyphen" unicode="-" horiz-adv-x="839" 
d="M655 532h-426q-34 0 -58 25t-24 59q0 33 24.5 57.5t57.5 24.5h426q33 0 57.5 -24.5t24.5 -57.5q0 -34 -24 -59t-58 -25z" />
    <glyph glyph-name="period" unicode="." horiz-adv-x="522" 
d="M168 225q42 0 68 -29t14 -69l-14 -51q-9 -39 -38.5 -62.5t-70.5 -23.5q-43 0 -67.5 28.5t-14.5 69.5l14 51q11 40 39.5 63t69.5 23z" />
    <glyph glyph-name="slash" unicode="/" horiz-adv-x="1040" 
d="M-174 -154l1339 1756q32 43 74 43q26 0 41.5 -16t15.5 -42q0 -24 -26 -61l-1340 -1755q-32 -43 -73 -43q-26 0 -42 15.5t-16 41.5q0 22 27 61z" />
    <glyph glyph-name="zero" unicode="0" horiz-adv-x="1464" 
d="M659 -25q-236 0 -368.5 152.5t-132.5 400.5q0 135 34.5 270t101.5 253t156 209.5t207 144.5t246 53q156 0 271 -71.5t173 -195.5t58 -286q0 -135 -35 -270t-101.5 -253t-156 -209.5t-207.5 -144.5t-246 -53zM670 123q92 0 179.5 45t156.5 122.5t121.5 176t81 212.5
t28.5 226q0 180 -91 293t-255 113q-114 0 -220 -69.5t-180.5 -180.5t-119.5 -252t-45 -281q0 -181 90 -293t254 -112z" />
    <glyph glyph-name="one" unicode="1" horiz-adv-x="739" 
d="M719 1362l-348 -1294q-9 -37 -32.5 -57.5t-55.5 -20.5q-39 0 -59.5 27.5t-8.5 72.5l317 1182l-210 -66q-15 -6 -33 -6q-27 0 -45.5 19.5t-18.5 50.5q0 55 58 71l282 91q56 18 92 18h2q36 0 53 -24.5t7 -63.5z" />
    <glyph glyph-name="two" unicode="2" horiz-adv-x="1218" 
d="M928 0h-879q-37 0 -59.5 18t-22.5 52q0 45 39 71l803 609q125 94 182.5 171.5t57.5 165.5q0 97 -73.5 158.5t-199.5 61.5q-182 0 -352 -158q-33 -29 -62 -29q-31 0 -52 20.5t-21 51.5q0 36 30 63q104 95 213.5 147t249.5 52q193 0 314 -99t121 -257q0 -124 -74 -226.5
t-234 -222.5l-661 -502h680q32 0 54 -21t22 -52t-22 -52.5t-54 -21.5z" />
    <glyph glyph-name="three" unicode="3" horiz-adv-x="1239" 
d="M45 193q-25 32 -25 61q0 32 23.5 55t54.5 23t60 -33q61 -87 145 -131.5t213 -44.5q169 0 282 90.5t113 226.5q0 120 -98.5 182t-271.5 62h-23q-31 0 -49 15t-18 44q0 32 32 58l551 487h-620q-31 0 -52.5 20.5t-21.5 51.5t21.5 52.5t52.5 21.5h803q33 0 53 -16.5t20 -45.5
q0 -26 -12 -43t-37 -37l-555 -487q111 -9 197.5 -49.5t141 -118.5t54.5 -184q0 -101 -45.5 -190.5t-123 -152.5t-182.5 -99t-220 -36q-161 0 -277.5 57.5t-185.5 160.5z" />
    <glyph glyph-name="four" unicode="4" horiz-adv-x="1329" 
d="M264 475h590l197 731zM973 340l-72 -272q-10 -37 -33.5 -57.5t-54.5 -20.5q-37 0 -56 27t-7 73l67 250h-692q-37 0 -60.5 17t-23.5 49q0 43 43 86l985 911q58 51 113 51q38 0 57 -26t8 -64l-237 -889h143q28 0 49 -19t21 -48t-21 -48.5t-49 -19.5h-180z" />
    <glyph glyph-name="five" unicode="5" horiz-adv-x="1234" 
d="M72 166q-33 38 -33 74q0 30 22 51.5t54 21.5q36 0 63 -30q133 -162 348 -162q183 0 299.5 104.5t116.5 247.5q0 127 -88 201t-231 74q-110 0 -263 -60q-46 -14 -84 14q-44 31 -24 93l186 571q24 68 84 68h652q31 0 52 -22t21 -54q0 -31 -21 -52.5t-52 -21.5h-609
l-151 -450q45 22 117 38.5t128 16.5q205 0 329 -109.5t124 -294.5q0 -102 -43.5 -194.5t-120 -162.5t-189.5 -111.5t-245 -41.5q-263 0 -442 191z" />
    <glyph glyph-name="six" unicode="6" horiz-adv-x="1312" 
d="M1290 1321q37 -26 37 -68q0 -32 -22.5 -54.5t-53.5 -22.5q-29 0 -55 22q-127 113 -291 113q-194 0 -346 -152q-86 -86 -147 -212t-74 -255q65 91 173 150t241 59q204 0 328 -118t124 -294q0 -135 -72 -253t-201 -189.5t-284 -71.5q-106 0 -196.5 34.5t-151.5 96.5
q-141 141 -141 398q0 224 76.5 420t207.5 327q207 207 476 207q221 0 372 -137zM651 117q166 0 276.5 107t110.5 253q0 116 -83 200.5t-234 84.5q-172 0 -283.5 -104t-111.5 -240q0 -130 84 -211q87 -90 241 -90z" />
    <glyph glyph-name="seven" unicode="7" horiz-adv-x="1200" 
d="M1251 1290l-907 -1245q-42 -55 -90 -55q-31 0 -49.5 17t-18.5 46q0 31 27 72l856 1161h-694q-31 0 -52.5 21t-21.5 53q0 31 21.5 52.5t52.5 21.5h844q33 0 51 -16t18 -44q0 -38 -37 -84z" />
    <glyph glyph-name="eight" unicode="8" horiz-adv-x="1325" 
d="M606 -20q-230 0 -379 109.5t-149 272.5t116.5 266t301.5 136q-91 37 -149 116t-58 181q0 164 146.5 278.5t371.5 114.5q212 0 347.5 -104t135.5 -267q0 -143 -99 -240.5t-255 -129.5q103 -37 173.5 -121t70.5 -197q0 -116 -72.5 -210.5t-204.5 -149.5t-297 -55zM770 799
q166 0 263 80t97 188q0 109 -90 178.5t-237 69.5q-156 0 -255 -76.5t-99 -191.5q0 -106 89.5 -177t231.5 -71zM616 119q178 0 288 79t112 205q0 108 -103.5 185.5t-269.5 77.5q-180 0 -290.5 -83.5t-110.5 -203.5q-2 -115 101.5 -187.5t272.5 -72.5z" />
    <glyph glyph-name="nine" unicode="9" horiz-adv-x="1312" 
d="M498 -27q-220 0 -385 148q-39 31 -39 72q0 32 21 53.5t52 21.5q30 0 58 -20q130 -127 301 -127q193 0 346 153q86 85 146 207.5t73 249.5q-65 -91 -171.5 -154t-244.5 -63q-204 0 -328 120.5t-124 299.5q1 140 74 260t202 191t285 71q103 0 194.5 -34t153.5 -95
q141 -144 141 -407q0 -220 -77.5 -414.5t-208.5 -325.5q-210 -207 -469 -207zM692 655q168 0 279.5 109t111.5 252q0 127 -82 209q-92 92 -241 92q-168 0 -278.5 -109.5t-110.5 -261.5q-1 -57 19 -108.5t58.5 -93t101.5 -65.5t142 -24z" />
    <glyph glyph-name="colon" unicode=":" horiz-adv-x="536" 
d="M174 225q42 0 68 -29t14 -69l-14 -51q-9 -39 -38.5 -62.5t-70.5 -23.5q-43 0 -67.5 28.5t-14.5 69.5l15 51q11 40 39 63t69 23zM401 1069q42 0 68 -29t14 -69l-14 -51q-9 -39 -38.5 -62.5t-70.5 -23.5q-43 0 -67 28.5t-14 69.5l14 51q11 40 39 63t69 23z" />
    <glyph glyph-name="semicolon" unicode=";" horiz-adv-x="536" 
d="M401 1069q42 0 68 -29t14 -69l-14 -51q-9 -39 -38.5 -62.5t-70.5 -23.5q-43 0 -67 28.5t-14 69.5l14 51q11 40 39 63t69 23zM172 225q47 0 70 -34t10 -87l-16 -61q-32 -127 -113 -205q-69 -63 -164 -82q-24 -4 -36.5 6.5t-12.5 28.5q0 27 35 39q73 25 113.5 66t50.5 104
q-29 5 -46.5 28t-9.5 60l15 53q9 38 37 61t67 23z" />
    <glyph glyph-name="less" unicode="&#x3c;" horiz-adv-x="1280" 
d="M250 809l907 405q26 13 55 13q27 0 44.5 -17.5t17.5 -44.5q0 -51 -51 -71l-871 -383l637 -367q45 -23 45 -68q0 -31 -20 -52t-51 -21q-22 0 -50 14l-675 395q-66 37 -66 90v7q0 70 78 100z" />
    <glyph glyph-name="equal" unicode="=" horiz-adv-x="1280" 
d="M225 406q-33 0 -55.5 21.5t-22.5 53.5q0 31 23 53.5t55 22.5h805q31 0 53.5 -22.5t22.5 -53.5q0 -32 -22.5 -53.5t-53.5 -21.5h-805zM354 885q-32 0 -55 22t-23 54q0 31 23 53t55 22h805q31 0 53.5 -22t22.5 -53q0 -32 -22.5 -54t-53.5 -22h-805z" />
    <glyph glyph-name="greater" unicode="&#x3e;" horiz-adv-x="1280" 
d="M1130 633l-907 -406q-24 -12 -55 -12q-28 0 -45 17.5t-17 43.5q0 52 52 72l870 383l-637 367q-45 23 -45 67q0 31 20.5 52.5t51.5 21.5q21 0 49 -14l676 -396q65 -38 65 -90v-6q0 -70 -78 -100z" />
    <glyph glyph-name="question" unicode="?" horiz-adv-x="1099" 
d="M336 1174q-38 -25 -62 -25q-29 0 -48 19t-19 46q0 34 31 62q196 176 448 176q193 0 308.5 -103t115.5 -259q0 -96 -40.5 -176t-114 -136t-169.5 -93t-213 -54l-65 -187q-19 -49 -62 -49h-4q-25 0 -38 17t-9 45l41 231q9 56 72 64q196 23 315 106.5t119 218.5
q0 107 -75.5 167.5t-196.5 60.5q-173 0 -334 -131zM381 225q42 0 68 -29t14 -69l-14 -51q-9 -39 -38.5 -62.5t-70.5 -23.5q-43 0 -67.5 28.5t-14.5 69.5l14 51q11 40 39.5 63t69.5 23z" />
    <glyph glyph-name="at" unicode="@" horiz-adv-x="2007" 
d="M920 268q93 0 182 55.5t146 148.5t57 194q0 105 -66 172t-174 67q-145 0 -250.5 -121t-105.5 -288q0 -105 58.5 -166.5t152.5 -61.5zM1417 -238q-199 -88 -430 -88q-255 0 -450 100t-301.5 282t-106.5 419q0 194 79.5 375t213.5 315t320.5 214.5t390.5 80.5
q150 0 279.5 -36.5t226 -102.5t165.5 -156t103.5 -198t34.5 -226q0 -115 -27 -214.5t-71 -168t-101.5 -118t-119 -72.5t-122.5 -23q-105 0 -171 51t-85 142q-161 -197 -366 -197q-140 0 -233 92.5t-93 249.5q0 112 44 215t114.5 175.5t161.5 115.5t184 43q115 0 190 -56.5
t111 -144.5l39 125q20 64 76 64q34 0 52.5 -26t6.5 -64l-141 -453q-34 -109 2 -179.5t133 -70.5q43 0 89 19.5t91 61.5t80.5 101t57.5 145.5t22 186.5q0 134 -50.5 252.5t-143 207t-232 139.5t-307.5 51q-188 0 -360.5 -75t-296.5 -200t-197.5 -293t-73.5 -348
q0 -328 215 -529.5t567 -201.5q217 0 397 80q12 6 25 6q14 0 23.5 -10.5t9.5 -24.5q0 -21 -25 -33z" />
    <glyph glyph-name="A" unicode="A" horiz-adv-x="1529" 
d="M467 526h659l-133 734zM1128 1372l238 -1259q6 -36 6 -45q0 -32 -23 -55t-59 -23q-32 0 -54 19t-28 52l-55 318h-788l-242 -334q-44 -55 -84 -55q-30 0 -49 18.5t-19 48.5q0 29 19 52l921 1271q52 70 119 70h4q77 0 94 -78z" />
    <glyph glyph-name="B" unicode="B" horiz-adv-x="1468" 
d="M434 795h408q192 0 306 77.5t114 206.5q0 101 -76.5 155t-216.5 54h-402zM260 145h479q194 0 307 77t113 210q0 106 -90 162.5t-240 56.5h-434zM721 0h-567q-38 0 -59 27t-9 67l338 1258q9 37 34.5 59.5t57.5 22.5h467q209 0 326.5 -90t117.5 -244q0 -148 -99.5 -246.5
t-258.5 -130.5q115 -35 184.5 -108.5t69.5 -188.5q0 -189 -162 -307.5t-440 -118.5z" />
    <glyph glyph-name="C" unicode="C" horiz-adv-x="1505" 
d="M1300 172q-217 -199 -516 -199q-170 0 -307.5 70.5t-220 207t-82.5 316.5q0 171 68.5 334t183 285.5t274.5 197t334 74.5q163 0 288.5 -63t201.5 -170q28 -35 28 -70q-2 -33 -25 -56t-57 -22q-43 0 -61 29q-68 98 -157.5 150.5t-231.5 52.5q-136 0 -262 -62t-216 -163.5
t-144 -236t-54 -274.5q0 -204 125.5 -326t323.5 -122q125 0 218 40t187 122q31 22 57 22q32 0 54 -22.5t22 -53.5q0 -30 -31 -61z" />
    <glyph glyph-name="D" unicode="D" horiz-adv-x="1583" 
d="M264 150h303q179 0 331 58t261 167q180 180 180 446q0 201 -120 318q-145 145 -437 145h-213zM516 1434h277q179 0 322 -49t237 -142q155 -155 155 -412q0 -331 -225 -559q-130 -130 -319 -201t-416 -71h-393q-38 0 -59 27t-9 67l338 1258q9 37 34.5 59.5t57.5 22.5z" />
    <glyph glyph-name="E" unicode="E" horiz-adv-x="1337" 
d="M1051 0h-897q-38 0 -59 27t-9 67l338 1258q9 37 34.5 59.5t57.5 22.5h870q31 0 52.5 -21.5t21.5 -52.5t-21.5 -52.5t-52.5 -21.5h-819l-131 -489h686q30 0 52 -22t22 -52q0 -31 -21.5 -52.5t-52.5 -21.5h-725l-135 -502h789q31 0 52 -21t21 -52t-21 -52.5t-52 -21.5z" />
    <glyph glyph-name="F" unicode="F" horiz-adv-x="1347" 
d="M516 1434h875q31 0 53 -21.5t22 -52.5t-22 -53.5t-53 -22.5h-824l-137 -512h690q31 0 53.5 -21.5t22.5 -52.5q0 -30 -22.5 -51.5t-53.5 -21.5h-729l-147 -553q-11 -36 -36.5 -59t-57.5 -23q-38 0 -58 27t-8 67l340 1268q9 37 34.5 59.5t57.5 22.5z" />
    <glyph glyph-name="G" unicode="G" horiz-adv-x="1605" 
d="M1477 670l-140 -484q-14 -61 -71 -94q-207 -119 -455 -119q-131 0 -246 42t-202 118.5t-137 193t-50 257.5q0 131 42.5 260t123 239t187 194.5t244 132.5t284.5 48q320 0 491 -198q31 -31 31 -68q0 -33 -22 -56.5t-56 -23.5q-30 0 -57 27q-141 172 -402 172
q-116 0 -224.5 -40t-192.5 -110t-147.5 -160.5t-97.5 -196.5t-34 -214q0 -218 131 -342.5t344 -124.5q210 0 371 100l113 398h-359q-31 0 -52.5 21t-21.5 50q0 31 21.5 52.5t52.5 21.5h461q40 0 60.5 -28t9.5 -68z" />
    <glyph glyph-name="H" unicode="H" horiz-adv-x="1548" 
d="M1565 1343l-344 -1275q-9 -37 -32.5 -57.5t-55.5 -20.5q-39 0 -59.5 27.5t-8.5 72.5l149 555h-817l-155 -577q-11 -37 -34.5 -57.5t-55.5 -20.5q-39 0 -59.5 27.5t-8.5 72.5l344 1276q9 37 32.5 57.5t55.5 20.5q38 0 59 -27.5t9 -73.5l-146 -546h817l152 569
q11 37 34.5 57.5t55.5 20.5q38 0 59 -27.5t9 -73.5z" />
    <glyph glyph-name="I" unicode="I" horiz-adv-x="595" 
d="M598 1343l-342 -1275q-11 -37 -34.5 -57.5t-55.5 -20.5q-39 0 -59.5 27.5t-8.5 72.5l344 1276q9 37 32.5 57.5t55.5 20.5q38 0 59 -27.5t9 -73.5z" />
    <glyph glyph-name="J" unicode="J" horiz-adv-x="1122" 
d="M1171 1343l-223 -837q-38 -139 -82.5 -228.5t-113.5 -158.5q-68 -68 -160.5 -103.5t-194.5 -35.5q-266 0 -389 237q-20 27 -20 59t22 54t53 22q44 0 68 -41q80 -182 268 -182q141 0 244 98q49 51 84 123.5t66 186.5l223 829q9 36 33 57t57 21q38 0 58 -27.5t7 -73.5z" />
    <glyph glyph-name="K" unicode="K" horiz-adv-x="1464" 
d="M322 367l-80 -299q-11 -37 -34.5 -57.5t-55.5 -20.5q-39 0 -59.5 27.5t-8.5 72.5l344 1276q9 37 32.5 57.5t55.5 20.5q38 0 59 -27.5t9 -73.5l-203 -761l1016 831q34 31 67 31t53.5 -21.5t20.5 -52.5q0 -37 -33 -63l-631 -510l353 -674q16 -37 16 -57q0 -32 -24.5 -54
t-55.5 -22q-60 0 -84 57l-340 658z" />
    <glyph glyph-name="L" unicode="L" horiz-adv-x="1243" 
d="M985 0h-831q-38 0 -59 27t-9 67l342 1272q9 37 32.5 57.5t55.5 20.5q38 0 59 -27.5t9 -73.5l-320 -1193h721q31 0 52.5 -22.5t21.5 -53.5t-21.5 -52.5t-52.5 -21.5z" />
    <glyph glyph-name="M" unicode="M" horiz-adv-x="1779" 
d="M1716 1440h8q42 0 61.5 -28.5t6.5 -74.5l-340 -1269q-9 -36 -34 -57t-58 -21q-38 0 -58 27t-8 73l281 1049l-627 -660q-44 -47 -84 -47q-46 0 -67 53l-271 654l-286 -1069q-9 -37 -33.5 -58.5t-56.5 -21.5q-38 0 -58 27t-8 73l340 1264q23 86 92 86h6q58 0 84 -64
l301 -749l699 755q52 58 110 58z" />
    <glyph glyph-name="N" unicode="N" horiz-adv-x="1609" 
d="M1180 270l295 1096q9 37 32.5 57.5t55.5 20.5q38 0 57 -27.5t6 -73.5l-342 -1277q-19 -72 -82 -72h-4q-59 0 -88 63l-571 1133l-301 -1122q-22 -78 -88 -78q-38 0 -58 27t-8 73l342 1270q20 80 94 80h8q62 0 101 -72z" />
    <glyph glyph-name="O" unicode="O" horiz-adv-x="1724" 
d="M809 -27q-182 0 -326.5 82.5t-223.5 224.5t-79 316q0 164 65 321t175 276t266.5 192t329.5 73q136 0 254 -48t200 -131t128.5 -197.5t46.5 -243.5q0 -165 -65 -322.5t-175 -277t-266.5 -192.5t-329.5 -73zM819 123q110 0 212 39t181.5 108t139 158t91.5 193t32 210
q0 207 -129 342.5t-340 135.5q-136 0 -260 -61t-209.5 -160t-136 -227.5t-50.5 -260.5q0 -206 129 -341.5t340 -135.5z" />
    <glyph glyph-name="P" unicode="P" horiz-adv-x="1366" 
d="M360 510l-118 -442q-11 -37 -34.5 -57.5t-55.5 -20.5q-39 0 -59.5 27.5t-8.5 72.5l340 1262q9 37 34.5 59.5t57.5 22.5h379q273 0 410 -134q102 -105 102 -266q0 -164 -89 -283.5t-247.5 -180t-370.5 -60.5h-340zM399 653h310q253 0 391.5 97t138.5 274q0 105 -65 170
q-90 90 -285 90h-322z" />
    <glyph glyph-name="Q" unicode="Q" horiz-adv-x="1724" 
d="M1090 537l174 -215q99 101 155 234.5t56 274.5q0 207 -129 342.5t-340 135.5q-136 0 -260 -61t-209.5 -160t-136 -227.5t-50.5 -260.5q0 -206 129 -341.5t340 -135.5q184 0 332 104l-170 195q-33 41 -33 70q0 34 21.5 56.5t54.5 22.5q42 0 66 -34zM1339 -8l-96 117
q-202 -136 -434 -136q-182 0 -326.5 82.5t-223.5 224.5t-79 316q0 164 65 321t175 276t266.5 192t329.5 73q136 0 254 -48t200 -131t128.5 -197.5t46.5 -243.5q0 -180 -76 -348.5t-209 -292.5l92 -101q13 -14 18.5 -21.5t10 -19.5t4.5 -26q0 -31 -21.5 -52.5t-56.5 -21.5
q-42 0 -68 37z" />
    <glyph glyph-name="R" unicode="R" horiz-adv-x="1468" 
d="M373 557l-131 -489q-11 -37 -34.5 -57.5t-55.5 -20.5q-39 0 -59.5 27.5t-8.5 72.5l340 1262q9 37 34.5 59.5t57.5 22.5h447q269 0 403 -131q94 -97 94 -248q0 -182 -127 -312q-130 -130 -393 -170l246 -448q20 -36 20 -59q0 -34 -24.5 -55t-57.5 -21q-59 0 -86 53
l-276 514h-389zM412 702h389q275 0 407 132q86 89 86 208q0 97 -59 156q-86 86 -281 86h-385z" />
    <glyph glyph-name="S" unicode="S" horiz-adv-x="1304" 
d="M621 125q156 0 259 75.5t103 192.5q0 83 -64.5 140t-230.5 122q-105 41 -174 78t-120.5 82.5t-75 99.5t-23.5 123q0 179 148.5 297.5t379.5 118.5q266 0 453 -164q37 -30 37 -67q0 -33 -23.5 -55.5t-56.5 -22.5q-31 0 -57 20q-150 144 -367 144q-155 0 -249.5 -74.5
t-94.5 -177.5q0 -84 70 -139.5t247 -124.5q193 -74 282 -160t89 -219q0 -124 -72 -223.5t-196 -155t-275 -55.5q-338 0 -536 213q-31 31 -31 67q0 35 22 58.5t54 23.5q35 0 61 -29q89 -96 193 -142t248 -46z" />
    <glyph glyph-name="T" unicode="T" horiz-adv-x="1261" 
d="M907 1284l-325 -1216q-11 -37 -34.5 -57.5t-55.5 -20.5q-39 0 -59.5 27.5t-8.5 72.5l321 1194h-395q-31 0 -53.5 21.5t-22.5 52.5t22.5 53.5t53.5 22.5h993q31 0 53.5 -22.5t22.5 -53.5t-22.5 -52.5t-53.5 -21.5h-436z" />
    <glyph glyph-name="U" unicode="U" horiz-adv-x="1552" 
d="M1587 1343l-205 -763q-73 -272 -225 -424q-179 -179 -446 -179q-250 0 -386.5 126t-136.5 333q0 108 31 223l189 707q9 37 32.5 57.5t55.5 20.5q38 0 58.5 -27.5t8.5 -73.5l-192 -727q-21 -90 -21 -161q0 -146 96 -237t279 -91q185 0 319 131q126 129 183 350l205 758
q9 37 32.5 57.5t55.5 20.5q39 0 59.5 -28t7.5 -73z" />
    <glyph glyph-name="V" unicode="V" horiz-adv-x="1468" 
d="M1581 1325l-885 -1268q-49 -73 -112 -73h-9q-66 0 -79 75l-203 1266q-6 18 -6 43q0 32 24 54t60 22q37 0 59 -21t27 -57l172 -1165l813 1185q36 58 88 58q31 0 51.5 -16.5t20.5 -45.5t-21 -57z" />
    <glyph glyph-name="W" unicode="W" horiz-adv-x="2217" 
d="M2327 1327l-801 -1272q-44 -73 -105 -73h-8q-35 0 -53.5 20.5t-20.5 56.5l-75 1088l-662 -1092q-45 -73 -104 -73h-9q-66 0 -73 77l-117 1264q0 5 -1 20.5t-1 20.5q0 34 24.5 57t59.5 23q37 0 59 -20.5t25 -55.5l90 -1128l680 1144q35 60 90 60h6q33 0 51.5 -17.5
t20.5 -48.5l72 -1138l704 1144q37 60 92 60q31 0 51.5 -19t20.5 -47q0 -23 -16 -51z" />
    <glyph glyph-name="X" unicode="X" horiz-adv-x="1421" 
d="M864 719l320 -590q20 -33 20 -63q0 -31 -22.5 -53.5t-55.5 -22.5q-52 0 -79 55l-299 569l-580 -577q-24 -24 -42 -35.5t-42 -11.5q-30 0 -50 19.5t-20 49.5q0 38 31 66l623 616l-308 564q-20 33 -20 63q0 31 22.5 53.5t55.5 22.5q53 0 80 -55l290 -545l551 553
q44 47 84 47q30 0 50 -20t20 -50q0 -35 -31 -63z" />
    <glyph glyph-name="Y" unicode="Y" horiz-adv-x="1357" 
d="M752 547l-127 -479q-11 -37 -34.5 -57.5t-55.5 -20.5q-39 0 -59.5 27.5t-8.5 72.5l129 483l-317 734q-15 34 -15 59q0 33 24 55.5t60 22.5q55 0 82 -68l279 -667l657 690q45 45 88 45q31 0 50.5 -18.5t19.5 -49.5q0 -36 -33 -69z" />
    <glyph glyph-name="Z" unicode="Z" horiz-adv-x="1370" 
d="M27 143l1185 1145h-790q-29 0 -50.5 21.5t-21.5 50.5q0 31 21.5 52.5t50.5 21.5h979q31 0 48 -16t17 -44v-2q0 -39 -43 -82l-1185 -1145h827q31 0 52.5 -21t21.5 -50q0 -31 -21.5 -52.5t-52.5 -21.5h-1016q-31 0 -48 15.5t-17 43.5v2q0 39 43 82z" />
    <glyph glyph-name="bracketleft" unicode="[" horiz-adv-x="899" 
d="M991 1311h-401l-389 -1454h368q25 0 43.5 -18.5t18.5 -43.5t-18.5 -43t-43.5 -18h-456q-38 0 -59.5 25.5t-12.5 62.5l412 1530q21 82 102 82h436q25 0 43.5 -18.5t18.5 -43.5t-18.5 -43t-43.5 -18z" />
    <glyph glyph-name="backslash" unicode="\" horiz-adv-x="1040" 
d="M432 1579l412 -1743q6 -42 6 -45q0 -27 -18 -45t-46 -18q-54 0 -67 65l-412 1743q-6 42 -6 45q0 27 18.5 45.5t45.5 18.5q54 0 67 -66z" />
    <glyph glyph-name="bracketright" unicode="]" horiz-adv-x="899" 
d="M373 -266h-436q-26 0 -44 18t-18 43t18 43.5t44 18.5h401l389 1454h-369q-25 0 -43 18t-18 43t18 43.5t43 18.5h457q39 0 59.5 -26t10.5 -62l-410 -1530q-21 -82 -102 -82z" />
    <glyph glyph-name="asciicircum" unicode="^" 
d="M309 1077l320 318q28 26 49 38.5t49 12.5h10q30 0 48 -12.5t32 -40.5l154 -322q10 -27 10 -39q0 -31 -43 -31q-34 0 -52 10t-36 44l-133 270l-283 -272q-31 -29 -54 -40.5t-52 -11.5q-21 0 -31 10t-10 23q0 23 22 43z" />
    <glyph glyph-name="underscore" unicode="_" horiz-adv-x="1228" 
d="M-215 -328q-27 0 -46.5 19.5t-19.5 46.5q0 26 19.5 44.5t46.5 18.5h1237q28 0 46.5 -18.5t18.5 -44.5q0 -28 -18.5 -47t-46.5 -19h-1237z" />
    <glyph glyph-name="grave" unicode="`" 
d="M719 1247l-117 152q-18 25 -18 41q0 22 34.5 42.5t71.5 20.5q53 0 70 -49l71 -182q1 -3 4 -13t3 -16q0 -15 -12.5 -24t-32.5 -9q-27 0 -43 8t-31 29z" />
    <glyph glyph-name="a" unicode="a" horiz-adv-x="1179" 
d="M424 100q136 0 257 89.5t159 226.5l20 73q-164 48 -344 48q-141 0 -229 -69.5t-88 -178.5q0 -85 61.5 -137t163.5 -52zM809 -10q-39 0 -55 23t-11 57l27 96q-164 -189 -395 -189q-140 0 -238 79t-98 214q0 176 131.5 279.5t339.5 103.5q177 0 377 -57l6 25q14 54 14 98
q0 104 -71.5 159.5t-214.5 55.5q-114 0 -244 -37q-15 -6 -33 -6q-28 0 -45.5 18.5t-17.5 46.5q0 52 53 68q148 49 311 49q198 0 307 -86.5t109 -241.5q0 -65 -23 -145l-141 -532q-9 -37 -32.5 -57.5t-55.5 -20.5z" />
    <glyph glyph-name="b" unicode="b" horiz-adv-x="1349" 
d="M653 -25q-78 0 -144.5 21t-114 59t-81.5 83t-57 100l-45 -170q-21 -78 -88 -78q-37 0 -55.5 27t-8.5 71l359 1339q22 78 88 78q38 0 55.5 -27t7.5 -71l-143 -530q178 204 401 204q182 0 301 -124t119 -324q0 -137 -49.5 -260.5t-131.5 -210t-190 -137t-223 -50.5z
M639 115q123 0 225 69t159.5 184.5t57.5 249.5q0 147 -82.5 235.5t-216.5 88.5q-116 0 -225.5 -70t-177.5 -186t-68 -242q0 -140 92 -234.5t236 -94.5z" />
    <glyph glyph-name="c" unicode="c" horiz-adv-x="1150" 
d="M948 121q-172 -146 -381 -146q-126 0 -231.5 54t-171.5 161t-66 248q0 170 85 318.5t229 236.5t309 88q249 0 381 -186q26 -30 26 -64q0 -29 -21 -50t-52 -21q-39 0 -64 31q-102 151 -280 151q-118 0 -222.5 -69.5t-166.5 -185t-62 -245.5q0 -151 92 -239t223 -88
q148 0 279 110q25 19 53 19q29 0 47.5 -19.5t18.5 -48.5q0 -30 -25 -55z" />
    <glyph glyph-name="d" unicode="d" horiz-adv-x="1349" 
d="M567 115q116 0 225.5 70t177.5 186t68 243q0 140 -91.5 234t-235.5 94q-123 0 -225.5 -69.5t-160 -185t-57.5 -249.5q0 -147 83 -235t216 -88zM961 -10q-35 0 -53 22t-15 56l29 112q-178 -205 -400 -205q-182 0 -301 125t-119 324q0 137 49.5 260.5t131.5 209.5
t190 136.5t223 50.5q152 0 251.5 -73t146.5 -189l161 608q22 78 88 78q39 0 56.5 -27t7.5 -71l-356 -1339q-22 -78 -90 -78z" />
    <glyph glyph-name="e" unicode="e" horiz-adv-x="1206" 
d="M279 594h682q10 30 10 82q0 117 -67.5 194.5t-196.5 77.5q-152 0 -267.5 -101t-160.5 -253zM575 113q165 0 287 98q28 16 53 16q28 0 46 -17.5t18 -45.5q0 -34 -31 -58q-164 -131 -381 -131q-210 0 -339.5 125t-129.5 326q0 121 47.5 239t128 210t196.5 149t245 57
q193 0 301 -115.5t108 -289.5q0 -57 -14 -129q-16 -72 -86 -72h-766q0 -8 -1 -25.5t-1 -25.5q2 -141 88.5 -226t230.5 -85z" />
    <glyph glyph-name="f" unicode="f" horiz-adv-x="768" 
d="M500 920l-230 -852q-9 -37 -32.5 -57.5t-55.5 -20.5q-37 0 -55 27t-8 71l223 832h-72q-26 2 -45.5 21t-19.5 48t20.5 49.5t48.5 20.5h105l35 127q81 313 362 313q80 0 150 -24q57 -18 57 -70q0 -36 -26 -57t-60 -9q-61 23 -121 23q-159 0 -213 -201l-26 -102h264
q29 0 49 -20.5t20 -49.5t-20 -49t-49 -20h-301z" />
    <glyph glyph-name="g" unicode="g" horiz-adv-x="1349" 
d="M588 217q117 0 222 61t167.5 159.5t62.5 205.5q0 123 -89 211t-236 88q-112 0 -212 -56t-162 -158.5t-62 -225.5q0 -134 90 -209.5t219 -75.5zM1096 827l43 164q21 78 88 78q37 0 55 -27t8 -71l-217 -819q-33 -121 -73.5 -198.5t-98.5 -135.5q-150 -150 -409 -150
t-467 148q-39 25 -39 67q0 29 19.5 49.5t49.5 20.5q28 0 54 -16q178 -134 380 -134q193 0 297 109q85 81 134 254l28 106q-88 -90 -185.5 -140t-219.5 -50q-84 0 -160.5 27t-137 76.5t-96.5 126.5t-36 169q0 128 51 241.5t134.5 191t190.5 122.5t218 45q66 0 122 -14.5
t96 -38t74 -57.5t56 -68t41 -76z" />
    <glyph glyph-name="h" unicode="h" horiz-adv-x="1255" 
d="M1110 590l-139 -522q-9 -37 -31.5 -57.5t-54.5 -20.5q-39 0 -57.5 27t-6.5 71l135 512q17 60 17 119q0 104 -63.5 162.5t-174.5 58.5q-124 0 -233 -96.5t-150 -245.5l-141 -530q-9 -37 -32.5 -57.5t-55.5 -20.5q-37 0 -55.5 27t-8.5 71l359 1339q22 78 88 78
q38 0 55.5 -27t7.5 -71l-139 -520q81 92 168.5 143t200.5 51q154 0 246 -88.5t92 -238.5q0 -58 -27 -164z" />
    <glyph glyph-name="i" unicode="i" horiz-adv-x="540" 
d="M586 1354q-9 -35 -37.5 -54.5t-67.5 -19.5q-41 0 -64 23t-16 57l11 43q9 33 37 52.5t67 19.5q42 0 64.5 -22.5t15.5 -57.5zM467 971l-242 -903q-22 -78 -88 -78q-38 0 -55.5 27t-7.5 71l241 903q22 78 88 78q39 0 57.5 -27t6.5 -71z" />
    <glyph glyph-name="j" unicode="j" horiz-adv-x="538" 
d="M467 971l-279 -1041q-36 -131 -111.5 -197.5t-178.5 -66.5q-140 0 -140 74q0 33 21.5 52t54.5 15q36 -6 60 -6q102 0 141 142l280 1048q22 78 88 78q39 0 57.5 -27t6.5 -71zM586 1354q-9 -35 -37.5 -54.5t-67.5 -19.5q-41 0 -64 23t-16 57l11 43q9 33 37 52.5t67 19.5
q42 0 64.5 -22.5t15.5 -57.5z" />
    <glyph glyph-name="k" unicode="k" horiz-adv-x="1163" 
d="M569 1407l-250 -936l713 569q33 29 64 29q29 0 47 -18t18 -47q0 -35 -33 -58l-444 -350l242 -475q18 -36 18 -58q0 -32 -24 -52.5t-56 -20.5q-54 0 -82 57l-231 451l-285 -226l-55 -204q-9 -37 -32.5 -57.5t-55.5 -20.5q-37 0 -55.5 27t-8.5 71l361 1339q9 37 31.5 57.5
t54.5 20.5q39 0 57 -27t6 -71z" />
    <glyph glyph-name="l" unicode="l" horiz-adv-x="540" 
d="M584 1407l-359 -1339q-22 -78 -88 -78q-38 0 -55.5 27t-7.5 71l358 1339q22 78 88 78q39 0 57.5 -27t6.5 -71z" />
    <glyph glyph-name="m" unicode="m" horiz-adv-x="1945" 
d="M788 88l136 512q16 56 16 119q0 103 -59 162t-162 59q-117 0 -222 -97.5t-145 -244.5l-141 -530q-9 -37 -32.5 -57.5t-55.5 -20.5q-37 0 -55.5 27t-8.5 71l242 903q19 78 88 78q35 0 54 -22.5t14 -55.5l-27 -104q83 94 163.5 144t188.5 50q125 0 201 -68t100 -171
q73 113 181 176t245 63q143 0 233.5 -90t90.5 -237q0 -17 -3 -40t-6.5 -38.5t-10.5 -45t-9 -40.5l-139 -522q-9 -37 -32.5 -57.5t-55.5 -20.5q-37 0 -55.5 27t-8.5 71l138 512q14 61 14 119q0 103 -58 162t-161 59q-117 0 -222 -97.5t-145 -244.5l-141 -530
q-9 -37 -31.5 -57.5t-54.5 -20.5q-39 0 -57.5 27t-6.5 71z" />
    <glyph glyph-name="n" unicode="n" horiz-adv-x="1255" 
d="M389 1069q35 0 54 -22.5t14 -55.5l-27 -104q81 92 168.5 143t200.5 51q154 0 246 -88.5t92 -238.5q0 -58 -27 -164l-139 -522q-9 -37 -31.5 -57.5t-54.5 -20.5q-39 0 -57.5 27t-6.5 71l135 512q17 60 17 119q0 104 -63.5 162.5t-174.5 58.5q-124 0 -233 -96.5
t-150 -245.5l-141 -530q-9 -37 -32.5 -57.5t-55.5 -20.5q-37 0 -55.5 27t-8.5 71l242 903q19 78 88 78z" />
    <glyph glyph-name="o" unicode="o" horiz-adv-x="1306" 
d="M582 -25q-216 0 -349 134t-133 342q0 122 50.5 237.5t134 201.5t199 138.5t239.5 52.5q216 0 349.5 -133t133.5 -340q0 -124 -51 -241t-136 -202.5t-200 -137.5t-237 -52zM592 117q116 0 221 68t168 180.5t63 236.5q0 159 -90.5 249.5t-240.5 90.5q-89 0 -173.5 -41.5
t-145 -109.5t-97.5 -156.5t-37 -179.5q0 -159 91 -248.5t241 -89.5z" />
    <glyph glyph-name="p" unicode="p" horiz-adv-x="1349" 
d="M782 942q-116 0 -225.5 -70t-177.5 -186t-68 -242q0 -140 92 -234.5t236 -94.5q123 0 225 69t159.5 184.5t57.5 249.5q0 147 -82.5 235.5t-216.5 88.5zM389 1069q35 0 54 -22t14 -56l-31 -114q178 204 401 204q182 0 301 -124t119 -324q0 -137 -49.5 -260.5t-131.5 -210
t-190 -137t-223 -50.5q-78 0 -144.5 21t-114 59t-81.5 83t-57 100l-133 -498q-9 -37 -32.5 -57.5t-55.5 -20.5q-37 0 -55.5 27t-8.5 71l330 1231q19 78 88 78z" />
    <glyph glyph-name="q" unicode="q" horiz-adv-x="1349" 
d="M696 1081q152 0 251.5 -72.5t146.5 -187.5l45 170q21 78 88 78q37 0 55 -27t8 -71l-327 -1231q-11 -37 -34 -57.5t-55 -20.5q-38 0 -55.5 27t-7.5 71l113 422q-184 -207 -402 -207q-182 0 -301 125t-119 324q0 137 49.5 260.5t131.5 209.5t190 136.5t223 50.5zM711 942
q-123 0 -225.5 -69.5t-160 -185t-57.5 -249.5q0 -147 83 -235t216 -88q87 0 173 42t151.5 110.5t106 160.5t40.5 186q0 140 -91.5 234t-235.5 94z" />
    <glyph glyph-name="r" unicode="r" horiz-adv-x="823" 
d="M453 977l-50 -189q84 131 197 208t219 77q35 0 55.5 -20t20.5 -54q0 -73 -90 -88q-170 -25 -306 -151.5t-194 -341.5l-94 -350q-22 -78 -88 -78q-39 0 -56.5 27t-7.5 71l242 903q9 37 31.5 57.5t54.5 20.5q38 0 56.5 -26t9.5 -66z" />
    <glyph glyph-name="s" unicode="s" horiz-adv-x="1015" 
d="M459 109q94 0 163.5 49.5t69.5 126.5q0 54 -44 95.5t-156 84.5q-156 61 -227.5 124t-71.5 167q0 138 110.5 231.5t290.5 93.5q92 0 186.5 -32t155.5 -76q39 -22 39 -66q0 -29 -20.5 -49t-49.5 -20q-21 0 -45 16q-145 96 -280 96q-108 0 -169 -49t-61 -119q0 -54 44 -93
t167 -87q151 -62 220 -127.5t69 -163.5q0 -146 -117.5 -240t-288.5 -94q-229 0 -411 144q-33 26 -33 63q0 29 20 50.5t48 21.5q24 0 55 -23q154 -124 336 -124z" />
    <glyph glyph-name="t" unicode="t" horiz-adv-x="821" 
d="M375 1059l67 252q19 78 88 78q37 0 55.5 -27.5t8.5 -71.5l-64 -231h254q29 0 48.5 -20.5t19.5 -49.5t-20 -49t-48 -20h-290l-164 -611q-8 -50 -8 -78q0 -108 145 -108q41 0 68 8q34 7 54.5 -9t20.5 -48q0 -47 -51 -70q-64 -22 -143 -22q-119 0 -189.5 54t-70.5 154
q0 53 14 111l166 619h-72q-26 2 -45.5 21t-19.5 48t20.5 49.5t48.5 20.5h107z" />
    <glyph glyph-name="u" unicode="u" horiz-adv-x="1255" 
d="M864 -10q-33 0 -51.5 22.5t-13.5 55.5l26 104q-81 -92 -169 -143.5t-201 -51.5q-153 0 -244.5 89t-91.5 239q0 62 26 164l138 522q22 78 88 78q38 0 55.5 -27t7.5 -71l-137 -512q-14 -61 -14 -119q0 -104 63 -162.5t172 -58.5q125 0 234.5 97t148.5 247l141 528
q22 78 88 78q39 0 57.5 -27t6.5 -71l-240 -903q-9 -37 -32.5 -57.5t-57.5 -20.5z" />
    <glyph glyph-name="v" unicode="v" horiz-adv-x="1159" 
d="M1163 950l-635 -901q-45 -65 -102 -65h-4q-34 0 -54.5 18.5t-25.5 50.5l-152 891q-6 18 -6 47q0 33 24 55.5t58 22.5q35 0 56 -21t24 -55l119 -813l561 832q35 57 86 57q31 0 49.5 -18t18.5 -45q0 -33 -17 -56z" />
    <glyph glyph-name="w" unicode="w" horiz-adv-x="1736" 
d="M276 63l-77 885q0 4 -1 19t-1 22q0 33 23.5 56.5t58.5 23.5q34 0 55 -20.5t22 -55.5l56 -778l479 793q39 61 92 61h6q32 0 50 -18.5t20 -49.5l55 -786l490 801q29 53 77 53q32 0 49 -16.5t17 -44.5t-16 -52l-566 -907q-43 -65 -98 -65h-4q-72 0 -78 79l-57 764l-475 -778
q-40 -65 -99 -65h-4q-33 0 -53 20.5t-21 58.5z" />
    <glyph glyph-name="x" unicode="x" horiz-adv-x="1155" 
d="M412 1012l190 -363l389 375q45 45 82 45q28 0 47 -18t19 -45q0 -40 -37 -72l-430 -397l227 -410q21 -44 21 -66q0 -31 -21 -51t-55 -20q-52 0 -78 57l-203 389l-416 -401q-19 -17 -27 -24t-24 -14t-33 -7q-27 0 -45 18t-18 45q0 38 37 72l459 424l-217 383q-21 40 -21 65
q0 30 21.5 51t54.5 21q49 0 78 -57z" />
    <glyph glyph-name="y" unicode="y" horiz-adv-x="1175" 
d="M-35 -162q74 -33 133 -33q68 0 132.5 45t140.5 152l-178 942q-7 25 -7 47q0 33 22.5 55.5t55.5 22.5t55 -21t25 -55l145 -819l547 838q33 57 84 57q32 0 51 -18t19 -47q0 -26 -19 -58l-659 -981q-111 -162 -212 -230.5t-220 -68.5q-96 0 -176 41q-47 23 -47 70
q0 30 19.5 50.5t47.5 20.5q18 0 41 -10z" />
    <glyph glyph-name="z" unicode="z" horiz-adv-x="1124" 
d="M311 1059h752q32 0 51 -16t19 -42v-2q0 -39 -35 -67l-877 -799h615q28 0 47.5 -19.5t19.5 -45.5q0 -28 -19.5 -48t-47.5 -20h-785q-32 0 -50.5 15.5t-18.5 41.5v2q0 38 34 68l875 799h-580q-28 0 -47.5 18.5t-19.5 46.5t19.5 48t47.5 20z" />
    <glyph glyph-name="braceleft" unicode="{" horiz-adv-x="989" 
d="M195 649h20q151 0 220.5 79t105.5 280q25 144 81 236.5t161.5 148t269.5 69.5q69 3 69 -55q0 -52 -55 -59q-96 -9 -162.5 -35.5t-110 -74.5t-68.5 -108.5t-40 -148.5q-36 -210 -106.5 -295.5t-212.5 -107.5q149 -37 149 -172q0 -62 -22 -130q-43 -131 -43 -210
q0 -90 45 -148t139 -90q43 -17 43 -55q0 -29 -21.5 -46t-54.5 -8q-305 78 -305 326q0 75 47 227q21 67 21 121q0 65 -38 97.5t-128 35.5h-2q-72 8 -72 62q0 27 19 44t51 17z" />
    <glyph glyph-name="bar" unicode="|" horiz-adv-x="620" 
d="M285 -205v1782q0 28 19 48t46 20q28 0 47 -20t19 -48v-1782q0 -28 -19 -47.5t-47 -19.5t-46.5 19.5t-18.5 47.5z" />
    <glyph glyph-name="braceright" unicode="}" horiz-adv-x="989" 
d="M825 526h-20q-152 0 -221.5 -78t-106.5 -280q-36 -216 -152 -325t-358 -130q-69 -3 -69 56q0 52 55 59q96 9 162.5 35.5t110 74.5t68.5 108.5t40 148.5q36 210 106.5 295.5t212.5 107.5q-151 38 -151 172q0 55 24 129q43 146 43 211q0 90 -45 148t-139 90q-45 18 -45 55
q0 29 22 45.5t56 7.5q303 -78 303 -326q0 -73 -45 -227q-23 -74 -23 -121q0 -64 39 -96.5t129 -36.5h2q72 -8 72 -61q0 -27 -19 -44.5t-51 -17.5z" />
    <glyph glyph-name="asciitilde" unicode="~" horiz-adv-x="970" 
d="M225 485q-21 0 -37 14t-16 36q0 25 14 47q93 168 215 168q43 0 74 -16t70 -52t57.5 -47.5t42.5 -11.5q28 0 52.5 20.5t56.5 67.5q25 37 53 37q23 0 39 -14t16 -36q0 -24 -14 -49q-46 -78 -96.5 -122t-118.5 -44q-43 0 -72.5 16t-71.5 52q-38 35 -57.5 47t-42.5 12
q-29 0 -52 -20.5t-56 -69.5q-23 -35 -56 -35z" />
    <glyph glyph-name="uni00A0" unicode="&#xa0;" horiz-adv-x="614" 
 />
    <glyph glyph-name="exclamdown" unicode="&#xa1;" horiz-adv-x="555" 
d="M61 63l295 932q14 41 50 41q49 0 40 -57l-204 -924q-5 -28 -24 -44.5t-48 -16.5h-61q-30 0 -44 19.5t-4 49.5zM471 1208q-42 0 -68 29.5t-14 69.5l14 51q9 39 38.5 62.5t70.5 23.5q43 0 67.5 -28.5t14.5 -69.5l-14 -52q-11 -40 -39.5 -63t-69.5 -23z" />
    <glyph glyph-name="cent" unicode="&#xa2;" horiz-adv-x="1159" 
d="M1026 311q-168 -139 -395 -139q-32 0 -94 8l-56 -139q-26 -64 -73 -64q-32 0 -48 25t-4 59l60 154q-123 55 -194.5 165t-71.5 253q0 174 84 323t229 236.5t317 87.5q38 0 56 -2l43 115q26 63 73 63q33 0 49 -24.5t3 -59.5l-48 -119q149 -42 228 -163q24 -32 24 -60
q0 -32 -21.5 -53t-51.5 -21q-39 0 -62 29q-36 53 -74.5 83.5t-101.5 49.5l-315 -801q16 -4 53 -4q161 0 303 109q26 16 53 16q29 0 47.5 -20.5t18.5 -48.5q0 -35 -31 -58zM309 635q0 -96 44.5 -171t121.5 -114l309 789h-20q-124 -3 -229.5 -73t-165.5 -185t-60 -246z" />
    <glyph glyph-name="sterling" unicode="&#xa3;" horiz-adv-x="1288" 
d="M928 1300q-129 0 -219 -90q-83 -83 -127 -245l-60 -220h492q29 0 50 -21t21 -50t-21 -49.5t-50 -20.5h-531l-123 -461h644q31 0 52 -21t21 -50q0 -31 -21 -51.5t-52 -20.5h-955q-23 0 -38 14.5t-15 36.5q0 41 45 53l158 35l125 465h-91q-29 0 -50 20.5t-21 49.5t21 50
t50 21h127l68 248q56 211 164 316q138 141 346 141q217 0 346 -158q33 -38 33 -67q0 -35 -23 -58.5t-57 -23.5q-38 0 -59 28q-50 64 -106.5 96.5t-143.5 32.5z" />
    <glyph glyph-name="yen" unicode="&#xa5;" horiz-adv-x="1439" 
d="M762 729l643 670q45 45 80 45q31 0 49 -18.5t18 -49.5q0 -32 -30 -69l-627 -635h285q26 0 44.5 -19t18.5 -45t-18.5 -44.5t-44.5 -18.5h-385l-47 -180h350q26 0 44.5 -19t18.5 -45t-18.5 -44.5t-44.5 -18.5h-385l-45 -170q-9 -37 -32 -57.5t-54 -20.5q-39 0 -59.5 26.5
t-8.5 71.5l41 150h-344q-27 0 -46.5 18.5t-19.5 44.5t20 45t46 19h377l47 180h-344q-25 0 -44.5 18.5t-19.5 44.5t19.5 45t44.5 19h325l-278 637q-14 31 -14 57q0 33 22 55.5t57 22.5q60 0 82 -62z" />
    <glyph glyph-name="section" unicode="&#xa7;" horiz-adv-x="1294" 
d="M807 526q107 0 180.5 47t73.5 113q0 55 -57 96t-189 84q-130 43 -231 43q-107 0 -180.5 -46.5t-73.5 -112.5q0 -55 56.5 -96.5t188.5 -84.5q122 -43 232 -43zM602 111q95 0 158 38t63 99q0 55 -59.5 95t-204.5 89q-99 33 -164 61.5t-118.5 63.5t-78 77t-24.5 95
q0 114 103 185t268 79q-135 73 -135 191q0 122 113.5 197t283.5 75q114 0 222.5 -37.5t184.5 -93.5q35 -24 35 -63q0 -31 -20.5 -52.5t-50.5 -21.5q-26 0 -48 18q-157 119 -339 119q-97 0 -160.5 -38t-63.5 -99q0 -56 60 -96.5t204 -87.5q202 -68 294 -132.5t92 -164.5
q0 -114 -103 -185.5t-268 -79.5q135 -71 135 -190q0 -122 -113 -197t-280 -75q-126 0 -238 39.5t-188 99.5q-31 28 -31 61q0 31 20.5 52.5t49.5 21.5q24 0 51 -18q155 -125 350 -125z" />
    <glyph glyph-name="dieresis" unicode="&#xa8;" 
d="M545 1427q41 0 65.5 -27t14.5 -63l-15 -51q-9 -37 -37.5 -58.5t-68.5 -21.5q-42 0 -65.5 26t-14.5 64l14 52q9 37 38 58t69 21zM907 1427q41 0 65.5 -27t14.5 -63l-14 -51q-9 -37 -38 -58.5t-69 -21.5q-42 0 -65.5 26t-14.5 64l15 52q9 37 37.5 58t68.5 21z" />
    <glyph glyph-name="copyright" unicode="&#xa9;" horiz-adv-x="1699" 
d="M897 -25q-204 0 -374.5 100t-267.5 270t-97 370q0 150 58 287t157 237t237 159.5t291 59.5t290.5 -59t235.5 -158t155.5 -235.5t57.5 -286.5q0 -200 -98 -371t-269.5 -272t-375.5 -101zM897 39q189 0 344.5 92t243.5 247.5t88 340.5q0 184 -87.5 339t-242 246t-342.5 91
q-189 0 -344.5 -92t-243.5 -247.5t-88 -340.5q0 -184 87.5 -339t242 -246t342.5 -91zM907 334q-161 0 -271 114t-110 277v4q0 162 110.5 276.5t272.5 114.5q86 0 148.5 -24.5t118.5 -71.5q22 -19 22 -47q0 -23 -16 -39t-39 -16q-15 0 -39 16q-94 80 -195 80q-114 0 -191 -84
t-77 -203v-4q0 -119 78 -204t190 -85q63 0 109.5 20t95.5 62q15 15 37 15t36.5 -14t14.5 -36q0 -21 -18 -43q-120 -108 -277 -108z" />
    <glyph glyph-name="ordfeminine" unicode="&#xaa;" horiz-adv-x="798" 
d="M424 913q72 0 138 50.5t85 119.5l8 27q-86 23 -166 23q-73 0 -119 -36.5t-46 -95.5q0 -39 27.5 -63.5t72.5 -24.5zM537 1348q-66 0 -121 -19q-24 -6 -33 -6q-18 0 -29.5 12t-11.5 33q0 33 39 45q82 29 176 29q111 0 171 -48t60 -134q0 -28 -12 -82l-78 -287
q-13 -53 -59 -53q-24 0 -36 15.5t-7 39.5l12 47q-96 -106 -219 -106q-75 0 -124.5 43t-49.5 112q0 100 74.5 159.5t191.5 59.5q77 0 191 -30l4 12q8 28 8 49q0 109 -147 109zM162 592q-20 0 -34.5 13.5t-14.5 33.5t14.5 34.5t34.5 14.5h444q19 0 33 -14.5t14 -34.5
t-14 -33.5t-33 -13.5h-444z" />
    <glyph glyph-name="guillemotleft" unicode="&#xab;" horiz-adv-x="1126" 
d="M121 557l379 367q41 41 73 41q28 0 45 -17.5t17 -46.5q0 -32 -25 -53l-346 -342l146 -311q12 -27 12 -48q0 -28 -20.5 -46.5t-49.5 -18.5q-45 0 -67 45l-168 340q-17 34 -17 47q0 22 21 43zM575 557l379 367q41 41 72 41q29 0 46.5 -17.5t17.5 -46.5q0 -28 -25 -53
l-346 -342l145 -311q13 -29 13 -48q0 -28 -20.5 -46.5t-49.5 -18.5q-46 0 -68 45l-170 340q-16 32 -16 47q0 21 22 43z" />
    <glyph glyph-name="registered" unicode="&#xae;" horiz-adv-x="825" 
d="M567 737q-150 0 -253 105t-103 252v2q0 147 104 252.5t252 105.5q150 0 253.5 -104.5t103.5 -251.5v-2q0 -147 -104.5 -253t-252.5 -106zM567 776q132 0 224 94t92 226v2q0 132 -91 224.5t-225 92.5q-132 0 -223.5 -93.5t-91.5 -225.5v-2q0 -132 90.5 -225t224.5 -93z
M428 950v299q0 14 10 24.5t25 10.5h129q62 0 100.5 -30t38.5 -85q0 -83 -80 -112l70 -82q10 -13 10 -27t-10 -24.5t-23 -10.5q-17 0 -32 19l-95 115h-73v-97q0 -15 -10.5 -26t-24.5 -11q-15 0 -25 11t-10 26zM498 1104h88q35 0 54 16t19 43q0 60 -73 60h-88v-119z" />
    <glyph glyph-name="macron" unicode="&#xaf;" 
d="M997 1260h-542q-26 0 -46 19.5t-20 45.5t20 46t46 20h542q26 0 46 -20t20 -46t-20 -45.5t-46 -19.5z" />
    <glyph glyph-name="degree" unicode="&#xb0;" horiz-adv-x="792" 
d="M457 815q-122 0 -199.5 78t-77.5 197q0 142 105 249t250 107q123 0 199.5 -77t76.5 -195q0 -93 -47.5 -175.5t-129.5 -133t-177 -50.5zM467 922q91 0 159 73t68 168q0 81 -47 128.5t-123 47.5q-91 0 -159 -73t-68 -168q0 -81 47 -128.5t123 -47.5z" />
    <glyph glyph-name="plusminus" unicode="&#xb1;" horiz-adv-x="1280" 
d="M774 745l-88 -331q-23 -76 -86 -76q-37 0 -54 26.5t-5 67.5l84 313h-326q-29 0 -50.5 21.5t-21.5 50.5t21.5 50.5t50.5 21.5h365l88 332q9 35 31 55t53 20q37 0 54 -26t7 -66l-84 -315h324q31 0 51 -20.5t20 -49.5q0 -30 -20.5 -52t-50.5 -22h-363zM938 0h-838
q-29 0 -50 21.5t-21 50.5q0 28 21 48.5t50 20.5h838q29 0 50.5 -20.5t21.5 -48.5q0 -29 -21.5 -50.5t-50.5 -21.5z" />
    <glyph glyph-name="acute" unicode="&#xb4;" 
d="M874 1397l-198 -148q-47 -39 -105 -39q-45 0 -45 31q0 14 15 33l174 188q16 16 24.5 23t22 13.5t29.5 6.5q36 0 74 -21t38 -42q0 -22 -29 -45z" />
    <glyph glyph-name="paragraph" unicode="&#xb6;" horiz-adv-x="1058" 
d="M1075 1346l-344 -1278q-9 -36 -33 -57t-57 -21q-39 0 -59.5 27.5t-8.5 72.5l111 420q-105 5 -190.5 29.5t-152.5 70.5t-103.5 120t-36.5 171q0 246 180 389.5t502 143.5h125q38 0 57 -25t10 -63z" />
    <glyph glyph-name="periodcentered" unicode="&#xb7;" horiz-adv-x="522" 
d="M301 733q42 0 68 -29t14 -69l-14 -51q-9 -39 -38.5 -62.5t-70.5 -23.5q-43 0 -67.5 28.5t-14.5 69.5l15 51q11 40 39 63t69 23z" />
    <glyph glyph-name="cedilla" unicode="&#xb8;" 
d="M510 20l-213 -290q-23 -35 -59 -35q-31 0 -54.5 19t-23.5 42q0 26 22 51l203 213h125z" />
    <glyph glyph-name="ordmasculine" unicode="&#xba;" horiz-adv-x="804" 
d="M502 829q-122 0 -197.5 75.5t-75.5 193.5q0 138 101.5 242t242.5 104q122 0 197.5 -75.5t75.5 -192.5q0 -138 -101.5 -242.5t-242.5 -104.5zM508 924q94 0 161.5 75t67.5 172q0 79 -47.5 129t-122.5 50q-95 0 -162 -75.5t-67 -172.5q0 -79 47.5 -128.5t122.5 -49.5z
M166 592q-20 0 -34.5 13.5t-14.5 33.5t14.5 34.5t34.5 14.5h483q20 0 34.5 -14.5t14.5 -34.5t-14.5 -33.5t-34.5 -13.5h-483z" />
    <glyph glyph-name="guillemotright" unicode="&#xbb;" horiz-adv-x="1126" 
d="M1001 496l-378 -369q-41 -41 -74 -41q-28 0 -45 18t-17 46q0 34 25 55l346 340l-145 311q-13 29 -13 47q0 29 20.5 48.5t49.5 19.5q47 0 68 -47l168 -338q16 -26 16 -47q0 -25 -21 -43zM547 496l-379 -369q-41 -41 -72 -41q-29 0 -46 18t-17 46q0 31 24 55l346 340
l-145 311q-12 27 -12 47q0 29 20 48.5t49 19.5q47 0 68 -47l170 -338q16 -32 16 -47q0 -24 -22 -43z" />
    <glyph glyph-name="questiondown" unicode="&#xbf;" horiz-adv-x="1099" 
d="M864 260q38 25 62 25q29 0 48 -19.5t19 -46.5q0 -34 -30 -61q-196 -176 -449 -176q-193 0 -308.5 103t-115.5 259q0 96 40.5 176t114 136t169.5 93t213 54l65 186q19 49 62 49h4q25 0 38 -17t9 -44l-41 -232q-9 -55 -72 -63q-196 -23 -315 -107t-119 -219
q0 -107 75.5 -167t196.5 -60q173 0 334 131zM819 1208q-42 0 -68 29.5t-14 69.5l15 51q9 39 38 62.5t70 23.5q43 0 67.5 -28.5t14.5 -69.5l-14 -52q-11 -40 -39.5 -63t-69.5 -23z" />
    <glyph glyph-name="Agrave" unicode="&#xc0;" horiz-adv-x="1529" 
d="M467 526h659l-133 734zM1128 1372l238 -1259q6 -36 6 -45q0 -32 -23 -55t-59 -23q-32 0 -54 19t-28 52l-55 318h-788l-242 -334q-44 -55 -84 -55q-30 0 -49 18.5t-19 48.5q0 29 19 52l921 1271q52 70 119 70h4q77 0 94 -78zM977 1610l-117 151q-18 25 -18 41
q0 22 34.5 43t71.5 21q53 0 70 -49l72 -183q0 -2 3 -12t3 -16q0 -15 -12.5 -24t-32.5 -9q-27 0 -43 8t-31 29z" />
    <glyph glyph-name="Aacute" unicode="&#xc1;" horiz-adv-x="1529" 
d="M467 526h659l-133 734zM1128 1372l238 -1259q6 -36 6 -45q0 -32 -23 -55t-59 -23q-32 0 -54 19t-28 52l-55 318h-788l-242 -334q-44 -55 -84 -55q-30 0 -49 18.5t-19 48.5q0 29 19 52l921 1271q52 70 119 70h4q77 0 94 -78zM1380 1759l-198 -147q-47 -39 -105 -39
q-45 0 -45 31q0 13 15 32l174 189q17 17 24.5 23.5t21 13t29.5 6.5q36 0 74.5 -21.5t38.5 -42.5q0 -22 -29 -45z" />
    <glyph glyph-name="Acircumflex" unicode="&#xc2;" horiz-adv-x="1529" 
d="M467 526h659l-133 734zM1128 1372l238 -1259q6 -36 6 -45q0 -32 -23 -55t-59 -23q-32 0 -54 19t-28 52l-55 318h-788l-242 -334q-44 -55 -84 -55q-30 0 -49 18.5t-19 48.5q0 29 19 52l921 1271q52 70 119 70h4q77 0 94 -78zM1229 1810l92 -172q14 -24 14 -36t-10.5 -20.5
t-28.5 -8.5q-34 0 -54.5 7t-41.5 32l-86 106l-153 -106q-56 -39 -103 -39q-18 0 -28.5 8.5t-10.5 20.5q0 15 23 38l184 172q50 46 92 46h35q48 0 76 -48z" />
    <glyph glyph-name="Atilde" unicode="&#xc3;" horiz-adv-x="1529" 
d="M467 526h659l-133 734zM1128 1372l238 -1259q6 -36 6 -45q0 -32 -23 -55t-59 -23q-32 0 -54 19t-28 52l-55 318h-788l-242 -334q-44 -55 -84 -55q-30 0 -49 18.5t-19 48.5q0 29 19 52l921 1271q52 70 119 70h4q77 0 94 -78zM813 1573q-22 0 -37.5 13t-15.5 34q0 24 14 49
q44 77 94.5 121.5t118.5 44.5q45 0 74.5 -15.5t71.5 -52.5q53 -46 70 -53q14 -6 30 -6q28 0 51.5 21t56.5 69q23 35 54 35q23 0 39 -13.5t16 -35.5q0 -25 -14 -47q-46 -79 -96.5 -123.5t-118.5 -44.5q-43 0 -73.5 16t-70.5 51q-39 36 -58 48t-44 12q-29 0 -53 -20.5
t-54 -67.5q-23 -35 -55 -35z" />
    <glyph glyph-name="Adieresis" unicode="&#xc4;" horiz-adv-x="1529" 
d="M467 526h659l-133 734zM1128 1372l238 -1259q6 -36 6 -45q0 -32 -23 -55t-59 -23q-32 0 -54 19t-28 52l-55 318h-788l-242 -334q-44 -55 -84 -55q-30 0 -49 18.5t-19 48.5q0 29 19 52l921 1271q52 70 119 70h4q77 0 94 -78zM940 1790q41 0 65.5 -27t14.5 -63l-14 -51
q-9 -37 -38 -58.5t-69 -21.5q-42 0 -65.5 26t-14.5 64l15 51q9 37 37.5 58.5t68.5 21.5zM1303 1790q40 0 64.5 -27t14.5 -63l-14 -51q-9 -37 -37.5 -58.5t-68.5 -21.5q-42 0 -65.5 26t-14.5 64l14 51q9 37 38 58.5t69 21.5z" />
    <glyph glyph-name="Aring" unicode="&#xc5;" horiz-adv-x="1529" 
d="M39 -10q-30 0 -49 18.5t-19 48.5q0 29 19 52l938 1292q-84 49 -84 145q0 94 69 161t164 67q91 0 148 -51.5t57 -129.5q0 -72 -44.5 -130.5t-113.5 -80.5l242 -1269q6 -36 6 -45q0 -32 -23 -55t-59 -23q-32 0 -54 19t-28 52l-55 318h-788l-242 -334q-44 -55 -84 -55z
M467 526h659l-133 734zM1051 1444q59 0 100 43t41 104q0 46 -31 74.5t-86 28.5q-59 0 -100 -43.5t-41 -104.5q0 -44 31 -73t86 -29z" />
    <glyph glyph-name="AE" unicode="&#xc6;" horiz-adv-x="2181" 
d="M549 526h498l204 764h-51zM1202 1434h1004q31 0 52 -21.5t21 -52.5t-21 -52.5t-52 -21.5h-793l-131 -489h660q30 0 51.5 -22t21.5 -52q0 -31 -21 -52.5t-52 -21.5h-699l-135 -502h764q30 0 52 -21.5t22 -51.5t-22 -52t-52 -22h-875q-38 0 -57.5 27t-7.5 67l78 285h-582
l-285 -334q-25 -29 -45 -42t-45 -13q-29 0 -46 17.5t-17 45.5q0 31 26 64l1071 1249q60 68 115 68z" />
    <glyph glyph-name="Ccedilla" unicode="&#xc7;" horiz-adv-x="1505" 
d="M1300 172q-217 -199 -516 -199h-14l-178 -243q-23 -35 -60 -35q-30 0 -53.5 18.5t-23.5 42.5q0 26 22 51l170 181q-209 40 -341 194t-132 385q0 171 68.5 334t183 285.5t274.5 197t334 74.5q163 0 288.5 -63t201.5 -170q28 -35 28 -70q-2 -33 -25 -56t-57 -22
q-43 0 -61 29q-68 98 -157.5 150.5t-231.5 52.5q-136 0 -262 -62t-216 -163.5t-144 -236t-54 -274.5q0 -204 125.5 -326t323.5 -122q125 0 218 40t187 122q31 22 57 22q32 0 54 -22.5t22 -53.5q0 -30 -31 -61z" />
    <glyph glyph-name="Egrave" unicode="&#xc8;" horiz-adv-x="1337" 
d="M1051 0h-897q-38 0 -59 27t-9 67l338 1258q9 37 34.5 59.5t57.5 22.5h870q31 0 52.5 -21.5t21.5 -52.5t-21.5 -52.5t-52.5 -21.5h-819l-131 -489h686q30 0 52 -22t22 -52q0 -31 -21.5 -52.5t-52.5 -21.5h-725l-135 -502h789q31 0 52 -21t21 -52t-21 -52.5t-52 -21.5z
M885 1589l-117 152q-18 25 -18 41q0 22 34.5 42.5t71.5 20.5q53 0 70 -49l71 -182q1 -3 4 -13t3 -16q0 -15 -13 -24t-33 -9q-27 0 -42.5 8t-30.5 29z" />
    <glyph glyph-name="Eacute" unicode="&#xc9;" horiz-adv-x="1337" 
d="M1288 1739l-198 -148q-47 -39 -105 -39q-45 0 -45 31q0 16 14 33l174 188q16 16 24.5 23t22 13.5t29.5 6.5q36 0 74.5 -21t38.5 -42q0 -22 -29 -45zM1051 0h-897q-38 0 -59 27t-9 67l338 1258q9 37 34.5 59.5t57.5 22.5h870q31 0 52.5 -21.5t21.5 -52.5t-21.5 -52.5
t-52.5 -21.5h-819l-131 -489h686q30 0 52 -22t22 -52q0 -31 -21.5 -52.5t-52.5 -21.5h-725l-135 -502h789q31 0 52 -21t21 -52t-21 -52.5t-52 -21.5z" />
    <glyph glyph-name="Ecircumflex" unicode="&#xca;" horiz-adv-x="1337" 
d="M1137 1790l92 -172q14 -25 14 -37t-10.5 -20.5t-28.5 -8.5q-34 0 -54.5 7t-41.5 32l-86 107l-154 -107q-56 -39 -102 -39q-18 0 -28.5 8.5t-10.5 20.5q0 16 23 39l184 172q49 45 92 45h35q49 0 76 -47zM1051 0h-897q-38 0 -59 27t-9 67l338 1258q9 37 34.5 59.5
t57.5 22.5h870q31 0 52.5 -21.5t21.5 -52.5t-21.5 -52.5t-52.5 -21.5h-819l-131 -489h686q30 0 52 -22t22 -52q0 -31 -21.5 -52.5t-52.5 -21.5h-725l-135 -502h789q31 0 52 -21t21 -52t-21 -52.5t-52 -21.5z" />
    <glyph glyph-name="Edieresis" unicode="&#xcb;" horiz-adv-x="1337" 
d="M848 1769q41 0 65.5 -27t14.5 -63l-15 -51q-9 -37 -37.5 -58.5t-68.5 -21.5q-42 0 -65.5 26t-14.5 64l14 52q9 37 38 58t69 21zM1210 1769q41 0 65.5 -27t14.5 -63l-14 -51q-9 -37 -38 -58.5t-69 -21.5q-42 0 -65 26t-14 64l14 52q9 37 37.5 58t68.5 21zM1051 0h-897
q-38 0 -59 27t-9 67l338 1258q9 37 34.5 59.5t57.5 22.5h870q31 0 52.5 -21.5t21.5 -52.5t-21.5 -52.5t-52.5 -21.5h-819l-131 -489h686q30 0 52 -22t22 -52q0 -31 -21.5 -52.5t-52.5 -21.5h-725l-135 -502h789q31 0 52 -21t21 -52t-21 -52.5t-52 -21.5z" />
    <glyph glyph-name="Igrave" unicode="&#xcc;" horiz-adv-x="595" 
d="M598 1343l-342 -1275q-11 -37 -34.5 -57.5t-55.5 -20.5q-39 0 -59.5 27.5t-8.5 72.5l344 1276q9 37 32.5 57.5t55.5 20.5q38 0 59 -27.5t9 -73.5zM479 1589l-117 152q-18 25 -18 41q0 22 35 42.5t72 20.5q52 0 69 -49l72 -182q0 -1 3 -12t3 -17q0 -15 -12.5 -24t-32.5 -9
q-27 0 -43 8t-31 29z" />
    <glyph glyph-name="Iacute" unicode="&#xcd;" horiz-adv-x="595" 
d="M598 1343l-342 -1275q-11 -37 -34.5 -57.5t-55.5 -20.5q-39 0 -59.5 27.5t-8.5 72.5l344 1276q9 37 32.5 57.5t55.5 20.5q38 0 59 -27.5t9 -73.5zM881 1739l-199 -148q-47 -39 -104 -39q-21 0 -33.5 8.5t-12.5 22.5t15 33l174 188q16 16 24.5 23t22 13.5t29.5 6.5
q36 0 74 -21t38 -42q0 -23 -28 -45z" />
    <glyph glyph-name="Icircumflex" unicode="&#xce;" horiz-adv-x="595" 
d="M598 1343l-342 -1275q-11 -37 -34.5 -57.5t-55.5 -20.5q-39 0 -59.5 27.5t-8.5 72.5l344 1276q9 37 32.5 57.5t55.5 20.5q38 0 59 -27.5t9 -73.5zM731 1790l92 -172q15 -26 15 -37q0 -12 -10.5 -20.5t-28.5 -8.5q-34 0 -55 7t-42 32l-86 107l-153 -107q-56 -39 -103 -39
q-18 0 -28 8t-10 21q0 17 22 39l184 172q49 45 93 45h34q49 0 76 -47z" />
    <glyph glyph-name="Idieresis" unicode="&#xcf;" horiz-adv-x="595" 
d="M598 1343l-342 -1275q-11 -37 -34.5 -57.5t-55.5 -20.5q-39 0 -59.5 27.5t-8.5 72.5l344 1276q9 37 32.5 57.5t55.5 20.5q38 0 59 -27.5t9 -73.5zM442 1769q41 0 65.5 -27t14.5 -63l-14 -51q-9 -37 -38 -58.5t-69 -21.5q-42 0 -65 26t-14 64l14 52q9 37 37.5 58t68.5 21z
M805 1769q41 0 65.5 -27t14.5 -63l-15 -51q-9 -37 -37.5 -58.5t-68.5 -21.5q-42 0 -65.5 26t-14.5 64l14 52q9 37 38 58t69 21z" />
    <glyph glyph-name="Eth" unicode="&#xd0;" horiz-adv-x="1638" 
d="M571 1434h279q178 0 321.5 -49.5t235.5 -141.5q158 -158 158 -412q0 -331 -228 -559q-130 -130 -319 -201t-416 -71h-393q-38 0 -58 27t-10 67l148 553h-72q-31 0 -52.5 21.5t-21.5 52.5t21.5 52.5t52.5 21.5h113l149 557q9 37 34.5 59.5t57.5 22.5zM319 150h304
q179 0 331 58t263 167q178 178 178 446q0 199 -119 318q-148 145 -438 145h-213l-131 -489h340q30 0 51.5 -21.5t21.5 -52.5t-21.5 -52.5t-51.5 -21.5h-381z" />
    <glyph glyph-name="Ntilde" unicode="&#xd1;" horiz-adv-x="1609" 
d="M1180 270l295 1096q9 37 32.5 57.5t55.5 20.5q38 0 57 -27.5t6 -73.5l-342 -1277q-19 -72 -82 -72h-4q-59 0 -88 63l-571 1133l-301 -1122q-22 -78 -88 -78q-38 0 -58 27t-8 73l342 1270q20 80 94 80h8q62 0 101 -72zM821 1552q-22 0 -37.5 13t-15.5 34q0 25 14 50
q44 77 94.5 121.5t118.5 44.5q45 0 74.5 -15.5t71.5 -52.5q53 -46 70 -53q14 -6 30 -6q28 0 52.5 21t56.5 69q23 34 53 34q23 0 39 -13.5t16 -35.5q0 -25 -14 -47q-46 -79 -96.5 -123.5t-118.5 -44.5q-43 0 -73 16t-71 52q-38 35 -57.5 47t-44.5 12q-28 0 -52 -20.5
t-54 -67.5q-23 -35 -56 -35z" />
    <glyph glyph-name="Ograve" unicode="&#xd2;" horiz-adv-x="1724" 
d="M809 -27q-182 0 -326.5 82.5t-223.5 224.5t-79 316q0 164 65 321t175 276t266.5 192t329.5 73q136 0 254 -48t200 -131t128.5 -197.5t46.5 -243.5q0 -165 -65 -322.5t-175 -277t-266.5 -192.5t-329.5 -73zM819 123q110 0 212 39t181.5 108t139 158t91.5 193t32 210
q0 207 -129 342.5t-340 135.5q-136 0 -260 -61t-209.5 -160t-136 -227.5t-50.5 -260.5q0 -206 129 -341.5t340 -135.5zM1022 1610l-117 151q-18 25 -18 41q0 22 34.5 43t71.5 21q53 0 70 -49l72 -183q0 -2 3 -12t3 -16q0 -15 -12.5 -24t-32.5 -9q-27 0 -43 8t-31 29z" />
    <glyph glyph-name="Oacute" unicode="&#xd3;" horiz-adv-x="1724" 
d="M1425 1759l-198 -147q-47 -39 -105 -39q-45 0 -45 31q0 13 15 32l174 189q17 17 24.5 23.5t21 13t29.5 6.5q36 0 74.5 -21.5t38.5 -42.5q0 -22 -29 -45zM809 -27q-182 0 -326.5 82.5t-223.5 224.5t-79 316q0 164 65 321t175 276t266.5 192t329.5 73q136 0 254 -48
t200 -131t128.5 -197.5t46.5 -243.5q0 -165 -65 -322.5t-175 -277t-266.5 -192.5t-329.5 -73zM819 123q110 0 212 39t181.5 108t139 158t91.5 193t32 210q0 207 -129 342.5t-340 135.5q-136 0 -260 -61t-209.5 -160t-136 -227.5t-50.5 -260.5q0 -206 129 -341.5t340 -135.5z
" />
    <glyph glyph-name="Ocircumflex" unicode="&#xd4;" horiz-adv-x="1724" 
d="M1272 1810l92 -172q14 -24 14 -36t-10.5 -20.5t-28.5 -8.5q-34 0 -54.5 7t-41.5 32l-86 106l-153 -106q-56 -39 -103 -39q-18 0 -28.5 8.5t-10.5 20.5q0 15 23 38l184 172q50 46 92 46h35q48 0 76 -48zM809 -27q-182 0 -326.5 82.5t-223.5 224.5t-79 316q0 164 65 321
t175 276t266.5 192t329.5 73q136 0 254 -48t200 -131t128.5 -197.5t46.5 -243.5q0 -165 -65 -322.5t-175 -277t-266.5 -192.5t-329.5 -73zM819 123q110 0 212 39t181.5 108t139 158t91.5 193t32 210q0 207 -129 342.5t-340 135.5q-136 0 -260 -61t-209.5 -160t-136 -227.5
t-50.5 -260.5q0 -206 129 -341.5t340 -135.5z" />
    <glyph glyph-name="Otilde" unicode="&#xd5;" horiz-adv-x="1724" 
d="M809 -27q-182 0 -326.5 82.5t-223.5 224.5t-79 316q0 164 65 321t175 276t266.5 192t329.5 73q136 0 254 -48t200 -131t128.5 -197.5t46.5 -243.5q0 -165 -65 -322.5t-175 -277t-266.5 -192.5t-329.5 -73zM819 123q110 0 212 39t181.5 108t139 158t91.5 193t32 210
q0 207 -129 342.5t-340 135.5q-136 0 -260 -61t-209.5 -160t-136 -227.5t-50.5 -260.5q0 -206 129 -341.5t340 -135.5zM858 1573q-22 0 -37.5 13t-15.5 34q0 24 14 49q44 77 94.5 121.5t118.5 44.5q45 0 74.5 -15.5t71.5 -52.5q53 -46 70 -53q14 -6 30 -6q28 0 51.5 21
t56.5 69q23 35 54 35q23 0 39 -13.5t16 -35.5q0 -25 -14 -47q-46 -79 -96.5 -123.5t-118.5 -44.5q-43 0 -73.5 16t-70.5 51q-39 36 -58 48t-44 12q-29 0 -53 -20.5t-54 -67.5q-23 -35 -55 -35z" />
    <glyph glyph-name="Odieresis" unicode="&#xd6;" horiz-adv-x="1724" 
d="M983 1790q41 0 65.5 -27t14.5 -63l-14 -51q-9 -37 -38 -58.5t-69 -21.5q-42 0 -65.5 26t-14.5 64l15 51q9 37 37.5 58.5t68.5 21.5zM1346 1790q40 0 64.5 -27t14.5 -63l-14 -51q-9 -37 -37.5 -58.5t-68.5 -21.5q-42 0 -65.5 26t-14.5 64l14 51q9 37 38 58.5t69 21.5z
M809 -27q-182 0 -326.5 82.5t-223.5 224.5t-79 316q0 164 65 321t175 276t266.5 192t329.5 73q136 0 254 -48t200 -131t128.5 -197.5t46.5 -243.5q0 -165 -65 -322.5t-175 -277t-266.5 -192.5t-329.5 -73zM819 123q110 0 212 39t181.5 108t139 158t91.5 193t32 210
q0 207 -129 342.5t-340 135.5q-136 0 -260 -61t-209.5 -160t-136 -227.5t-50.5 -260.5q0 -206 129 -341.5t340 -135.5z" />
    <glyph glyph-name="multiply" unicode="&#xd7;" horiz-adv-x="1280" 
d="M795 711l223 -299q18 -27 18 -54q0 -31 -23 -53t-55 -22q-42 0 -63 34l-219 306l-404 -322q-22 -18 -47 -18q-28 0 -47.5 21t-19.5 50q0 36 30 60l406 317l-223 301q-19 25 -19 51q0 31 23 54.5t55 23.5q40 0 64 -35l219 -305l403 322q19 16 47 16t48 -21.5t20 -50.5
q0 -34 -31 -59z" />
    <glyph glyph-name="Oslash" unicode="&#xd8;" horiz-adv-x="1724" 
d="M346 600q0 -129 53 -235l959 802q-136 146 -352 146q-136 0 -260.5 -61.5t-211 -161.5t-137.5 -229t-51 -261zM819 119q136 0 260.5 61.5t211 161t137.5 228.5t51 261q0 130 -58 240l-956 -803q127 -149 354 -149zM344 168l-184 -156q-41 -32 -72 -32q-24 0 -38.5 14.5
t-14.5 38.5q0 26 33 59l202 170q-90 152 -90 334q0 164 65 321t175 276t266.5 192t329.5 73q140 0 258 -49t203 -139l180 151q42 33 69 33q26 0 41 -14.5t15 -36.5q0 -31 -35 -62l-197 -165q95 -155 95 -338q0 -165 -65 -322.5t-175 -277t-266.5 -192.5t-329.5 -73
q-141 0 -260 51.5t-205 143.5z" />
    <glyph glyph-name="Ugrave" unicode="&#xd9;" horiz-adv-x="1552" 
d="M1587 1343l-205 -763q-73 -272 -225 -424q-179 -179 -446 -179q-250 0 -386.5 126t-136.5 333q0 108 31 223l189 707q9 37 32.5 57.5t55.5 20.5q38 0 58.5 -27.5t8.5 -73.5l-192 -727q-21 -90 -21 -161q0 -146 96 -237t279 -91q185 0 319 131q126 129 183 350l205 758
q9 37 32.5 57.5t55.5 20.5q39 0 59.5 -28t7.5 -73zM936 1589l-117 152q-18 25 -18 41q0 22 34.5 42.5t71.5 20.5q53 0 70 -49l72 -182q0 -1 3 -12t3 -17q0 -15 -12.5 -24t-32.5 -9q-27 0 -43 8t-31 29z" />
    <glyph glyph-name="Uacute" unicode="&#xda;" horiz-adv-x="1552" 
d="M1339 1739l-198 -148q-47 -39 -105 -39q-45 0 -45 31q0 14 15 33l174 188q17 17 24.5 23.5t21 13t29.5 6.5q36 0 74.5 -21t38.5 -42q0 -22 -29 -45zM1587 1343l-205 -763q-73 -272 -225 -424q-179 -179 -446 -179q-250 0 -386.5 126t-136.5 333q0 108 31 223l189 707
q9 37 32.5 57.5t55.5 20.5q38 0 58.5 -27.5t8.5 -73.5l-192 -727q-21 -90 -21 -161q0 -146 96 -237t279 -91q185 0 319 131q126 129 183 350l205 758q9 37 32.5 57.5t55.5 20.5q39 0 59.5 -28t7.5 -73z" />
    <glyph glyph-name="Ucircumflex" unicode="&#xdb;" horiz-adv-x="1552" 
d="M1188 1790l92 -172q14 -25 14 -37t-10.5 -20.5t-28.5 -8.5q-34 0 -54.5 7t-41.5 32l-86 107l-153 -107q-56 -39 -103 -39q-18 0 -28.5 8.5t-10.5 20.5q0 16 23 39l184 172q49 45 92 45h35q49 0 76 -47zM1587 1343l-205 -763q-73 -272 -225 -424q-179 -179 -446 -179
q-250 0 -386.5 126t-136.5 333q0 108 31 223l189 707q9 37 32.5 57.5t55.5 20.5q38 0 58.5 -27.5t8.5 -73.5l-192 -727q-21 -90 -21 -161q0 -146 96 -237t279 -91q185 0 319 131q126 129 183 350l205 758q9 37 32.5 57.5t55.5 20.5q39 0 59.5 -28t7.5 -73z" />
    <glyph glyph-name="Udieresis" unicode="&#xdc;" horiz-adv-x="1552" 
d="M899 1769q41 0 65.5 -27t14.5 -63l-14 -51q-9 -37 -38 -58.5t-69 -21.5q-42 0 -65.5 26t-14.5 64l15 52q9 37 37.5 58t68.5 21zM1262 1769q40 0 64.5 -27t14.5 -63l-14 -51q-9 -37 -37.5 -58.5t-68.5 -21.5q-42 0 -65.5 26t-14.5 64l14 52q9 37 38 58t69 21zM1587 1343
l-205 -763q-73 -272 -225 -424q-179 -179 -446 -179q-250 0 -386.5 126t-136.5 333q0 108 31 223l189 707q9 37 32.5 57.5t55.5 20.5q38 0 58.5 -27.5t8.5 -73.5l-192 -727q-21 -90 -21 -161q0 -146 96 -237t279 -91q185 0 319 131q126 129 183 350l205 758q9 37 32.5 57.5
t55.5 20.5q39 0 59.5 -28t7.5 -73z" />
    <glyph glyph-name="Yacute" unicode="&#xdd;" horiz-adv-x="1357" 
d="M752 547l-127 -479q-11 -37 -34.5 -57.5t-55.5 -20.5q-39 0 -59.5 27.5t-8.5 72.5l129 483l-317 734q-15 34 -15 59q0 33 24 55.5t60 22.5q55 0 82 -68l279 -667l657 690q45 45 88 45q31 0 50.5 -18.5t19.5 -49.5q0 -36 -33 -69zM1231 1739l-199 -148q-47 -39 -104 -39
q-45 0 -45 31q0 16 14 33l174 188q16 16 24.5 23t22 13.5t29.5 6.5q36 0 74.5 -21t38.5 -42q0 -22 -29 -45z" />
    <glyph glyph-name="Thorn" unicode="&#xde;" horiz-adv-x="1380" 
d="M334 408h309q252 0 391.5 96.5t139.5 271.5q0 107 -68 172q-90 90 -283 90h-321zM827 1188q276 0 412 -133q100 -103 100 -269q0 -247 -191.5 -385.5t-512.5 -138.5h-340l-53 -194q-11 -37 -34.5 -57.5t-55.5 -20.5q-39 0 -59.5 27.5t-8.5 72.5l344 1276q9 37 32.5 57.5
t55.5 20.5q39 0 59 -28t7 -73l-39 -155h284z" />
    <glyph glyph-name="germandbls" unicode="&#xdf;" horiz-adv-x="1275" 
d="M702 811q377 99 377 342q0 97 -68.5 157t-183.5 60q-131 0 -226 -98t-140 -273l-250 -931q-9 -37 -32.5 -57.5t-55.5 -20.5q-37 0 -55.5 27t-8.5 71l252 938q59 224 178 340q140 143 349 143q177 0 288 -97.5t111 -248.5q0 -84 -30.5 -153.5t-87 -120t-126.5 -86
t-157 -60.5q133 -39 213.5 -118t80.5 -203q0 -123 -78.5 -220.5t-215 -151.5t-304.5 -54q-34 0 -51.5 18t-17.5 47q0 27 16 45t45 21q154 8 256.5 51t146.5 105t44 141q0 175 -262 242q-64 20 -64 71q0 58 57 74z" />
    <glyph glyph-name="agrave" unicode="&#xe0;" horiz-adv-x="1179" 
d="M424 100q136 0 257 89.5t159 226.5l20 73q-164 48 -344 48q-141 0 -229 -69.5t-88 -178.5q0 -85 61.5 -137t163.5 -52zM809 -10q-39 0 -55 23t-11 57l27 96q-164 -189 -395 -189q-140 0 -238 79t-98 214q0 176 131.5 279.5t339.5 103.5q177 0 377 -57l6 25q14 54 14 98
q0 104 -71.5 159.5t-214.5 55.5q-114 0 -244 -37q-15 -6 -33 -6q-28 0 -45.5 18.5t-17.5 46.5q0 52 53 68q148 49 311 49q198 0 307 -86.5t109 -241.5q0 -65 -23 -145l-141 -532q-9 -37 -32.5 -57.5t-55.5 -20.5zM643 1247l-117 152q-18 25 -18 41q0 22 34.5 42.5t71.5 20.5
q53 0 70 -49l72 -182q0 -1 3 -12t3 -17q0 -15 -12.5 -24t-32.5 -9q-27 0 -43 8t-31 29z" />
    <glyph glyph-name="aacute" unicode="&#xe1;" horiz-adv-x="1179" 
d="M424 100q136 0 257 89.5t159 226.5l20 73q-164 48 -344 48q-141 0 -229 -69.5t-88 -178.5q0 -85 61.5 -137t163.5 -52zM809 -10q-39 0 -55 23t-11 57l27 96q-164 -189 -395 -189q-140 0 -238 79t-98 214q0 176 131.5 279.5t339.5 103.5q177 0 377 -57l6 25q14 54 14 98
q0 104 -71.5 159.5t-214.5 55.5q-114 0 -244 -37q-15 -6 -33 -6q-28 0 -45.5 18.5t-17.5 46.5q0 52 53 68q148 49 311 49q198 0 307 -86.5t109 -241.5q0 -65 -23 -145l-141 -532q-9 -37 -32.5 -57.5t-55.5 -20.5zM1044 1397l-198 -148q-47 -39 -105 -39q-45 0 -45 31
q0 14 15 33l174 188q16 16 24.5 23t22 13.5t29.5 6.5q36 0 74 -21t38 -42q0 -22 -29 -45z" />
    <glyph glyph-name="acircumflex" unicode="&#xe2;" horiz-adv-x="1179" 
d="M424 100q136 0 257 89.5t159 226.5l20 73q-164 48 -344 48q-141 0 -229 -69.5t-88 -178.5q0 -85 61.5 -137t163.5 -52zM809 -10q-39 0 -55 23t-11 57l27 96q-164 -189 -395 -189q-140 0 -238 79t-98 214q0 176 131.5 279.5t339.5 103.5q177 0 377 -57l6 25q14 54 14 98
q0 104 -71.5 159.5t-214.5 55.5q-114 0 -244 -37q-15 -6 -33 -6q-28 0 -45.5 18.5t-17.5 46.5q0 52 53 68q148 49 311 49q198 0 307 -86.5t109 -241.5q0 -65 -23 -145l-141 -532q-9 -37 -32.5 -57.5t-55.5 -20.5zM893 1448l92 -172q14 -24 14 -37t-10 -21t-28 -8
q-34 0 -55 7t-42 32l-86 107l-153 -107q-56 -39 -103 -39q-18 0 -28.5 8.5t-10.5 20.5q0 16 23 39l184 172q49 45 92 45h35q49 0 76 -47z" />
    <glyph glyph-name="atilde" unicode="&#xe3;" horiz-adv-x="1179" 
d="M424 100q136 0 257 89.5t159 226.5l20 73q-164 48 -344 48q-141 0 -229 -69.5t-88 -178.5q0 -85 61.5 -137t163.5 -52zM809 -10q-39 0 -55 23t-11 57l27 96q-164 -189 -395 -189q-140 0 -238 79t-98 214q0 176 131.5 279.5t339.5 103.5q177 0 377 -57l6 25q14 54 14 98
q0 104 -71.5 159.5t-214.5 55.5q-114 0 -244 -37q-15 -6 -33 -6q-28 0 -45.5 18.5t-17.5 46.5q0 52 53 68q148 49 311 49q198 0 307 -86.5t109 -241.5q0 -65 -23 -145l-141 -532q-9 -37 -32.5 -57.5t-55.5 -20.5zM477 1210q-22 0 -37.5 13t-15.5 34q0 25 14 50
q44 77 94.5 121.5t118.5 44.5q45 0 74.5 -15.5t71.5 -52.5q53 -46 70 -53q14 -6 30 -6q28 0 52.5 21t56.5 69q23 34 53 34q23 0 39 -13.5t16 -35.5q0 -25 -14 -47q-46 -79 -96.5 -123.5t-118.5 -44.5q-43 0 -73 16t-71 52q-38 35 -57.5 47t-44.5 12q-29 0 -53 -20.5
t-54 -67.5q-23 -35 -55 -35z" />
    <glyph glyph-name="adieresis" unicode="&#xe4;" horiz-adv-x="1179" 
d="M424 100q136 0 257 89.5t159 226.5l20 73q-164 48 -344 48q-141 0 -229 -69.5t-88 -178.5q0 -85 61.5 -137t163.5 -52zM809 -10q-39 0 -55 23t-11 57l27 96q-164 -189 -395 -189q-140 0 -238 79t-98 214q0 176 131.5 279.5t339.5 103.5q177 0 377 -57l6 25q14 54 14 98
q0 104 -71.5 159.5t-214.5 55.5q-114 0 -244 -37q-15 -6 -33 -6q-28 0 -45.5 18.5t-17.5 46.5q0 52 53 68q148 49 311 49q198 0 307 -86.5t109 -241.5q0 -65 -23 -145l-141 -532q-9 -37 -32.5 -57.5t-55.5 -20.5zM602 1427q41 0 65.5 -27t14.5 -63l-14 -51q-9 -37 -38 -58.5
t-69 -21.5q-42 0 -65.5 26t-14.5 64l15 52q9 37 37.5 58t68.5 21zM965 1427q40 0 64.5 -27t14.5 -63l-14 -51q-9 -37 -37.5 -58.5t-68.5 -21.5q-42 0 -65.5 26t-14.5 64l14 52q9 37 38 58t69 21z" />
    <glyph glyph-name="aring" unicode="&#xe5;" horiz-adv-x="1179" 
d="M424 100q136 0 257 89.5t159 226.5l20 73q-164 48 -344 48q-141 0 -229 -69.5t-88 -178.5q0 -85 61.5 -137t163.5 -52zM809 -10q-39 0 -55 23t-11 57l27 96q-164 -189 -395 -189q-140 0 -238 79t-98 214q0 176 131.5 279.5t339.5 103.5q177 0 377 -57l6 25q14 54 14 98
q0 104 -71.5 159.5t-214.5 55.5q-114 0 -244 -37q-15 -6 -33 -6q-28 0 -45.5 18.5t-17.5 46.5q0 52 53 68q148 49 311 49q198 0 307 -86.5t109 -241.5q0 -65 -23 -145l-141 -532q-9 -37 -32.5 -57.5t-55.5 -20.5zM774 1217q-90 0 -144.5 51t-54.5 129q0 93 70.5 160
t165.5 67q91 0 146 -51t55 -129q0 -93 -71 -160t-167 -67zM778 1296q60 0 102 43t42 103q0 46 -29 75t-84 29q-60 0 -102.5 -43.5t-42.5 -103.5q0 -45 29.5 -74t84.5 -29z" />
    <glyph glyph-name="ae" unicode="&#xe6;" horiz-adv-x="1961" 
d="M522 537q-141 0 -232 -68t-91 -174q0 -89 62.5 -142t174.5 -53q230 0 443 226q-11 57 -11 98q0 23 4 63q-148 50 -350 50zM1882 676q0 -75 -14 -129q-16 -72 -84 -72h-766q-4 -32 -4 -51q2 -141 88.5 -226t230.5 -85q166 0 287 98q32 16 55 16q27 0 44.5 -17.5
t17.5 -45.5q0 -34 -31 -58q-160 -131 -379 -131q-149 0 -256.5 64.5t-159.5 179.5q-108 -112 -240 -177t-274 -65q-161 0 -259.5 79t-98.5 220q0 173 134 275t343 102q191 0 371 -57l6 25q14 54 14 98q0 104 -71.5 159.5t-214.5 55.5q-125 0 -244 -37q-15 -6 -33 -6
q-28 0 -45.5 18.5t-17.5 46.5q0 52 53 68q152 49 311 49q156 0 256 -58.5t131 -164.5q83 105 198.5 168t244.5 63q97 0 175.5 -32t128.5 -87.5t76.5 -128.5t26.5 -157zM1038 594h682q9 40 9 82q0 117 -67.5 194.5t-197.5 77.5q-151 0 -266 -100.5t-160 -253.5z" />
    <glyph glyph-name="ccedilla" unicode="&#xe7;" horiz-adv-x="1150" 
d="M948 121q-172 -146 -381 -146h-2l-180 -245q-23 -35 -59 -35q-31 0 -54.5 19t-23.5 42q0 26 22 51l174 183q-153 37 -249.5 155t-96.5 293q0 170 85 318.5t229 236.5t309 88q249 0 381 -186q26 -30 26 -64q0 -29 -21 -50t-52 -21q-39 0 -64 31q-102 151 -280 151
q-118 0 -222.5 -69.5t-166.5 -185t-62 -245.5q0 -151 92 -239t223 -88q148 0 279 110q25 19 53 19q29 0 47.5 -19.5t18.5 -48.5q0 -30 -25 -55z" />
    <glyph glyph-name="egrave" unicode="&#xe8;" horiz-adv-x="1206" 
d="M279 594h682q10 30 10 82q0 117 -67.5 194.5t-196.5 77.5q-152 0 -267.5 -101t-160.5 -253zM575 113q165 0 287 98q28 16 53 16q28 0 46 -17.5t18 -45.5q0 -34 -31 -58q-164 -131 -381 -131q-210 0 -339.5 125t-129.5 326q0 121 47.5 239t128 210t196.5 149t245 57
q193 0 301 -115.5t108 -289.5q0 -57 -14 -129q-16 -72 -86 -72h-766q0 -8 -1 -25.5t-1 -25.5q2 -141 88.5 -226t230.5 -85zM682 1247l-117 152q-18 25 -18 41q0 22 34.5 42.5t71.5 20.5q53 0 70 -49l72 -182q0 -1 3 -12t3 -17q0 -15 -12.5 -24t-32.5 -9q-27 0 -43 8t-31 29z
" />
    <glyph glyph-name="eacute" unicode="&#xe9;" horiz-adv-x="1206" 
d="M1085 1397l-198 -148q-47 -39 -105 -39q-45 0 -45 31q0 14 15 33l174 188q17 17 24.5 23.5t21 13t29.5 6.5q36 0 74.5 -21t38.5 -42q0 -22 -29 -45zM279 594h682q10 30 10 82q0 117 -67.5 194.5t-196.5 77.5q-152 0 -267.5 -101t-160.5 -253zM575 113q165 0 287 98
q28 16 53 16q28 0 46 -17.5t18 -45.5q0 -34 -31 -58q-164 -131 -381 -131q-210 0 -339.5 125t-129.5 326q0 121 47.5 239t128 210t196.5 149t245 57q193 0 301 -115.5t108 -289.5q0 -57 -14 -129q-16 -72 -86 -72h-766q0 -8 -1 -25.5t-1 -25.5q2 -141 88.5 -226t230.5 -85z
" />
    <glyph glyph-name="ecircumflex" unicode="&#xea;" horiz-adv-x="1206" 
d="M932 1448l92 -172q14 -24 14 -37q0 -12 -10.5 -20.5t-28.5 -8.5q-34 0 -54.5 7t-41.5 32l-86 107l-153 -107q-56 -39 -103 -39q-18 0 -28.5 8.5t-10.5 20.5q0 16 23 39l184 172q49 45 92 45h35q49 0 76 -47zM279 594h682q10 30 10 82q0 117 -67.5 194.5t-196.5 77.5
q-152 0 -267.5 -101t-160.5 -253zM575 113q165 0 287 98q28 16 53 16q28 0 46 -17.5t18 -45.5q0 -34 -31 -58q-164 -131 -381 -131q-210 0 -339.5 125t-129.5 326q0 121 47.5 239t128 210t196.5 149t245 57q193 0 301 -115.5t108 -289.5q0 -57 -14 -129q-16 -72 -86 -72
h-766q0 -8 -1 -25.5t-1 -25.5q2 -141 88.5 -226t230.5 -85z" />
    <glyph glyph-name="edieresis" unicode="&#xeb;" horiz-adv-x="1206" 
d="M643 1427q41 0 65.5 -27t14.5 -63l-14 -51q-9 -37 -38 -58.5t-69 -21.5q-42 0 -65.5 26t-14.5 64l15 52q9 37 37.5 58t68.5 21zM1006 1427q40 0 64.5 -27t14.5 -63l-14 -51q-9 -37 -37.5 -58.5t-68.5 -21.5q-42 0 -65.5 26t-14.5 64l14 52q9 37 38 58t69 21zM279 594h682
q10 30 10 82q0 117 -67.5 194.5t-196.5 77.5q-152 0 -267.5 -101t-160.5 -253zM575 113q165 0 287 98q28 16 53 16q28 0 46 -17.5t18 -45.5q0 -34 -31 -58q-164 -131 -381 -131q-210 0 -339.5 125t-129.5 326q0 121 47.5 239t128 210t196.5 149t245 57q193 0 301 -115.5
t108 -289.5q0 -57 -14 -129q-16 -72 -86 -72h-766q0 -8 -1 -25.5t-1 -25.5q2 -141 88.5 -226t230.5 -85z" />
    <glyph glyph-name="igrave" unicode="&#xec;" horiz-adv-x="540" 
d="M467 971l-242 -903q-22 -78 -88 -78q-38 0 -55.5 27t-7.5 71l241 903q22 78 88 78q39 0 57.5 -27t6.5 -71zM358 1247l-116 152q-19 27 -19 41q0 22 35 42.5t72 20.5q52 0 69 -49l72 -182q0 -1 3 -12t3 -17q0 -15 -12.5 -24t-32.5 -9q-27 0 -43 8t-31 29z" />
    <glyph glyph-name="iacute" unicode="&#xed;" horiz-adv-x="540" 
d="M762 1397l-199 -148q-47 -39 -104 -39q-45 0 -45 31q0 15 14 33l174 188q16 16 24.5 23t22 13.5t29.5 6.5q36 0 74.5 -21t38.5 -42q0 -22 -29 -45zM467 971l-242 -903q-22 -78 -88 -78q-38 0 -55.5 27t-7.5 71l241 903q22 78 88 78q39 0 57.5 -27t6.5 -71z" />
    <glyph glyph-name="icircumflex" unicode="&#xee;" horiz-adv-x="540" 
d="M610 1448l92 -172q15 -26 15 -37q0 -12 -10.5 -20.5t-28.5 -8.5q-34 0 -54.5 7t-41.5 32l-86 107l-154 -107q-56 -39 -102 -39q-18 0 -28.5 8.5t-10.5 20.5q0 17 22 39l185 172q49 45 92 45h35q48 0 75 -47zM467 971l-242 -903q-22 -78 -88 -78q-38 0 -55.5 27t-7.5 71
l241 903q22 78 88 78q39 0 57.5 -27t6.5 -71z" />
    <glyph glyph-name="idieresis" unicode="&#xef;" horiz-adv-x="540" 
d="M324 1427q40 0 64.5 -27t14.5 -63l-14 -51q-9 -37 -37.5 -58.5t-68.5 -21.5q-42 0 -65.5 26t-14.5 64l14 52q9 37 38 58t69 21zM686 1427q41 0 65.5 -27t14.5 -63l-14 -51q-9 -37 -38 -58.5t-69 -21.5q-42 0 -65.5 26t-14.5 64l15 52q9 37 37.5 58t68.5 21zM467 971
l-242 -903q-22 -78 -88 -78q-38 0 -55.5 27t-7.5 71l241 903q22 78 88 78q39 0 57.5 -27t6.5 -71z" />
    <glyph glyph-name="eth" unicode="&#xf0;" horiz-adv-x="1273" 
d="M502 1247l262 109l-14 35q-11 22 -11 43q0 29 23 50t57 21q54 0 72 -49l16 -41l197 84q12 6 33 6q25 0 39 -15t14 -40q0 -40 -45 -57l-195 -82l131 -322q51 -125 73 -215t22 -182q0 -160 -75.5 -300t-217.5 -227.5t-320 -87.5q-205 0 -338 127.5t-133 321.5
q0 115 46.5 221t123.5 181t180 120t213 45q184 0 314 -110l-160 368l-268 -110q-12 -6 -33 -6q-24 0 -38.5 14.5t-14.5 38.5q0 43 47 59zM575 117q119 0 220 59.5t159 160t58 216.5q0 135 -92.5 225t-249.5 90q-171 0 -295.5 -129.5t-124.5 -304.5q0 -145 90.5 -231
t234.5 -86z" />
    <glyph glyph-name="ntilde" unicode="&#xf1;" horiz-adv-x="1255" 
d="M389 1069q35 0 54 -22.5t14 -55.5l-27 -104q81 92 168.5 143t200.5 51q154 0 246 -88.5t92 -238.5q0 -58 -27 -164l-139 -522q-9 -37 -31.5 -57.5t-54.5 -20.5q-39 0 -57.5 27t-6.5 71l135 512q17 60 17 119q0 104 -63.5 162.5t-174.5 58.5q-124 0 -233 -96.5
t-150 -245.5l-141 -530q-9 -37 -32.5 -57.5t-55.5 -20.5q-37 0 -55.5 27t-8.5 71l242 903q19 78 88 78zM545 1210q-22 0 -37.5 13t-15.5 34q0 25 14 50q44 77 94.5 121.5t118.5 44.5q31 0 57.5 -9.5t42.5 -21.5t45 -37q30 -26 41 -35t27 -16.5t33 -7.5q28 0 51.5 21t56.5 69
q23 34 53 34q23 0 39.5 -13.5t16.5 -35.5q0 -23 -15 -47q-46 -79 -96.5 -123.5t-118.5 -44.5q-43 0 -72.5 16t-70.5 52q-38 35 -57.5 47t-44.5 12q-29 0 -53 -20.5t-54 -67.5q-23 -35 -55 -35z" />
    <glyph glyph-name="ograve" unicode="&#xf2;" horiz-adv-x="1306" 
d="M582 -25q-216 0 -349 134t-133 342q0 122 50.5 237.5t134 201.5t199 138.5t239.5 52.5q216 0 349.5 -133t133.5 -340q0 -124 -51 -241t-136 -202.5t-200 -137.5t-237 -52zM592 117q116 0 221 68t168 180.5t63 236.5q0 159 -90.5 249.5t-240.5 90.5q-89 0 -173.5 -41.5
t-145 -109.5t-97.5 -156.5t-37 -179.5q0 -159 91 -248.5t241 -89.5zM727 1247l-117 152q-18 25 -18 41q0 22 34.5 42.5t71.5 20.5q53 0 70 -49l72 -182q0 -1 3 -12t3 -17q0 -15 -12.5 -24t-32.5 -9q-27 0 -43 8t-31 29z" />
    <glyph glyph-name="oacute" unicode="&#xf3;" horiz-adv-x="1306" 
d="M1130 1397l-198 -148q-47 -39 -105 -39q-45 0 -45 31q0 14 15 33l174 188q16 16 24.5 23t22 13.5t29.5 6.5q36 0 74 -21t38 -42q0 -22 -29 -45zM582 -25q-216 0 -349 134t-133 342q0 122 50.5 237.5t134 201.5t199 138.5t239.5 52.5q216 0 349.5 -133t133.5 -340
q0 -124 -51 -241t-136 -202.5t-200 -137.5t-237 -52zM592 117q116 0 221 68t168 180.5t63 236.5q0 159 -90.5 249.5t-240.5 90.5q-89 0 -173.5 -41.5t-145 -109.5t-97.5 -156.5t-37 -179.5q0 -159 91 -248.5t241 -89.5z" />
    <glyph glyph-name="ocircumflex" unicode="&#xf4;" horiz-adv-x="1306" 
d="M979 1448l92 -172q14 -24 14 -37t-10 -21t-28 -8q-34 0 -55 7t-42 32l-86 107l-153 -107q-56 -39 -103 -39q-18 0 -28.5 8.5t-10.5 20.5q0 16 23 39l184 172q49 45 92 45h35q49 0 76 -47zM582 -25q-216 0 -349 134t-133 342q0 122 50.5 237.5t134 201.5t199 138.5
t239.5 52.5q216 0 349.5 -133t133.5 -340q0 -124 -51 -241t-136 -202.5t-200 -137.5t-237 -52zM592 117q116 0 221 68t168 180.5t63 236.5q0 159 -90.5 249.5t-240.5 90.5q-89 0 -173.5 -41.5t-145 -109.5t-97.5 -156.5t-37 -179.5q0 -159 91 -248.5t241 -89.5z" />
    <glyph glyph-name="otilde" unicode="&#xf5;" horiz-adv-x="1306" 
d="M582 -25q-216 0 -349 134t-133 342q0 122 50.5 237.5t134 201.5t199 138.5t239.5 52.5q216 0 349.5 -133t133.5 -340q0 -124 -51 -241t-136 -202.5t-200 -137.5t-237 -52zM592 117q116 0 221 68t168 180.5t63 236.5q0 159 -90.5 249.5t-240.5 90.5q-89 0 -173.5 -41.5
t-145 -109.5t-97.5 -156.5t-37 -179.5q0 -159 91 -248.5t241 -89.5zM565 1210q-22 0 -37.5 13t-15.5 34q0 25 14 50q44 77 94.5 121.5t118.5 44.5q45 0 74.5 -15.5t71.5 -52.5q53 -46 70 -53q14 -6 30 -6q28 0 52.5 21t56.5 69q23 34 53 34q23 0 39 -13.5t16 -35.5
q0 -25 -14 -47q-46 -79 -96.5 -123.5t-118.5 -44.5q-43 0 -73 16t-71 52q-38 35 -57.5 47t-44.5 12q-28 0 -52 -20.5t-54 -67.5q-23 -35 -56 -35z" />
    <glyph glyph-name="odieresis" unicode="&#xf6;" horiz-adv-x="1306" 
d="M690 1427q41 0 65.5 -27t14.5 -63l-14 -51q-9 -37 -38 -58.5t-69 -21.5q-42 0 -65.5 26t-14.5 64l15 52q9 37 37.5 58t68.5 21zM1053 1427q41 0 65.5 -27t14.5 -63l-15 -51q-9 -37 -37.5 -58.5t-68.5 -21.5q-42 0 -65.5 26t-14.5 64l14 52q9 37 38 58t69 21zM582 -25
q-216 0 -349 134t-133 342q0 122 50.5 237.5t134 201.5t199 138.5t239.5 52.5q216 0 349.5 -133t133.5 -340q0 -124 -51 -241t-136 -202.5t-200 -137.5t-237 -52zM592 117q116 0 221 68t168 180.5t63 236.5q0 159 -90.5 249.5t-240.5 90.5q-89 0 -173.5 -41.5t-145 -109.5
t-97.5 -156.5t-37 -179.5q0 -159 91 -248.5t241 -89.5z" />
    <glyph glyph-name="divide" unicode="&#xf7;" horiz-adv-x="1280" 
d="M1133 649h-879q-29 0 -50.5 21.5t-21.5 50.5t21.5 50.5t50.5 21.5h879q28 0 48.5 -21.5t20.5 -50.5t-20.5 -50.5t-48.5 -21.5zM821 1243q43 0 70 -28t18 -68l-10 -45q-9 -41 -41 -65.5t-78 -24.5q-43 0 -70 28t-18 68l10 45q9 41 41 65.5t78 24.5zM604 430q43 0 70 -28
t18 -68l-10 -45q-9 -41 -41 -65.5t-78 -24.5q-43 0 -70 28t-18 68l10 45q9 41 41 65.5t78 24.5z" />
    <glyph glyph-name="oslash" unicode="&#xf8;" horiz-adv-x="1306" 
d="M592 113q117 0 222.5 68.5t169 182t63.5 238.5q0 89 -31 162l-664 -561q87 -90 240 -90zM258 455q0 -81 31 -158l661 559q-88 88 -237 88q-89 0 -173.5 -42t-146 -109.5t-98.5 -157t-37 -180.5zM242 104l-117 -98q-33 -26 -62 -26q-23 0 -38 14t-15 37q0 31 31 55
l127 104q-68 112 -68 261q0 122 50.5 237.5t134 201.5t199 138.5t239.5 52.5q207 0 338 -125l119 99q33 26 61 26q23 0 38 -13.5t15 -35.5q0 -27 -30 -57l-127 -105q69 -117 69 -262q0 -124 -51 -241t-136 -202.5t-200 -137.5t-237 -52q-208 0 -340 129z" />
    <glyph glyph-name="ugrave" unicode="&#xf9;" horiz-adv-x="1255" 
d="M864 -10q-33 0 -51.5 22.5t-13.5 55.5l26 104q-81 -92 -169 -143.5t-201 -51.5q-153 0 -244.5 89t-91.5 239q0 62 26 164l138 522q22 78 88 78q38 0 55.5 -27t7.5 -71l-137 -512q-14 -61 -14 -119q0 -104 63 -162.5t172 -58.5q125 0 234.5 97t148.5 247l141 528
q22 78 88 78q39 0 57.5 -27t6.5 -71l-240 -903q-9 -37 -32.5 -57.5t-57.5 -20.5zM694 1247l-116 152q-19 27 -19 41q0 22 35 42.5t72 20.5q52 0 69 -49l72 -182q0 -1 3 -12t3 -17q0 -15 -12.5 -24t-32.5 -9q-27 0 -43 8t-31 29z" />
    <glyph glyph-name="uacute" unicode="&#xfa;" horiz-adv-x="1255" 
d="M1096 1397l-199 -148q-47 -39 -104 -39q-45 0 -45 31q0 15 14 33l174 188q16 16 24.5 23t22 13.5t29.5 6.5q36 0 74 -21t38 -42q0 -23 -28 -45zM864 -10q-33 0 -51.5 22.5t-13.5 55.5l26 104q-81 -92 -169 -143.5t-201 -51.5q-153 0 -244.5 89t-91.5 239q0 62 26 164
l138 522q22 78 88 78q38 0 55.5 -27t7.5 -71l-137 -512q-14 -61 -14 -119q0 -104 63 -162.5t172 -58.5q125 0 234.5 97t148.5 247l141 528q22 78 88 78q39 0 57.5 -27t6.5 -71l-240 -903q-9 -37 -32.5 -57.5t-57.5 -20.5z" />
    <glyph glyph-name="ucircumflex" unicode="&#xfb;" horiz-adv-x="1255" 
d="M944 1448l92 -172q15 -26 15 -37q0 -12 -10.5 -20.5t-28.5 -8.5q-34 0 -55 7t-42 32l-86 107l-153 -107q-56 -39 -103 -39q-18 0 -28 8t-10 21q0 17 22 39l184 172q49 45 93 45h34q49 0 76 -47zM864 -10q-33 0 -51.5 22.5t-13.5 55.5l26 104q-81 -92 -169 -143.5
t-201 -51.5q-153 0 -244.5 89t-91.5 239q0 62 26 164l138 522q22 78 88 78q38 0 55.5 -27t7.5 -71l-137 -512q-14 -61 -14 -119q0 -104 63 -162.5t172 -58.5q125 0 234.5 97t148.5 247l141 528q22 78 88 78q39 0 57.5 -27t6.5 -71l-240 -903q-9 -37 -32.5 -57.5t-57.5 -20.5
z" />
    <glyph glyph-name="udieresis" unicode="&#xfc;" horiz-adv-x="1255" 
d="M655 1427q41 0 65.5 -27t14.5 -63l-14 -51q-9 -37 -38 -58.5t-69 -21.5q-42 0 -65 26t-14 64l14 52q9 37 37.5 58t68.5 21zM1018 1427q41 0 65.5 -27t14.5 -63l-15 -51q-9 -37 -37.5 -58.5t-68.5 -21.5q-42 0 -65.5 26t-14.5 64l14 52q9 37 38 58t69 21zM864 -10
q-33 0 -51.5 22.5t-13.5 55.5l26 104q-81 -92 -169 -143.5t-201 -51.5q-153 0 -244.5 89t-91.5 239q0 62 26 164l138 522q22 78 88 78q38 0 55.5 -27t7.5 -71l-137 -512q-14 -61 -14 -119q0 -104 63 -162.5t172 -58.5q125 0 234.5 97t148.5 247l141 528q22 78 88 78
q39 0 57.5 -27t6.5 -71l-240 -903q-9 -37 -32.5 -57.5t-57.5 -20.5z" />
    <glyph glyph-name="yacute" unicode="&#xfd;" horiz-adv-x="1175" 
d="M-35 -162q74 -33 133 -33q68 0 132.5 45t140.5 152l-178 942q-7 25 -7 47q0 33 22.5 55.5t55.5 22.5t55 -21t25 -55l145 -819l547 838q33 57 84 57q32 0 51 -18t19 -47q0 -26 -19 -58l-659 -981q-111 -162 -212 -230.5t-220 -68.5q-96 0 -176 41q-47 23 -47 70
q0 30 19.5 50.5t47.5 20.5q18 0 41 -10zM1028 1397l-199 -148q-47 -39 -104 -39q-45 0 -45 31q0 15 14 33l174 188q16 16 24.5 23t22 13.5t29.5 6.5q36 0 74.5 -21t38.5 -42q0 -22 -29 -45z" />
    <glyph glyph-name="thorn" unicode="&#xfe;" horiz-adv-x="1349" 
d="M639 115q123 0 225 69t159.5 184.5t57.5 249.5q0 147 -82.5 235.5t-216.5 88.5q-116 0 -225.5 -70t-177.5 -186t-68 -242q0 -140 92 -234.5t236 -94.5zM-29 -240l447 1667q22 78 88 78q39 0 57 -27t6 -71l-143 -530q178 204 401 204q182 0 301 -124t119 -324
q0 -137 -49.5 -260.5t-131.5 -210t-190 -137t-223 -50.5q-78 0 -144.5 21t-114 59t-81.5 83t-57 100l-133 -498q-9 -37 -32.5 -57.5t-55.5 -20.5q-37 0 -55.5 27t-8.5 71z" />
    <glyph glyph-name="ydieresis" unicode="&#xff;" horiz-adv-x="1175" 
d="M-35 -162q74 -33 133 -33q68 0 132.5 45t140.5 152l-178 942q-7 25 -7 47q0 33 22.5 55.5t55.5 22.5t55 -21t25 -55l145 -819l547 838q33 57 84 57q32 0 51 -18t19 -47q0 -26 -19 -58l-659 -981q-111 -162 -212 -230.5t-220 -68.5q-96 0 -176 41q-47 23 -47 70
q0 30 19.5 50.5t47.5 20.5q18 0 41 -10zM588 1427q41 0 65.5 -27t14.5 -63l-15 -51q-9 -37 -37.5 -58.5t-68.5 -21.5q-42 0 -65.5 26t-14.5 64l14 52q9 37 38 58t69 21zM950 1427q41 0 65.5 -27t14.5 -63l-14 -51q-9 -37 -38 -58.5t-69 -21.5q-42 0 -65.5 26t-14.5 64l15 52
q9 37 37.5 58t68.5 21z" />
    <glyph glyph-name="Amacron" unicode="&#x100;" horiz-adv-x="1529" 
d="M467 526h659l-133 734zM1128 1372l238 -1259q6 -36 6 -45q0 -32 -23 -55t-59 -23q-32 0 -54 19t-28 52l-55 318h-788l-242 -334q-44 -55 -84 -55q-30 0 -49 18.5t-19 48.5q0 29 19 52l921 1271q52 70 119 70h4q77 0 94 -78zM1376 1622h-542q-26 0 -46 20t-20 46t20 45.5
t46 19.5h542q26 0 46 -19.5t20 -45.5t-20 -46t-46 -20z" />
    <glyph glyph-name="amacron" unicode="&#x101;" horiz-adv-x="1179" 
d="M424 100q136 0 257 89.5t159 226.5l20 73q-164 48 -344 48q-141 0 -229 -69.5t-88 -178.5q0 -85 61.5 -137t163.5 -52zM809 -10q-39 0 -55 23t-11 57l27 96q-164 -189 -395 -189q-140 0 -238 79t-98 214q0 176 131.5 279.5t339.5 103.5q177 0 377 -57l6 25q14 54 14 98
q0 104 -71.5 159.5t-214.5 55.5q-114 0 -244 -37q-15 -6 -33 -6q-28 0 -45.5 18.5t-17.5 46.5q0 52 53 68q148 49 311 49q198 0 307 -86.5t109 -241.5q0 -65 -23 -145l-141 -532q-9 -37 -32.5 -57.5t-55.5 -20.5zM1038 1260h-542q-26 0 -46 19.5t-20 45.5t20 46t46 20h542
q26 0 46 -20t20 -46t-20 -45.5t-46 -19.5z" />
    <glyph glyph-name="Abreve" unicode="&#x102;" horiz-adv-x="1529" 
d="M467 526h659l-133 734zM1128 1372l238 -1259q6 -36 6 -45q0 -32 -23 -55t-59 -23q-32 0 -54 19t-28 52l-55 318h-788l-242 -334q-44 -55 -84 -55q-30 0 -49 18.5t-19 48.5q0 29 19 52l921 1271q52 70 119 70h4q77 0 94 -78zM1085 1577q-107 0 -175 55t-68 148
q0 38 17.5 59t45.5 21q45 0 58 -45q12 -52 43.5 -79.5t101.5 -27.5q65 0 110.5 29.5t84.5 81.5q30 41 65 41q25 0 40 -14.5t15 -37.5q0 -21 -12 -39q-48 -89 -134.5 -140.5t-191.5 -51.5z" />
    <glyph glyph-name="abreve" unicode="&#x103;" horiz-adv-x="1179" 
d="M424 100q136 0 257 89.5t159 226.5l20 73q-164 48 -344 48q-141 0 -229 -69.5t-88 -178.5q0 -85 61.5 -137t163.5 -52zM809 -10q-39 0 -55 23t-11 57l27 96q-164 -189 -395 -189q-140 0 -238 79t-98 214q0 176 131.5 279.5t339.5 103.5q177 0 377 -57l6 25q14 54 14 98
q0 104 -71.5 159.5t-214.5 55.5q-114 0 -244 -37q-15 -6 -33 -6q-28 0 -45.5 18.5t-17.5 46.5q0 52 53 68q148 49 311 49q198 0 307 -86.5t109 -241.5q0 -65 -23 -145l-141 -532q-9 -37 -32.5 -57.5t-55.5 -20.5zM752 1214q-107 0 -175.5 55t-68.5 148q0 38 17.5 59t45.5 21
q45 0 58 -45q12 -51 43.5 -78.5t101.5 -27.5q114 0 195 110q30 41 65 41q25 0 40.5 -14t15.5 -37q0 -20 -13 -39q-48 -89 -134.5 -141t-190.5 -52z" />
    <glyph glyph-name="Aogonek" unicode="&#x104;" horiz-adv-x="1529" 
d="M1253 -336q-99 0 -151.5 37.5t-52.5 95.5t46 111t132 112q-15 11 -15 27l-59 332h-788l-242 -334q-44 -55 -84 -55q-30 0 -49 18.5t-19 48.5q0 29 19 52l921 1271q52 70 119 70h4q77 0 94 -78l238 -1259q6 -36 6 -45q0 -39 -33 -62q-76 -58 -112.5 -100t-36.5 -78
q0 -28 20 -43t74 -27q41 -8 41 -45q0 -49 -72 -49zM467 526h659l-133 734z" />
    <glyph glyph-name="aogonek" unicode="&#x105;" horiz-adv-x="1179" 
d="M854 2q-75 -57 -109 -97.5t-34 -76.5q0 -28 20 -43t74 -27q41 -8 41 -45q0 -49 -72 -49q-99 0 -153 37.5t-54 95.5q0 59 48.5 114t136.5 114v16q-6 6 18 125q-164 -189 -395 -189q-140 0 -238 79t-98 214q0 176 131.5 279.5t339.5 103.5q177 0 377 -57l6 25q14 54 14 98
q0 104 -71.5 159.5t-214.5 55.5q-114 0 -244 -37q-15 -6 -33 -6q-28 0 -45.5 18.5t-17.5 46.5q0 52 53 68q148 49 311 49q198 0 307 -86.5t109 -241.5q0 -65 -23 -145l-141 -532q-10 -40 -43 -66zM424 100q136 0 257 89.5t159 226.5l20 73q-164 48 -344 48
q-141 0 -229 -69.5t-88 -178.5q0 -85 61.5 -137t163.5 -52z" />
    <glyph glyph-name="Cacute" unicode="&#x106;" horiz-adv-x="1505" 
d="M1384 1759l-198 -147q-47 -39 -105 -39q-45 0 -45 31q0 13 15 32l174 189q17 17 24.5 23.5t21 13t29.5 6.5q36 0 74.5 -21.5t38.5 -42.5q0 -22 -29 -45zM1300 172q-217 -199 -516 -199q-170 0 -307.5 70.5t-220 207t-82.5 316.5q0 171 68.5 334t183 285.5t274.5 197
t334 74.5q163 0 288.5 -63t201.5 -170q28 -35 28 -70q-2 -33 -25 -56t-57 -22q-43 0 -61 29q-68 98 -157.5 150.5t-231.5 52.5q-136 0 -262 -62t-216 -163.5t-144 -236t-54 -274.5q0 -204 125.5 -326t323.5 -122q125 0 218 40t187 122q31 22 57 22q32 0 54 -22.5t22 -53.5
q0 -30 -31 -61z" />
    <glyph glyph-name="cacute" unicode="&#x107;" horiz-adv-x="1150" 
d="M1075 1397l-198 -148q-47 -39 -105 -39q-45 0 -45 31q0 15 14 33l174 188q16 16 24.5 23t22 13.5t29.5 6.5q36 0 74.5 -21t38.5 -42q0 -22 -29 -45zM948 121q-172 -146 -381 -146q-126 0 -231.5 54t-171.5 161t-66 248q0 170 85 318.5t229 236.5t309 88q249 0 381 -186
q26 -30 26 -64q0 -29 -21 -50t-52 -21q-39 0 -64 31q-102 151 -280 151q-118 0 -222.5 -69.5t-166.5 -185t-62 -245.5q0 -151 92 -239t223 -88q148 0 279 110q25 19 53 19q29 0 47.5 -19.5t18.5 -48.5q0 -30 -25 -55z" />
    <glyph glyph-name="Cdotaccent" unicode="&#x10a;" horiz-adv-x="1505" 
d="M1300 172q-217 -199 -516 -199q-170 0 -307.5 70.5t-220 207t-82.5 316.5q0 171 68.5 334t183 285.5t274.5 197t334 74.5q163 0 288.5 -63t201.5 -170q28 -35 28 -70q-2 -33 -25 -56t-57 -22q-43 0 -61 29q-68 98 -157.5 150.5t-231.5 52.5q-136 0 -262 -62t-216 -163.5
t-144 -236t-54 -274.5q0 -204 125.5 -326t323.5 -122q125 0 218 40t187 122q31 22 57 22q32 0 54 -22.5t22 -53.5q0 -30 -31 -61zM1124 1790q41 0 65.5 -27t14.5 -63l-14 -51q-9 -37 -38 -58.5t-69 -21.5q-42 0 -65 26t-14 64l14 51q9 37 37.5 58.5t68.5 21.5z" />
    <glyph glyph-name="cdotaccent" unicode="&#x10b;" horiz-adv-x="1150" 
d="M948 121q-172 -146 -381 -146q-126 0 -231.5 54t-171.5 161t-66 248q0 170 85 318.5t229 236.5t309 88q249 0 381 -186q26 -30 26 -64q0 -29 -21 -50t-52 -21q-39 0 -64 31q-102 151 -280 151q-118 0 -222.5 -69.5t-166.5 -185t-62 -245.5q0 -151 92 -239t223 -88
q148 0 279 110q25 19 53 19q29 0 47.5 -19.5t18.5 -48.5q0 -30 -25 -55zM815 1427q41 0 65.5 -27t14.5 -63l-14 -51q-9 -37 -38 -58.5t-69 -21.5q-42 0 -65.5 26t-14.5 64l15 52q9 37 37.5 58t68.5 21z" />
    <glyph glyph-name="Ccaron" unicode="&#x10c;" horiz-adv-x="1505" 
d="M995 1622l-94 170q-14 33 -14 37q0 12 11.5 20.5t29.5 8.5q33 0 54 -7t42 -32l86 -107l154 109q53 37 102 37q18 0 27.5 -8t9.5 -19q0 -18 -21 -39l-186 -172q-44 -47 -92 -47h-33q-51 0 -76 49zM1300 172q-217 -199 -516 -199q-170 0 -307.5 70.5t-220 207t-82.5 316.5
q0 171 68.5 334t183 285.5t274.5 197t334 74.5q163 0 288.5 -63t201.5 -170q28 -35 28 -70q-2 -33 -25 -56t-57 -22q-43 0 -61 29q-68 98 -157.5 150.5t-231.5 52.5q-136 0 -262 -62t-216 -163.5t-144 -236t-54 -274.5q0 -204 125.5 -326t323.5 -122q125 0 218 40t187 122
q31 22 57 22q32 0 54 -22.5t22 -53.5q0 -30 -31 -61z" />
    <glyph glyph-name="ccaron" unicode="&#x10d;" horiz-adv-x="1150" 
d="M686 1260l-94 170q-14 33 -14 36q0 12 11 20.5t29 8.5q33 0 54.5 -7t42.5 -32l86 -106l153 108q53 37 103 37q18 0 27.5 -8t9.5 -19q0 -17 -21 -38l-186 -173q-44 -47 -92 -47h-33q-50 0 -76 50zM948 121q-172 -146 -381 -146q-126 0 -231.5 54t-171.5 161t-66 248
q0 170 85 318.5t229 236.5t309 88q249 0 381 -186q26 -30 26 -64q0 -29 -21 -50t-52 -21q-39 0 -64 31q-102 151 -280 151q-118 0 -222.5 -69.5t-166.5 -185t-62 -245.5q0 -151 92 -239t223 -88q148 0 279 110q25 19 53 19q29 0 47.5 -19.5t18.5 -48.5q0 -30 -25 -55z" />
    <glyph glyph-name="Dcaron" unicode="&#x10e;" horiz-adv-x="1583" 
d="M907 1602l-94 170q-14 33 -14 36q0 12 11.5 20.5t29.5 8.5q33 0 54 -7t42 -32l86 -106l154 108q53 37 102 37q18 0 27.5 -8t9.5 -19q0 -17 -21 -38l-186 -173q-44 -47 -92 -47h-33q-50 0 -76 50zM264 150h303q179 0 331 58t261 167q180 180 180 446q0 201 -120 318
q-145 145 -437 145h-213zM516 1434h277q179 0 322 -49t237 -142q155 -155 155 -412q0 -331 -225 -559q-130 -130 -319 -201t-416 -71h-393q-38 0 -59 27t-9 67l338 1258q9 37 34.5 59.5t57.5 22.5z" />
    <glyph glyph-name="dcaron" unicode="&#x10f;" horiz-adv-x="1349" 
d="M1491 1198l82 240q21 61 86 61h33q37 0 37 -29q0 -16 -21 -51l-135 -231q-12 -22 -24 -30.5t-31 -8.5q-31 0 -31 25q0 4 4 24zM567 115q116 0 225.5 70t177.5 186t68 243q0 140 -91.5 234t-235.5 94q-123 0 -225.5 -69.5t-160 -185t-57.5 -249.5q0 -147 83 -235t216 -88z
M961 -10q-35 0 -53 22t-15 56l29 112q-178 -205 -400 -205q-182 0 -301 125t-119 324q0 137 49.5 260.5t131.5 209.5t190 136.5t223 50.5q152 0 251.5 -73t146.5 -189l161 608q22 78 88 78q39 0 56.5 -27t7.5 -71l-356 -1339q-22 -78 -90 -78z" />
    <glyph glyph-name="Dcroat" unicode="&#x110;" horiz-adv-x="1638" 
d="M571 1434h279q178 0 321.5 -49.5t235.5 -141.5q158 -158 158 -412q0 -331 -228 -559q-130 -130 -319 -201t-416 -71h-393q-38 0 -58 27t-10 67l148 553h-72q-31 0 -52.5 21.5t-21.5 52.5t21.5 52.5t52.5 21.5h113l149 557q9 37 34.5 59.5t57.5 22.5zM319 150h304
q179 0 331 58t263 167q178 178 178 446q0 199 -119 318q-148 145 -438 145h-213l-131 -489h340q30 0 51.5 -21.5t21.5 -52.5t-21.5 -52.5t-51.5 -21.5h-381z" />
    <glyph glyph-name="dcroat" unicode="&#x111;" horiz-adv-x="1349" 
d="M961 -10q-35 0 -53 22t-15 56l29 112q-178 -205 -400 -205q-182 0 -301 125t-119 324q0 137 49.5 260.5t131.5 209.5t190 136.5t223 50.5q152 0 251.5 -73t146.5 -189l114 434h-299q-23 0 -40 17.5t-17 40.5t17 39t40 16h330l16 61q22 78 88 78q39 0 56.5 -27t7.5 -71
l-12 -41h82q23 0 40 -16t17 -39t-17 -40.5t-40 -17.5h-111l-315 -1185q-22 -78 -90 -78zM567 115q116 0 225.5 70t177.5 186t68 243q0 140 -91.5 234t-235.5 94q-123 0 -225.5 -69.5t-160 -185t-57.5 -249.5q0 -147 83 -235t216 -88z" />
    <glyph glyph-name="Emacron" unicode="&#x112;" horiz-adv-x="1337" 
d="M1051 0h-897q-38 0 -59 27t-9 67l338 1258q9 37 34.5 59.5t57.5 22.5h870q31 0 52.5 -21.5t21.5 -52.5t-21.5 -52.5t-52.5 -21.5h-819l-131 -489h686q30 0 52 -22t22 -52q0 -31 -21.5 -52.5t-52.5 -21.5h-725l-135 -502h789q31 0 52 -21t21 -52t-21 -52.5t-52 -21.5z
M1284 1602h-543q-26 0 -45.5 19.5t-19.5 45.5t19.5 46t45.5 20h543q26 0 46 -20t20 -46t-20 -45.5t-46 -19.5z" />
    <glyph glyph-name="emacron" unicode="&#x113;" horiz-adv-x="1206" 
d="M279 594h682q10 30 10 82q0 117 -67.5 194.5t-196.5 77.5q-152 0 -267.5 -101t-160.5 -253zM575 113q165 0 287 98q28 16 53 16q28 0 46 -17.5t18 -45.5q0 -34 -31 -58q-164 -131 -381 -131q-210 0 -339.5 125t-129.5 326q0 121 47.5 239t128 210t196.5 149t245 57
q193 0 301 -115.5t108 -289.5q0 -57 -14 -129q-16 -72 -86 -72h-766q0 -8 -1 -25.5t-1 -25.5q2 -141 88.5 -226t230.5 -85zM1079 1260h-542q-26 0 -46 19.5t-20 45.5t20 46t46 20h542q26 0 46 -20t20 -46t-20 -45.5t-46 -19.5z" />
    <glyph glyph-name="Ebreve" unicode="&#x114;" horiz-adv-x="1337" 
d="M1051 0h-897q-38 0 -59 27t-9 67l338 1258q9 37 34.5 59.5t57.5 22.5h870q31 0 52.5 -21.5t21.5 -52.5t-21.5 -52.5t-52.5 -21.5h-819l-131 -489h686q30 0 52 -22t22 -52q0 -31 -21.5 -52.5t-52.5 -21.5h-725l-135 -502h789q31 0 52 -21t21 -52t-21 -52.5t-52 -21.5z
M995 1556q-107 0 -175 55t-68 148q0 38 17.5 59t45.5 21q44 0 57 -45q12 -51 44 -78.5t102 -27.5q65 0 110 29t84 81q30 41 66 41q25 0 40 -14t15 -37q0 -21 -12 -39q-48 -89 -134.5 -141t-191.5 -52z" />
    <glyph glyph-name="ebreve" unicode="&#x115;" horiz-adv-x="1206" 
d="M279 594h682q10 30 10 82q0 117 -67.5 194.5t-196.5 77.5q-152 0 -267.5 -101t-160.5 -253zM575 113q165 0 287 98q28 16 53 16q28 0 46 -17.5t18 -45.5q0 -34 -31 -58q-164 -131 -381 -131q-210 0 -339.5 125t-129.5 326q0 121 47.5 239t128 210t196.5 149t245 57
q193 0 301 -115.5t108 -289.5q0 -57 -14 -129q-16 -72 -86 -72h-766q0 -8 -1 -25.5t-1 -25.5q2 -141 88.5 -226t230.5 -85zM791 1214q-107 0 -175.5 55t-68.5 148q0 38 17.5 59t45.5 21q45 0 58 -45q12 -51 43.5 -78.5t101.5 -27.5q114 0 195 110q30 41 65 41q25 0 40 -14
t15 -37q0 -21 -12 -39q-48 -89 -134.5 -141t-190.5 -52z" />
    <glyph glyph-name="Edotaccent" unicode="&#x116;" horiz-adv-x="1337" 
d="M1051 0h-897q-38 0 -59 27t-9 67l338 1258q9 37 34.5 59.5t57.5 22.5h870q31 0 52.5 -21.5t21.5 -52.5t-21.5 -52.5t-52.5 -21.5h-819l-131 -489h686q30 0 52 -22t22 -52q0 -31 -21.5 -52.5t-52.5 -21.5h-725l-135 -502h789q31 0 52 -21t21 -52t-21 -52.5t-52 -21.5z
M1028 1769q41 0 65.5 -27t14.5 -63l-14 -51q-9 -37 -38 -58.5t-69 -21.5q-42 0 -65.5 26t-14.5 64l15 52q9 37 37.5 58t68.5 21z" />
    <glyph glyph-name="edotaccent" unicode="&#x117;" horiz-adv-x="1206" 
d="M279 594h682q10 30 10 82q0 117 -67.5 194.5t-196.5 77.5q-152 0 -267.5 -101t-160.5 -253zM575 113q165 0 287 98q28 16 53 16q28 0 46 -17.5t18 -45.5q0 -34 -31 -58q-164 -131 -381 -131q-210 0 -339.5 125t-129.5 326q0 121 47.5 239t128 210t196.5 149t245 57
q193 0 301 -115.5t108 -289.5q0 -57 -14 -129q-16 -72 -86 -72h-766q0 -8 -1 -25.5t-1 -25.5q2 -141 88.5 -226t230.5 -85zM825 1427q41 0 65.5 -27t14.5 -63l-14 -51q-9 -37 -38 -58.5t-69 -21.5q-42 0 -65 26t-14 64l14 52q9 37 37.5 58t68.5 21z" />
    <glyph glyph-name="Eogonek" unicode="&#x118;" horiz-adv-x="1337" 
d="M1081 4q-81 -60 -116 -100t-35 -76q0 -28 20 -43t74 -27q44 -9 41 -45q0 -49 -72 -49q-98 0 -151.5 37.5t-53.5 95.5q0 96 150 203h-784q-38 0 -59 27t-9 67l338 1258q9 37 34.5 59.5t57.5 22.5h870q31 0 52.5 -21.5t21.5 -52.5t-21.5 -52.5t-52.5 -21.5h-819l-131 -489
h686q30 0 52 -22t22 -52q0 -31 -21.5 -52.5t-52.5 -21.5h-725l-135 -502h789q32 0 52.5 -20t20.5 -51q0 -40 -43 -72z" />
    <glyph glyph-name="eogonek" unicode="&#x119;" horiz-adv-x="1206" 
d="M811 0q-77 -61 -107 -98.5t-30 -73.5q0 -28 20 -43t74 -27q41 -8 41 -45q0 -49 -72 -49q-99 0 -153 37.5t-54 95.5q0 92 125 185q-51 -7 -88 -7q-210 0 -339.5 125t-129.5 326q0 121 47.5 239t128 210t196.5 149t245 57q193 0 301 -115.5t108 -289.5q0 -57 -14 -129
q-16 -72 -86 -72h-766q0 -8 -1 -25.5t-1 -25.5q2 -141 88.5 -226t230.5 -85q165 0 287 98q28 16 53 16q28 0 46 -17.5t18 -45.5q0 -34 -31 -58q-14 -11 -61.5 -46.5t-75.5 -59.5zM279 594h682q10 30 10 82q0 117 -67.5 194.5t-196.5 77.5q-152 0 -267.5 -101t-160.5 -253z
" />
    <glyph glyph-name="Ecaron" unicode="&#x11a;" horiz-adv-x="1337" 
d="M901 1602l-94 170q-14 33 -14 36q0 12 11.5 20.5t29.5 8.5q33 0 54 -7t42 -32l86 -106l153 108q53 37 103 37q18 0 27.5 -8t9.5 -19q0 -17 -21 -38l-186 -173q-44 -47 -92 -47h-33q-50 0 -76 50zM1051 0h-897q-38 0 -59 27t-9 67l338 1258q9 37 34.5 59.5t57.5 22.5h870
q31 0 52.5 -21.5t21.5 -52.5t-21.5 -52.5t-52.5 -21.5h-819l-131 -489h686q30 0 52 -22t22 -52q0 -31 -21.5 -52.5t-52.5 -21.5h-725l-135 -502h789q31 0 52 -21t21 -52t-21 -52.5t-52 -21.5z" />
    <glyph glyph-name="ecaron" unicode="&#x11b;" horiz-adv-x="1206" 
d="M696 1260l-94 170q-14 33 -14 36q0 12 11.5 20.5t29.5 8.5q33 0 54 -7t42 -32l86 -106l154 108q53 37 102 37q18 0 27.5 -8t9.5 -19q0 -17 -21 -38l-186 -173q-44 -47 -92 -47h-33q-50 0 -76 50zM279 594h682q10 30 10 82q0 117 -67.5 194.5t-196.5 77.5
q-152 0 -267.5 -101t-160.5 -253zM575 113q165 0 287 98q28 16 53 16q28 0 46 -17.5t18 -45.5q0 -34 -31 -58q-164 -131 -381 -131q-210 0 -339.5 125t-129.5 326q0 121 47.5 239t128 210t196.5 149t245 57q193 0 301 -115.5t108 -289.5q0 -57 -14 -129q-16 -72 -86 -72
h-766q0 -8 -1 -25.5t-1 -25.5q2 -141 88.5 -226t230.5 -85z" />
    <glyph glyph-name="Gbreve" unicode="&#x11e;" horiz-adv-x="1605" 
d="M1477 670l-140 -484q-14 -61 -71 -94q-207 -119 -455 -119q-131 0 -246 42t-202 118.5t-137 193t-50 257.5q0 131 42.5 260t123 239t187 194.5t244 132.5t284.5 48q320 0 491 -198q31 -31 31 -68q0 -33 -22 -56.5t-56 -23.5q-30 0 -57 27q-141 172 -402 172
q-116 0 -224.5 -40t-192.5 -110t-147.5 -160.5t-97.5 -196.5t-34 -214q0 -218 131 -342.5t344 -124.5q210 0 371 100l113 398h-359q-31 0 -52.5 21t-21.5 50q0 31 21.5 52.5t52.5 21.5h461q40 0 60.5 -28t9.5 -68zM1114 1577q-107 0 -175.5 55t-68.5 148q0 37 18 58.5
t46 21.5q44 0 57 -45q12 -52 44 -79.5t102 -27.5q65 0 110 29t84 82q30 41 66 41q25 0 40 -14.5t15 -37.5q0 -21 -12 -39q-48 -89 -134.5 -140.5t-191.5 -51.5z" />
    <glyph glyph-name="gbreve" unicode="&#x11f;" horiz-adv-x="1349" 
d="M588 217q117 0 222 61t167.5 159.5t62.5 205.5q0 123 -89 211t-236 88q-112 0 -212 -56t-162 -158.5t-62 -225.5q0 -134 90 -209.5t219 -75.5zM1096 827l43 164q21 78 88 78q37 0 55 -27t8 -71l-217 -819q-33 -121 -73.5 -198.5t-98.5 -135.5q-150 -150 -409 -150
t-467 148q-39 25 -39 67q0 29 19.5 49.5t49.5 20.5q28 0 54 -16q178 -134 380 -134q193 0 297 109q85 81 134 254l28 106q-88 -90 -185.5 -140t-219.5 -50q-84 0 -160.5 27t-137 76.5t-96.5 126.5t-36 169q0 128 51 241.5t134.5 191t190.5 122.5t218 45q66 0 122 -14.5
t96 -38t74 -57.5t56 -68t41 -76zM864 1214q-107 0 -175 55t-68 148q0 38 17.5 59t45.5 21q44 0 57 -45q12 -51 44 -78.5t102 -27.5q65 0 110 29t84 81q30 41 66 41q25 0 40 -14t15 -37q0 -21 -12 -39q-48 -89 -134.5 -141t-191.5 -52z" />
    <glyph glyph-name="Gdotaccent" unicode="&#x120;" horiz-adv-x="1605" 
d="M1477 670l-140 -484q-14 -61 -71 -94q-207 -119 -455 -119q-131 0 -246 42t-202 118.5t-137 193t-50 257.5q0 131 42.5 260t123 239t187 194.5t244 132.5t284.5 48q320 0 491 -198q31 -31 31 -68q0 -33 -22 -56.5t-56 -23.5q-30 0 -57 27q-141 172 -402 172
q-116 0 -224.5 -40t-192.5 -110t-147.5 -160.5t-97.5 -196.5t-34 -214q0 -218 131 -342.5t344 -124.5q210 0 371 100l113 398h-359q-31 0 -52.5 21t-21.5 50q0 31 21.5 52.5t52.5 21.5h461q40 0 60.5 -28t9.5 -68zM1149 1790q41 0 65.5 -27t14.5 -63l-15 -51
q-9 -37 -37.5 -58.5t-68.5 -21.5q-42 0 -65.5 26t-14.5 64l14 51q9 37 38 58.5t69 21.5z" />
    <glyph glyph-name="gdotaccent" unicode="&#x121;" horiz-adv-x="1349" 
d="M588 217q117 0 222 61t167.5 159.5t62.5 205.5q0 123 -89 211t-236 88q-112 0 -212 -56t-162 -158.5t-62 -225.5q0 -134 90 -209.5t219 -75.5zM1096 827l43 164q21 78 88 78q37 0 55 -27t8 -71l-217 -819q-33 -121 -73.5 -198.5t-98.5 -135.5q-150 -150 -409 -150
t-467 148q-39 25 -39 67q0 29 19.5 49.5t49.5 20.5q28 0 54 -16q178 -134 380 -134q193 0 297 109q85 81 134 254l28 106q-88 -90 -185.5 -140t-219.5 -50q-84 0 -160.5 27t-137 76.5t-96.5 126.5t-36 169q0 128 51 241.5t134.5 191t190.5 122.5t218 45q66 0 122 -14.5
t96 -38t74 -57.5t56 -68t41 -76zM899 1427q41 0 65.5 -27t14.5 -63l-14 -51q-9 -37 -38 -58.5t-69 -21.5q-42 0 -65.5 26t-14.5 64l15 52q9 37 37.5 58t68.5 21z" />
    <glyph glyph-name="Gcommaaccent" unicode="&#x122;" horiz-adv-x="1605" 
d="M616 -317q-67 13 -67 67q0 44 28.5 79.5t77.5 35.5q41 0 63.5 -22.5t22.5 -65.5q0 -47 -23.5 -102t-60.5 -91q-39 -39 -91 -60.5t-101 -21.5q-33 0 -33 27q0 29 43 37q62 13 95.5 41t45.5 76zM1477 670l-140 -484q-14 -61 -71 -94q-207 -119 -455 -119q-131 0 -246 42
t-202 118.5t-137 193t-50 257.5q0 131 42.5 260t123 239t187 194.5t244 132.5t284.5 48q320 0 491 -198q31 -31 31 -68q0 -33 -22 -56.5t-56 -23.5q-30 0 -57 27q-141 172 -402 172q-116 0 -224.5 -40t-192.5 -110t-147.5 -160.5t-97.5 -196.5t-34 -214q0 -218 131 -342.5
t344 -124.5q210 0 371 100l113 398h-359q-31 0 -52.5 21t-21.5 50q0 31 21.5 52.5t52.5 21.5h461q40 0 60.5 -28t9.5 -68z" />
    <glyph glyph-name="gcommaaccent" unicode="&#x123;" horiz-adv-x="1349" 
d="M899 1386q68 -13 68 -67q0 -44 -29 -79.5t-78 -35.5q-41 0 -63.5 22.5t-22.5 65.5q0 47 23.5 102t60.5 91q39 39 91.5 60.5t101.5 21.5q32 0 32 -27q0 -29 -43 -37q-62 -13 -95.5 -41t-45.5 -76zM588 217q117 0 222 61t167.5 159.5t62.5 205.5q0 123 -89 211t-236 88
q-112 0 -212 -56t-162 -158.5t-62 -225.5q0 -134 90 -209.5t219 -75.5zM1096 827l43 164q21 78 88 78q37 0 55 -27t8 -71l-217 -819q-33 -121 -73.5 -198.5t-98.5 -135.5q-150 -150 -409 -150t-467 148q-39 25 -39 67q0 29 19.5 49.5t49.5 20.5q28 0 54 -16
q178 -134 380 -134q193 0 297 109q85 81 134 254l28 106q-88 -90 -185.5 -140t-219.5 -50q-84 0 -160.5 27t-137 76.5t-96.5 126.5t-36 169q0 128 51 241.5t134.5 191t190.5 122.5t218 45q66 0 122 -14.5t96 -38t74 -57.5t56 -68t41 -76z" />
    <glyph glyph-name="Hbar" unicode="&#x126;" horiz-adv-x="1548" 
d="M1565 1343l-47 -172h77q26 0 46 -19t20 -44q0 -26 -20 -45t-46 -19h-112l-262 -976q-9 -37 -32.5 -57.5t-55.5 -20.5q-39 0 -59.5 27.5t-8.5 72.5l149 555h-817l-155 -577q-11 -37 -34.5 -57.5t-55.5 -20.5q-39 0 -59.5 27.5t-8.5 72.5l256 954h-76q-26 0 -45.5 19
t-19.5 45q0 25 19.5 44t45.5 19h111l53 195q9 37 32.5 57.5t55.5 20.5q38 0 59 -27.5t9 -73.5l-47 -172h817l53 195q11 37 34.5 57.5t55.5 20.5q38 0 59 -27.5t9 -73.5zM438 797h817l66 247h-817z" />
    <glyph glyph-name="hbar" unicode="&#x127;" horiz-adv-x="1255" 
d="M1110 590l-139 -522q-9 -37 -31.5 -57.5t-54.5 -20.5q-39 0 -57.5 27t-6.5 71l135 512q17 60 17 119q0 104 -63.5 162.5t-174.5 58.5q-124 0 -233 -96.5t-150 -245.5l-141 -530q-9 -37 -32.5 -57.5t-55.5 -20.5q-37 0 -55.5 27t-8.5 71l312 1165h-82q-23 0 -39.5 17.5
t-16.5 40.5t16.5 39t39.5 16h112l17 61q22 78 88 78q38 0 55.5 -27t7.5 -71l-12 -41h301q23 0 39 -16t16 -39q0 -24 -16 -41t-39 -17h-330l-98 -366q81 92 168.5 143t200.5 51q154 0 246 -88.5t92 -238.5q0 -58 -27 -164z" />
    <glyph glyph-name="Imacron" unicode="&#x12a;" horiz-adv-x="595" 
d="M598 1343l-342 -1275q-11 -37 -34.5 -57.5t-55.5 -20.5q-39 0 -59.5 27.5t-8.5 72.5l344 1276q9 37 32.5 57.5t55.5 20.5q38 0 59 -27.5t9 -73.5zM877 1602h-543q-26 0 -46 19.5t-20 45.5t20 46t46 20h543q26 0 45.5 -20t19.5 -46t-19.5 -45.5t-45.5 -19.5z" />
    <glyph glyph-name="imacron" unicode="&#x12b;" horiz-adv-x="540" 
d="M467 971l-242 -903q-22 -78 -88 -78q-38 0 -55.5 27t-7.5 71l241 903q22 78 88 78q39 0 57.5 -27t6.5 -71zM758 1260h-543q-26 0 -45.5 19.5t-19.5 45.5t19.5 46t45.5 20h543q26 0 45.5 -20t19.5 -46t-19.5 -45.5t-45.5 -19.5z" />
    <glyph glyph-name="Ibreve" unicode="&#x12c;" horiz-adv-x="595" 
d="M598 1343l-342 -1275q-11 -37 -34.5 -57.5t-55.5 -20.5q-39 0 -59.5 27.5t-8.5 72.5l344 1276q9 37 32.5 57.5t55.5 20.5q38 0 59 -27.5t9 -73.5zM588 1556q-107 0 -175.5 55t-68.5 148q0 37 18 58.5t46 21.5q44 0 57 -45q12 -51 43.5 -78.5t101.5 -27.5q114 0 195 110
q30 41 65 41q25 0 40.5 -14t15.5 -37q0 -20 -13 -39q-48 -89 -134.5 -141t-190.5 -52z" />
    <glyph glyph-name="ibreve" unicode="&#x12d;" horiz-adv-x="540" 
d="M467 971l-242 -903q-22 -78 -88 -78q-38 0 -55.5 27t-7.5 71l241 903q22 78 88 78q39 0 57.5 -27t6.5 -71zM467 1214q-107 0 -175.5 55t-68.5 148q0 37 18 58.5t46 21.5q44 0 57 -45q12 -51 43.5 -78.5t101.5 -27.5q114 0 195 110q30 41 66 41q25 0 40 -14t15 -37
q0 -21 -12 -39q-48 -89 -134.5 -141t-191.5 -52z" />
    <glyph glyph-name="Iogonek" unicode="&#x12e;" horiz-adv-x="595" 
d="M129 -336q-98 0 -151.5 37.5t-53.5 95.5t47.5 112t134.5 114q-16 26 -8 67l344 1276q9 37 32.5 57.5t55.5 20.5q38 0 59 -27.5t9 -73.5l-342 -1275q-13 -40 -45 -66q-77 -59 -111 -98.5t-34 -75.5q0 -28 20.5 -43t73.5 -27q43 -9 43 -45q-3 -49 -74 -49z" />
    <glyph glyph-name="iogonek" unicode="&#x12f;" horiz-adv-x="540" 
d="M586 1354q-9 -35 -37.5 -54.5t-67.5 -19.5q-41 0 -64 23t-16 57l11 43q9 33 37 52.5t67 19.5q42 0 64.5 -22.5t15.5 -57.5zM467 971l-242 -903q-10 -40 -43 -66q-76 -57 -110.5 -97.5t-34.5 -76.5q0 -28 20.5 -43t73.5 -27q43 -9 43 -45q-3 -49 -74 -49q-98 0 -151 37.5
t-53 95.5q0 59 48.5 114t135.5 114q-11 17 -8 43q0 14 2 20l241 903q22 78 88 78q39 0 57.5 -27t6.5 -71z" />
    <glyph glyph-name="Idotaccent" unicode="&#x130;" horiz-adv-x="595" 
d="M598 1343l-342 -1275q-11 -37 -34.5 -57.5t-55.5 -20.5q-39 0 -59.5 27.5t-8.5 72.5l344 1276q9 37 32.5 57.5t55.5 20.5q38 0 59 -27.5t9 -73.5zM625 1769q41 0 65.5 -27t14.5 -63l-15 -51q-9 -37 -37.5 -58.5t-68.5 -21.5q-42 0 -65.5 26t-14.5 64l14 52q9 37 38 58
t69 21z" />
    <glyph glyph-name="dotlessi" unicode="&#x131;" horiz-adv-x="540" 
d="M467 971l-242 -903q-22 -78 -88 -78q-38 0 -55.5 27t-7.5 71l241 903q22 78 88 78q39 0 57.5 -27t6.5 -71z" />
    <glyph glyph-name="Kcommaaccent" unicode="&#x136;" horiz-adv-x="1470" 
d="M547 -305q-68 13 -68 67q0 44 29 79.5t78 35.5q41 0 63.5 -22.5t22.5 -65.5q0 -47 -23.5 -101.5t-60.5 -90.5q-39 -39 -91.5 -60.5t-101.5 -21.5q-33 0 -33 26q0 28 44 37q62 13 95.5 41t45.5 76zM322 367l-80 -299q-11 -37 -34.5 -57.5t-55.5 -20.5q-39 0 -59.5 27.5
t-8.5 72.5l344 1276q9 37 32.5 57.5t55.5 20.5q38 0 59 -27.5t9 -73.5l-203 -761l1016 831q34 31 67 31t53.5 -21.5t20.5 -52.5q0 -37 -33 -63l-631 -510l353 -674q16 -37 16 -57q0 -32 -24.5 -54t-55.5 -22q-60 0 -84 57l-340 658z" />
    <glyph glyph-name="kcommaaccent" unicode="&#x137;" horiz-adv-x="1163" 
d="M375 -315q-68 13 -68 67q0 44 29 79.5t78 35.5q41 0 63.5 -22.5t22.5 -65.5q0 -47 -23.5 -102t-60.5 -91q-39 -39 -91.5 -60.5t-101.5 -21.5q-33 0 -33 27q0 29 43 37q119 25 142 117zM569 1407l-250 -936l713 569q33 29 64 29q29 0 47 -18t18 -47q0 -35 -33 -58
l-444 -350l242 -475q18 -36 18 -58q0 -32 -24 -52.5t-56 -20.5q-54 0 -82 57l-231 451l-285 -226l-55 -204q-9 -37 -32.5 -57.5t-55.5 -20.5q-37 0 -55.5 27t-8.5 71l361 1339q9 37 31.5 57.5t54.5 20.5q39 0 57 -27t6 -71z" />
    <glyph glyph-name="Lacute" unicode="&#x139;" horiz-adv-x="1243" 
d="M893 1739l-199 -148q-47 -39 -104 -39q-45 0 -45 31q0 16 14 33l174 188q16 16 24.5 23t22 13.5t29.5 6.5q36 0 74.5 -21t38.5 -42q0 -22 -29 -45zM985 0h-831q-38 0 -59 27t-9 67l342 1272q9 37 32.5 57.5t55.5 20.5q38 0 59 -27.5t9 -73.5l-320 -1193h721
q31 0 52.5 -22.5t21.5 -53.5t-21.5 -52.5t-52.5 -21.5z" />
    <glyph glyph-name="lacute" unicode="&#x13a;" horiz-adv-x="540" 
d="M868 1782l-198 -148q-47 -39 -105 -39q-45 0 -45 31q0 14 15 33l174 188q17 17 24.5 23.5t21 13t29.5 6.5q36 0 74.5 -21t38.5 -42q0 -22 -29 -45zM584 1407l-359 -1339q-22 -78 -88 -78q-38 0 -55.5 27t-7.5 71l358 1339q22 78 88 78q39 0 57.5 -27t6.5 -71z" />
    <glyph glyph-name="Lcommaaccent" unicode="&#x13b;" horiz-adv-x="1243" 
d="M434 -315q-67 13 -67 67q0 44 28.5 79.5t77.5 35.5q41 0 63.5 -22.5t22.5 -65.5q0 -47 -23.5 -102t-60.5 -91q-39 -39 -91 -60.5t-101 -21.5q-33 0 -33 27q0 29 43 37q62 13 95.5 41t45.5 76zM985 0h-831q-38 0 -59 27t-9 67l342 1272q9 37 32.5 57.5t55.5 20.5
q38 0 59 -27.5t9 -73.5l-320 -1193h721q31 0 52.5 -22.5t21.5 -53.5t-21.5 -52.5t-52.5 -21.5z" />
    <glyph glyph-name="lcommaaccent" unicode="&#x13c;" horiz-adv-x="540" 
d="M53 -315q-67 13 -67 67q0 44 28.5 79.5t77.5 35.5q41 0 63.5 -22.5t22.5 -65.5q0 -47 -23.5 -102t-60.5 -91q-39 -39 -91 -60.5t-101 -21.5q-33 0 -33 27q0 29 43 37q62 13 95.5 41t45.5 76zM584 1407l-359 -1339q-22 -78 -88 -78q-38 0 -55.5 27t-7.5 71l358 1339
q22 78 88 78q39 0 57.5 -27t6.5 -71z" />
    <glyph glyph-name="Lcaron" unicode="&#x13d;" horiz-adv-x="1243" 
d="M686 1137l82 239q21 62 86 62h33q37 0 37 -29q0 -17 -21 -51l-135 -232q-12 -22 -24 -30.5t-31 -8.5q-31 0 -31 25q0 5 4 25zM985 0h-831q-38 0 -59 27t-9 67l342 1272q9 37 32.5 57.5t55.5 20.5q38 0 59 -27.5t9 -73.5l-320 -1193h721q31 0 52.5 -22.5t21.5 -53.5
t-21.5 -52.5t-52.5 -21.5z" />
    <glyph glyph-name="lcaron" unicode="&#x13e;" horiz-adv-x="540" 
d="M641 1198l82 240q21 61 86 61h33q37 0 37 -29q0 -16 -21 -51l-135 -231q-12 -22 -24 -30.5t-31 -8.5q-31 0 -31 25q0 4 4 24zM584 1407l-359 -1339q-22 -78 -88 -78q-38 0 -55.5 27t-7.5 71l358 1339q22 78 88 78q39 0 57.5 -27t6.5 -71z" />
    <glyph glyph-name="Ldot" unicode="&#x13f;" horiz-adv-x="1243" 
d="M1032 860q42 0 66.5 -27t15.5 -65l-10 -41q-9 -39 -39 -59.5t-72 -20.5q-43 0 -68 26.5t-16 65.5l11 41q9 39 38.5 59.5t73.5 20.5zM985 0h-831q-38 0 -59 27t-9 67l342 1272q9 37 32.5 57.5t55.5 20.5q38 0 59 -27.5t9 -73.5l-320 -1193h721q31 0 52.5 -22.5t21.5 -53.5
t-21.5 -52.5t-52.5 -21.5z" />
    <glyph glyph-name="ldot" unicode="&#x140;" horiz-adv-x="679" 
d="M688 860q39 0 61.5 -26.5t14.5 -63.5l-10 -39q-21 -80 -99 -80q-40 0 -62 27.5t-13 64.5l10 39q9 37 34.5 57.5t63.5 20.5zM584 1407l-359 -1339q-22 -78 -88 -78q-38 0 -55.5 27t-7.5 71l358 1339q22 78 88 78q39 0 57.5 -27t6.5 -71z" />
    <glyph glyph-name="Lslash" unicode="&#x141;" horiz-adv-x="1335" 
d="M223 729l135 39l162 598q9 37 32.5 57.5t55.5 20.5q37 0 57.5 -28t8.5 -73l-142 -526l361 103q30 6 41 6q28 0 45.5 -17.5t17.5 -46.5q0 -52 -61 -69l-444 -127l-140 -516h725q31 0 52.5 -22.5t21.5 -53.5t-21.5 -52.5t-52.5 -21.5h-831q-38 0 -59 27t-9 67l139 522
l-51 -14q-15 -6 -39 -6q-30 0 -47.5 16.5t-17.5 46.5q0 53 61 70z" />
    <glyph glyph-name="lslash" unicode="&#x142;" horiz-adv-x="661" 
d="M190 770l138 37l166 620q22 78 88 78q39 0 57 -27t6 -71l-147 -551l59 16q28 7 37 7q28 0 44.5 -18.5t16.5 -47.5q0 -55 -57 -70l-141 -41l-170 -634q-22 -78 -88 -78q-39 0 -56.5 27t-7.5 71l152 567l-56 -14q-24 -6 -36 -6q-28 0 -45 18t-17 47q0 55 57 70z" />
    <glyph glyph-name="Nacute" unicode="&#x143;" horiz-adv-x="1609" 
d="M1386 1739l-198 -148q-47 -39 -105 -39q-45 0 -45 31q0 14 15 33l174 188q16 16 24.5 23t22 13.5t29.5 6.5q36 0 74 -21t38 -42q0 -22 -29 -45zM1180 270l295 1096q9 37 32.5 57.5t55.5 20.5q38 0 57 -27.5t6 -73.5l-342 -1277q-19 -72 -82 -72h-4q-59 0 -88 63
l-571 1133l-301 -1122q-22 -78 -88 -78q-38 0 -58 27t-8 73l342 1270q20 80 94 80h8q62 0 101 -72z" />
    <glyph glyph-name="nacute" unicode="&#x144;" horiz-adv-x="1255" 
d="M1112 1397l-199 -148q-47 -39 -104 -39q-45 0 -45 31q0 15 14 33l174 188q16 16 24.5 23t22 13.5t29.5 6.5q36 0 74.5 -21t38.5 -42q0 -22 -29 -45zM389 1069q35 0 54 -22.5t14 -55.5l-27 -104q81 92 168.5 143t200.5 51q154 0 246 -88.5t92 -238.5q0 -58 -27 -164
l-139 -522q-9 -37 -31.5 -57.5t-54.5 -20.5q-39 0 -57.5 27t-6.5 71l135 512q17 60 17 119q0 104 -63.5 162.5t-174.5 58.5q-124 0 -233 -96.5t-150 -245.5l-141 -530q-9 -37 -32.5 -57.5t-55.5 -20.5q-37 0 -55.5 27t-8.5 71l242 903q19 78 88 78z" />
    <glyph glyph-name="Ncommaaccent" unicode="&#x145;" horiz-adv-x="1609" 
d="M588 -305q-68 13 -68 67q0 44 29 79.5t78 35.5q41 0 63.5 -22.5t22.5 -65.5q0 -47 -23.5 -101.5t-60.5 -90.5q-39 -39 -91.5 -60.5t-101.5 -21.5q-33 0 -33 26q0 29 43 37q119 25 142 117zM1180 270l295 1096q9 37 32.5 57.5t55.5 20.5q38 0 57 -27.5t6 -73.5l-342 -1277
q-19 -72 -82 -72h-4q-59 0 -88 63l-571 1133l-301 -1122q-22 -78 -88 -78q-38 0 -58 27t-8 73l342 1270q20 80 94 80h8q62 0 101 -72z" />
    <glyph glyph-name="ncommaaccent" unicode="&#x146;" horiz-adv-x="1255" 
d="M403 -315q-67 13 -67 67q0 44 28.5 79.5t77.5 35.5q41 0 63.5 -22.5t22.5 -65.5q0 -47 -23.5 -102t-60.5 -91q-39 -39 -91 -60.5t-101 -21.5q-33 0 -33 27q0 29 43 37q62 13 95.5 41t45.5 76zM389 1069q35 0 54 -22.5t14 -55.5l-27 -104q81 92 168.5 143t200.5 51
q154 0 246 -88.5t92 -238.5q0 -58 -27 -164l-139 -522q-9 -37 -31.5 -57.5t-54.5 -20.5q-39 0 -57.5 27t-6.5 71l135 512q17 60 17 119q0 104 -63.5 162.5t-174.5 58.5q-124 0 -233 -96.5t-150 -245.5l-141 -530q-9 -37 -32.5 -57.5t-55.5 -20.5q-37 0 -55.5 27t-8.5 71
l242 903q19 78 88 78z" />
    <glyph glyph-name="Ncaron" unicode="&#x147;" horiz-adv-x="1609" 
d="M999 1602l-94 170q-14 33 -14 36q0 12 11.5 20.5t29.5 8.5q33 0 54 -7t42 -32l86 -106l154 108q53 37 102 37q18 0 27.5 -8t9.5 -19q0 -17 -21 -38l-186 -173q-44 -47 -92 -47h-33q-50 0 -76 50zM1180 270l295 1096q9 37 32.5 57.5t55.5 20.5q38 0 57 -27.5t6 -73.5
l-342 -1277q-19 -72 -82 -72h-4q-59 0 -88 63l-571 1133l-301 -1122q-22 -78 -88 -78q-38 0 -58 27t-8 73l342 1270q20 80 94 80h8q62 0 101 -72z" />
    <glyph glyph-name="ncaron" unicode="&#x148;" horiz-adv-x="1255" 
d="M723 1260l-94 170l-5 10t-5 9.5t-3.5 8.5t-1.5 8q0 12 11.5 20.5t29.5 8.5q33 0 54.5 -7t42.5 -32l86 -106l153 108q53 37 103 37q36 0 36 -27q0 -18 -20 -38l-186 -173q-44 -47 -93 -47h-32q-50 0 -76 50zM389 1069q35 0 54 -22.5t14 -55.5l-27 -104q81 92 168.5 143
t200.5 51q154 0 246 -88.5t92 -238.5q0 -58 -27 -164l-139 -522q-9 -37 -31.5 -57.5t-54.5 -20.5q-39 0 -57.5 27t-6.5 71l135 512q17 60 17 119q0 104 -63.5 162.5t-174.5 58.5q-124 0 -233 -96.5t-150 -245.5l-141 -530q-9 -37 -32.5 -57.5t-55.5 -20.5q-37 0 -55.5 27
t-8.5 71l242 903q19 78 88 78z" />
    <glyph glyph-name="Omacron" unicode="&#x14c;" horiz-adv-x="1724" 
d="M1419 1622h-542q-26 0 -46 20t-20 46t20 45.5t46 19.5h542q26 0 46 -19.5t20 -45.5t-20 -46t-46 -20zM809 -27q-182 0 -326.5 82.5t-223.5 224.5t-79 316q0 164 65 321t175 276t266.5 192t329.5 73q136 0 254 -48t200 -131t128.5 -197.5t46.5 -243.5q0 -165 -65 -322.5
t-175 -277t-266.5 -192.5t-329.5 -73zM819 123q110 0 212 39t181.5 108t139 158t91.5 193t32 210q0 207 -129 342.5t-340 135.5q-136 0 -260 -61t-209.5 -160t-136 -227.5t-50.5 -260.5q0 -206 129 -341.5t340 -135.5z" />
    <glyph glyph-name="omacron" unicode="&#x14d;" horiz-adv-x="1306" 
d="M1126 1260h-542q-26 0 -46 19.5t-20 45.5t20 46t46 20h542q26 0 46 -20t20 -46t-20 -45.5t-46 -19.5zM582 -25q-216 0 -349 134t-133 342q0 122 50.5 237.5t134 201.5t199 138.5t239.5 52.5q216 0 349.5 -133t133.5 -340q0 -124 -51 -241t-136 -202.5t-200 -137.5
t-237 -52zM592 117q116 0 221 68t168 180.5t63 236.5q0 159 -90.5 249.5t-240.5 90.5q-89 0 -173.5 -41.5t-145 -109.5t-97.5 -156.5t-37 -179.5q0 -159 91 -248.5t241 -89.5z" />
    <glyph glyph-name="Obreve" unicode="&#x14e;" horiz-adv-x="1724" 
d="M809 -27q-182 0 -326.5 82.5t-223.5 224.5t-79 316q0 164 65 321t175 276t266.5 192t329.5 73q136 0 254 -48t200 -131t128.5 -197.5t46.5 -243.5q0 -165 -65 -322.5t-175 -277t-266.5 -192.5t-329.5 -73zM819 123q110 0 212 39t181.5 108t139 158t91.5 193t32 210
q0 207 -129 342.5t-340 135.5q-136 0 -260 -61t-209.5 -160t-136 -227.5t-50.5 -260.5q0 -206 129 -341.5t340 -135.5zM1130 1577q-107 0 -175 55t-68 148q0 38 17.5 59t45.5 21q45 0 58 -45q12 -52 43.5 -79.5t101.5 -27.5q65 0 110.5 29.5t84.5 81.5q30 41 65 41
q25 0 40 -14.5t15 -37.5q0 -21 -12 -39q-48 -89 -134.5 -140.5t-191.5 -51.5z" />
    <glyph glyph-name="obreve" unicode="&#x14f;" horiz-adv-x="1306" 
d="M582 -25q-216 0 -349 134t-133 342q0 122 50.5 237.5t134 201.5t199 138.5t239.5 52.5q216 0 349.5 -133t133.5 -340q0 -124 -51 -241t-136 -202.5t-200 -137.5t-237 -52zM592 117q116 0 221 68t168 180.5t63 236.5q0 159 -90.5 249.5t-240.5 90.5q-89 0 -173.5 -41.5
t-145 -109.5t-97.5 -156.5t-37 -179.5q0 -159 91 -248.5t241 -89.5zM838 1214q-107 0 -175.5 55t-68.5 148q0 38 17.5 59t45.5 21q45 0 58 -45q12 -51 43.5 -78.5t101.5 -27.5q114 0 195 110q30 41 65 41q25 0 40.5 -14t15.5 -37q0 -20 -13 -39q-48 -89 -134.5 -141
t-190.5 -52z" />
    <glyph glyph-name="Ohungarumlaut" unicode="&#x150;" horiz-adv-x="1724" 
d="M1108 1868q33 0 56.5 -20t23.5 -44q0 -23 -31 -47l-186 -145q-47 -39 -92 -39q-37 0 -37 29q0 18 16 34l174 189q43 43 76 43zM1444 1868q33 0 55.5 -20t22.5 -44t-29 -47l-186 -145q-47 -39 -95 -39q-34 0 -34 29q0 18 16 34l174 189q43 43 76 43zM809 -27
q-182 0 -326.5 82.5t-223.5 224.5t-79 316q0 164 65 321t175 276t266.5 192t329.5 73q136 0 254 -48t200 -131t128.5 -197.5t46.5 -243.5q0 -165 -65 -322.5t-175 -277t-266.5 -192.5t-329.5 -73zM819 123q110 0 212 39t181.5 108t139 158t91.5 193t32 210q0 207 -129 342.5
t-340 135.5q-136 0 -260 -61t-209.5 -160t-136 -227.5t-50.5 -260.5q0 -206 129 -341.5t340 -135.5z" />
    <glyph glyph-name="ohungarumlaut" unicode="&#x151;" horiz-adv-x="1306" 
d="M813 1505q33 0 56.5 -19.5t23.5 -43.5q0 -23 -31 -47l-186 -146q-47 -39 -92 -39q-37 0 -37 29q0 19 16 35l174 188q43 43 76 43zM1149 1505q33 0 55.5 -19.5t22.5 -43.5t-29 -47l-186 -146q-47 -39 -94 -39q-17 0 -26 8t-9 21q0 19 16 35l174 188q43 43 76 43zM582 -25
q-216 0 -349 134t-133 342q0 122 50.5 237.5t134 201.5t199 138.5t239.5 52.5q216 0 349.5 -133t133.5 -340q0 -124 -51 -241t-136 -202.5t-200 -137.5t-237 -52zM592 117q116 0 221 68t168 180.5t63 236.5q0 159 -90.5 249.5t-240.5 90.5q-89 0 -173.5 -41.5t-145 -109.5
t-97.5 -156.5t-37 -179.5q0 -159 91 -248.5t241 -89.5z" />
    <glyph glyph-name="OE" unicode="&#x152;" horiz-adv-x="2318" 
d="M901 150h182l306 1134h-273q-179 0 -331 -58t-263 -167q-178 -178 -178 -447q0 -198 119 -317q148 -145 438 -145zM2007 0h-1116q-368 0 -561 193q-156 156 -156 409q0 329 227 559q130 130 320 201.5t416 71.5h1204q31 0 53.5 -21.5t22.5 -52.5t-22.5 -52.5t-53.5 -21.5
h-791l-131 -489h660q29 0 51 -22.5t22 -51.5q0 -31 -22 -52.5t-51 -21.5h-699l-135 -502h762q31 0 52.5 -21t21.5 -52t-21.5 -52.5t-52.5 -21.5z" />
    <glyph glyph-name="oe" unicode="&#x153;" horiz-adv-x="2131" 
d="M1208 594h682q8 36 8 82q0 117 -67.5 194.5t-196.5 77.5q-152 0 -267.5 -101t-158.5 -253zM592 117q117 0 221.5 66.5t167.5 177t63 233.5q0 162 -90.5 255t-240.5 93q-90 0 -174 -41t-145 -108t-97.5 -155.5t-36.5 -180.5q0 -158 91 -249t241 -91zM1503 113
q163 0 287 98q28 16 55 16t44.5 -17.5t17.5 -45.5q0 -34 -31 -58q-165 -131 -377 -131q-160 0 -273.5 77.5t-152.5 209.5q-83 -128 -209.5 -207.5t-285.5 -79.5q-211 0 -344.5 134.5t-133.5 341.5q0 122 50 237.5t133.5 201.5t199 138.5t240.5 52.5q166 0 277.5 -84
t150.5 -217q81 135 204.5 218t286.5 83q193 0 301.5 -115.5t108.5 -289.5q0 -61 -16 -135q-6 -30 -26 -48t-50 -18h-774q0 -8 -1 -25.5t-1 -25.5q2 -141 88.5 -226t230.5 -85z" />
    <glyph glyph-name="Racute" unicode="&#x154;" horiz-adv-x="1468" 
d="M1245 1739l-198 -148q-47 -39 -105 -39q-45 0 -45 31q0 16 14 33l174 188q16 16 24.5 23t22 13.5t29.5 6.5q36 0 74.5 -21t38.5 -42q0 -22 -29 -45zM373 557l-131 -489q-11 -37 -34.5 -57.5t-55.5 -20.5q-39 0 -59.5 27.5t-8.5 72.5l340 1262q9 37 34.5 59.5t57.5 22.5
h447q269 0 403 -131q94 -97 94 -248q0 -182 -127 -312q-130 -130 -393 -170l246 -448q20 -36 20 -59q0 -34 -24.5 -55t-57.5 -21q-59 0 -86 53l-276 514h-389zM412 702h389q275 0 407 132q86 89 86 208q0 97 -59 156q-86 86 -281 86h-385z" />
    <glyph glyph-name="racute" unicode="&#x155;" horiz-adv-x="823" 
d="M899 1397l-199 -148q-47 -39 -104 -39q-45 0 -45 31q0 15 14 33l174 188q16 16 24.5 23t22 13.5t29.5 6.5q36 0 74.5 -21t38.5 -42q0 -22 -29 -45zM453 977l-50 -189q84 131 197 208t219 77q35 0 55.5 -20t20.5 -54q0 -73 -90 -88q-170 -25 -306 -151.5t-194 -341.5
l-94 -350q-22 -78 -88 -78q-39 0 -56.5 27t-7.5 71l242 903q9 37 31.5 57.5t54.5 20.5q38 0 56.5 -26t9.5 -66z" />
    <glyph glyph-name="Rcommaaccent" unicode="&#x156;" horiz-adv-x="1468" 
d="M516 -305q-67 13 -67 67q0 44 28.5 79.5t77.5 35.5q41 0 63.5 -22.5t22.5 -65.5q0 -47 -23.5 -101.5t-60.5 -90.5q-39 -39 -91 -60.5t-101 -21.5q-33 0 -33 26q0 29 43 37q62 13 95.5 41t45.5 76zM373 557l-131 -489q-11 -37 -34.5 -57.5t-55.5 -20.5q-39 0 -59.5 27.5
t-8.5 72.5l340 1262q9 37 34.5 59.5t57.5 22.5h447q269 0 403 -131q94 -97 94 -248q0 -182 -127 -312q-130 -130 -393 -170l246 -448q20 -36 20 -59q0 -34 -24.5 -55t-57.5 -21q-59 0 -86 53l-276 514h-389zM412 702h389q275 0 407 132q86 89 86 208q0 97 -59 156
q-86 86 -281 86h-385z" />
    <glyph glyph-name="rcommaaccent" unicode="&#x157;" horiz-adv-x="823" 
d="M53 -315q-67 13 -67 67q0 44 28.5 79.5t77.5 35.5q41 0 63.5 -22.5t22.5 -65.5q0 -47 -23.5 -102t-60.5 -91q-39 -39 -91 -60.5t-101 -21.5q-33 0 -33 27q0 29 43 37q62 13 95.5 41t45.5 76zM453 977l-50 -189q84 131 197 208t219 77q35 0 55.5 -20t20.5 -54
q0 -73 -90 -88q-170 -25 -306 -151.5t-194 -341.5l-94 -350q-22 -78 -88 -78q-39 0 -56.5 27t-7.5 71l242 903q9 37 31.5 57.5t54.5 20.5q38 0 56.5 -26t9.5 -66z" />
    <glyph glyph-name="Rcaron" unicode="&#x158;" horiz-adv-x="1468" 
d="M858 1602l-94 170q-14 33 -14 36q0 12 11.5 20.5t29.5 8.5q33 0 54 -7t42 -32l86 -106l153 108q53 37 103 37q18 0 27.5 -8t9.5 -19q0 -17 -21 -38l-186 -173q-44 -47 -92 -47h-33q-50 0 -76 50zM373 557l-131 -489q-11 -37 -34.5 -57.5t-55.5 -20.5q-39 0 -59.5 27.5
t-8.5 72.5l340 1262q9 37 34.5 59.5t57.5 22.5h447q269 0 403 -131q94 -97 94 -248q0 -182 -127 -312q-130 -130 -393 -170l246 -448q20 -36 20 -59q0 -34 -24.5 -55t-57.5 -21q-59 0 -86 53l-276 514h-389zM412 702h389q275 0 407 132q86 89 86 208q0 97 -59 156
q-86 86 -281 86h-385z" />
    <glyph glyph-name="rcaron" unicode="&#x159;" horiz-adv-x="823" 
d="M510 1260l-94 170l-5 10t-5 9.5t-3.5 8.5t-1.5 8q0 12 11.5 20.5t29.5 8.5q33 0 54.5 -7t42.5 -32l86 -106l153 108q53 37 103 37q18 0 27.5 -8t9.5 -19q0 -17 -21 -38l-186 -173q-44 -47 -93 -47h-32q-50 0 -76 50zM453 977l-50 -189q84 131 197 208t219 77
q35 0 55.5 -20t20.5 -54q0 -73 -90 -88q-170 -25 -306 -151.5t-194 -341.5l-94 -350q-22 -78 -88 -78q-39 0 -56.5 27t-7.5 71l242 903q9 37 31.5 57.5t54.5 20.5q38 0 56.5 -26t9.5 -66z" />
    <glyph glyph-name="Sacute" unicode="&#x15a;" horiz-adv-x="1304" 
d="M1212 1759l-198 -147q-47 -39 -105 -39q-45 0 -45 31q0 13 15 32l174 189q17 17 24.5 23.5t21 13t29.5 6.5q36 0 74.5 -21.5t38.5 -42.5q0 -22 -29 -45zM621 125q156 0 259 75.5t103 192.5q0 83 -64.5 140t-230.5 122q-105 41 -174 78t-120.5 82.5t-75 99.5t-23.5 123
q0 179 148.5 297.5t379.5 118.5q266 0 453 -164q37 -30 37 -67q0 -33 -23.5 -55.5t-56.5 -22.5q-31 0 -57 20q-150 144 -367 144q-155 0 -249.5 -74.5t-94.5 -177.5q0 -84 70 -139.5t247 -124.5q193 -74 282 -160t89 -219q0 -124 -72 -223.5t-196 -155t-275 -55.5
q-338 0 -536 213q-31 31 -31 67q0 35 22 58.5t54 23.5q35 0 61 -29q89 -96 193 -142t248 -46z" />
    <glyph glyph-name="sacute" unicode="&#x15b;" horiz-adv-x="1015" 
d="M975 1397l-199 -148q-47 -39 -104 -39q-45 0 -45 31q0 15 14 33l174 188q16 16 24.5 23t22 13.5t29.5 6.5q36 0 74.5 -21t38.5 -42q0 -22 -29 -45zM459 109q94 0 163.5 49.5t69.5 126.5q0 54 -44 95.5t-156 84.5q-156 61 -227.5 124t-71.5 167q0 138 110.5 231.5
t290.5 93.5q92 0 186.5 -32t155.5 -76q39 -22 39 -66q0 -29 -20.5 -49t-49.5 -20q-21 0 -45 16q-145 96 -280 96q-108 0 -169 -49t-61 -119q0 -54 44 -93t167 -87q151 -62 220 -127.5t69 -163.5q0 -146 -117.5 -240t-288.5 -94q-229 0 -411 144q-33 26 -33 63q0 29 20 50.5
t48 21.5q24 0 55 -23q154 -124 336 -124z" />
    <glyph glyph-name="Scedilla" unicode="&#x15e;" horiz-adv-x="1304" 
d="M621 125q156 0 259 75.5t103 192.5q0 83 -64.5 140t-230.5 122q-105 41 -174 78t-120.5 82.5t-75 99.5t-23.5 123q0 179 148.5 297.5t379.5 118.5q266 0 453 -164q37 -30 37 -67q0 -33 -23.5 -55.5t-56.5 -22.5q-31 0 -57 20q-150 144 -367 144q-155 0 -249.5 -74.5
t-94.5 -177.5q0 -84 70 -139.5t247 -124.5q193 -74 282 -160t89 -219q0 -124 -72 -223.5t-196 -155t-275 -55.5h-16l-182 -250q-23 -35 -60 -35q-31 0 -54.5 19t-23.5 42q0 25 23 51l174 183q-243 36 -397 203q-31 31 -31 67q0 35 22 58.5t54 23.5q35 0 61 -29
q89 -96 193 -142t248 -46z" />
    <glyph glyph-name="scedilla" unicode="&#x15f;" horiz-adv-x="1015" 
d="M459 109q94 0 163.5 49.5t69.5 126.5q0 54 -44 95.5t-156 84.5q-156 61 -227.5 124t-71.5 167q0 138 110.5 231.5t290.5 93.5q92 0 186.5 -32t155.5 -76q39 -22 39 -66q0 -29 -20.5 -49t-49.5 -20q-21 0 -45 16q-145 96 -280 96q-108 0 -169 -49t-61 -119q0 -54 44 -93
t167 -87q151 -62 220 -127.5t69 -163.5q0 -146 -117.5 -240t-288.5 -94h-8l-180 -247q-23 -35 -59 -35q-31 0 -54.5 19t-23.5 42q0 26 22 51l174 183q-159 31 -282 131q-33 26 -33 63q0 29 20 50.5t48 21.5q24 0 55 -23q154 -124 336 -124z" />
    <glyph glyph-name="Scaron" unicode="&#x160;" horiz-adv-x="1304" 
d="M823 1622l-94 170q-14 33 -14 37q0 12 11.5 20.5t29.5 8.5q33 0 54 -7t42 -32l86 -107l154 109q53 37 102 37q18 0 27.5 -8t9.5 -19q0 -18 -21 -39l-186 -172q-44 -47 -92 -47h-33q-51 0 -76 49zM621 125q156 0 259 75.5t103 192.5q0 83 -64.5 140t-230.5 122
q-105 41 -174 78t-120.5 82.5t-75 99.5t-23.5 123q0 179 148.5 297.5t379.5 118.5q266 0 453 -164q37 -30 37 -67q0 -33 -23.5 -55.5t-56.5 -22.5q-31 0 -57 20q-150 144 -367 144q-155 0 -249.5 -74.5t-94.5 -177.5q0 -84 70 -139.5t247 -124.5q193 -74 282 -160t89 -219
q0 -124 -72 -223.5t-196 -155t-275 -55.5q-338 0 -536 213q-31 31 -31 67q0 35 22 58.5t54 23.5q35 0 61 -29q89 -96 193 -142t248 -46z" />
    <glyph glyph-name="scaron" unicode="&#x161;" horiz-adv-x="1015" 
d="M588 1260l-94 170l-5 10t-5 9.5t-3.5 8.5t-1.5 8q0 12 11.5 20.5t29.5 8.5q33 0 54 -7t42 -32l86 -106l154 108q53 37 102 37q18 0 27.5 -8t9.5 -19q0 -18 -20 -38l-187 -173q-44 -47 -92 -47h-32q-50 0 -76 50zM459 109q94 0 163.5 49.5t69.5 126.5q0 54 -44 95.5
t-156 84.5q-156 61 -227.5 124t-71.5 167q0 138 110.5 231.5t290.5 93.5q92 0 186.5 -32t155.5 -76q39 -22 39 -66q0 -29 -20.5 -49t-49.5 -20q-21 0 -45 16q-145 96 -280 96q-108 0 -169 -49t-61 -119q0 -54 44 -93t167 -87q151 -62 220 -127.5t69 -163.5
q0 -146 -117.5 -240t-288.5 -94q-229 0 -411 144q-33 26 -33 63q0 29 20 50.5t48 21.5q24 0 55 -23q154 -124 336 -124z" />
    <glyph glyph-name="Tcommaaccent" unicode="&#x162;" horiz-adv-x="1261" 
d="M406 -315q-68 13 -68 67q0 44 28.5 79.5t77.5 35.5q41 0 63.5 -22.5t22.5 -65.5q0 -47 -23.5 -102t-60.5 -91q-39 -39 -91 -60.5t-101 -21.5q-33 0 -33 27q0 29 43 37q119 25 142 117zM907 1284l-325 -1216q-11 -37 -34.5 -57.5t-55.5 -20.5q-39 0 -59.5 27.5t-8.5 72.5
l321 1194h-395q-31 0 -53.5 21.5t-22.5 52.5t22.5 53.5t53.5 22.5h993q31 0 53.5 -22.5t22.5 -53.5t-22.5 -52.5t-53.5 -21.5h-436z" />
    <glyph glyph-name="tcommaaccent" unicode="&#x163;" horiz-adv-x="821" 
d="M252 -315q-68 13 -68 67q0 44 29 79.5t78 35.5q41 0 63.5 -22.5t22.5 -65.5q0 -47 -23.5 -102t-60.5 -91q-39 -39 -91.5 -60.5t-101.5 -21.5q-32 0 -32 27q0 29 43 37q62 13 95.5 41t45.5 76zM375 1059l67 252q19 78 88 78q37 0 55.5 -27.5t8.5 -71.5l-64 -231h254
q29 0 48.5 -20.5t19.5 -49.5t-20 -49t-48 -20h-290l-164 -611q-8 -50 -8 -78q0 -108 145 -108q41 0 68 8q34 7 54.5 -9t20.5 -48q0 -47 -51 -70q-64 -22 -143 -22q-119 0 -189.5 54t-70.5 154q0 53 14 111l166 619h-72q-26 2 -45.5 21t-19.5 48t20.5 49.5t48.5 20.5h107z
" />
    <glyph glyph-name="Tcaron" unicode="&#x164;" horiz-adv-x="1261" 
d="M817 1602l-94 170q-14 33 -14 36q0 12 11.5 20.5t29.5 8.5q33 0 54 -7t42 -32l86 -106l153 108q53 37 103 37q18 0 27.5 -8t9.5 -19q0 -17 -21 -38l-186 -173q-44 -47 -92 -47h-33q-50 0 -76 50zM907 1284l-325 -1216q-11 -37 -34.5 -57.5t-55.5 -20.5q-39 0 -59.5 27.5
t-8.5 72.5l321 1194h-395q-31 0 -53.5 21.5t-22.5 52.5t22.5 53.5t53.5 22.5h993q31 0 53.5 -22.5t22.5 -53.5t-22.5 -52.5t-53.5 -21.5h-436z" />
    <glyph glyph-name="tcaron" unicode="&#x165;" horiz-adv-x="821" 
d="M745 1245l82 240q21 61 86 61h33q37 0 37 -28q0 -19 -20 -52l-136 -231q-12 -22 -24 -30.5t-31 -8.5q-31 0 -31 25q0 4 4 24zM375 1059l67 252q19 78 88 78q37 0 55.5 -27.5t8.5 -71.5l-64 -231h254q29 0 48.5 -20.5t19.5 -49.5t-20 -49t-48 -20h-290l-164 -611
q-8 -50 -8 -78q0 -108 145 -108q41 0 68 8q34 7 54.5 -9t20.5 -48q0 -47 -51 -70q-64 -22 -143 -22q-119 0 -189.5 54t-70.5 154q0 53 14 111l166 619h-72q-26 2 -45.5 21t-19.5 48t20.5 49.5t48.5 20.5h107z" />
    <glyph glyph-name="Umacron" unicode="&#x16a;" horiz-adv-x="1552" 
d="M1587 1343l-205 -763q-73 -272 -225 -424q-179 -179 -446 -179q-250 0 -386.5 126t-136.5 333q0 108 31 223l189 707q9 37 32.5 57.5t55.5 20.5q38 0 58.5 -27.5t8.5 -73.5l-192 -727q-21 -90 -21 -161q0 -146 96 -237t279 -91q185 0 319 131q126 129 183 350l205 758
q9 37 32.5 57.5t55.5 20.5q39 0 59.5 -28t7.5 -73zM1333 1602h-542q-26 0 -46 19.5t-20 45.5t20 46t46 20h542q26 0 46 -20t20 -46t-20 -45.5t-46 -19.5z" />
    <glyph glyph-name="umacron" unicode="&#x16b;" horiz-adv-x="1255" 
d="M864 -10q-33 0 -51.5 22.5t-13.5 55.5l26 104q-81 -92 -169 -143.5t-201 -51.5q-153 0 -244.5 89t-91.5 239q0 62 26 164l138 522q22 78 88 78q38 0 55.5 -27t7.5 -71l-137 -512q-14 -61 -14 -119q0 -104 63 -162.5t172 -58.5q125 0 234.5 97t148.5 247l141 528
q22 78 88 78q39 0 57.5 -27t6.5 -71l-240 -903q-9 -37 -32.5 -57.5t-57.5 -20.5zM1092 1260h-543q-26 0 -46 19.5t-20 45.5t20 46t46 20h543q26 0 45.5 -20t19.5 -46t-19.5 -45.5t-45.5 -19.5z" />
    <glyph glyph-name="Ubreve" unicode="&#x16c;" horiz-adv-x="1552" 
d="M1587 1343l-205 -763q-73 -272 -225 -424q-179 -179 -446 -179q-250 0 -386.5 126t-136.5 333q0 108 31 223l189 707q9 37 32.5 57.5t55.5 20.5q38 0 58.5 -27.5t8.5 -73.5l-192 -727q-21 -90 -21 -161q0 -146 96 -237t279 -91q185 0 319 131q126 129 183 350l205 758
q9 37 32.5 57.5t55.5 20.5q39 0 59.5 -28t7.5 -73zM1047 1556q-107 0 -175.5 55t-68.5 148q0 38 17.5 59t45.5 21q45 0 58 -45q12 -51 43.5 -78.5t101.5 -27.5q114 0 195 110q30 41 65 41q25 0 40 -14t15 -37q0 -21 -12 -39q-48 -89 -134.5 -141t-190.5 -52z" />
    <glyph glyph-name="ubreve" unicode="&#x16d;" horiz-adv-x="1255" 
d="M864 -10q-33 0 -51.5 22.5t-13.5 55.5l26 104q-81 -92 -169 -143.5t-201 -51.5q-153 0 -244.5 89t-91.5 239q0 62 26 164l138 522q22 78 88 78q38 0 55.5 -27t7.5 -71l-137 -512q-14 -61 -14 -119q0 -104 63 -162.5t172 -58.5q125 0 234.5 97t148.5 247l141 528
q22 78 88 78q39 0 57.5 -27t6.5 -71l-240 -903q-9 -37 -32.5 -57.5t-57.5 -20.5zM803 1214q-107 0 -175.5 55t-68.5 148q0 37 18 58.5t46 21.5q44 0 57 -45q12 -51 43.5 -78.5t101.5 -27.5q114 0 195 110q30 41 65 41q25 0 40.5 -14t15.5 -37q0 -20 -13 -39
q-48 -89 -134.5 -141t-190.5 -52z" />
    <glyph glyph-name="Uring" unicode="&#x16e;" horiz-adv-x="1552" 
d="M1063 1540q-90 0 -144.5 51t-54.5 129q0 93 70.5 160.5t165.5 67.5q90 0 145 -51.5t55 -129.5q0 -93 -70.5 -160t-166.5 -67zM1067 1620q60 0 101.5 42.5t41.5 102.5q0 47 -28.5 76t-83.5 29q-60 0 -103 -44t-43 -104q0 -45 30 -73.5t85 -28.5zM1587 1343l-205 -763
q-73 -272 -225 -424q-179 -179 -446 -179q-250 0 -386.5 126t-136.5 333q0 108 31 223l189 707q9 37 32.5 57.5t55.5 20.5q38 0 58.5 -27.5t8.5 -73.5l-192 -727q-21 -90 -21 -161q0 -146 96 -237t279 -91q185 0 319 131q126 129 183 350l205 758q9 37 32.5 57.5t55.5 20.5
q39 0 59.5 -28t7.5 -73z" />
    <glyph glyph-name="uring" unicode="&#x16f;" horiz-adv-x="1255" 
d="M823 1210q-90 0 -144 51.5t-54 129.5q0 93 70 160t165 67q91 0 146 -51t55 -129q0 -93 -71 -160.5t-167 -67.5zM827 1290q60 0 102 43t42 103q0 46 -29 75t-84 29q-60 0 -102.5 -43.5t-42.5 -103.5q0 -45 29.5 -74t84.5 -29zM864 -10q-33 0 -51.5 22.5t-13.5 55.5l26 104
q-81 -92 -169 -143.5t-201 -51.5q-153 0 -244.5 89t-91.5 239q0 62 26 164l138 522q22 78 88 78q38 0 55.5 -27t7.5 -71l-137 -512q-14 -61 -14 -119q0 -104 63 -162.5t172 -58.5q125 0 234.5 97t148.5 247l141 528q22 78 88 78q39 0 57.5 -27t6.5 -71l-240 -903
q-9 -37 -32.5 -57.5t-57.5 -20.5z" />
    <glyph glyph-name="Uhungarumlaut" unicode="&#x170;" horiz-adv-x="1552" 
d="M1587 1343l-205 -763q-73 -272 -225 -424q-179 -179 -446 -179q-250 0 -386.5 126t-136.5 333q0 108 31 223l189 707q9 37 32.5 57.5t55.5 20.5q38 0 58.5 -27.5t8.5 -73.5l-192 -727q-21 -90 -21 -161q0 -146 96 -237t279 -91q185 0 319 131q126 129 183 350l205 758
q9 37 32.5 57.5t55.5 20.5q39 0 59.5 -28t7.5 -73zM1020 1847q33 0 56.5 -19.5t23.5 -43.5q0 -23 -31 -47l-186 -146q-47 -39 -92 -39q-37 0 -37 29q0 19 16 35l174 188q43 43 76 43zM1356 1847q33 0 55.5 -19.5t22.5 -43.5t-29 -47l-186 -146q-47 -39 -95 -39q-34 0 -34 29
q0 19 16 35l174 188q43 43 76 43z" />
    <glyph glyph-name="uhungarumlaut" unicode="&#x171;" horiz-adv-x="1255" 
d="M864 -10q-33 0 -51.5 22.5t-13.5 55.5l26 104q-81 -92 -169 -143.5t-201 -51.5q-153 0 -244.5 89t-91.5 239q0 62 26 164l138 522q22 78 88 78q38 0 55.5 -27t7.5 -71l-137 -512q-14 -61 -14 -119q0 -104 63 -162.5t172 -58.5q125 0 234.5 97t148.5 247l141 528
q22 78 88 78q39 0 57.5 -27t6.5 -71l-240 -903q-9 -37 -32.5 -57.5t-57.5 -20.5zM778 1505q33 0 56.5 -19.5t23.5 -43.5q0 -23 -31 -47l-186 -146q-47 -39 -92 -39q-37 0 -37 29q0 19 16 35l174 188q43 43 76 43zM1114 1505q33 0 55.5 -19.5t22.5 -43.5t-29 -47l-186 -146
q-47 -39 -94 -39q-17 0 -26 8t-9 21q0 19 16 35l174 188q43 43 76 43z" />
    <glyph glyph-name="Uogonek" unicode="&#x172;" horiz-adv-x="1552" 
d="M1587 1343l-205 -763q-73 -272 -225 -424q-179 -179 -446 -179h-6q-115 -87 -115 -149q0 -28 20.5 -43t73.5 -27q43 -9 43 -45q-3 -49 -74 -49q-98 0 -151 37.5t-53 95.5q0 92 131 191q-189 32 -290.5 151.5t-101.5 296.5q0 108 31 223l189 707q9 37 32.5 57.5t55.5 20.5
q38 0 58.5 -27.5t8.5 -73.5l-192 -727q-21 -90 -21 -161q0 -146 96 -237t279 -91q185 0 319 131q126 129 183 350l205 758q9 37 32.5 57.5t55.5 20.5q39 0 59.5 -28t7.5 -73z" />
    <glyph glyph-name="uogonek" unicode="&#x173;" horiz-adv-x="1255" 
d="M1194 971l-240 -903q-10 -40 -43 -66q-75 -57 -109 -97.5t-34 -76.5q0 -28 20 -43t74 -27q41 -8 41 -45q0 -49 -72 -49q-99 0 -152.5 37.5t-53.5 95.5q0 59 48.5 114t135.5 114q-13 16 -10 43l26 104q-81 -92 -169 -143.5t-201 -51.5q-153 0 -244.5 89t-91.5 239
q0 62 26 164l138 522q22 78 88 78q38 0 55.5 -27t7.5 -71l-137 -512q-14 -61 -14 -119q0 -104 63 -162.5t172 -58.5q125 0 234.5 97t148.5 247l141 528q22 78 88 78q39 0 57.5 -27t6.5 -71z" />
    <glyph glyph-name="Wcircumflex" unicode="&#x174;" horiz-adv-x="2217" 
d="M1516 1790l92 -172q14 -25 14 -37t-10.5 -20.5t-28.5 -8.5q-34 0 -54.5 7t-41.5 32l-86 107l-154 -107q-56 -39 -102 -39q-18 0 -28.5 8.5t-10.5 20.5q0 17 22 39l185 172q49 45 92 45h35q49 0 76 -47zM2327 1327l-801 -1272q-44 -73 -105 -73h-8q-35 0 -53.5 20.5
t-20.5 56.5l-75 1088l-662 -1092q-45 -73 -104 -73h-9q-66 0 -73 77l-117 1264q0 5 -1 20.5t-1 20.5q0 34 24.5 57t59.5 23q37 0 59 -20.5t25 -55.5l90 -1128l680 1144q35 60 90 60h6q33 0 51.5 -17.5t20.5 -48.5l72 -1138l704 1144q37 60 92 60q31 0 51.5 -19t20.5 -47
q0 -23 -16 -51z" />
    <glyph glyph-name="wcircumflex" unicode="&#x175;" horiz-adv-x="1736" 
d="M1186 1448l92 -172q14 -24 14 -37q0 -12 -10.5 -20.5t-28.5 -8.5q-34 0 -54.5 7t-41.5 32l-86 107l-153 -107q-56 -39 -103 -39q-18 0 -28.5 8.5t-10.5 20.5q0 16 23 39l184 172q49 45 92 45h35q49 0 76 -47zM276 63l-77 885q0 4 -1 19t-1 22q0 33 23.5 56.5t58.5 23.5
q34 0 55 -20.5t22 -55.5l56 -778l479 793q39 61 92 61h6q32 0 50 -18.5t20 -49.5l55 -786l490 801q29 53 77 53q32 0 49 -16.5t17 -44.5t-16 -52l-566 -907q-43 -65 -98 -65h-4q-72 0 -78 79l-57 764l-475 -778q-40 -65 -99 -65h-4q-33 0 -53 20.5t-21 58.5z" />
    <glyph glyph-name="Ycircumflex" unicode="&#x176;" horiz-adv-x="1357" 
d="M752 547l-127 -479q-11 -37 -34.5 -57.5t-55.5 -20.5q-39 0 -59.5 27.5t-8.5 72.5l129 483l-317 734q-15 34 -15 59q0 33 24 55.5t60 22.5q55 0 82 -68l279 -667l657 690q45 45 88 45q31 0 50.5 -18.5t19.5 -49.5q0 -36 -33 -69zM1079 1790l92 -172q15 -26 15 -37
q0 -12 -10.5 -20.5t-28.5 -8.5q-34 0 -54.5 7t-41.5 32l-86 107l-154 -107q-56 -39 -102 -39q-18 0 -28.5 8.5t-10.5 20.5q0 17 22 39l185 172q49 45 92 45h35q48 0 75 -47z" />
    <glyph glyph-name="ycircumflex" unicode="&#x177;" horiz-adv-x="1175" 
d="M-35 -162q74 -33 133 -33q68 0 132.5 45t140.5 152l-178 942q-7 25 -7 47q0 33 22.5 55.5t55.5 22.5t55 -21t25 -55l145 -819l547 838q33 57 84 57q32 0 51 -18t19 -47q0 -26 -19 -58l-659 -981q-111 -162 -212 -230.5t-220 -68.5q-96 0 -176 41q-47 23 -47 70
q0 30 19.5 50.5t47.5 20.5q18 0 41 -10zM874 1448l93 -172q14 -24 14 -37q0 -12 -10.5 -20.5t-28.5 -8.5q-34 0 -54.5 7t-41.5 32l-86 107l-154 -107q-56 -39 -102 -39q-18 0 -28.5 8.5t-10.5 20.5q0 17 22 39l185 172q49 45 92 45h35q48 0 75 -47z" />
    <glyph glyph-name="Ydieresis" unicode="&#x178;" horiz-adv-x="1357" 
d="M752 547l-127 -479q-11 -37 -34.5 -57.5t-55.5 -20.5q-39 0 -59.5 27.5t-8.5 72.5l129 483l-317 734q-15 34 -15 59q0 33 24 55.5t60 22.5q55 0 82 -68l279 -667l657 690q45 45 88 45q31 0 50.5 -18.5t19.5 -49.5q0 -36 -33 -69zM791 1769q40 0 64.5 -27t14.5 -63
l-14 -51q-9 -37 -37.5 -58.5t-68.5 -21.5q-42 0 -65.5 26t-14.5 64l14 52q9 37 38 58t69 21zM1153 1769q41 0 65.5 -27t14.5 -63l-14 -51q-9 -37 -38 -58.5t-69 -21.5q-42 0 -65.5 26t-14.5 64l15 52q9 37 37.5 58t68.5 21z" />
    <glyph glyph-name="Zacute" unicode="&#x179;" horiz-adv-x="1370" 
d="M1225 1739l-199 -148q-47 -39 -104 -39q-45 0 -45 31q0 16 14 33l174 188q16 16 24.5 23t22 13.5t29.5 6.5q36 0 74 -21t38 -42q0 -23 -28 -45zM27 143l1185 1145h-790q-29 0 -50.5 21.5t-21.5 50.5q0 31 21.5 52.5t50.5 21.5h979q31 0 48 -16t17 -44v-2q0 -39 -43 -82
l-1185 -1145h827q31 0 52.5 -21t21.5 -50q0 -31 -21.5 -52.5t-52.5 -21.5h-1016q-31 0 -48 15.5t-17 43.5v2q0 39 43 82z" />
    <glyph glyph-name="zacute" unicode="&#x17a;" horiz-adv-x="1124" 
d="M1014 1397l-199 -148q-47 -39 -104 -39q-45 0 -45 31q0 15 14 33l174 188q16 16 24.5 23t22 13.5t29.5 6.5q36 0 74 -21t38 -42q0 -23 -28 -45zM311 1059h752q32 0 51 -16t19 -42v-2q0 -39 -35 -67l-877 -799h615q28 0 47.5 -19.5t19.5 -45.5q0 -28 -19.5 -48t-47.5 -20
h-785q-32 0 -50.5 15.5t-18.5 41.5v2q0 38 34 68l875 799h-580q-28 0 -47.5 18.5t-19.5 46.5t19.5 48t47.5 20z" />
    <glyph glyph-name="Zdotaccent" unicode="&#x17b;" horiz-adv-x="1370" 
d="M27 143l1185 1145h-790q-29 0 -50.5 21.5t-21.5 50.5q0 31 21.5 52.5t50.5 21.5h979q31 0 48 -16t17 -44v-2q0 -39 -43 -82l-1185 -1145h827q31 0 52.5 -21t21.5 -50q0 -31 -21.5 -52.5t-52.5 -21.5h-1016q-31 0 -48 15.5t-17 43.5v2q0 39 43 82zM963 1769q40 0 64.5 -27
t14.5 -63l-14 -51q-9 -37 -37.5 -58.5t-68.5 -21.5q-42 0 -65.5 26t-14.5 64l14 52q9 37 38 58t69 21z" />
    <glyph glyph-name="zdotaccent" unicode="&#x17c;" horiz-adv-x="1124" 
d="M311 1059h752q32 0 51 -16t19 -42v-2q0 -39 -35 -67l-877 -799h615q28 0 47.5 -19.5t19.5 -45.5q0 -28 -19.5 -48t-47.5 -20h-785q-32 0 -50.5 15.5t-18.5 41.5v2q0 38 34 68l875 799h-580q-28 0 -47.5 18.5t-19.5 46.5t19.5 48t47.5 20zM754 1427q41 0 65.5 -27
t14.5 -63l-15 -51q-9 -37 -37.5 -58.5t-68.5 -21.5q-42 0 -65.5 26t-14.5 64l14 52q9 37 38 58t69 21z" />
    <glyph glyph-name="Zcaron" unicode="&#x17d;" horiz-adv-x="1370" 
d="M836 1602l-95 170q-14 33 -14 36q0 12 11.5 20.5t29.5 8.5q33 0 54 -7t42 -32l86 -106l154 108q53 37 102 37q18 0 27.5 -8t9.5 -19q0 -18 -20 -38l-187 -173q-44 -47 -92 -47h-33q-49 0 -75 50zM27 143l1185 1145h-790q-29 0 -50.5 21.5t-21.5 50.5q0 31 21.5 52.5
t50.5 21.5h979q31 0 48 -16t17 -44v-2q0 -39 -43 -82l-1185 -1145h827q31 0 52.5 -21t21.5 -50q0 -31 -21.5 -52.5t-52.5 -21.5h-1016q-31 0 -48 15.5t-17 43.5v2q0 39 43 82z" />
    <glyph glyph-name="zcaron" unicode="&#x17e;" horiz-adv-x="1124" 
d="M625 1260l-95 170q-14 33 -14 36q0 12 11.5 20.5t29.5 8.5q33 0 54 -7t42 -32l86 -106l154 108q53 37 102 37q18 0 27.5 -8t9.5 -19q0 -18 -20 -38l-187 -173q-44 -47 -92 -47h-33q-49 0 -75 50zM311 1059h752q32 0 51 -16t19 -42v-2q0 -39 -35 -67l-877 -799h615
q28 0 47.5 -19.5t19.5 -45.5q0 -28 -19.5 -48t-47.5 -20h-785q-32 0 -50.5 15.5t-18.5 41.5v2q0 38 34 68l875 799h-580q-28 0 -47.5 18.5t-19.5 46.5t19.5 48t47.5 20z" />
    <glyph glyph-name="florin" unicode="&#x192;" horiz-adv-x="1087" 
d="M88 -23q-48 0 -75 18.5t-27 51.5q0 64 88 68q71 0 122 44t97 150l201 455h-123q-27 0 -47.5 20t-20.5 47q0 29 21 49.5t49 20.5h180l111 248q132 305 385 305q64 0 118 -14q58 -16 58 -66q0 -31 -20 -51t-46 -18q-6 0 -42 7t-68 7q-154 0 -248 -213l-90 -205h229
q28 0 48 -21t20 -49t-20 -47.5t-48 -19.5h-289l-219 -498q-68 -155 -152.5 -222t-191.5 -67z" />
    <glyph glyph-name="Aringacute" unicode="&#x1fa;" horiz-adv-x="1529" 
d="M1434 2011l-199 -147q-47 -39 -105 -39q-45 0 -45 30q0 14 15 33l174 189q16 16 24.5 23t22 13.5t29.5 6.5q36 0 74 -21.5t38 -42.5q0 -23 -28 -45zM39 -10q-30 0 -49 18.5t-19 48.5q0 29 19 52l938 1292q-84 49 -84 145q0 94 69 161t164 67q91 0 148 -51.5t57 -129.5
q0 -72 -44.5 -130.5t-113.5 -80.5l242 -1269q6 -36 6 -45q0 -32 -23 -55t-59 -23q-32 0 -54 19t-28 52l-55 318h-788l-242 -334q-44 -55 -84 -55zM467 526h659l-133 734zM1051 1444q59 0 100 43t41 104q0 46 -31 74.5t-86 28.5q-59 0 -100 -43.5t-41 -104.5q0 -44 31 -73
t86 -29z" />
    <glyph glyph-name="aringacute" unicode="&#x1fb;" horiz-adv-x="1179" 
d="M424 100q136 0 257 89.5t159 226.5l20 73q-164 48 -344 48q-141 0 -229 -69.5t-88 -178.5q0 -85 61.5 -137t163.5 -52zM809 -10q-39 0 -55 23t-11 57l27 96q-164 -189 -395 -189q-140 0 -238 79t-98 214q0 176 131.5 279.5t339.5 103.5q177 0 377 -57l6 25q14 54 14 98
q0 104 -71.5 159.5t-214.5 55.5q-114 0 -244 -37q-15 -6 -33 -6q-28 0 -45.5 18.5t-17.5 46.5q0 52 53 68q148 49 311 49q198 0 307 -86.5t109 -241.5q0 -65 -23 -145l-141 -532q-9 -37 -32.5 -57.5t-55.5 -20.5zM1145 1880l-199 -147q-47 -39 -104 -39q-45 0 -45 30
q0 16 14 33l174 189q16 16 24.5 23t22 13.5t29.5 6.5q36 0 74.5 -21.5t38.5 -42.5q0 -22 -29 -45zM774 1217q-90 0 -144.5 51t-54.5 129q0 93 70.5 160t165.5 67q91 0 146 -51t55 -129q0 -93 -71 -160t-167 -67zM778 1296q60 0 102 43t42 103q0 46 -29 75t-84 29
q-60 0 -102.5 -43.5t-42.5 -103.5q0 -45 29.5 -74t84.5 -29z" />
    <glyph glyph-name="AEacute" unicode="&#x1fc;" horiz-adv-x="2181" 
d="M1835 1739l-199 -148q-47 -39 -104 -39q-45 0 -45 31q0 16 14 33l174 188q16 16 24.5 23t22 13.5t29.5 6.5q36 0 74.5 -21t38.5 -42q0 -22 -29 -45zM549 526h498l204 764h-51zM1202 1434h1004q31 0 52 -21.5t21 -52.5t-21 -52.5t-52 -21.5h-793l-131 -489h660
q30 0 51.5 -22t21.5 -52q0 -31 -21 -52.5t-52 -21.5h-699l-135 -502h764q30 0 52 -21.5t22 -51.5t-22 -52t-52 -22h-875q-38 0 -57.5 27t-7.5 67l78 285h-582l-285 -334q-25 -29 -45 -42t-45 -13q-29 0 -46 17.5t-17 45.5q0 31 26 64l1071 1249q60 68 115 68z" />
    <glyph glyph-name="aeacute" unicode="&#x1fd;" horiz-adv-x="1961" 
d="M1423 1397l-198 -148q-47 -39 -105 -39q-45 0 -45 31q0 14 15 33l174 188q17 17 24.5 23.5t21 13t29.5 6.5q36 0 74.5 -21t38.5 -42q0 -22 -29 -45zM522 537q-141 0 -232 -68t-91 -174q0 -89 62.5 -142t174.5 -53q230 0 443 226q-11 57 -11 98q0 23 4 63q-148 50 -350 50
zM1882 676q0 -75 -14 -129q-16 -72 -84 -72h-766q-4 -32 -4 -51q2 -141 88.5 -226t230.5 -85q166 0 287 98q32 16 55 16q27 0 44.5 -17.5t17.5 -45.5q0 -34 -31 -58q-160 -131 -379 -131q-149 0 -256.5 64.5t-159.5 179.5q-108 -112 -240 -177t-274 -65q-161 0 -259.5 79
t-98.5 220q0 173 134 275t343 102q191 0 371 -57l6 25q14 54 14 98q0 104 -71.5 159.5t-214.5 55.5q-125 0 -244 -37q-15 -6 -33 -6q-28 0 -45.5 18.5t-17.5 46.5q0 52 53 68q152 49 311 49q156 0 256 -58.5t131 -164.5q83 105 198.5 168t244.5 63q97 0 175.5 -32
t128.5 -87.5t76.5 -128.5t26.5 -157zM1038 594h682q9 40 9 82q0 117 -67.5 194.5t-197.5 77.5q-151 0 -266 -100.5t-160 -253.5z" />
    <glyph glyph-name="Oslashacute" unicode="&#x1fe;" horiz-adv-x="1724" 
d="M346 600q0 -129 53 -235l959 802q-136 146 -352 146q-136 0 -260.5 -61.5t-211 -161.5t-137.5 -229t-51 -261zM819 119q136 0 260.5 61.5t211 161t137.5 228.5t51 261q0 130 -58 240l-956 -803q127 -149 354 -149zM344 168l-184 -156q-41 -32 -72 -32q-24 0 -38.5 14.5
t-14.5 38.5q0 26 33 59l202 170q-90 152 -90 334q0 164 65 321t175 276t266.5 192t329.5 73q140 0 258 -49t203 -139l180 151q42 33 69 33q26 0 41 -14.5t15 -36.5q0 -31 -35 -62l-197 -165q95 -155 95 -338q0 -165 -65 -322.5t-175 -277t-266.5 -192.5t-329.5 -73
q-141 0 -260 51.5t-205 143.5zM1434 1759l-199 -147q-47 -39 -105 -39q-45 0 -45 31q0 13 15 32l174 189q16 16 24.5 23t22 13.5t29.5 6.5q36 0 74 -21.5t38 -42.5q0 -23 -28 -45z" />
    <glyph glyph-name="oslashacute" unicode="&#x1ff;" horiz-adv-x="1306" 
d="M592 113q117 0 222.5 68.5t169 182t63.5 238.5q0 89 -31 162l-664 -561q87 -90 240 -90zM258 455q0 -81 31 -158l661 559q-88 88 -237 88q-89 0 -173.5 -42t-146 -109.5t-98.5 -157t-37 -180.5zM242 104l-117 -98q-33 -26 -62 -26q-23 0 -38 14t-15 37q0 31 31 55
l127 104q-68 112 -68 261q0 122 50.5 237.5t134 201.5t199 138.5t239.5 52.5q207 0 338 -125l119 99q33 26 61 26q23 0 38 -13.5t15 -35.5q0 -27 -30 -57l-127 -105q69 -117 69 -262q0 -124 -51 -241t-136 -202.5t-200 -137.5t-237 -52q-208 0 -340 129zM1141 1397
l-199 -148q-47 -39 -104 -39q-45 0 -45 31q0 15 14 33l174 188q16 16 24.5 23t22 13.5t29.5 6.5q36 0 74 -21t38 -42q0 -23 -28 -45z" />
    <glyph glyph-name="Scommaaccent" unicode="&#x218;" horiz-adv-x="1304" 
d="M416 -317q-68 13 -68 67q0 44 29 79.5t78 35.5q41 0 63.5 -22.5t22.5 -65.5q0 -47 -23.5 -102t-60.5 -91q-39 -39 -91.5 -60.5t-101.5 -21.5q-33 0 -33 27q0 29 43 37q119 25 142 117zM621 125q156 0 259 75.5t103 192.5q0 83 -64.5 140t-230.5 122q-105 41 -174 78
t-120.5 82.5t-75 99.5t-23.5 123q0 179 148.5 297.5t379.5 118.5q266 0 453 -164q37 -30 37 -67q0 -33 -23.5 -55.5t-56.5 -22.5q-31 0 -57 20q-150 144 -367 144q-155 0 -249.5 -74.5t-94.5 -177.5q0 -84 70 -139.5t247 -124.5q193 -74 282 -160t89 -219q0 -124 -72 -223.5
t-196 -155t-275 -55.5q-338 0 -536 213q-31 31 -31 67q0 35 22 58.5t54 23.5q35 0 61 -29q89 -96 193 -142t248 -46z" />
    <glyph glyph-name="scommaaccent" unicode="&#x219;" horiz-adv-x="1015" 
d="M272 -315q-67 13 -67 67q0 44 28.5 79.5t77.5 35.5q41 0 63.5 -22.5t22.5 -65.5q0 -47 -23.5 -102t-60.5 -91q-39 -39 -91 -60.5t-101 -21.5q-33 0 -33 27q0 29 43 37q62 13 95.5 41t45.5 76zM459 109q94 0 163.5 49.5t69.5 126.5q0 54 -44 95.5t-156 84.5
q-156 61 -227.5 124t-71.5 167q0 138 110.5 231.5t290.5 93.5q92 0 186.5 -32t155.5 -76q39 -22 39 -66q0 -29 -20.5 -49t-49.5 -20q-21 0 -45 16q-145 96 -280 96q-108 0 -169 -49t-61 -119q0 -54 44 -93t167 -87q151 -62 220 -127.5t69 -163.5q0 -146 -117.5 -240
t-288.5 -94q-229 0 -411 144q-33 26 -33 63q0 29 20 50.5t48 21.5q24 0 55 -23q154 -124 336 -124z" />
    <glyph glyph-name="schwa" unicode="&#x259;" horiz-adv-x="1206" 
d="M928 465h-682q-10 -30 -10 -82q0 -117 67.5 -194.5t196.5 -77.5q152 0 267.5 101t160.5 253zM631 946q-165 0 -287 -98q-30 -17 -53 -17q-28 0 -46 18t-18 46q0 33 31 57q164 131 381 131q210 0 339.5 -124.5t129.5 -325.5q0 -121 -47 -239t-127.5 -210.5t-196.5 -149.5
t-245 -57q-193 0 -301.5 116t-108.5 290q0 57 14 129q16 72 86 72h766q0 8 1 25.5t1 25.5q-2 141 -88.5 226t-230.5 85z" />
    <glyph glyph-name="circumflex" unicode="&#x2c6;" 
d="M862 1448l92 -172q15 -26 15 -37q0 -12 -10.5 -20.5t-28.5 -8.5q-34 0 -54.5 7t-41.5 32l-86 107l-154 -107q-56 -39 -102 -39q-18 0 -28.5 8.5t-10.5 20.5q0 17 22 39l184 172q49 45 93 45h34q49 0 76 -47z" />
    <glyph glyph-name="caron" unicode="&#x2c7;" 
d="M604 1260l-94 170q-14 33 -14 36q0 12 11.5 20.5t29.5 8.5q33 0 54 -7t42 -32l86 -106l153 108q53 37 103 37q18 0 27.5 -8t9.5 -19q0 -17 -21 -38l-186 -173q-44 -47 -92 -47h-33q-50 0 -76 50z" />
    <glyph glyph-name="breve" unicode="&#x2d8;" 
d="M705 1214q-107 0 -175.5 55t-68.5 148q0 38 17.5 59t45.5 21q45 0 58 -45q12 -51 43.5 -78.5t101.5 -27.5q114 0 195 110q30 41 65 41q25 0 40 -14t15 -37q0 -21 -12 -39q-48 -89 -134.5 -141t-190.5 -52z" />
    <glyph glyph-name="dotaccent" unicode="&#x2d9;" 
d="M743 1427q41 0 65.5 -27t14.5 -63l-14 -51q-9 -37 -38 -58.5t-69 -21.5q-42 0 -65 26t-14 64l14 52q9 37 37.5 58t68.5 21z" />
    <glyph glyph-name="ring" unicode="&#x2da;" 
d="M729 1217q-90 0 -144.5 51t-54.5 129q0 93 70.5 160t165.5 67q91 0 146 -51t55 -129q0 -93 -71 -160t-167 -67zM733 1296q60 0 102 43t42 103q0 46 -29 75t-84 29q-60 0 -103 -43.5t-43 -103.5q0 -45 30 -74t85 -29z" />
    <glyph glyph-name="ogonek" unicode="&#x2db;" 
d="M403 -336q-98 0 -151 37.5t-53 95.5q0 61 50.5 117t145.5 119l99 -27q-79 -57 -116.5 -99.5t-37.5 -78.5q0 -28 20.5 -43t73.5 -27q43 -9 43 -45q-3 -49 -74 -49z" />
    <glyph glyph-name="tilde" unicode="&#x2dc;" 
d="M434 1210q-22 0 -37.5 13t-15.5 34q0 25 14 50q44 77 94.5 121.5t118.5 44.5q45 0 74.5 -15.5t71.5 -52.5q53 -46 70 -53q14 -6 30 -6q28 0 52.5 21t56.5 69q23 34 53 34q23 0 39 -13.5t16 -35.5q0 -25 -14 -47q-46 -79 -96.5 -123.5t-118.5 -44.5q-43 0 -73 16t-71 52
q-38 35 -57.5 47t-44.5 12q-29 0 -53 -20.5t-54 -67.5q-23 -35 -55 -35z" />
    <glyph glyph-name="hungarumlaut" unicode="&#x2dd;" 
d="M655 1505q33 0 56.5 -19.5t23.5 -43.5t-30 -47l-187 -146q-47 -39 -92 -39q-37 0 -37 29q0 18 17 35l174 188q15 15 24 22.5t22.5 14t28.5 6.5zM991 1505q33 0 55.5 -19.5t22.5 -43.5t-29 -47l-186 -146q-47 -39 -94 -39q-17 0 -26 8t-9 21q0 19 16 35l174 188
q43 43 76 43z" />
    <glyph glyph-name="commaaccent" unicode="&#x326;" 
d="M281 -315q-68 13 -68 67q0 44 28.5 79.5t77.5 35.5q41 0 64 -22.5t23 -65.5q0 -47 -23.5 -102t-60.5 -91q-39 -39 -91.5 -60.5t-101.5 -21.5q-33 0 -33 27q0 29 43 37q119 25 142 117z" />
    <glyph glyph-name="Wgrave" unicode="&#x1e80;" horiz-adv-x="2217" 
d="M2327 1327l-801 -1272q-44 -73 -105 -73h-8q-35 0 -53.5 20.5t-20.5 56.5l-75 1088l-662 -1092q-45 -73 -104 -73h-9q-66 0 -73 77l-117 1264q0 5 -1 20.5t-1 20.5q0 34 24.5 57t59.5 23q37 0 59 -20.5t25 -55.5l90 -1128l680 1144q35 60 90 60h6q33 0 51.5 -17.5
t20.5 -48.5l72 -1138l704 1144q37 60 92 60q31 0 51.5 -19t20.5 -47q0 -23 -16 -51zM1266 1589l-117 152q-19 27 -19 41q0 22 35 42.5t72 20.5q53 0 70 -49l71 -182q0 -1 3 -12t3 -17q0 -15 -12.5 -24t-32.5 -9q-27 0 -42.5 8t-30.5 29z" />
    <glyph glyph-name="wgrave" unicode="&#x1e81;" horiz-adv-x="1736" 
d="M276 63l-77 885q0 4 -1 19t-1 22q0 33 23.5 56.5t58.5 23.5q34 0 55 -20.5t22 -55.5l56 -778l479 793q39 61 92 61h6q32 0 50 -18.5t20 -49.5l55 -786l490 801q29 53 77 53q32 0 49 -16.5t17 -44.5t-16 -52l-566 -907q-43 -65 -98 -65h-4q-72 0 -78 79l-57 764l-475 -778
q-40 -65 -99 -65h-4q-33 0 -53 20.5t-21 58.5zM934 1247l-117 152q-18 25 -18 41q0 22 34.5 42.5t71.5 20.5q53 0 70 -49l72 -182q0 -1 3 -12t3 -17q0 -15 -12.5 -24t-32.5 -9q-27 0 -43 8t-31 29z" />
    <glyph glyph-name="Wacute" unicode="&#x1e82;" horiz-adv-x="2217" 
d="M1669 1739l-199 -148q-47 -39 -104 -39q-45 0 -45 31q0 16 14 33l174 188q16 16 24.5 23t22 13.5t29.5 6.5q36 0 74.5 -21t38.5 -42q0 -22 -29 -45zM2327 1327l-801 -1272q-44 -73 -105 -73h-8q-35 0 -53.5 20.5t-20.5 56.5l-75 1088l-662 -1092q-45 -73 -104 -73h-9
q-66 0 -73 77l-117 1264q0 5 -1 20.5t-1 20.5q0 34 24.5 57t59.5 23q37 0 59 -20.5t25 -55.5l90 -1128l680 1144q35 60 90 60h6q33 0 51.5 -17.5t20.5 -48.5l72 -1138l704 1144q37 60 92 60q31 0 51.5 -19t20.5 -47q0 -23 -16 -51z" />
    <glyph glyph-name="wacute" unicode="&#x1e83;" horiz-adv-x="1736" 
d="M1337 1397l-198 -148q-47 -39 -105 -39q-45 0 -45 31q0 14 15 33l174 188q17 17 24.5 23.5t21 13t29.5 6.5q36 0 74.5 -21t38.5 -42q0 -22 -29 -45zM276 63l-77 885q0 4 -1 19t-1 22q0 33 23.5 56.5t58.5 23.5q34 0 55 -20.5t22 -55.5l56 -778l479 793q39 61 92 61h6
q32 0 50 -18.5t20 -49.5l55 -786l490 801q29 53 77 53q32 0 49 -16.5t17 -44.5t-16 -52l-566 -907q-43 -65 -98 -65h-4q-72 0 -78 79l-57 764l-475 -778q-40 -65 -99 -65h-4q-33 0 -53 20.5t-21 58.5z" />
    <glyph glyph-name="Wdieresis" unicode="&#x1e84;" horiz-adv-x="2217" 
d="M1227 1769q41 0 65.5 -27t14.5 -63l-15 -51q-9 -37 -37.5 -58.5t-68.5 -21.5q-42 0 -65.5 26t-14.5 64l14 52q9 37 38 58t69 21zM1589 1769q41 0 65.5 -27t14.5 -63l-14 -51q-9 -37 -38 -58.5t-69 -21.5q-42 0 -65.5 26t-14.5 64l15 52q9 37 37.5 58t68.5 21zM2327 1327
l-801 -1272q-44 -73 -105 -73h-8q-35 0 -53.5 20.5t-20.5 56.5l-75 1088l-662 -1092q-45 -73 -104 -73h-9q-66 0 -73 77l-117 1264q0 5 -1 20.5t-1 20.5q0 34 24.5 57t59.5 23q37 0 59 -20.5t25 -55.5l90 -1128l680 1144q35 60 90 60h6q33 0 51.5 -17.5t20.5 -48.5l72 -1138
l704 1144q37 60 92 60q31 0 51.5 -19t20.5 -47q0 -23 -16 -51z" />
    <glyph glyph-name="wdieresis" unicode="&#x1e85;" horiz-adv-x="1736" 
d="M897 1427q41 0 65.5 -27t14.5 -63l-14 -51q-9 -37 -38 -58.5t-69 -21.5q-42 0 -65.5 26t-14.5 64l15 52q9 37 37.5 58t68.5 21zM1260 1427q40 0 64.5 -27t14.5 -63l-14 -51q-9 -37 -37.5 -58.5t-68.5 -21.5q-42 0 -65.5 26t-14.5 64l14 52q9 37 38 58t69 21zM276 63
l-77 885q0 4 -1 19t-1 22q0 33 23.5 56.5t58.5 23.5q34 0 55 -20.5t22 -55.5l56 -778l479 793q39 61 92 61h6q32 0 50 -18.5t20 -49.5l55 -786l490 801q29 53 77 53q32 0 49 -16.5t17 -44.5t-16 -52l-566 -907q-43 -65 -98 -65h-4q-72 0 -78 79l-57 764l-475 -778
q-40 -65 -99 -65h-4q-33 0 -53 20.5t-21 58.5z" />
    <glyph glyph-name="Ygrave" unicode="&#x1ef2;" horiz-adv-x="1357" 
d="M752 547l-127 -479q-11 -37 -34.5 -57.5t-55.5 -20.5q-39 0 -59.5 27.5t-8.5 72.5l129 483l-317 734q-15 34 -15 59q0 33 24 55.5t60 22.5q55 0 82 -68l279 -667l657 690q45 45 88 45q31 0 50.5 -18.5t19.5 -49.5q0 -36 -33 -69zM827 1589l-116 152q-19 27 -19 41
q0 22 35 42.5t72 20.5q52 0 69 -49l72 -182q0 -1 3 -12t3 -17q0 -15 -12.5 -24t-32.5 -9q-27 0 -43 8t-31 29z" />
    <glyph glyph-name="ygrave" unicode="&#x1ef3;" horiz-adv-x="1175" 
d="M-35 -162q74 -33 133 -33q68 0 132.5 45t140.5 152l-178 942q-7 25 -7 47q0 33 22.5 55.5t55.5 22.5t55 -21t25 -55l145 -819l547 838q33 57 84 57q32 0 51 -18t19 -47q0 -26 -19 -58l-659 -981q-111 -162 -212 -230.5t-220 -68.5q-96 0 -176 41q-47 23 -47 70
q0 30 19.5 50.5t47.5 20.5q18 0 41 -10zM627 1247l-117 152q-18 25 -18 41q0 22 34.5 42.5t71.5 20.5q53 0 70 -49l71 -182q0 -1 3 -12t3 -17q0 -15 -12.5 -24t-32.5 -9q-27 0 -42.5 8t-30.5 29z" />
    <glyph glyph-name="enspace" unicode="&#x2002;" 
 />
    <glyph glyph-name="emspace" unicode="&#x2003;" horiz-adv-x="2048" 
 />
    <glyph glyph-name="threeperemspace" unicode="&#x2004;" horiz-adv-x="681" 
 />
    <glyph glyph-name="fourperemspace" unicode="&#x2005;" horiz-adv-x="512" 
 />
    <glyph glyph-name="thinspace" unicode="&#x2009;" horiz-adv-x="272" 
 />
    <glyph glyph-name="hairspace" unicode="&#x200a;" horiz-adv-x="153" 
 />
    <glyph glyph-name="endash" unicode="&#x2013;" horiz-adv-x="1083" 
d="M227 537q-33 0 -56.5 23t-23.5 56q0 32 24 55t56 23h676q32 0 55 -23t23 -55q0 -34 -22.5 -56.5t-55.5 -22.5h-676z" />
    <glyph glyph-name="emdash" unicode="&#x2014;" horiz-adv-x="1841" 
d="M227 537q-33 0 -56.5 23t-23.5 56q0 32 24 55t56 23h1434q32 0 55 -23t23 -55q0 -34 -22.5 -56.5t-55.5 -22.5h-1434z" />
    <glyph glyph-name="quoteleft" unicode="&#x2018;" horiz-adv-x="522" 
d="M377 969q-47 0 -70 34t-10 87l16 61q32 127 113 205q69 63 164 82q24 4 36.5 -6.5t12.5 -28.5q0 -27 -35 -39q-73 -25 -113.5 -66t-50.5 -104q29 -5 46.5 -28t9.5 -60l-15 -53q-9 -38 -37 -61t-67 -23z" />
    <glyph glyph-name="quoteright" unicode="&#x2019;" horiz-adv-x="522" 
d="M479 1444q47 0 70 -34t10 -87l-16 -61q-32 -127 -113 -205q-69 -63 -164 -82q-24 -4 -36.5 6.5t-12.5 28.5q0 27 35 39q73 25 113.5 66t50.5 104q-29 5 -46.5 28t-9.5 60l15 53q9 38 37 61t67 23z" />
    <glyph glyph-name="quotesinglbase" unicode="&#x201a;" horiz-adv-x="522" 
d="M164 225q47 0 70 -34t10 -87l-17 -61q-32 -128 -112 -205q-69 -63 -164 -82q-24 -4 -36.5 6.5t-12.5 28.5q0 27 35 39q73 25 113 65.5t50 104.5q-29 5 -46 28t-9 60l14 53q9 37 37.5 60.5t67.5 23.5z" />
    <glyph glyph-name="quotedblleft" unicode="&#x201c;" horiz-adv-x="931" 
d="M377 969q-47 0 -70 34t-10 87l16 61q32 127 113 205q69 63 164 82q24 4 36.5 -6.5t12.5 -28.5q0 -27 -35 -39q-73 -25 -113.5 -66t-50.5 -104q29 -5 46.5 -28t9.5 -60l-15 -53q-9 -38 -37 -61t-67 -23zM786 969q-46 0 -69 34t-10 87l16 61q32 127 113 205q69 63 163 82
q24 4 37 -6.5t13 -28.5q0 -27 -35 -39q-73 -25 -113.5 -66t-50.5 -104q29 -5 46 -28t9 -60l-14 -53q-9 -37 -37.5 -60.5t-67.5 -23.5z" />
    <glyph glyph-name="quotedblright" unicode="&#x201d;" horiz-adv-x="931" 
d="M889 1444q47 0 70 -34t10 -87l-17 -61q-32 -128 -112 -205q-69 -63 -164 -82q-24 -4 -36.5 6.5t-12.5 28.5q0 27 35 39q73 25 113 65.5t50 104.5q-29 5 -46 28t-9 60l14 53q9 37 37.5 60.5t67.5 23.5zM479 1444q47 0 70 -34t10 -87l-16 -61q-32 -127 -113 -205
q-69 -63 -164 -82q-24 -4 -36.5 6.5t-12.5 28.5q0 27 35 39q73 25 113.5 66t50.5 104q-29 5 -46.5 28t-9.5 60l15 53q9 38 37 61t67 23z" />
    <glyph glyph-name="quotedblbase" unicode="&#x201e;" horiz-adv-x="931" 
d="M573 225q47 0 70 -34t10 -87l-16 -61q-32 -127 -113 -205q-69 -63 -164 -82q-24 -4 -36.5 6.5t-12.5 28.5q0 27 35 39q73 25 113.5 66t50.5 104q-29 5 -46 28t-9 60l14 53q9 38 37 61t67 23zM164 225q47 0 70 -34t10 -87l-17 -61q-32 -128 -112 -205q-69 -63 -164 -82
q-24 -4 -36.5 6.5t-12.5 28.5q0 27 35 39q73 25 113 65.5t50 104.5q-29 5 -46 28t-9 60l14 53q9 37 37.5 60.5t67.5 23.5z" />
    <glyph glyph-name="dagger" unicode="&#x2020;" horiz-adv-x="841" 
d="M676 1366l-74 -221l193 12q24 3 41.5 -13t17.5 -40q0 -23 -17 -38.5t-42 -14.5l-217 14l-129 -533q-13 -55 -62 -55q-26 0 -39 19.5t-6 48.5l150 520l-193 -12q-23 -3 -40 13t-17 40q0 22 17 38t40 15l213 -14l51 237q10 62 66 62q31 0 44.5 -23t2.5 -55z" />
    <glyph glyph-name="daggerdbl" unicode="&#x2021;" horiz-adv-x="870" 
d="M514 717l-106 -348l192 12q24 3 41.5 -13t17.5 -40q0 -22 -17.5 -38.5t-41.5 -15.5l-211 15l-51 -238q-13 -61 -66 -61q-31 0 -45 23t-2 55l72 221l-193 -13q-23 -3 -40 13.5t-17 40.5q0 23 17 38.5t42 14.5l213 -14l82 348l105 348l-191 -12q-24 -3 -41.5 13t-17.5 40
q0 22 17.5 38t41.5 15l213 -14l50 237q13 62 65 62q31 0 44.5 -23t2.5 -55l-72 -221l193 12q23 3 40 -13t17 -40q0 -23 -17 -38.5t-42 -14.5l-215 14z" />
    <glyph glyph-name="bullet" unicode="&#x2022;" horiz-adv-x="978" 
d="M483 442q-99 0 -160 62t-61 166q0 131 90 230t217 99q99 0 160.5 -61.5t61.5 -163.5q0 -131 -91 -231.5t-217 -100.5z" />
    <glyph glyph-name="ellipsis" unicode="&#x2026;" horiz-adv-x="1503" 
d="M236 72q-7 -38 -37 -60t-72 -22q-43 0 -67 26t-17 64l16 59q9 38 38.5 61t70.5 23t65 -27t17 -65zM727 72q-7 -38 -37 -60t-72 -22q-43 0 -66.5 26t-16.5 64l16 59q9 38 38 61t70 23q43 0 67.5 -27t16.5 -65zM1219 72q-7 -38 -37 -60t-72 -22q-43 0 -66.5 26t-15.5 64
l14 59q9 38 38.5 61t70.5 23q43 0 67.5 -27t16.5 -65z" />
    <glyph glyph-name="perthousand" unicode="&#x2030;" horiz-adv-x="2510" 
d="M475 709q-127 0 -208 85.5t-81 213.5q0 112 50.5 213.5t142 165t199.5 63.5q129 0 209.5 -85.5t80.5 -213.5q0 -112 -50.5 -213.5t-142 -165t-200.5 -63.5zM1235 -14q-128 0 -208.5 85t-80.5 214q0 111 50.5 212.5t142 165.5t200.5 64q127 0 208 -85.5t81 -213.5
q0 -112 -50.5 -213.5t-142 -165t-200.5 -63.5zM485 821q70 0 130 48.5t93 122t33 149.5q0 90 -45.5 143t-126.5 53q-105 0 -180.5 -100t-75.5 -219q0 -91 45 -144t127 -53zM1245 98q70 0 130 48.5t93 122t33 149.5q0 90 -45.5 143t-126.5 53q-105 0 -180.5 -100.5
t-75.5 -220.5q0 -89 45.5 -142t126.5 -53zM2032 -14q-128 0 -208.5 85t-80.5 214q0 111 50.5 212.5t142 165.5t200.5 64q127 0 208 -85.5t81 -213.5q0 -112 -50.5 -213.5t-142 -165t-200.5 -63.5zM2042 98q70 0 130 48.5t93 122t33 149.5q0 90 -45.5 143t-126.5 53
q-105 0 -180.5 -100.5t-75.5 -220.5q0 -89 45.5 -142t126.5 -53zM1591 1337l-1274 -1312q-35 -35 -63 -35q-24 0 -39.5 15.5t-15.5 39.5t26 53l1274 1311q31 35 62 35q25 0 40 -14t15 -39q0 -29 -25 -54z" />
    <glyph glyph-name="guilsinglleft" unicode="&#x2039;" horiz-adv-x="671" 
d="M121 557l379 367q41 41 73 41q28 0 45 -17.5t17 -46.5q0 -32 -25 -53l-346 -342l146 -311q12 -27 12 -48q0 -28 -20.5 -46.5t-49.5 -18.5q-45 0 -67 45l-168 340q-17 34 -17 47q0 22 21 43z" />
    <glyph glyph-name="guilsinglright" unicode="&#x203a;" horiz-adv-x="671" 
d="M547 496l-379 -369q-41 -41 -72 -41q-29 0 -46 18t-17 46q0 31 24 55l346 340l-145 311q-12 27 -12 47q0 29 20 48.5t49 19.5q47 0 68 -47l170 -338q16 -32 16 -47q0 -24 -22 -43z" />
    <glyph glyph-name="fraction" unicode="&#x2044;" horiz-adv-x="1110" 
d="M1300 1444l-1306 -1606q-39 -49 -76 -49q-25 0 -41 15.5t-16 41.5q0 32 26 62l1307 1605q40 50 76 50q25 0 41 -16t16 -42q0 -30 -27 -61z" />
    <glyph glyph-name="Euro" unicode="&#x20ac;" horiz-adv-x="1421" 
d="M522 963h484q26 0 45.5 -19t19.5 -45t-19.5 -44.5t-45.5 -18.5h-533q-36 -130 -41 -222h481q27 0 46.5 -19t19.5 -46q0 -26 -20 -45t-46 -19h-481q11 -165 102.5 -263.5t243.5 -98.5q103 0 185.5 38t164.5 118q24 24 60 24q30 0 51 -18t21 -47q0 -39 -33 -68
q-99 -95 -205.5 -145t-247.5 -50q-216 0 -356.5 138t-155.5 372h-121q-26 0 -44.5 19t-18.5 45q0 28 18.5 46.5t44.5 18.5h123q6 120 39 222h-70q-26 0 -44.5 18.5t-18.5 44.5t18.5 45t44.5 19h111q93 223 268.5 359t399.5 136q158 0 267 -69.5t169 -190.5q20 -33 20 -59
q0 -33 -23 -54.5t-59 -21.5q-43 0 -63 39q-48 97 -123.5 153t-206.5 56q-150 0 -273.5 -94.5t-197.5 -253.5z" />
    <glyph glyph-name="published" unicode="&#x2117;" horiz-adv-x="1699" 
d="M897 -25q-204 0 -374.5 100t-267.5 270t-97 370q0 150 58 287t157 237t237 159.5t291 59.5t290.5 -59t235.5 -158t155.5 -235.5t57.5 -286.5q0 -200 -98 -371t-269.5 -272t-375.5 -101zM897 39q189 0 344.5 92t243.5 247.5t88 340.5q0 184 -87.5 339t-242 246t-342.5 91
q-189 0 -344.5 -92t-243.5 -247.5t-88 -340.5q0 -184 87.5 -339t242 -246t342.5 -91zM647 399v656q0 24 17 40.5t41 16.5h241q135 0 215 -65t80 -181v-4q0 -122 -89.5 -188t-221.5 -66h-170v-209q0 -23 -16 -40t-39 -17t-40.5 17t-17.5 40zM760 711h174q89 0 140.5 39.5
t51.5 109.5v4q0 72 -50 109t-140 37h-176v-299z" />
    <glyph glyph-name="servicemark" unicode="&#x2120;" horiz-adv-x="1447" 
d="M1526 1436h6q23 0 33 -16.5t4 -45.5l-154 -538q-13 -41 -49 -41q-21 0 -31.5 15t-3.5 42l117 410l-260 -281q-23 -27 -49 -27q-27 0 -41 29l-109 279l-123 -426q-13 -41 -49 -41q-21 0 -31.5 15t-3.5 42l152 537q13 47 49 47h4q30 0 47 -39l129 -330l305 338q28 31 58 31
zM203 967q16 0 33 -17q82 -82 190 -82q63 0 104 31t41 78q0 34 -26.5 56.5t-98.5 51.5q-93 37 -133.5 74t-40.5 96q0 82 68.5 135.5t171.5 53.5q127 0 205 -74q18 -18 18 -37q0 -17 -12 -29t-29 -12q-20 0 -37 17q-69 59 -153 59q-62 0 -100.5 -30t-38.5 -70q0 -35 29.5 -59
t105.5 -52q85 -32 123.5 -70t38.5 -98q0 -86 -70.5 -141t-173.5 -55q-146 0 -244 98q-14 17 -14 33q0 18 12.5 30.5t30.5 12.5z" />
    <glyph glyph-name="trademark" unicode="&#x2122;" horiz-adv-x="1419" 
d="M551 1348l-145 -512q-10 -43 -50 -43q-21 0 -32.5 16t-4.5 41l140 498h-156q-18 0 -30.5 12.5t-12.5 30.5q0 17 13 30t30 13h428q17 0 30 -12t13 -29q0 -19 -13 -32t-30 -13h-180zM1497 1436h6q23 0 33 -16.5t4 -45.5l-154 -538q-10 -41 -49 -41q-21 0 -31 15t-3 42
l116 410l-260 -281q-23 -27 -49 -27t-41 29l-108 279l-123 -426q-13 -41 -50 -41q-21 0 -31 15t-3 42l151 537q13 47 49 47h4q31 0 48 -39l129 -330l305 338q28 31 57 31z" />
    <glyph glyph-name="minus" unicode="&#x2212;" horiz-adv-x="1280" 
d="M1126 645h-868q-32 0 -54 22t-22 54q0 31 22 53.5t54 22.5h868q32 0 54 -22.5t22 -53.5q0 -32 -22 -54t-54 -22z" />
    <glyph glyph-name="Q.alt" horiz-adv-x="1724" 
d="M1090 537l174 -215q99 101 155 234.5t56 274.5q0 207 -129 342.5t-340 135.5q-136 0 -260 -61t-209.5 -160t-136 -227.5t-50.5 -260.5q0 -206 129 -341.5t340 -135.5q184 0 332 104l-170 195q-33 41 -33 70q0 34 21.5 56.5t54.5 22.5q42 0 66 -34zM1339 -8l-96 117
q-202 -136 -434 -136q-182 0 -326.5 82.5t-223.5 224.5t-79 316q0 164 65 321t175 276t266.5 192t329.5 73q136 0 254 -48t200 -131t128.5 -197.5t46.5 -243.5q0 -180 -76 -348.5t-209 -292.5l92 -101q13 -14 18.5 -21.5t10 -19.5t4.5 -26q0 -31 -21.5 -52.5t-56.5 -21.5
q-42 0 -68 37z" />
    <glyph glyph-name="aring.alt" horiz-adv-x="1179" 
d="M809 -10q-39 0 -55 23t-11 57l27 96q-164 -189 -395 -189q-140 0 -238 79t-98 214q0 176 131.5 279.5t339.5 103.5q177 0 377 -57l6 25q14 54 14 98q0 104 -71.5 159.5t-214.5 55.5q-114 0 -244 -37q-15 -6 -33 -6q-28 0 -45.5 18.5t-17.5 46.5q0 52 53 68q115 39 225 47
q-33 45 -33 100q0 93 71 160.5t167 67.5q90 0 144.5 -51t54.5 -129q0 -57 -29 -104.5t-76 -76.5q99 -38 151 -113t52 -180q0 -65 -23 -145l-141 -532q-9 -37 -32.5 -57.5t-55.5 -20.5zM424 100q136 0 257 89.5t159 226.5l20 73q-164 48 -344 48q-141 0 -229 -69.5
t-88 -178.5q0 -85 61.5 -137t163.5 -52zM729 1069q60 0 102.5 44t42.5 104q0 46 -29 75t-83 29q-61 0 -103.5 -43.5t-42.5 -103.5q0 -46 29 -75.5t84 -29.5z" />
    <glyph glyph-name="aringacute.alt" horiz-adv-x="1179" 
d="M809 -10q-39 0 -55 23t-11 57l27 96q-164 -189 -395 -189q-140 0 -238 79t-98 214q0 176 131.5 279.5t339.5 103.5q177 0 377 -57l6 25q14 54 14 98q0 104 -71.5 159.5t-214.5 55.5q-114 0 -244 -37q-15 -6 -33 -6q-28 0 -45.5 18.5t-17.5 46.5q0 52 53 68q115 39 225 47
q-33 45 -33 100q0 93 71 160.5t167 67.5q90 0 144.5 -51t54.5 -129q0 -57 -29 -104.5t-76 -76.5q99 -38 151 -113t52 -180q0 -65 -23 -145l-141 -532q-9 -37 -32.5 -57.5t-55.5 -20.5zM424 100q136 0 257 89.5t159 226.5l20 73q-164 48 -344 48q-141 0 -229 -69.5
t-88 -178.5q0 -85 61.5 -137t163.5 -52zM729 1069q60 0 102.5 44t42.5 104q0 46 -29 75t-83 29q-61 0 -103.5 -43.5t-42.5 -103.5q0 -46 29 -75.5t84 -29.5zM1096 1653l-199 -148q-47 -39 -104 -39q-45 0 -45 31q0 15 14 33l174 188q16 16 24.5 23t22 13.5t29.5 6.5
q36 0 74 -21t38 -42q0 -23 -28 -45z" />
    <glyph glyph-name="three.alt" horiz-adv-x="1241" 
d="M162 291q69 -84 159 -126t220 -42q165 0 268.5 81.5t103.5 198.5q0 125 -105 187.5t-278 62.5h-8q-32 0 -51.5 20t-19.5 50q0 29 20 49.5t49 20.5h62q217 0 343 75.5t126 208.5q0 105 -83.5 168.5t-211.5 63.5q-103 0 -178.5 -28.5t-147.5 -80.5q-31 -24 -61 -24
q-31 0 -50.5 20t-19.5 49q0 36 33 62q94 71 193.5 108.5t240.5 40.5q196 2 325.5 -97.5t129.5 -262.5q0 -150 -105.5 -246.5t-296.5 -132.5q115 -37 188.5 -116.5t73.5 -197.5q0 -119 -71.5 -217.5t-198 -154.5t-281.5 -56q-314 0 -485 205q-27 35 -27 64q0 32 23 55t55 23
q38 0 66 -31z" />
    <glyph glyph-name="registered.alt" horiz-adv-x="1699" 
d="M897 -25q-204 0 -374.5 100t-267.5 270t-97 370q0 150 58 287t157 237t237 159.5t291 59.5t290.5 -59t235.5 -158t155.5 -235.5t57.5 -286.5q0 -200 -98 -371t-269.5 -272t-375.5 -101zM897 39q189 0 344.5 92t243.5 247.5t88 340.5q0 184 -87.5 339t-242 246t-342.5 91
q-189 0 -344.5 -92t-243.5 -247.5t-88 -340.5q0 -184 87.5 -339t242 -246t342.5 -91zM608 403v660q0 23 16.5 39t39.5 16h284q146 0 226 -80q59 -56 59 -147v-4q0 -87 -52 -143.5t-141 -77.5l179 -224q16 -19 16 -41q0 -23 -16.5 -38t-38.5 -15q-28 0 -47 25l-215 272h-197
v-242q0 -23 -17 -39t-40 -16t-39.5 16t-16.5 39zM721 745h217q80 0 130 36.5t50 101.5q0 63 -46 98t-128 35h-223v-271z" />
    <glyph glyph-name="hfjslug" horiz-adv-x="1421" 
d="M1319 -410h-426l-16 29h-334l-17 -29h-424v621q28 0 47 18.5t19 46.5q0 27 -19.5 46.5t-46.5 19.5v1135h205l62 161h684l59 -161h207v-1887zM819 1153v-352h31v160h78v28h-78v135h88v29h-119zM377 1153v-352h31v162h96v-162h31v352h-31v-162h-96v162h-31zM942 807
q20 -8 43 -8q64 0 64 73v281h-33v-281q0 -45 -33 -45q-13 0 -41 11v-31zM760 952l-27 6q-9 -39 -16 -61h-2l-33 64q47 44 47 86q0 28 -14 45.5t-41 17.5q-26 0 -42 -18t-16 -45q0 -9 1 -16.5t4.5 -16.5t6 -13.5t9 -16.5t8.5 -17q-47 -38 -47 -97q0 -34 16.5 -54.5
t42.5 -20.5q41 0 60 49h2l24 -49l25 12l-35 65q16 40 27 80zM1071 662v-95h16v25l17 16l31 -41h20l-41 54l37 41h-21l-40 -50h-3v50h-16zM999 598l21 -31h18l-24 35q20 8 20 29q0 13 -10 22t-25 9h-41v-95h17v31h24zM872 565q22 0 36 14.5t14 34.5q0 19 -14.5 34.5
t-35.5 15.5t-35 -15t-14 -35q0 -21 14 -35t35 -14zM758 616l-27 46h-18l37 -60v-35h16v35l37 60h-19zM395 662v-95h70v15h-53v26h47v15h-47v24h53v15h-70zM270 662v-95h17v66l51 -66h14v95h-16v-66l-51 66h-15zM494 662l28 -97h17l22 70h2l23 -70h16l29 97h-17l-20 -72h-2
l-23 72h-14l-23 -72h-2l-20 72h-16zM670 981q-25 48 -25 66q0 17 8.5 27.5t20.5 10.5q26 0 26 -38q0 -31 -30 -66zM700 866q-16 -43 -41 -43q-14 0 -23 14t-9 37q0 40 32 72zM997 612h-22v35h22q21 0 21 -16q0 -8 -6 -13.5t-15 -5.5zM872 580q-14 0 -23 10t-9 24q0 13 9 24
t23 11t23.5 -11t9.5 -24q0 -14 -9 -24t-24 -10z" />
    <glyph glyph-name="caron.alt" 
d="M612 1198l82 240q21 61 86 61h33q37 0 37 -29q0 -16 -21 -51l-135 -231q-12 -22 -24 -30.5t-31 -8.5q-31 0 -31 25q0 4 4 24z" />
    <glyph glyph-name="NUL" horiz-adv-x="0" 
 />
    </font>
</defs>
</svg>
