<?xml version="1.0" encoding="UTF-8" standalone="no"?>
<svg
   xmlns:dc="http://purl.org/dc/elements/1.1/"
   xmlns:cc="http://creativecommons.org/ns#"
   xmlns:rdf="http://www.w3.org/1999/02/22-rdf-syntax-ns#"
   xmlns:svg="http://www.w3.org/2000/svg"
   xmlns="http://www.w3.org/2000/svg"
   xmlns:sodipodi="http://sodipodi.sourceforge.net/DTD/sodipodi-0.dtd"
   xmlns:inkscape="http://www.inkscape.org/namespaces/inkscape"
   inkscape:version="1.0 (4035a4fb49, 2020-05-01)"
   sodipodi:docname="psf-event.svg"
   version="1.1"
   viewBox="0 0 688.34998 688.34998"
   height="688.34998"
   width="688.34998"
   data-name="Layer 1"
   id="a751cec9-7d0e-4c8a-a2d9-3a6c65a20454">
  <metadata
     id="metadata83">
    <rdf:RDF>
      <cc:Work
         rdf:about="">
        <dc:format>image/svg+xml</dc:format>
        <dc:type
           rdf:resource="http://purl.org/dc/dcmitype/StillImage" />
        <dc:title>newspaper</dc:title>
      </cc:Work>
    </rdf:RDF>
  </metadata>
  <defs
     id="defs81" />
  <sodipodi:namedview
     inkscape:current-layer="a751cec9-7d0e-4c8a-a2d9-3a6c65a20454"
     inkscape:window-maximized="1"
     inkscape:window-y="-8"
     inkscape:window-x="-8"
     inkscape:cy="309.06642"
     inkscape:cx="399.5"
     inkscape:zoom="0.64610354"
     showgrid="false"
     id="namedview79"
     inkscape:window-height="705"
     inkscape:window-width="1024"
     inkscape:pageshadow="2"
     inkscape:pageopacity="0"
     guidetolerance="10"
     gridtolerance="10"
     objecttolerance="10"
     borderopacity="1"
     bordercolor="#666666"
     pagecolor="#ffffff" />
  <title
     id="title2">newspaper</title>
  <g
     transform="matrix(1.1701353,0,0,1.1701353,-123.29406,25.387486)"
     id="g246">
    <g
       id="g203"
       transform="matrix(0.73625164,0,0,0.73625164,105.36747,-0.03545586)">
      <path
         transform="translate(-200.5,-116.46212)"
         id="path4"
         fill="#104f78"
         d="m 849.5,746.61987 h -485 l 0.21874,-51.42174 c 0.55348,-130.11522 104.40844,-237.32948 234.506,-239.54236 q 2.10824,-0.0359 4.22346,-0.0359 h 4e-4 a 245.33553,245.33553 0 0 1 85.75247,15.40589 c 92.054,34.28252 153.84089,121.38358 157.951,219.52807 z" />
      <rect
         id="rect6"
         fill="#2f2e41"
         height="2"
         width="799"
         y="630.15771"
         x="0" />
      <polygon
         id="polygon8"
         fill="#2f2e41"
         points="419.657,415.708 441.028,598.33 491.54,598.33 474.055,390.451 404.115,363.252 398.287,400.165 " />
      <path
         id="path10"
         fill="#2f2e41"
         transform="translate(-200.5,-116.46212)"
         d="m 509.4184,458.34384 c 0,0 -5.82836,66.05475 17.48508,67.99754 23.31344,1.94279 112.68163,-19.42787 112.68163,-19.42787 l 42.74131,151.53736 64.112,-33.02737 c 0,0 -38.85573,-170.96523 -62.16917,-180.67916 -23.31344,-9.71393 -101.02491,-29.1418 -101.02491,-29.1418 l -56.34082,9.71393 z" />
      <path
         id="path12"
         fill="#2f2e41"
         transform="translate(-200.5,-116.46212)"
         d="m 649.29905,710.90611 c 0,0 -11.65673,44.68409 -3.88558,48.56967 a 140.53483,140.53483 0 0 1 13.59951,7.77114 v -7.77114 c 0,0 9.71393,9.71393 9.71393,17.48508 0,7.77115 52.45524,9.71393 52.45524,0 0,-9.71393 -1.94278,-21.37066 -11.65672,-27.199 -9.71394,-5.82834 -21.37065,-38.85573 -21.37065,-38.85573 z" />
      <polygon
         id="polygon14"
         fill="#2f2e41"
         points="509.025,551.703 522.625,575.016 555.652,538.103 530.396,497.305 505.14,514.79 " />
      <path
         id="path16"
         fill="#2f2e41"
         transform="translate(-200.5,-116.46212)"
         d="m 736.72445,668.1648 c 0,0 7.15372,-24.46025 14.26219,-21.94406 7.10847,2.51619 34.30747,27.77242 34.30747,27.77242 l 19.42789,11.65672 c 0,0 38.85573,3.88558 27.199,15.5423 -11.65673,11.65672 -54.398,27.199 -73.82589,19.42786 -19.42789,-7.77114 -23.31344,-9.71393 -23.31344,-9.71393 l -5.82836,3.88557 -23.31344,-5.82836 3.88557,-40.79852 c 0,0 5.82835,17.48508 27.19901,0 z" />
      <circle
         id="circle18"
         fill="#9f616a"
         r="44.68409"
         cy="54.349289"
         cx="374.97314" />
      <path
         id="path20"
         fill="#9f616a"
         transform="translate(-200.5,-116.46212)"
         d="m 547.30274,197.039 c 0,0 3.88558,40.79852 -7.77114,40.79852 -11.65672,0 1.94278,50.51248 33.0274,50.51248 31.08462,0 42.74131,-60.22639 42.74131,-60.22639 0,0 -21.37066,-7.77115 -17.48508,-33.02737 3.88558,-25.25622 -50.51249,1.94276 -50.51249,1.94276 z" />
      <path
         id="path22"
         fill="#3f3d56"
         transform="translate(-200.5,-116.46212)"
         d="m 544.20687,234.72539 -16.332,6.99774 -44.32477,18.75279 a 8.99955,8.99955 0 0 0 -5.43656,9.29441 l 16.734,148.74639 c 0,0 -17.48508,36.91294 9.71394,38.85573 l 3.88552,13.59955 31.08459,-36.913 116.5672,-3.88557 1.94279,-188.45031 -53.3357,-21.07612 c 0,0 -7.25407,40.108 -60.49901,14.07839 z" />
      <path
         id="path24"
         fill="#3f3d56"
         transform="translate(-200.5,-116.46212)"
         d="m 489.99054,266.008 -7.17945,-2.05127 a 5.919,5.919 0 0 0 -7.47123,4.7594 L 456.288,388.22347 a 41.5016,41.5016 0 0 0 4.05469,25.91676 c 5.8867,11.14588 18.11259,21.25444 43.24739,9.23345 l 17.48508,-126.28113 z" />
      <path
         id="path26"
         fill="#3f3d56"
         transform="translate(-200.5,-116.46212)"
         d="m 635.69954,238.809 23.31344,3.88557 64.112,89.36819 5.82832,15.54224 36.913,-11.65672 c 0,0 -1.94279,17.48508 17.48508,15.5423 0,0 -23.31344,64.112 -71.88311,44.68409 -48.56967,-19.42791 -64.112,-77.71147 -64.112,-77.71147 z" />
      <polygon
         id="polygon28"
         fill="#cccccc"
         points="374.973,126.232 371.088,137.889 411.886,172.859 462.399,161.203 " />
      <path
         id="path30"
         fill="#2f2e41"
         transform="translate(-200.5,-116.46212)"
         d="m 548.56969,173.66 c 1.65033,-0.44064 1.89277,-2.63175 1.94808,-4.339 0.29622,-9.14249 5.80151,-18.52371 14.553,-21.18523 a 24.46655,24.46655 0 0 1 10.313,-0.5675 39.06274,39.06274 0 0 1 13.96661,4.65951 c 2.27932,1.28145 4.51509,2.82482 7.10047,3.21626 1.70747,0.25852 9.10059,2.40806 10.80081,2.71057 3.7381,0.66508 7.2121,4.00959 10.79913,2.765 3.43173,-1.19068 4.19139,-5.634 4.27434,-9.26547 0.189,-8.27324 -6.09157,-19.72372 -11.62353,-25.87838 -4.198,-4.67054 -10.519,-6.82653 -16.698,-7.9476 a 111.168,111.168 0 0 0 -21.83787,-1.32849 c -9.88858,0.17636 -20.05125,0.93961 -28.968,5.21828 -8.91675,4.27867 -16.40657,12.79425 -16.834,22.67516 -0.089,2.05828 0.1233,4.12515 -0.0498,6.17808 -0.42218,5.00809 -3.08153,9.5316 -4.329,14.40017 a 26.35017,26.35017 0 0 0 3.67977,21.05747 c 3.30926,4.87005 16.54275,9.29112 16.35142,15.176 2.39183,-2.478 -3.24866,-4.97242 -0.85683,-7.45041 a 5.89248,5.89248 0 0 0 1.75244,-7.19911 l -2.53985,-9.90672 c -0.46505,-1.814 -0.92235,-3.77752 -0.21992,-5.51327 2.72285,-6.72807 5.66607,3.25937 8.41769,2.52468 z" />
      <polygon
         id="polygon32"
         fill="#f2f2f2"
         points="334.175,281.655 477.941,332.168 561.481,262.227 613.936,104.862 528.453,167.031 371.088,137.889 " />
      <rect
         id="rect34"
         fill="#e6e6e6"
         transform="rotate(-75.21727,472.48669,361.22703)"
         height="144.66914"
         width="1.9424599"
         y="216.98683"
         x="647.35645" />
      <rect
         id="rect36"
         fill="#e6e6e6"
         transform="rotate(-75.21727,468.60111,370.94097)"
         height="144.66914"
         width="1.9424599"
         y="226.70078"
         x="643.47083" />
      <rect
         id="rect38"
         fill="#e6e6e6"
         transform="rotate(-75.21727,466.65833,380.6549)"
         height="144.66914"
         width="1.9424599"
         y="236.4147"
         x="641.52808" />
      <rect
         id="rect40"
         fill="#e6e6e6"
         transform="rotate(-75.21727,464.71554,390.36883)"
         height="144.66914"
         width="1.9424599"
         y="246.12863"
         x="639.58527" />
      <rect
         id="rect42"
         fill="#e6e6e6"
         transform="rotate(-75.21727,462.77275,400.08277)"
         height="144.66914"
         width="1.9424599"
         y="255.84258"
         x="637.64252" />
      <rect
         id="rect44"
         fill="#e6e6e6"
         transform="rotate(-75.21727,460.82997,409.7967)"
         height="144.66914"
         width="1.9424599"
         y="265.55649"
         x="635.69971" />
      <rect
         id="rect46"
         fill="#e6e6e6"
         transform="rotate(-75.21727,458.88718,419.51064)"
         height="144.66914"
         width="1.9424599"
         y="275.27042"
         x="633.7569" />
      <rect
         id="rect48"
         fill="#e6e6e6"
         transform="rotate(-75.21727,456.94439,429.22457)"
         height="144.66914"
         width="1.9424599"
         y="284.98438"
         x="631.81415" />
      <rect
         id="rect50"
         fill="#e6e6e6"
         transform="rotate(-75.21727,455.00161,438.9385)"
         height="144.66914"
         width="1.9424599"
         y="294.6983"
         x="629.87134" />
      <path
         id="path52"
         fill="#9f616a"
         transform="translate(-200.5,-116.46212)"
         d="m 512.35043,360.10426 c 0,0 43.69485,-26.09876 63.12272,-8.61368 19.42787,17.48508 -56.34081,42.7413 -56.34081,42.7413 z" />
      <path
         id="path54"
         fill="#3f3d56"
         transform="translate(-200.5,-116.46212)"
         d="m 464.73431,372.86123 56.34081,-21.37065 c 0,0 -9.71393,36.91294 9.71394,38.85573 L 503.59,423.37368 c 0,0 -54.398,0 -38.85569,-50.51245 z" />
      <polygon
         id="polygon56"
         fill="#e6e6e6"
         points="487.255,280.799 469.562,319.365 394.801,294.169 412.494,255.602 " />
      <polygon
         id="polygon58"
         fill="#cccccc"
         points="601.308,131.089 585.766,183.545 527.482,226.286 544.967,173.831 " />
      <rect
         id="rect60"
         fill="#e6e6e6"
         transform="rotate(-37.18317,473.07418,580.60582)"
         height="1.9432"
         width="70.718498"
         y="339.83365"
         x="711.0791" />
      <rect
         id="rect62"
         fill="#e6e6e6"
         transform="rotate(-37.18317,469.1886,601.97648)"
         height="1.9432"
         width="70.718498"
         y="361.20432"
         x="707.19354" />
      <path
         id="path64"
         fill="#9f616a"
         transform="translate(-200.5,-116.46212)"
         d="m 777.523,353.43336 c 0,0 48.56966,-29.1418 17.48508,-40.79852 -31.08458,-11.65672 -31.08459,33.02738 -31.08459,33.02738 0,0 -1.94282,9.71393 13.59951,7.77114 z" />
      <polygon
         id="polygon66"
         opacity="0.1"
         points="290.462,247.657 320.575,239.063 296.29,239.885 292.405,171.888 " />
      <path
         id="path68"
         fill="#8985a8"
         transform="translate(-200.5,-116.46212)"
         d="m 280.90863,712.35433 c 6.07317,22.45006 26.87512,36.35395 26.87512,36.35395 0,0 10.95541,-22.49485 4.88225,-44.94491 -6.07316,-22.45006 -26.87512,-36.354 -26.87512,-36.354 0,0 -10.95541,22.4949 -4.88225,44.94496 z" />
      <path
         id="path70"
         fill="#3f3d56"
         transform="translate(-200.5,-116.46212)"
         d="m 289.83272,707.52957 c 16.66484,16.22256 18.70033,41.1604 18.70033,41.1604 0,0 -24.98356,-1.36411 -41.64841,-17.58667 -16.66485,-16.22256 -18.70033,-41.1604 -18.70033,-41.1604 0,0 24.98356,1.3641 41.64841,17.58667 z" />
      <rect
         id="rect72"
         fill="#f2f2f2"
         height="30"
         width="30"
         y="379.15775"
         x="626" />
      <rect
         id="rect74"
         fill="#f2f2f2"
         height="30"
         width="30"
         y="39.157742"
         x="506" />
      <circle
         id="circle76"
         fill="#f2f2f2"
         r="15"
         cy="328.15775"
         cx="159" />
    </g>
    <text
       xml:space="preserve"
       style="font-style:normal;font-variant:normal;font-weight:normal;font-stretch:normal;font-size:63.5071px;line-height:1.25;font-family:'Gotham Rounded';-inkscape-font-specification:'Gotham Rounded';text-align:center;letter-spacing:0.365166px;word-spacing:0px;text-anchor:middle;fill:#8985a8;fill-opacity:1;stroke-width:1.58768"
       x="415.08591"
       y="464.79321"
       id="text87"><tspan
         sodipodi:role="line"
         id="tspan85"
         x="415.08591"
         y="464.79321"
         style="fill:#8985a8;fill-opacity:1;stroke-width:1.58768">P.S.F-EVENT</tspan><tspan
         sodipodi:role="line"
         x="415.26849"
         y="544.17706"
         id="tspan89"
         style="fill:#8985a8;fill-opacity:1;stroke-width:1.58768">EDO 3</tspan></text>
  </g>
</svg>
